<?xml version="1.0" encoding="UTF-8" standalone="no"?>
<svg
   width="200"
   height="70"
   viewBox="0 0 200 70"
   fill="none"
   version="1.1"
   id="svg180"
   sodipodi:docname="amouretmoi.svg"
   inkscape:version="1.2.2 (b0a84865, 2022-12-01)"
   xmlns:inkscape="http://www.inkscape.org/namespaces/inkscape"
   xmlns:sodipodi="http://sodipodi.sourceforge.net/DTD/sodipodi-0.dtd"
   xmlns="http://www.w3.org/2000/svg"
   xmlns:svg="http://www.w3.org/2000/svg">
  <sodipodi:namedview
     id="namedview182"
     pagecolor="#ffffff"
     bordercolor="#000000"
     borderopacity="0.25"
     inkscape:showpageshadow="2"
     inkscape:pageopacity="0.0"
     inkscape:pagecheckerboard="0"
     inkscape:deskcolor="#d1d1d1"
     showgrid="false"
     inkscape:zoom="2"
     inkscape:cx="56.5"
     inkscape:cy="20.75"
     inkscape:window-width="1463"
     inkscape:window-height="1205"
     inkscape:window-x="0"
     inkscape:window-y="25"
     inkscape:window-maximized="0"
     inkscape:current-layer="svg180" />
  <rect
     style="fill:#f9f9f9"
     id="rect305"
     width="200"
     height="69.5"
     x="0.5"
     y="0.5" />
  <path
     fill-rule="evenodd"
     clip-rule="evenodd"
     d="m 162.23659,25.166669 c -0.10888,0 -0.54439,0.107789 -1.30544,0.216666 l -0.43443,0.108878 v 7.937185 h -4.56633 V 20.817004 h 4.56633 v 1.0866 c 1.52211,-0.761056 2.71759,-1.195478 3.80528,-1.413233 v 4.457453 c -0.5433,0 -1.19548,0.217756 -2.06541,0.217756 z m -13.59121,7.71943 c -0.76105,0.325544 -1.30435,0.651088 -1.73986,0.759966 -0.43442,0.108878 -0.86885,0.217756 -1.30436,0.217756 -1.63098,0 -2.82646,-0.544389 -3.47864,-1.522111 -0.65327,-0.978811 -0.97881,-2.609799 -0.97881,-4.784087 v -6.740619 h 4.56633 v 6.740619 c 0,0.653267 0,1.195478 0.10888,1.522111 0,0.326633 0.21775,0.544388 0.32554,0.653266 0.21776,0.108878 0.54439,0.216667 0.97881,0.216667 0.32664,0 0.86994,0 1.63099,-0.108878 v -9.023785 h 4.56633 v 12.720183 h -4.45745 V 32.88501 h -0.21776 z m -12.61239,0 c -0.97772,0.542211 -2.06541,0.868844 -3.36977,0.868844 -1.30435,0 -2.39204,-0.326633 -3.26197,-0.869933 -0.97881,-0.544389 -1.63099,-1.413233 -2.17429,-2.392044 -0.5433,-0.977721 -0.76105,-2.174288 -0.76105,-3.478643 0,-1.304355 0.21775,-2.392043 0.76105,-3.370854 0.5433,-0.97881 1.19548,-1.739865 2.17429,-2.283165 a 6.7482408,6.7482408 0 0 1 3.37085,-0.869933 c 1.30436,0 2.39205,0.326633 3.36977,0.871022 0.97881,0.542211 1.63099,1.303266 2.17537,2.282076 0.5433,0.978811 0.76106,2.174288 0.76106,3.370854 0,1.304355 -0.21776,2.500922 -0.76106,3.478643 a 5.4144888,5.4144888 0 0 1 -2.28425,2.392044 z m -2.06541,-8.046063 c -0.32554,-0.544389 -0.76106,-0.762144 -1.19548,-0.762144 -0.43551,0 -0.86993,0.217755 -1.19656,0.762144 -0.32555,0.543299 -0.43443,1.195477 -0.43443,2.174287 0,0.978811 0.21776,1.739866 0.5433,2.283166 0.32664,0.544389 0.76106,0.761055 1.19657,0.761055 0.43442,0 0.86884,-0.217755 1.19548,-0.762144 0.32663,-0.542211 0.5433,-1.303266 0.5433,-2.282077 -0.21667,-0.97881 -0.32555,-1.630988 -0.65218,-2.174287 z m -14.13451,1.738777 c 0,-0.761056 -0.10887,-1.304355 -0.32663,-1.630989 -0.21666,-0.434422 -0.5433,-0.543299 -1.0866,-0.543299 h -0.32663 c -0.21776,0 -0.43442,0 -0.86885,0.108877 h -0.32663 v 8.915996 h -4.56524 v -6.523952 c 0,-0.653267 0,-1.195478 -0.10888,-1.522111 -0.10888,-0.326633 -0.21775,-0.653266 -0.43551,-0.762144 -0.21667,-0.107789 -0.5433,-0.216666 -0.97772,-0.216666 -0.32663,0 -0.65327,0 -1.08769,0.108877 h -0.21776 v 8.915996 h -4.56524 V 20.817004 h 4.56633 v 0.544389 l 1.52211,-0.762144 c 0.32664,-0.108878 0.76106,-0.217756 1.19548,-0.217756 0.54439,0 1.08769,0.108878 1.63099,0.326633 0.54439,0.217756 1.08769,0.435511 1.41323,0.869933 0.87102,-0.435511 1.63099,-0.762144 2.28317,-0.871022 0.65326,-0.107788 1.30544,-0.216666 1.95762,-0.216666 1.63099,0 2.82646,0.544388 3.58752,1.52211 0.76106,0.978811 1.08769,2.500921 1.08769,4.566332 v 6.958374 h -4.56742 v -6.957286 h 0.21775 z M 98.41465,31.254022 H 93.30502 L 92.978387,33.42831 H 88.1943 l 3.370854,-17.06876 h 8.480486 l 3.37085,17.069848 H 98.74128 Z M 96.34924,20.055949 h -1.19765 l -1.195482,7.283919 h 3.587522 l -1.19548,-7.283919 z"
     fill="#022d25"
     id="path132"
     style="stroke-width:1.08878" />
  <path
     opacity="0.2"
     d="m 88.1943,55.5 c -5.652931,0 -12.285762,-6.631742 -17.286515,-13.264572 -0.653266,0.326633 -1.414321,0.653266 -2.066499,0.978811 4.240787,5.761808 5.871775,8.263818 5.219598,11.198073 -0.326634,1.630988 -3.261977,1.305443 -3.261977,-1.0866 0,-4.023032 -2.283165,-7.067252 -3.805276,-9.24154 -1.630988,0.761055 -3.153098,1.52211 -4.784087,2.283165 -1.739866,0.869933 -3.58752,1.739866 -5.436264,2.60871 -7.392797,3.58861 -14.134505,4.240787 -19.026381,2.066499 -3.045309,-1.413232 -5.328475,-3.479731 -6.08953,-6.306197 -0.761055,-2.500921 0.108878,-5.436264 1.957621,-7.501674 1.304355,-1.522111 3.153099,-2.500922 5.109631,-2.936432 -3.914154,-2.826466 -6.413986,-6.848409 -6.849497,-11.089196 -0.326633,-3.588609 0.869933,-6.741708 3.479732,-8.807118 2.499832,-2.06541 5.218509,-2.826465 8.046063,-2.283166 4.564154,0.869933 9.022696,5.001843 13.48015,12.394639 5.109631,8.481574 8.371608,13.591206 10.763651,17.178726 0.652177,-0.326633 1.413233,-0.653266 2.06541,-0.97881 C 69.057953,39.734507 66.774787,35.059298 64.273866,29.623034 62.534,25.817757 58.837602,12.553185 59.38199,13.85754 c 3.260888,8.154941 5.218509,14.678894 12.176884,25.876967 3.58752,-1.847655 6.957286,-3.805276 10.220351,-5.979564 5.761809,-3.914154 11.089195,-5.65402 14.894475,-4.784087 1.95762,0.435511 3.47973,1.52211 4.45854,3.153099 1.41323,2.283165 1.30435,5.001842 -0.21776,7.501674 -1.73986,2.936432 -5.11072,4.892965 -8.915993,5.436264 1.630988,1.739866 2.500923,3.914154 2.283163,5.762898 -0.21775,2.06541 -1.522108,3.587521 -3.696396,4.457454 C 89.715321,55.391122 88.954266,55.5 88.193211,55.5 Z M 72.75544,41.256617 c 2.500921,3.370854 5.219597,5.545142 7.828308,7.71943 10.438106,8.590452 14.786682,-1.738777 9.568173,-3.914154 0.761055,0.326634 -2.718676,-0.652177 -0.871022,-1.086599 0.326634,-0.108878 0.653267,0 0.9799,0 7.501671,-0.544389 9.784841,-4.566331 9.567081,-8.046063 -0.21775,-3.696399 -7.610549,-6.631742 -16.852089,-0.5433 -3.370854,2.06541 -6.631742,4.131909 -10.220351,5.870686 z M 40.355609,35.929231 c -3.478643,0 -8.263818,1.739866 -7.610552,7.610552 0.544389,5.65402 10.872529,13.482327 33.052008,-1.0866 -2.392043,-3.588609 -5.218509,-9.023785 -10.654773,-16.96097 -0.761055,-1.087688 -1.413233,-1.957621 -2.174288,-2.827554 -2.392043,-2.717588 -4.892965,-4.348576 -7.175041,-5.327387 -5.655109,-2.174288 -11.30804,-0.217755 -10.330318,7.937186 0.435511,3.04422 2.284254,6.523952 7.17613,8.914907 0.435511,0.217755 0.653266,0.762144 0.544389,1.196566 -0.108878,0.435511 -0.653267,0.761055 -1.196566,0.653266 -0.326634,0.107789 -1.196566,-0.108877 -1.630989,-0.108877 z"
     fill="#000000"
     id="path134"
     style="stroke-width:1.08878" />
  <path
     d="m 84.932323,55.5 c -5.65293,0 -12.285761,-6.631742 -17.286514,-13.264572 -0.653267,0.326633 -1.413233,0.653266 -2.066499,0.978811 4.240787,5.761808 5.871775,8.263818 5.219597,11.198073 -0.326633,1.630988 -3.261976,1.305443 -3.261976,-1.0866 0,-4.023032 -2.283166,-7.067252 -3.805276,-9.24154 -1.630988,0.761055 -3.153099,1.52211 -4.784087,2.283165 -1.739866,0.869933 -3.587521,1.739866 -5.436264,2.60871 -7.392797,3.58861 -14.134505,4.240787 -19.026381,2.066499 -3.044221,-1.413232 -5.327387,-3.479731 -6.089531,-6.306197 -0.761055,-2.500921 0.108878,-5.436264 1.957622,-7.501674 1.304355,-1.522111 3.153098,-2.500922 5.109631,-2.936432 -3.914154,-2.826466 -6.413986,-6.848409 -6.848408,-11.089196 -0.326633,-3.588609 0.868844,-6.741708 3.478643,-8.807118 2.499832,-2.06541 5.218509,-2.826465 8.046063,-2.283166 4.564154,0.869933 9.022696,5.001843 13.48015,12.394639 5.109631,8.481574 8.372696,13.591206 10.763651,17.178726 0.653266,-0.326633 1.413232,-0.653266 2.06541,-0.97881 -0.652178,-0.978811 -2.935343,-5.65402 -5.436264,-11.090284 -1.738778,-3.805277 -5.436265,-17.069849 -4.891876,-15.765494 3.260887,8.154941 5.218509,14.678894 12.176883,25.876967 3.587521,-1.847655 6.958375,-3.805276 10.220352,-5.979564 5.761808,-3.914154 11.089195,-5.65402 14.894471,-4.784087 1.95762,0.435511 3.47973,1.52211 4.45854,3.153099 1.41324,2.283165 1.30436,5.001842 -0.21775,7.501674 -1.73987,2.936432 -5.109634,4.892965 -8.91491,5.436264 1.629899,1.739866 2.499832,3.914154 2.283165,5.762898 -0.217755,2.06541 -1.52211,3.587521 -3.697487,4.457454 C 86.453345,55.391122 85.69229,55.5 84.931235,55.5 Z M 69.493464,41.256617 c 2.500921,3.370854 5.219597,5.545142 7.828307,7.71943 10.438107,8.590452 14.786683,-1.738777 9.568174,-3.914154 0.761055,0.326634 -2.717588,-0.652177 -0.869933,-1.086599 0.326633,-0.108878 0.653266,0 0.97881,0 7.501678,-0.544389 9.784838,-4.566331 9.567088,-8.046063 -0.21776,-3.696399 -7.610555,-6.631742 -16.852095,-0.5433 -3.369766,2.06541 -6.631742,4.131909 -10.220351,5.870686 z M 37.093633,35.929231 c -3.478643,0 -8.26273,1.739866 -7.610552,7.610552 0.544388,5.65402 10.872528,13.482327 33.052008,-1.0866 -2.392044,-3.588609 -5.218509,-9.023785 -10.654773,-16.96097 -0.761056,-1.087688 -1.413233,-1.957621 -2.174288,-2.827554 -2.392044,-2.717588 -4.892965,-4.348576 -7.175042,-5.327387 -5.65402,-2.174288 -11.308039,-0.217755 -10.329229,7.937186 0.435511,3.04422 2.283166,6.523952 7.175042,8.914907 0.435511,0.217755 0.653266,0.762144 0.544388,1.196566 -0.108877,0.435511 -0.653266,0.761055 -1.196566,0.653266 -0.326633,0.107789 -1.195477,-0.108877 -1.630988,-0.108877 z"
     fill="url(#a)"
     id="path136"
     style="fill:url(#a);stroke-width:1.08878" />
  <path
     d="m 71.451085,32.015077 c 1.52211,-0.5433 3.153098,-1.413233 4.348576,-2.826466 1.305444,-1.52211 1.087688,-3.04422 0.326633,-3.696398 -0.653266,-0.544389 -1.630988,-0.762144 -2.718677,-0.108878 -0.108877,-1.087688 -0.652177,-1.848743 -1.304355,-2.174288 -0.869933,-0.435511 -1.848743,-0.435511 -2.609798,0.217756 -0.5433,0.5433 -1.738778,2.174288 0,6.413986 0.326633,0.869933 0.653266,1.739866 0.544388,1.630988 0.217756,0.326633 0.652178,0.761055 1.413233,0.544389 z"
     fill="url(#b)"
     id="path138"
     style="fill:url(#b);stroke-width:1.08878" />
  <path
     fill-rule="evenodd"
     clip-rule="evenodd"
     d="m 88.738688,35.929231 c 0.326634,0 0.5433,0.217755 0.5433,0.544388 0,0.326633 -0.217755,0.5433 -0.544388,0.5433 -0.325545,0 -0.5433,-0.217755 -0.5433,-0.544388 0,-0.217756 0.217755,-0.5433 0.544388,-0.5433 z"
     fill="#ead400"
     id="path142"
     style="stroke-width:1.08878" />
  <path
     opacity="0.4"
     fill-rule="evenodd"
     clip-rule="evenodd"
     d="m 35.462645,22.882414 c 0.326633,0 0.544389,0.217756 0.544389,0.544389 0,0.325544 -0.217756,0.5433 -0.544389,0.5433 -0.326633,0 -0.5433,-0.217756 -0.5433,-0.544389 0,-0.217755 0.217756,-0.5433 0.544389,-0.5433 z"
     fill="#ffffff"
     id="path146"
     style="stroke-width:1.08878" />
  <path
     fill-rule="evenodd"
     clip-rule="evenodd"
     d="m 84.389024,25.057791 c 0.326633,0 0.544388,0.216667 0.544388,0.5433 0,0.326633 -0.217755,0.5433 -0.544388,0.5433 -0.326633,0 -0.544389,-0.217756 -0.544389,-0.544389 0,-0.217755 0.217756,-0.5433 0.544389,-0.5433 z"
     fill="#ead400"
     id="path150"
     style="stroke-width:1.08878" />
  <path
     fill-rule="evenodd"
     clip-rule="evenodd"
     d="m 34.376045,14.184174 c 0.326634,0 0.544389,0.217755 0.544389,0.544388 0,0.326633 -0.217755,0.5433 -0.544389,0.5433 -0.326633,0 -0.544388,-0.217755 -0.544388,-0.544389 0,-0.217755 0.217755,-0.543299 0.544388,-0.543299 z"
     fill="#faed64"
     id="path152"
     style="stroke-width:1.08878" />
  <path
     opacity="0.5"
     fill-rule="evenodd"
     clip-rule="evenodd"
     d="m 47.422862,25.057791 c 0.326633,0 0.544389,0.216667 0.544389,0.5433 0,0.326633 -0.217756,0.5433 -0.544389,0.5433 -0.326633,0 -0.544389,-0.217756 -0.544389,-0.544389 0,-0.217755 0.217756,-0.5433 0.544389,-0.5433 z"
     fill="#ea9f00"
     id="path154"
     style="stroke-width:1.08878" />
  <path
     opacity="0.5"
     fill-rule="evenodd"
     clip-rule="evenodd"
     d="m 23.503517,29.406367 c 0.326633,0 0.544388,0.217755 0.544388,0.5433 0,0.326633 -0.217755,0.544388 -0.544388,0.544388 -0.326633,0 -0.544389,-0.217755 -0.544389,-0.544388 0,-0.217756 0.217756,-0.544389 0.544389,-0.544389 z"
     fill="#ead400"
     id="path156"
     style="stroke-width:1.08878" />
  <path
     opacity="0.8"
     fill-rule="evenodd"
     clip-rule="evenodd"
     d="m 42.856531,20.381493 c 0.43551,0 0.652177,0.326633 0.652177,0.653266 0,0.434422 -0.326633,0.652178 -0.653266,0.652178 -0.325545,0 -0.651089,-0.326633 -0.651089,-0.653266 -0.108878,-0.434422 0.217755,-0.652178 0.652178,-0.652178 z"
     fill="#ead400"
     id="path158"
     style="stroke-width:1.08878" />
  <path
     fill-rule="evenodd"
     clip-rule="evenodd"
     d="M 155.27821,54.086767 V 36.255864 h 4.67521 V 54.086767 Z M 144.94899,54.4134 c -2.71868,0 -4.56634,-0.762144 -5.7629,-2.175376 -1.19548,-1.413233 -1.73878,-3.805276 -1.73878,-6.957286 0,-3.263065 0.5433,-5.546231 1.73878,-7.068342 1.19656,-1.52211 3.1531,-2.283165 5.7629,-2.283165 2.71758,0 4.67521,0.762144 5.76289,2.283165 1.19548,1.522111 1.73878,3.805277 1.73878,7.067253 0,3.044221 -0.5433,5.327386 -1.73878,6.849497 -0.97881,1.52211 -2.93643,2.283166 -5.76289,2.283166 z m 2.17428,-13.156783 c -0.43442,-0.761055 -1.0866,-1.195477 -2.17428,-1.195477 -0.97881,0 -1.73987,0.435511 -2.06541,1.195477 -0.43551,0.762144 -0.65327,2.175377 -0.65327,4.023032 0,1.630988 0.21776,2.935343 0.54439,3.805276 0.32554,0.871022 1.0866,1.305444 2.17429,1.305444 0.65217,0 1.19547,-0.217756 1.63098,-0.544389 0.43443,-0.326633 0.65218,-0.869933 0.86994,-1.630988 0.21666,-0.761055 0.21666,-1.738777 0.21666,-2.935343 0.10888,-1.847655 -0.10778,-3.261976 -0.5433,-4.023032 z m -17.06984,0.435511 h -0.32555 l -2.39204,11.524706 h -4.56633 l -2.50092,-11.524706 h -0.21776 v 12.394639 h -4.67521 V 36.255864 h 7.82831 l 1.84874,10.545895 1.84766,-10.545895 h 7.82831 v 17.830903 h -4.67521 z"
     fill="#ea7400"
     id="path160"
     style="stroke-width:1.08878" />
  <path
     fill-rule="evenodd"
     clip-rule="evenodd"
     d="m 111.24371,39.082329 v 4.023032 c 0,0.544389 0,0.869933 0.10888,1.087688 0.10888,0.217756 0.21776,0.326633 0.43551,0.434422 0.21776,0.108878 0.54439,0.108878 1.0866,0.108878 h 0.32663 l -0.10887,1.0866 h -1.19548 c -0.65327,0 -1.08769,-0.217756 -1.41432,-0.5433 -0.32664,-0.326633 -0.43443,-0.761055 -0.43443,-1.304355 v -4.894053 h -1.30435 l 0.10888,-1.0866 h 1.0866 v -1.848744 l 1.30435,-0.108877 v 1.957621 h 1.95762 v 1.0866 h -1.95653 z m -8.58827,2.718677 c 0.10888,0.977722 0.32663,1.630988 0.86993,2.06541 0.43442,0.435511 1.0866,0.653266 1.84766,0.653266 0.76214,0 1.41323,-0.108877 2.06541,-0.43551 l 0.21775,1.086599 c -0.86993,0.435511 -1.63099,0.544389 -2.50092,0.544389 -0.86884,0 -1.52211,-0.217756 -2.17429,-0.544389 -0.54439,-0.326633 -1.0866,-0.869933 -1.30435,-1.413233 -0.32664,-0.652177 -0.43551,-1.304355 -0.43551,-2.06541 0,-0.762144 0.10887,-1.413233 0.43551,-1.957621 0.32663,-0.5433 0.65217,-1.0866 1.19547,-1.413233 0.54439,-0.326633 1.19657,-0.544388 1.95763,-0.544388 0.97772,0 1.73877,0.326633 2.28316,0.871021 0.54439,0.5433 0.86993,1.304355 0.86993,2.392044 0,0.217755 0,0.543299 -0.10887,0.761055 z m 3.47864,-2.283166 c -0.32663,-0.326633 -0.76105,-0.435511 -1.30435,-0.435511 -0.54439,0 -0.97881,0.108878 -1.30436,0.435511 -0.32663,0.326633 -0.54439,0.761055 -0.65327,1.304355 h 3.80528 c -0.10888,-0.544388 -0.21775,-0.97881 -0.5433,-1.304355 z"
     fill="#ead400"
     id="path162"
     style="stroke-width:1.08878" />
  <defs
     id="defs178">
    <linearGradient
       id="a"
       x1="16.082001"
       y1="6.7490001"
       x2="71.960999"
       y2="39.011002"
       gradientUnits="userSpaceOnUse"
       gradientTransform="matrix(1.0887771,0,0,1.0887771,10.999999,11.948913)">
      <stop
         stop-color="#A55E19"
         id="stop164" />
      <stop
         offset=".3"
         stop-color="#EA7400"
         id="stop166" />
      <stop
         offset=".6"
         stop-color="#FFF266"
         id="stop168" />
      <stop
         offset="1"
         stop-color="#EA7400"
         id="stop170" />
    </linearGradient>
    <linearGradient
       id="b"
       x1="52.351002"
       y1="12.533"
       x2="59.200001"
       y2="16.486"
       gradientUnits="userSpaceOnUse"
       gradientTransform="matrix(1.0887771,0,0,1.0887771,10.999999,11.948913)">
      <stop
         stop-color="#E67C0D"
         id="stop173" />
      <stop
         offset=".85"
         stop-color="#FFF066"
         id="stop175" />
    </linearGradient>
  </defs>
</svg>
