<?xml version="1.0" encoding="UTF-8" standalone="no"?>
<svg
   width="400"
   height="140"
   viewBox="0 0 400 140"
   version="1.1"
   id="svg1275"
   sodipodi:docname="be2.svg"
   inkscape:version="1.2.2 (b0a84865, 2022-12-01)"
   xmlns:inkscape="http://www.inkscape.org/namespaces/inkscape"
   xmlns:sodipodi="http://sodipodi.sourceforge.net/DTD/sodipodi-0.dtd"
   xmlns="http://www.w3.org/2000/svg"
   xmlns:svg="http://www.w3.org/2000/svg"
   xmlns:rdf="http://www.w3.org/1999/02/22-rdf-syntax-ns#"
   xmlns:cc="http://creativecommons.org/ns#"
   xmlns:dc="http://purl.org/dc/elements/1.1/">
  <defs
     id="defs1279" />
  <sodipodi:namedview
     id="namedview1277"
     pagecolor="#ffffff"
     bordercolor="#666666"
     borderopacity="1.0"
     inkscape:pageshadow="2"
     inkscape:pageopacity="0.0"
     inkscape:pagecheckerboard="0"
     showgrid="false"
     inkscape:zoom="1"
     inkscape:cx="268"
     inkscape:cy="239"
     inkscape:window-width="1310"
     inkscape:window-height="1046"
     inkscape:window-x="0"
     inkscape:window-y="25"
     inkscape:window-maximized="0"
     inkscape:current-layer="svg1275"
     inkscape:showpageshadow="2"
     inkscape:deskcolor="#d1d1d1" />
  <title
     id="title1263">img/logo_claim_vertical_pos_80x67</title>
  <desc
     id="desc1265">Created with Sketch.</desc>
  <g
     fill="none"
     id="g1273"
     transform="matrix(2.261196,0,0,2.261196,114.00126,15)">
    <path
       d="m 4.631,31.768 v 9.892 c 1.799,2.024 4.317,3.507 7.06,3.507 3.642,0 5.486,-3.148 5.486,-8.454 0,-5.351 -1.844,-8.786 -5.486,-8.786 -2.743,0 -5.261,1.817 -7.06,3.84 z M 0,13.988 h 4.631 v 13.823 c 1.889,-1.663 4.541,-3.705 8.184,-3.705 5.126,0 9.083,4.02 9.083,12.609 0,8.543 -3.957,12.275 -9.083,12.275 -3.643,0 -6.295,-1.709 -8.184,-3.372 L 4.343,48.415 H -0.001 V 13.989 Z m 55.948,29.293 c 0,-5.345 3.27,-7.923 8.426,-11.318 7.168,-4.779 15.028,-9.055 15.028,-17.418 0,-6.791 -5.282,-11.318 -13.645,-11.318 -4.236,0 -7.848,1.165 -10.692,2.548 l -0.805,5.762 c 2.318,-1.507 6.557,-3.656 11.12,-3.656 5.408,0 8.551,2.893 8.551,6.791 0,4.779 -4.716,7.922 -10.123,11.57 -7.105,4.779 -13.959,8.991 -13.959,18.235 v 3.459 H 79.465 V 43.283 H 55.948 Z"
       fill="#333c4e"
       id="path1267"
       sodipodi:nodetypes="ccssscccccssscccccscssccsscsccccs" />
    <path
       d="m 41.1,0 c -8.363,0 -13.645,4.984 -13.645,12.461 0,3.837 1.694,7.77 3.805,10.409 1.307,-0.527 2.76,-0.801 4.331,-0.801 1.028,0 1.979,0.109 2.857,0.314 -3.052,-2.631 -5.521,-6.238 -5.521,-9.784 0,-4.292 2.856,-7.477 8.264,-7.477 3.894,0 7.568,2.746 10.27,6.044 l 0.765,-5.68 C 49.932,2.938 45.513,0 41.102,0"
       fill="#ff3366"
       id="path1269" />
    <path
       d="m 35.792,27.856 c 3.687,0 5.89,2.248 5.8,7.149 H 29.361 c 0.45,-4.407 2.698,-7.149 6.43,-7.149 m 0.736,17.537 c -3.597,0 -6.851,-2.833 -7.166,-7.599 h 16.502 c 0,0 0.315,-1.349 0.315,-3.102 0,-5.936 -3.507,-10.297 -10.387,-10.297 -6.655,0 -11.241,4.407 -11.241,12.32 0,8.274 5.772,12.276 11.617,12.276 3.602,0 6.807,-0.736 9.085,-1.934 v -4.122 c -2.381,1.302 -5.73,2.458 -8.725,2.458"
       fill="#333c4e"
       id="path1271" />
  </g>
  <metadata
     id="metadata1281">
    <rdf:RDF>
      <cc:Work
         rdf:about="">
        <dc:title>img/logo_claim_vertical_pos_80x67</dc:title>
      </cc:Work>
    </rdf:RDF>
  </metadata>
</svg>
