<?xml version="1.0" encoding="UTF-8" standalone="no"?>
<svg
   width="160"
   height="50"
   viewBox="0 0 160 50"
   version="1.1"
   id="svg19"
   sodipodi:docname="becoquin.svg"
   inkscape:version="1.2 (dc2aeda, 2022-05-15)"
   xmlns:inkscape="http://www.inkscape.org/namespaces/inkscape"
   xmlns:sodipodi="http://sodipodi.sourceforge.net/DTD/sodipodi-0.dtd"
   xmlns="http://www.w3.org/2000/svg"
   xmlns:svg="http://www.w3.org/2000/svg">
  <defs
     id="defs23" />
  <sodipodi:namedview
     id="namedview21"
     pagecolor="#ffffff"
     bordercolor="#666666"
     borderopacity="1.0"
     inkscape:pageshadow="2"
     inkscape:pageopacity="0.0"
     inkscape:pagecheckerboard="0"
     showgrid="false"
     inkscape:zoom="1"
     inkscape:cx="42.5"
     inkscape:cy="14"
     inkscape:window-width="1473"
     inkscape:window-height="916"
     inkscape:window-x="26"
     inkscape:window-y="38"
     inkscape:window-maximized="0"
     inkscape:current-layer="svg19"
     fit-margin-top="0"
     fit-margin-left="0"
     fit-margin-right="0"
     fit-margin-bottom="0"
     inkscape:showpageshadow="2"
     inkscape:deskcolor="#d1d1d1" />
  <rect
     style="fill:#ffffff;stroke:#000000;stroke-width:4.39874;stroke-linejoin:round;stroke-dasharray:0, 48.3863;paint-order:markers stroke fill"
     id="rect934"
     width="155.48663"
     height="47.622757"
     x="2.8768501"
     y="1.952441"
     rx="1.1761692"
     ry="0.95254755" />
  <g
     fill="none"
     id="g17"
     transform="matrix(0.43649504,0,0,0.43649504,21.264451,-1.0799132)">
    <path
       fill="#ffffff"
       d="m 41.193424,79.475915 c -2.544668,3.446388 -3.408174,7.384382 -2.649104,11.806347 0.756523,4.368469 2.865617,7.605988 6.271244,9.653948 3.133075,1.99192 5.947748,2.47844 8.48987,1.45191 0.810013,1.62002 1.13351,3.50751 0.866052,5.66501 l 0.106983,0.0561 1.836542,-8.359962 -9.080822,-2.317969 -0.05859,0.05347 c 2.274664,0.804926 4.001675,1.940986 5.247265,3.397981 -3.948185,1.34492 -7.407303,-0.37699 -10.326413,-5.231979 -2.381646,-5.608965 -1.299079,-10.621882 3.189114,-15.097343 3.948185,-2.911466 9.732911,-3.184019 17.303234,-0.810009 7.514285,2.317961 14.009684,3.127975 19.409779,2.317961 l 5.843315,-9.814438 -10.922458,-8.410901 -3.838653,8.520433 c -2.921657,1.99447 -7.947312,2.480987 -15.033665,1.454458 -7.13475,-1.077495 -12.652018,0.804902 -16.600202,5.662438 h -0.05349 z m 85.599176,-53.384536 10.37735,5.280377 c 3.84121,-8.517888 0.86606,-14.880832 -8.91781,-19.03534 5.29822,5.28802 4.81425,9.867912 -1.45954,13.754963 z m -50.666665,-3.077037 11.35039,-2.15749 C 82.448125,15.306469 83.207194,10.66799 89.748439,7 79.152028,8.2379466 74.610342,13.579457 76.125935,23.014342 Z"
       id="path9"
       style="fill:#000000;stroke-width:2.54722" />
    <path
       fill="#8c0909"
       d="M 103.86257,31.427795 102.1865,29.5938 a 37.507746,37.507746 0 0 0 -4.81425,-4.368474 c -6.704264,-5.496891 -13.405987,-7.926935 -20.112804,-7.277394 -6.813801,0.588406 -12.598527,3.451477 -17.359272,8.57138 -4.81169,5.119902 -6.923331,11.215388 -6.268697,18.227872 0.48397,6.902952 4.050072,14.238933 10.652454,22.000301 2.32306,2.801932 5.135186,5.552928 8.3243,8.303923 0.05349,0.05095 0.106983,0.05095 0.213966,0.05095 h 0.05604 l 0.05094,0.163021 c 0,0.05349 0.05604,0.109526 0.112078,0.16047 2.216077,2.216079 5.349152,5.074056 9.302432,8.629966 3.836106,3.504971 6.757763,7.06343 8.757327,10.624439 1.785594,3.069392 2.812128,4.959427 2.977686,5.662446 l 0.16048,0.16049 c 0.0535,0.0535 0.10699,0.10952 0.21397,0.10952 0.0535,0 0.16302,0 0.21651,-0.056 a 0.41519611,0.41519611 0 0 0 0.10699,-0.21397 c 0.16047,-0.486513 1.4086,-1.833989 3.67817,-4.101006 2.75864,-2.80194 6.65333,-5.496892 11.73757,-8.033918 4.97217,-2.641463 8.86431,-4.691971 11.62295,-6.253416 0.0509,-0.05604 0.0509,-0.05604 0.10698,-0.05604 0.16048,-0.05095 0.26746,-0.106982 0.43302,-0.160471 l 0.0535,-0.05349 c 3.83866,-1.783049 7.24683,-3.667986 10.32641,-5.769443 8.38543,-5.771988 13.73714,-11.97191 16.17227,-18.548822 2.3791,-6.582004 1.99957,-12.942401 -1.18954,-19.14487 -3.3012,-6.199922 -8.11288,-10.458866 -14.43761,-12.779379 -6.38079,-2.427497 -13.46714,-1.833996 -21.30747,1.670972 -2.10654,0.916998 -4.05516,1.88494 -5.83821,2.964959 -0.70558,0.489066 -1.40607,0.916998 -2.1091,1.350024 -0.051,0 -0.051,0 -0.10698,0.05094 l -0.0535,-0.05094 z"
       id="path11"
       style="stroke-width:2.54722" />
    <path
       fill="#f99704"
       d="m 140.00755,80.68075 c -0.24199,0.33623 -0.37444,0.565485 -0.40246,0.687747 l 0.30567,0.636804 -0.14265,0.667373 a 5.8585954,5.8585954 0 0 1 -0.77945,1.94862 c -0.13755,-0.02545 -0.50689,0.04079 -1.09785,0.19868 -0.5935,0.163021 -0.94246,0.249629 -1.04181,0.275098 l -0.22925,-0.300572 -0.16556,0.0968 -1.04691,-0.206324 -0.25473,-0.178306 -0.40245,0.178306 -1.6073,-0.315852 c 0.0204,0.132451 -0.0662,0.1783 -0.24962,0.140097 a 1.892581,1.892581 0 0 1 -0.65973,-0.318411 l -1.28634,-0.127356 -0.16048,-0.280193 -1.99957,0.178305 -0.0509,-0.458504 c -0.34896,0.06113 -0.85077,0.0077 -1.49266,-0.16047 l -0.40246,0.17321 0.34387,-0.252173 -0.88134,0.02037 -0.39226,-0.203775 -0.97304,0.127362 -0.35661,-0.389725 -0.84058,0.21397 -0.0663,-0.389726 c -0.59097,0.267459 -1.12078,0.356611 -1.58691,0.262364 l -0.36426,-0.323496 -0.70048,-0.137552 -0.56803,0.267457 c -2.4224,-0.473779 -3.83356,-0.708128 -4.22329,-0.697938 l 0.14774,-0.351511 -0.33114,0.185945 -0.57567,-0.366801 -0.16812,0.09425 c -0.0917,-0.01529 -0.17827,-0.183399 -0.25723,-0.494155 -0.34897,-0.198686 -0.45086,-0.621525 -0.31331,-1.273613 a 9.7048904,9.7048904 0 0 1 0.42029,-1.286343 10.672832,10.672832 0 0 0 0.37954,-1.100397 l -0.25473,-0.178305 -0.29292,-1.711731 c 0.34132,-0.229244 0.59605,-0.733597 0.75652,-1.507952 0.0943,-0.445759 0.21906,-1.19719 0.37189,-2.251738 0.14774,-1.049448 0.35661,-2.419848 0.61133,-4.111205 0.26492,-1.686252 0.47124,-3.069392 0.62917,-4.144315 0.15283,-1.069832 0.28019,-1.849283 0.38717,-2.340889 0.14774,-0.690299 0.31331,-1.357672 0.49926,-2.002115 0.18339,-0.644449 0.38208,-1.237949 0.59604,-1.79324 l -0.3133,-0.570575 c 0.1783,-0.382084 0.31076,-0.781994 0.39482,-1.194644 a 5.0180144,5.0180144 0 0 0 -0.19359,-2.842695 c 0.81511,-1.79069 1.31436,-3.451476 1.49521,-4.984899 0.30058,-0.280193 0.52219,-0.748881 0.65719,-1.400969 0.12226,-0.568028 0.0866,-0.853316 -0.10699,-0.848221 0.0764,-1.044359 0.1834,-1.788146 0.3235,-2.226267 l -0.25472,-0.499254 0.38717,-0.114625 0.40247,-1.892581 0.11971,-0.231796 c 1.04181,-0.557841 3.10251,-0.664824 6.18464,-0.315856 l 0.34132,0.448311 1.67862,0.331138 0.40247,-0.178306 0.88643,0.298025 c -0.0509,-0.0077 -0.0637,-0.05094 -0.0459,-0.132456 0.0509,-0.03312 0.23179,0.04585 0.53491,0.22925 l 0.49416,-0.282741 0.58841,-0.01019 0.53237,0.229248 0.80747,-0.03312 0.56293,0.43048 1.18955,0.22925 c 0.0127,0.175756 0.26491,0.244532 0.75653,0.216513 0.48396,0.0077 0.8202,0.01019 1.01888,0.0077 l 0.50944,0.354063 c 0.48907,-0.03312 1.01379,0.02802 1.56144,0.178305 l 0.11462,0.152834 c 0.44832,0.170662 0.84059,0.287834 1.16408,0.351515 l 1.14116,0.09679 0.33368,-0.191041 1.20994,0.49416 0.0865,0.267457 1.24304,-0.0077 -0.0866,0.04585 c 0.31075,0.145192 0.5833,0.348969 0.8202,0.606238 l 0.917,2.537027 c -0.21397,0.08151 -0.69794,1.240494 -1.46211,3.464215 -0.71831,2.239 -1.40861,3.438737 -2.07597,3.604307 l -0.917,-0.494161 a 2.8019368,2.8019368 0 0 1 -1.73975,-0.02547 l -0.35662,-0.384629 -0.0764,0.364253 c -0.71068,-0.09425 -1.84163,-0.382087 -3.38779,-0.855865 -0.61898,-0.07641 -1.08257,-0.04077 -1.40607,0.106982 l -0.36934,-0.326043 c -0.55529,0.781993 -0.86606,1.337288 -0.93483,1.660783 -0.12736,0.611333 0.0611,1.648048 0.57821,3.107602 l 0.73869,0.652088 4.19272,0.822749 c 0.97305,0.229249 1.89004,0.922092 2.76883,2.068343 -0.27255,0.585854 -0.41775,1.15388 -0.43557,1.698992 a 1.6225761,1.6225761 0 0 0 -0.82021,1.110581 1.6811621,1.6811621 0 0 0 0.22925,1.319457 c -0.26491,0.797279 -0.47379,1.436633 -0.62406,1.910411 a 14.086101,14.086101 0 0 0 -0.28784,1.029078 l -1.29144,0.575671 -0.34897,-0.06623 -1.61238,0.06368 -0.86097,-0.42284 -0.50944,0.343877 -0.28528,-0.37444 -0.95266,-0.313308 -1.00106,0.252174 c -0.27,-0.310757 -0.7718,-0.598595 -1.49267,-0.866053 l -0.58331,0.01016 a 5.9706725,5.9706725 0 0 1 -0.11718,0.394821 l -0.31075,0.924641 -0.31076,0.957751 a 1.6888038,1.6888038 0 0 0 -0.0942,0.616424 l -0.20632,-0.03819 -0.34897,1.648048 0.52728,0.229248 -0.12737,0.611335 0.66736,0.644444 0.46869,-0.163026 0.94248,0.374445 0.30821,0.254719 0.86606,0.0382 0.8151,0.60624 0.67502,-0.06114 a 1.1462469,1.1462469 0 0 0 0.58585,0.308218 l 1.14116,-0.22161 0.57822,0.36425 1.60474,0.315857 c 0.65464,0.127357 1.14115,0.348967 1.46465,0.669919 0.0713,0.348965 0,1.018883 -0.20378,1.997013 a 1.9435253,1.9435253 0 0 0 -0.0102,0.534917 c 0.0255,0.241984 0.0434,0.489062 0.0663,0.746331 0.0153,0.259818 0.0382,0.509447 0.0586,0.741241 a 1.9791863,1.9791863 0 0 1 -0.005,0.545106 c -0.0254,0.119718 -0.16047,0.348966 -0.40246,0.680103 z m -29.92723,-4.987448 c -0.72597,0.56039 -1.57418,1.189549 -2.54722,1.887487 l 0.0713,0.333686 -0.55529,-0.106982 c -0.88898,0.504347 -1.51814,0.720861 -1.88749,0.646993 -0.14009,-0.0255 -0.20123,-0.101892 -0.17321,-0.224154 l -1.60474,0.703027 a 3.7061983,3.7061983 0 0 1 -1.68117,0.371896 l -0.87624,0.341326 -0.73869,-0.275098 -1.0953,0.356611 -0.028,-0.578221 -1.16153,-0.35406 -0.33114,0.188489 a 9.6947019,9.6947019 0 0 1 -2.06324,-0.213964 l -0.33624,0.19359 -1.230305,-0.37189 -0.753976,0.106982 C 92.983432,78.510525 92.68032,78.324575 92.188702,78.141179 l -0.695387,0.183396 -0.590955,-0.308207 -0.287838,0.323491 c -0.37953,-0.494157 -0.524727,-0.738691 -0.430474,-0.718311 -0.137551,-0.02551 -0.295483,0.02544 -0.466143,0.16047 h -0.662278 l -0.458499,-0.213964 -0.540009,0.463593 -2.04796,-0.97304 -1.375497,0.305667 -0.443215,-0.662273 c -0.122265,0.106983 -0.224157,0.147736 -0.320949,0.127362 -0.185945,-0.03312 -0.374439,-0.175761 -0.56548,-0.427935 l -0.840584,0.534917 -0.07387,-0.331137 -0.675011,-0.259818 -0.298028,0.389725 c -0.473779,0.160471 -1.102941,0.16302 -1.895126,0.0076 l -0.300572,-0.310763 c -0.677559,-0.0053 -1.018886,-0.476327 -1.011245,-1.411153 -0.03821,-1.1921 -0.117171,-1.867107 -0.229249,-2.014849 l 0.54001,-0.147736 0.560387,-2.628728 c -0.216513,-0.127362 -0.226702,-0.659729 -0.02547,-1.597105 0.196135,-0.93992 0.346421,-1.693897 0.445762,-2.267017 a 7.8454233,7.8454233 0 0 0 0.13755,-1.18446 2.223719,2.223719 0 0 0 0.420291,-0.937376 c 0.07641,-0.3668 0.0968,-1.018884 0.05349,-1.958811 l -0.527273,-0.616423 0.0917,-0.425385 a 1.8671088,1.8671088 0 0 1 0.203777,-0.438123 c 0.117172,-0.20887 0.23944,-0.438119 0.36425,-0.690293 0.127364,-0.254719 0.247081,-0.483973 0.364254,-0.692842 a 1.9282419,1.9282419 0 0 0 0.216513,-0.499253 c 0.01783,-0.08152 0.05094,-0.318401 0.114625,-0.710677 l 0.236889,-1.640403 c 0.07641,-0.810017 0.244533,-1.609839 0.504351,-2.381646 -0.04331,-0.547651 0,-1.09785 0.129906,-1.63022 a 12.787021,12.787021 0 0 1 0.188494,-0.725954 l 0.392272,-1.324553 c 0.37444,-1.072378 0.590953,-1.749937 0.652086,-2.037774 0.152832,-0.73105 0.09425,-1.255776 -0.178302,-1.563989 l 0.552743,-0.208872 -0.0077,-3.056659 1.451914,-6.844367 c 0.03566,-0.160475 0.0917,-0.361704 0.165569,-0.60369 a 23.256076,23.256076 0 0 1 0.287832,-0.832939 c 0.150289,-0.478877 0.254724,-0.967942 0.310763,-1.467196 l 0.932281,-0.967942 c 0.909356,-0.157928 1.78305,-0.157928 2.618533,0.0077 0.468688,0.0917 0.815115,0.178305 1.039264,0.267459 l 0.203779,-0.280194 c 0.157926,-0.05349 0.361707,-0.0968 0.611335,-0.135003 0.252169,-0.03567 0.552741,-0.07897 0.904263,-0.142644 l 0.07641,0.336232 c 0.680107,0.216513 1.635313,0.534916 2.857979,0.94247 l 0.44576,-0.04076 0.56548,0.427932 c 0.0815,-0.152833 0.71067,-0.369346 1.88239,-0.64954 0.3184,0.106984 0.71322,0.257269 1.18191,0.458499 0.46869,0.193588 1.04946,0.46614 1.75248,0.815109 l 1.05455,-0.491613 0.34897,0.06878 c 0.51199,0.09934 0.79473,0.259816 0.84568,0.483971 l 1.08765,0.02038 c 0.52728,0.483971 1.56145,0.87879 3.09996,1.179361 l 0.25982,0.499254 0.58331,-0.01273 c 0.12736,0.32095 0.35152,0.514537 0.68012,0.578219 a 1.4264406,1.4264406 0 0 0 0.66736,-0.06113 c 0.49161,0.435574 1.56654,0.965394 3.23497,1.586915 l 0.21397,0.361704 0.60114,0.24708 2.67967,2.814673 c 0.005,0.211419 0.028,0.560387 0.0764,1.031622 0.0433,0.47633 0.12736,1.108039 0.25218,1.897676 0.33113,1.635312 0.55529,2.52429 0.66991,2.677123 l -0.44321,2.075982 c -0.16303,0.09679 -0.37954,0.649539 -0.6419,1.655688 -0.0917,0.196136 -0.3668,0.578218 -0.82275,1.143698 a 43.88852,43.88852 0 0 1 -2.01231,2.251739 l -0.0764,0.364253 a 9.1037476,9.1037476 0 0 1 -0.60624,0.295476 13.808454,13.808454 0 0 0 -1.10803,0.578219 c -0.92209,0.458496 -1.59201,0.641903 -2.0123,0.56039 -0.23435,0.422835 -0.66228,0.590955 -1.27361,0.511987 l -0.0892,0.430479 c 0.44322,0.42539 0.9119,0.891528 1.41371,1.390785 0.49925,0.501797 1.08001,1.029074 1.73974,1.58182 l -0.50944,0.346421 0.18085,1.3704 c 0.0484,0.351516 0.10189,0.61643 0.16048,0.79728 0.28019,0.736141 0.71576,1.324551 1.29908,1.78305 l 0.23434,1.635307 a 15.252725,15.252725 0 0 0 -0.39737,0.845684 c -0.18594,0.40755 -0.47633,0.975581 -0.87115,1.706627 l -0.25471,-0.178301 0.14264,0.348966 -0.28529,0.323497 -0.18085,0.858413 c -0.50944,0.106983 -1.16408,0.323497 -1.95881,0.634259 l -0.57822,-0.3668 c -0.12736,0.140096 -0.31585,0.292932 -0.57057,0.458497 a 8.1001449,8.1001449 0 0 0 -0.81766,0.60369 l 0.50945,1.375496 c -0.50181,0.07132 -0.99342,0.56803 -1.48249,1.490121 l 0.33878,0.445764 0.079,-0.3668 c 2.886,-0.320947 4.3048,-0.830395 4.25895,-1.520687 l 0.7336,-0.04841 0.20377,0.427934 0.18086,-0.157931 -0.0662,0.303117 c -0.0535,0.244539 0.0611,0.39482 0.34132,0.448314 -0.54765,0.527277 -1.12587,1.018889 -1.7321,1.477382 z m -25.209797,-0.830389 -0.6368,0.257268 0.49416,0.415195 0.191041,-0.21906 0.01529,-0.05859 -0.06368,-0.39227 z m 4.276777,-4.699615 -0.603692,-0.247079 0.02547,-0.119723 a 2.317966,2.317966 0 0 1 0.05859,-0.626614 c 0.06368,-0.305667 0.10444,-0.616424 0.127364,-0.929731 l -0.40501,0.175761 -0.12736,-0.407555 -0.524727,0.407555 0.04586,-0.565486 -0.3668,0.692842 -0.28529,-0.37444 -0.532365,-0.229249 -0.509446,-0.672463 -0.789636,-0.410099 -0.733597,0.364245 0.109531,0.848224 1.011244,0.389724 0.264908,-0.203774 0.313309,0.573126 -0.61388,0.832933 c 0.264913,0.348971 0.267461,0.776906 0.02036,1.276158 l 0.28019,0.05604 0.160479,0.285288 -0.206328,0.275098 0.08151,-0.04586 0.201232,0.425383 c 0.21906,-0.127361 0.483969,-0.270003 0.781993,-0.420289 a 12.073801,12.073801 0 0 0 1.039263,-0.626614 l 0.229251,0.300573 c 0.333686,0.0255 0.524727,-0.06623 0.568027,-0.270003 l 0.298026,0.313301 0.08151,-1.069827 z m 10.02074,-8.09505 0.24963,-0.142646 c -0.16047,-0.157926 -0.18849,-0.267458 -0.0764,-0.331131 l -0.49415,-0.417745 -1.53853,-0.298027 -0.39482,-0.20378 0.20378,-0.280193 a 18.772977,18.772977 0 0 1 -0.93482,0.295482 c -0.29548,0.08151 -0.58586,0.185946 -0.86606,0.305663 l -0.34897,1.648048 -0.43811,0.361705 c -0.746341,3.504966 -0.48398,5.336414 0.79218,5.501985 l 0.405,0.524727 0.33114,-0.188495 c 0.66992,0.257268 1.18191,0.122267 1.53852,-0.39991 l 0.50435,0.03819 1.07747,-0.616424 0.25727,-1.225209 c 0.0535,-0.241994 0.35661,-0.524731 0.90936,-0.840589 -0.13755,-0.960295 -0.52982,-2.205883 -1.17682,-3.73167 z m 3.06431,-15.122817 c -0.27511,-0.771806 -0.66738,-1.212475 -1.17937,-1.314363 -1.02652,-0.198683 -1.74738,-0.127361 -2.15494,0.216513 -0.4152,0.343874 -0.67247,1.09785 -0.7769,2.26702 -0.0688,0.789641 -0.20632,1.212476 -0.4101,1.258324 l 0.29802,0.310762 -0.39991,0.178303 c 0.0255,0.343877 0.3235,0.868603 0.90172,1.574181 l 0.50943,-0.346419 0.4636,0.221607 1.73465,-0.616428 1.23031,-1.668426 c 0.12736,-0.611333 0.056,-1.304174 -0.21651,-2.081074 z m 5.09443,17.868712 -0.21652,-0.3617 -0.59095,0.392269 -0.1401,-0.02544 c -0.23434,-0.04587 -0.41774,0.02037 -0.55529,0.208869 l -0.28529,-0.37444 c -0.9119,0.4152 -1.7856,1.095302 -2.61599,2.035229 a 2.8019368,2.8019368 0 0 1 -0.37699,-0.106983 14.557336,14.557336 0 0 1 -0.57567,-0.208874 l -0.10189,0.489062 a 4.3302661,4.3302661 0 0 1 0.43303,0.341331 l 0.3719,0.323492 c 0.52727,0.489068 0.75397,0.911907 0.67246,1.278708 -0.11717,0.104432 -0.33623,0.445759 -0.64954,1.018879 l -0.12736,-0.08915 c -0.25473,0.03566 -0.4203,0.135001 -0.49926,0.285288 l -0.28274,-0.374441 -0.34897,0.252173 -0.14264,-0.34897 -0.71832,0.305667 0.0764,0.331136 c -0.056,0.03312 -0.13245,0.0382 -0.22415,0.02296 l -0.47378,0.160471 0.38208,0.267464 0.19104,-0.21906 0.48397,1.495213 0.57567,0.05095 -0.16302,-0.287833 0.30566,-0.06622 0.46359,0.213964 0.50181,-0.280193 0.33623,0.127361 -0.0459,-0.132456 0.19104,-0.21906 0.15793,0.285289 c 0.25981,-1.222665 0.70558,-1.729556 1.34493,-1.520687 l -0.10189,-0.21142 0.22161,-0.01782 1.43408,-0.927187 c -0.31585,-0.57312 -0.43812,-1.018884 -0.36935,-1.347475 0.31331,-1.467192 0.74889,-2.144756 1.30673,-2.035229 l 0.15283,-0.731046 z"
       id="path13"
       style="stroke-width:2.54722" />
    <path
       fill="#ffffff"
       d="m 135.66964,82.252385 -0.35661,-0.348972 -0.16048,0.188496 v -0.188496 l -0.19104,0.226699 -0.48396,0.06113 c -0.0434,-0.04333 -0.0713,-0.06113 -0.0943,-0.06113 -0.084,0 -0.18085,0.05095 -0.29292,0.160481 l -0.70303,-0.713221 c -0.2802,-0.01783 -0.48397,0.213964 -0.61134,0.710672 l -0.13245,-0.03566 a 0.88643094,0.88643094 0 0 0 -0.41519,0.163026 1.3449296,1.3449296 0 0 1 -0.28784,0.16302 l -0.71068,0.254724 a 2.2160774,2.2160774 0 0 0 -0.40245,0.193585 0.67501206,0.67501206 0 0 0 -0.22416,0.259813 1.2787021,1.2787021 0 0 0 -0.11208,0.387181 5.3287744,5.3287744 0 0 1 -0.48397,1.16153 l -0.15792,-0.0968 -0.25473,0.904261 0.12736,0.320953 -0.16302,0.259812 0.0331,0.191041 -0.16048,0.320952 0.22416,0.196135 -0.22671,0.708127 c 0,1.485028 0.12737,2.460615 0.38972,2.936932 l -0.38972,0.611335 0.19359,-0.03056 0.70813,1.225214 0.22415,-0.135011 0.0637,0.135011 0.25982,-0.196142 a 0.55019849,0.55019849 0 0 0 -0.0331,0.226699 c 0,0.127365 0.0127,0.224155 0.0331,0.287838 l -0.0637,0.0968 0.57822,0.904259 0.0637,-0.127365 c 0.23434,0.170671 0.6317,0.407558 1.187,0.708127 v 0.705583 l -0.47633,0.649538 c -0.43303,-0.106979 -0.67757,-0.241981 -0.74379,-0.389722 -0.084,-0.364252 -0.18085,-0.601148 -0.28783,-0.71067 a 2.6287262,2.6287262 0 0 0 -0.58077,0.101885 l -0.48396,0.450863 h -0.28784 v 0.611327 l 0.54764,-0.611327 0.32095,0.509442 -0.16047,0.328592 -0.32349,0.09425 -0.38209,-0.259824 -0.22925,0.552747 -0.51453,-0.163024 v -0.389723 l -0.41775,-0.448311 -0.35406,0.58077 0.19613,0.514536 0.5451,-0.06366 0.22926,0.224155 0.18849,-0.160473 c 0,0.150285 -0.0535,0.257264 -0.16047,0.320947 l 0.29038,0.616421 h 0.64445 v 0.127373 l 0.41519,-0.61643 0.58076,0.519631 -0.25472,0.483971 -0.3566,0.129907 0.2267,0.417746 0.35406,-0.323498 0.32095,0.257264 -0.0662,0.547653 0.70813,1.48503 c -0.023,0.28019 -0.16047,0.39991 -0.41774,0.35406 l -0.16048,0.16048 -0.41773,-0.16048 -0.45087,0.16048 c -0.56034,-0.2802 -1.03922,-0.40756 -1.44678,-0.38718 l -0.3235,-0.32095 -0.44831,0.22925 c -0.34386,-0.38973 -0.63425,-0.59096 -0.87114,-0.61388 a 60.618632,60.618632 0 0 1 -1.98683,-1.711728 l -0.16557,0.06366 v -0.224146 c -0.85841,-0.731055 -1.5971,-1.966458 -2.22117,-3.708742 -0.62152,-1.762679 -0.88898,-3.273179 -0.80237,-4.544242 -0.0892,-0.08664 -0.18595,-0.463593 -0.29039,-1.125867 l -0.1146,-0.906824 a 5.4051909,5.4051909 0 0 1 -0.0434,-0.644449 1.9358837,1.9358837 0 0 1 0.0306,-0.275098 c 0.0179,-0.117172 0.0484,-0.244533 0.079,-0.387175 0.0306,-0.137551 0.0663,-0.267458 0.0968,-0.38718 a 1.1105859,1.1105859 0 0 0 0.0459,-0.272548 1.3653075,1.3653075 0 0 0 -0.19104,-0.641899 c 0.17321,-0.259818 0.3566,-0.644448 0.54765,-1.16408 l -0.16302,-0.06113 0.58076,-1.001054 c 0.0866,0.170666 0.1834,0.343876 0.29039,0.514537 l 0.32094,0.514536 c 0.19104,-0.127356 0.28784,-0.343871 0.28784,-0.641893 h -0.2267 l -0.50944,-0.611335 -0.16303,0.0917 c 0,-0.06368 0.0968,-0.407554 0.29039,-1.031624 a 2.2975882,2.2975882 0 0 0 0.12736,-1.029073 l 0.77435,-0.774356 c 0.25472,-0.323497 0.39482,-0.54765 0.4152,-0.680108 0.62406,-0.191039 0.93483,-0.427929 0.93483,-0.705576 a 0.37444066,0.37444066 0 0 0 -0.0331,-0.163022 1.0214333,1.0214333 0 0 1 0.57822,-0.417743 l 0.13246,0.09679 c 0.31839,-0.38972 0.82019,-0.817654 1.50794,-1.291437 0.84059,-0.578216 1.4672,-0.868603 1.89768,-0.868603 0.10953,0.0026 0.21906,0.0255 0.32349,0.06368 l 0.44576,-0.06368 0.38973,-0.323492 0.16048,0.226704 1.12586,-0.453408 0.54765,0.295477 0.16048,-0.135007 0.3235,0.06623 0.0611,-0.160476 0.32349,0.160476 a 1.4009684,1.4009684 0 0 1 0.89918,0.387175 l 0.60878,-0.226704 c 0.25727,0.129906 0.71067,0.473783 1.35002,1.031624 l -0.0611,1.935885 c 0,0.06368 0.0204,0.152831 0.0637,0.259814 0.0433,0.106982 0.0865,0.224154 0.12735,0.35406 0.0434,0.127368 0.0867,0.247079 0.12991,0.351522 a 0.81510891,0.81510891 0 0 1 0.0662,0.224149 c 0,0.305667 -0.18339,1.100397 -0.5502,2.389289 z m -12.86344,6.775591 0.0331,0.09679 v 0.160474 l 0.25473,-0.160474 -0.29038,-0.09934 z m 3.40563,-3.904884 0.35406,0.160475 0.0306,-0.287832 -0.0637,-0.160476 z m 0.12991,-0.804915 0.12736,0.06367 0.0637,-0.09934 0.16302,0.06622 h 0.0279 l -0.19104,-0.229249 z m 0.16047,0.354061 v 0.09679 l 0.22161,-0.09679 -0.0306,-0.09425 z m 0.83549,0.675013 -0.0968,0.193585 0.0968,0.06368 0.12736,-0.193591 z m 0.16047,-0.09425 0.22416,0.09425 a 1.8187117,1.8187117 0 0 0 -0.0305,-0.351516 z m 0.41775,-4.837163 -0.3235,0.61133 0.10189,0.226699 c 0.10953,-0.09169 0.21651,-0.18849 0.3184,-0.290377 l 0.12736,0.224153 0.35406,-0.160475 a 11.905685,11.905685 0 0 0 -0.57821,-0.61133 z m -0.29038,16.409161 0.41519,-0.06113 -0.18595,-0.224155 c -0.13245,0 -0.20887,0.0917 -0.22924,0.285285 z m 0.48397,-2.386737 -0.29038,0.229241 c 0.10697,0.04337 0.16047,0.07646 0.16047,0.09425 l -0.0637,0.06627 0.41519,-0.127365 -0.12735,-0.262358 c -0.0434,0.04589 -0.0738,0.04589 -0.0942,0 z m 0.61132,-11.859839 -0.25472,-0.450853 -0.38972,0.285282 -0.0356,-0.06113 0.0356,-0.16302 -0.16047,0.483973 0.0637,-0.06623 c 0.023,0.02296 0.0434,0.03312 0.0611,0.03312 a 0.10188861,0.10188861 0 0 1 0.0688,0.03058 l -0.0331,-0.127362 h 0.0331 l 0.12736,0.03312 0.18849,-0.03058 0.29547,0.318407 -0.51708,0.259814 -0.16302,0.387174 0.19867,0.292927 -0.19867,-0.135001 0.19867,0.295483 0.25473,-0.259819 0.0663,-0.420294 -0.16047,0.16302 -0.0331,-0.257263 c 0.0204,-0.02296 0.0509,-0.03312 0.0968,-0.03312 l 0.16048,-0.03312 0.25471,-0.259812 -0.0942,-0.224155 -0.0662,-0.06113 z m -0.61132,1.316911 -0.0968,0.03312 0.0968,0.19359 h 0.0942 z m -0.0331,-1.125871 0.0331,0.06368 v -0.127367 z m 0.29038,-2.190604 0.16302,0.320946 0.34897,-0.450852 -0.34897,0.287832 -0.16302,-0.160476 z m 0.32349,17.473897 -0.26235,0.15793 0.38717,0.101885 -0.12736,-0.262358 z m 0.44831,-10.351883 -0.0663,-0.02799 -0.22415,-0.132451 a 5.5274573,5.5274573 0 0 0 -0.25727,0.904262 l 0.16048,-0.160476 -0.0611,0.38463 0.16047,-0.127356 0.0611,0.224149 0.19358,-0.257269 v -0.354061 l -0.12735,-0.127361 0.0305,-0.03566 0.16303,0.06368 0.0942,-0.02799 -0.22671,-0.163021 0.1019,-0.163021 z m -0.38717,5.83313 0.16048,-0.06113 0.19358,0.06366 a 5.0944308,5.0944308 0 0 1 0.57823,-0.8686 l -0.22416,-0.28783 c -0.2802,0.191038 -0.50945,0.575667 -0.70813,1.156429 z m 0.61133,-12.185883 -0.38463,0.35661 a 2.0377722,2.0377722 0 0 1 0.12736,0.241984 4.8397093,4.8397093 0 0 1 0.12991,0.338782 l 0.16048,-0.226704 0.16047,0.127356 0.0331,-0.448303 -0.22924,-0.389725 z m -0.38463,1.451912 h 0.0611 l 0.29039,0.09934 -0.25727,-0.420289 z m 0.6419,16.314914 -0.16047,-0.160474 -0.16303,0.160474 -0.028,-0.05861 0.0637,-0.160473 -0.35152,0.09934 c 0.17067,0.178307 0.35406,0.351512 0.54511,0.509442 l 0.45086,-0.382077 h -0.35407 z m -0.2267,-16.378597 0.0943,-0.127361 v -0.09934 a 0.45595155,0.45595155 0 0 0 -0.0943,0.226699 z m 0.64699,-0.547651 -0.3566,0.06113 v 0.135002 l 0.3566,-0.101887 z m -0.0331,14.605736 -0.19104,-0.19359 0.34896,-0.417746 0.25983,0.25473 a 3.122886,3.122886 0 0 0 -0.41775,0.354054 z m 0.28783,1.222662 0.19359,-0.191038 -0.25726,-0.19359 0.0637,0.38718 z m 0.16048,-21.146983 -0.0968,0.191041 0.0663,0.03312 0.12736,-0.03312 0.0968,0.03312 z m 1.51304,20.247818 -0.7718,-0.19359 -0.0306,0.03309 v -0.19359 l 0.0306,-0.09934 -0.32095,-0.254721 0.19104,-0.453405 0.48398,0.13245 0.16046,-0.295475 0.16303,0.132459 -0.0688,0.06113 c 0.0255,0.173213 0.17321,0.483971 0.4534,0.937376 l -0.29038,0.19359 v 0.03309 l -0.0968,0.03048 z m -0.86859,-20.540745 0.22415,0.09679 0.0331,-0.127363 -0.19104,-0.09934 -0.0663,0.127362 z m 1.35001,21.990106 -0.22414,-0.226698 h -0.0968 l -0.0943,-0.160482 0.28783,-0.224147 c 0.10699,0.04075 0.19105,0.170662 0.25473,0.384629 l -0.16048,0.160464 0.0357,0.06627 z m 1.27362,2.147308 c -0.20378,0.0255 -0.4585,0.0866 -0.75908,0.1783 l -0.54764,-0.29548 c 0.53492,-1.156434 0.90425,-1.74229 1.09529,-1.74229 l 0.0637,0.03309 c 0.21397,0.21907 0.46104,0.570573 0.73869,1.067284 0.0663,0.06366 0.10699,0.127366 0.12737,0.191046 l -0.25472,0.48397 c -0.10699,0.0254 -0.26237,0.0484 -0.46359,0.084 z m 2.48609,-2.631278 a 6.7246483,6.7246483 0 0 1 -0.33624,0.241989 3.5278932,3.5278932 0 0 1 -0.56039,0.305664 l -0.16303,-0.157931 c -0.50943,-0.10953 -0.78963,-0.29038 -0.83293,-0.550196 -0.0867,-0.514536 -0.17066,-0.838033 -0.25727,-0.967941 h 0.028 l 0.38972,-0.191039 0.0637,-0.06627 c 0.25471,-0.06113 0.51199,-0.104446 0.77435,-0.127365 l 0.38208,0.38718 c 0.0459,0 0.0994,0.02795 0.16302,0.09679 l 0.0306,-0.03562 0.29038,0.06627 0.41773,0.453397 c -0.30057,0.295483 -0.43047,0.483979 -0.38971,0.54511 z m 11.13132,-2.901282 -0.29039,0.257272 c 0.10699,0.196142 0.2369,0.506899 0.38463,0.934833 h 0.0688 l 0.028,0.193591 -0.12736,-0.06113 -0.19104,0.450862 -0.3235,0.127356 0.0662,0.257264 0.32095,0.226707 -0.25727,0.290381 a 0.56802904,0.56802904 0 0 1 -0.32349,-0.450854 l -0.29039,-0.290381 -0.0611,0.127356 c -0.30311,-0.236886 -0.45085,-0.616421 -0.45085,-1.125872 v -0.259806 c 0,-0.08403 0.0127,-0.180859 0.0331,-0.29039 a 0.09679418,0.09679418 0 0 1 -0.0662,0.03057 c -0.0637,0 -0.0943,-0.04337 -0.0943,-0.127356 l 0.0943,-0.0968 -0.32095,-0.19359 c -0.0204,0.08915 -0.0637,0.127365 -0.12736,0.127365 -0.10953,0 -0.14265,-0.09425 -0.0993,-0.287838 l -0.16048,0.160473 c -0.0434,-0.04337 -0.0688,-0.183393 -0.0815,-0.420279 -0.0102,-0.234353 -0.0586,-0.351521 -0.14265,-0.351521 l -0.19359,0.02795 -0.19359,0.483971 c 0.25472,0.618973 0.56548,1.212474 0.93483,1.772859 v 0.61643 l -0.12991,0.384628 -0.54511,-0.06366 -0.41773,0.644444 0.41773,0.517088 0.0611,-0.13246 0.3235,0.165568 a 2.4122129,2.4122129 0 0 1 -0.45085,0.611335 1.0137917,1.0137917 0 0 0 -0.86606,-0.38718 l 0.28784,-0.644444 a 5.2192442,5.2192442 0 0 0 -0.29038,-0.866048 l 0.0663,-0.331134 -0.22416,-0.285295 0.32095,-0.741235 c -0.30057,-0.06627 -0.7718,-0.323498 -1.41625,-0.779454 l -0.35152,0.101893 -0.45085,-0.259815 a 1.6251234,1.6251234 0 0 0 -0.16047,-1.064732 l 0.44831,-1.258331 -0.25728,-0.254721 h -0.1299 a 1.7372008,1.7372008 0 0 1 -0.51454,-0.226707 l -0.19104,0.389731 0.35151,0.611336 v 0.320946 c -0.32094,0.173204 -0.64444,0.407549 -0.96284,0.713212 0,0.08151 0.0306,0.127365 0.0942,0.127365 a 1.0316222,1.0316222 0 0 0 0.19614,-0.05094 1.1054914,1.1054914 0 0 1 0.19359,-0.04589 c 0.0636,0 0.12736,0.02795 0.19104,0.09679 v 0.354063 l -0.19104,0.160482 c -0.10953,-0.19359 -0.18595,-0.290389 -0.2267,-0.290389 -0.0663,0 -0.10698,0.04337 -0.12737,0.127365 a 1.064736,1.064736 0 0 0 -0.61387,-0.741244 10.886798,10.886798 0 0 0 -0.49671,-1.306722 l -0.78964,-1.752481 0.29039,-0.455957 a 5.8509536,5.8509536 0 0 1 -0.29039,-1.800881 c 0,-0.152833 0.0535,-0.389721 0.16048,-0.713218 l -0.12737,-0.03058 c 0.0637,-0.257273 0.0815,-0.517087 0.0637,-0.776906 a 3.7749731,3.7749731 0 0 1 0,-0.705576 c 0.9017,-5.374624 2.62617,-8.696194 5.17848,-9.964707 a 21.218304,21.218304 0 0 0 1.18955,-0.560385 c 0.25727,-0.142647 0.39991,-0.224155 0.42029,-0.241985 h 0.47887 c 0.21652,0 0.5069,-0.01529 0.8686,-0.03566 0.36681,-0.02296 0.65719,-0.03312 0.87115,-0.03312 h 0.51454 c 2.57015,0 4.6181,1.087662 6.13879,3.260437 1.35512,1.930791 2.07089,4.253852 2.15749,6.961538 l 0.16303,0.127367 c 0.0637,0.241983 0.0968,0.680103 0.0968,1.324546 0,1.673526 -0.17576,3.377607 -0.51708,5.094429 -0.47123,2.59817 -1.2023,3.902341 -2.18552,3.902341 l -0.29037,-0.550205 0.12735,0.19359 0.19359,-0.257264 v -0.710677 l -0.12735,-0.06366 -0.48398,0.160465 v 0.453405 c -0.29803,0.36426 -0.55784,0.58077 -0.76926,0.641901 l -0.3235,-0.354063 0.73869,-0.450854 v -0.901716 l -0.41519,-0.356606 -0.2267,0.196133 -0.54765,-0.483971 0.16047,-0.19359 h -0.22415 l 0.0306,-0.259815 c -0.34133,0.343874 -0.51199,0.644443 -0.51199,0.904259 a 0.42793217,0.42793217 0 0 0 0.0306,0.19359 c -0.40756,0.343874 -0.70558,0.514536 -0.89917,0.514536 -0.0662,0 -0.0968,-0.02038 -0.0968,-0.06366 h -0.35662 l -0.16047,0.127356 c -0.12736,-0.427934 -0.37444,-0.641901 -0.73869,-0.641901 l -0.28784,0.224155 -0.12735,-0.224155 h -0.0994 a 1.3551185,1.3551185 0 0 1 -0.25727,-0.229241 l 0.0306,-0.29039 0.16301,0.129908 c 0.15029,-0.127356 0.30058,-0.300569 0.45086,-0.514536 a 4.4423437,4.4423437 0 0 0 0.67246,-1.497761 3.1330749,3.1330749 0 0 0 0.1019,-0.759069 l -0.0994,-0.0968 c 0.0815,-0.371889 0.12482,-0.74888 0.12736,-1.125872 0,-0.606233 -0.13754,-0.983224 -0.41775,-1.1335 a 2.9292976,2.9292976 0 0 0 0.54766,-1.676073 3.9023339,3.9023339 0 0 0 -0.0637,-0.354065 c -0.0459,-0.170661 -0.0356,-0.313308 0.0331,-0.42029 0.0434,-0.127362 0.0306,-0.514537 -0.0331,-1.156435 a 13.788077,13.788077 0 0 0 -0.0968,-1.324552 h -0.2267 l 0.0663,-0.547651 -0.51453,-0.644449 c 0,-0.346415 -0.11208,-0.560385 -0.33878,-0.641893 a 30.472338,30.472338 0 0 1 -0.72341,-0.295483 l -0.0637,0.163021 -0.38718,-0.16047 -0.0663,-0.160477 c -0.61642,0.320947 -0.97303,0.588411 -1.05964,0.802375 -0.18849,-0.02037 -0.32349,0.05349 -0.39991,0.229249 a 1.1182276,1.1182276 0 0 0 -0.0509,0.644444 c -0.3617,0.598594 -0.5451,1.535971 -0.5451,2.801938 -0.003,0.542556 0.0509,1.082568 0.16048,1.61239 a 2.1447553,2.1447553 0 0 0 -0.19105,0.840578 c 0,0.320951 0.0968,0.687745 0.28784,1.095302 -0.12736,0.323498 -0.19104,0.667373 -0.19104,1.036719 a 1.8085229,1.8085229 0 0 0 0.12736,0.606232 l -0.0968,0.292933 c 0.34132,1.309273 0.86605,2.180415 1.57672,2.608349 l 0.41775,-0.06366 0.57567,0.229241 0.12735,0.738701 -0.12735,0.160473 0.3566,0.229241 0.0637,0.866056 0.32094,0.13246 -0.29037,0.705574 0.29037,0.356606 -0.12735,0.450863 a 0.65718158,0.65718158 0 0 1 -0.48397,0.135002 h -0.32096 c -0.16811,-0.175756 -0.25726,-0.519631 -0.25726,-1.036719 l -0.12736,-0.356605 0.0663,-0.417746 -0.16301,-0.160473 0.16301,0.03309 -0.0357,-0.22925 0.16048,0.07132 0.48396,-0.550196 a 3.2731717,3.2731717 0 0 1 -0.64444,-0.550196 h -0.3235 z m -4.69706,3.194214 c -0.0611,0 -0.1452,-0.09425 -0.24199,-0.275098 -0.0968,-0.183402 -0.17321,-0.275098 -0.23943,-0.275098 l -0.12737,-0.644453 v 0.132459 a 2.4631572,2.4631572 0 0 0 -0.5502,-0.229249 c -0.10698,-0.02038 -0.24198,-0.193591 -0.4152,-0.517079 l 0.4152,-0.48398 0.25982,0.05094 c 0.0662,0.01019 0.084,0.01533 0.0662,0.01533 0.0815,0 0.16047,-0.07132 0.22416,-0.224156 l 0.25472,-0.06627 0.67501,0.680104 c 0,0.25473 0.0356,0.427934 0.0968,0.514536 l -0.0611,0.771809 0.35406,0.129908 a 5.6013265,5.6013265 0 0 1 -0.48396,0.547653 z m 6.46737,1.612385 h -0.80746 l -0.21906,0.127361 0.028,-0.193586 -0.45086,0.127356 -0.32349,-0.448311 c 0.21651,-0.387171 0.42029,-0.583313 0.61642,-0.583313 l 0.19104,0.0968 a 0.8584116,0.8584116 0 0 0 0.28784,-0.320947 l 0.32095,-0.132459 0.32349,0.101894 -0.19358,0.160464 0.2267,0.06627 c -0.10699,0.04075 -0.16302,0.07898 -0.16302,0.127356 0,0.08665 0.0764,0.157931 0.22925,0.224156 v 0.547653 l -0.0663,0.101885 z m -0.0968,-4.062813 -0.0663,-0.226699 h 0.12991 l 0.0637,0.226699 z m -0.0663,2.577784 a 1.986828,1.986828 0 0 1 0.14265,-0.22925 c 0.0764,-0.104436 0.16811,-0.244524 0.2751,-0.415194 l 0.25726,0.61643 -0.32095,0.320946 z m 0.16302,1.485029 c 0.0204,0 0.0204,0.01271 0,0.03057 z m 0.89917,-3.224771 -0.29039,-0.135002 -0.0968,-0.382085 0.38718,-0.547654 0.19359,0.320955 v 0.547654 z m 2.99043,1.576726 h -0.29038 a 5.1199026,5.1199026 0 0 0 -0.30567,0.483971 13.976571,13.976571 0 0 0 -0.30567,0.583313 l -0.16047,-0.160482 -0.16047,0.160482 -0.12737,-0.160482 c -0.10698,0.106988 -0.21397,0.160482 -0.32095,0.160482 l -0.35661,-0.160482 a 9.949423,9.949423 0 0 1 -0.41519,0.578227 l -0.28783,-0.0968 c 0.10698,-0.106988 0.16047,-0.331135 0.16047,-0.677561 l 0.80237,-0.868599 a 2.8070313,2.8070313 0 0 1 -0.35406,-0.178308 l -0.44831,-0.272546 a 1.8772977,1.8772977 0 0 1 0.41775,-0.550205 c 0.0204,0.02299 0.0942,0.270013 0.22415,0.738701 l 0.0331,-0.127365 0.16048,0.06627 -0.0636,-0.196133 0.16047,0.101885 c 0.23944,-0.331135 0.41265,-0.705575 0.50944,-1.100392 l 0.16303,0.356606 0.19359,-0.129908 0.48397,0.290381 a 1.3831379,1.3831379 0 0 1 0.22415,-0.06366 c 0.19104,0 0.40756,0.117168 0.64445,0.354064 l 0.12736,-0.224156 0.12736,0.415194 c -0.10698,0.08915 -0.22925,0.183393 -0.36935,0.292932 a 9.5902655,9.5902655 0 0 0 -0.46613,0.384629 z m -1.57418,-2.058154 -0.16048,-0.129907 0.0688,0.19359 c -0.21651,0.02038 -0.38208,-0.0968 -0.48397,-0.356615 a 7.3818301,7.3818301 0 0 1 -0.25982,-0.644444 l 0.29039,-0.09679 0.19358,-0.127357 0.16303,0.127357 0.44575,0.03562 0.0663,0.318394 a 3.1509054,3.1509054 0 0 0 -0.12737,0.295484 4.2665857,4.2665857 0 0 1 -0.19357,0.387172 z m 0.0968,-3.097414 0.22416,0.320954 0.0943,-0.06366 -0.22161,-0.356614 z m 24.63667,-1.485021 c 0,0.366794 -0.20378,1.031624 -0.61387,1.999557 l 0.16047,-0.127356 c -1.30672,1.95626 -1.96135,3.148357 -1.96135,3.578834 0.0891,0.254721 0.30566,0.54511 0.64444,0.932282 0.34387,0.04337 0.49161,0.19359 0.45085,0.455956 l 0.19359,0.348969 c 0.21397,0.02543 0.59095,0.455948 1.12587,1.291433 a 1.7779564,1.7779564 0 0 0 -0.29038,0.64445 l 0.16047,-0.16048 c -0.0254,0.15029 -0.32349,0.34643 -0.90171,0.58077 -0.57823,0.23435 -0.90936,0.44067 -0.99342,0.61388 l -0.51708,0.0611 -0.12736,-0.22415 a 0.70048422,0.70048422 0 0 0 -0.51199,0.22415 c -0.16557,0.12736 -0.32859,0.25472 -0.48652,0.38972 -0.55783,0.0611 -0.83294,0.18086 -0.83294,0.35662 h -0.48397 l 0.0306,-0.135 c 0,-0.0408 -0.0509,-0.079 -0.16048,-0.12737 a 0.67755925,0.67755925 0 0 1 -0.16046,0.0993 5.2956607,5.2956607 0 0 0 -0.61389,-0.6801 1.3856852,1.3856852 0 0 1 -0.34897,-0.83549 l -0.12735,0.12736 a 7.4251331,7.4251331 0 0 1 -0.38973,-0.62916 1.5283292,1.5283292 0 0 0 -0.19359,-0.30567 2.330702,2.330702 0 0 0 -0.73869,-0.771802 l -0.44831,0.06113 -0.16303,-0.224156 -0.12735,0.224156 -0.0663,-0.127365 c -0.10698,-0.08665 -0.4483,-0.137545 -1.02906,-0.163016 a 7.6849489,7.6849489 0 0 0 -1.0622,0 l -0.2267,-0.290381 -0.1885,0.132451 c -0.60369,-0.08665 -1.50031,-0.657184 -2.70259,-1.706634 v 0.09425 c -0.0408,-0.127365 -0.38463,-0.562936 -1.03163,-1.288896 -0.51198,-0.601139 -0.73869,-1.044356 -0.67246,-1.324548 a 4.1927164,4.1927164 0 0 1 -0.93483,-2.160038 1.1971913,1.1971913 0 0 1 -0.25472,-0.708127 0.8660532,0.8660532 0 0 1 0.0306,-0.259815 c -0.1503,-0.170662 -0.26747,-0.644444 -0.35407,-1.421347 -0.10699,-0.789634 -0.23689,-1.306722 -0.38718,-1.541063 l 0.2267,-0.356611 -0.3235,-0.517082 v -1.158985 c 0,-1.548711 0.10699,-2.333251 0.3235,-2.353626 0.0434,-0.219059 0.0637,-0.37699 0.0637,-0.483972 0,-0.106988 -0.0204,-0.267459 -0.0637,-0.483974 0.0891,-0.17321 0.20888,-0.491612 0.3668,-0.952655 l 0.66228,-1.884942 c 0.34388,-1.095302 0.86605,-1.999564 1.57673,-2.707691 0.66227,-0.692837 1.84418,-1.492668 3.54063,-2.419848 l 0.12226,0.127356 0.10189,-0.127356 0.0637,0.127356 0.28783,-0.221609 0.45086,0.09425 0.35151,-0.22416 a 2.4555156,2.4555156 0 0 1 0.74379,0.06113 l 0.22416,-0.224154 c 0.50944,0.04333 0.92973,0.07896 1.25068,0.112077 0.32095,0.03312 0.54765,0.05095 0.67755,0.05095 l 0.0637,0.127362 0.45086,-0.127362 0.16048,0.127362 h 0.45085 l 0.45085,0.323497 h 0.35152 l 0.58076,0.514531 0.0637,-0.16047 c 1.17936,0.687747 2.08108,1.464648 2.70005,2.320516 0.21396,0.36934 0.53746,1.072378 0.96795,2.12947 0.40755,1.031619 0.7183,1.676068 0.92973,1.935881 l -0.028,0.382081 c -0.023,0.219064 0.0102,0.659733 0.0968,1.324556 l 0.0942,0.866053 c 0.0204,0.221604 0.0306,0.356611 0.0306,0.422839 a 2.317966,2.317966 0 0 1 -0.0968,0.710672 l 0.12735,0.160471 c -0.0408,0.343876 0.0127,0.611335 0.16303,0.810019 0,1.693897 -0.32096,3.166184 -0.9654,4.414326 a 0.58840677,0.58840677 0 0 1 0.0663,0.254721 z m -13.89506,-14.348469 -0.16302,0.09679 v 0.0968 l 0.2267,-0.0968 z m 7.47608,6.676251 a 24.122129,24.122129 0 0 1 -0.14265,-0.840579 c -0.15028,-1.115676 -0.33113,-1.653143 -0.54765,-1.612384 a 2.8961839,2.8961839 0 0 0 -0.57821,-0.417744 v -0.226705 l -0.16303,0.127362 c -0.0611,-0.104438 -0.1783,-0.137552 -0.35406,-0.09425 -0.23689,0.04587 -0.36171,0.05095 -0.38208,0.03312 l -0.12737,0.16047 c -0.023,-0.02296 -0.079,-0.03312 -0.16302,-0.03312 -0.10698,0 -0.25981,0.117177 -0.45085,0.354066 L 166.6718,81.6385 a 1.6811621,1.6811621 0 0 0 -0.16302,0.19359 c -0.0815,0.19359 -0.16047,0.366801 -0.2216,0.519632 a 1.6938982,1.6938982 0 0 1 -0.22671,0.38208 l 0.12736,0.19359 -0.18849,-0.16047 a 0.68774814,0.68774814 0 0 1 0.12736,0.422839 c 0,0.06113 -0.0179,0.19104 -0.051,0.387175 a 2.9853364,2.9853364 0 0 0 -0.0484,0.38208 l -0.16048,-0.157926 c 0.0204,0.193585 0.0204,1.001055 0,2.419853 h 0.19359 c -0.15283,0.168116 -0.2267,0.687748 -0.2267,1.543611 0,0.476333 0.0255,1.054553 0.0815,1.74485 0.0535,0.68774 0.135,1.492666 0.24198,2.419845 l 0.12736,0.06113 -0.0306,0.163016 c 0,0.106988 0.0204,0.18085 0.0636,0.226707 l 0.0968,-0.160473 0.57822,0.96539 h 0.29038 c 0.12737,0 0.29803,-0.01019 0.50945,-0.0357 0.21651,-0.02038 0.37954,-0.03309 0.48396,-0.03309 h 0.25983 a 1.2914382,1.2914382 0 0 0 0.3235,-0.509442 l 0.12735,0.160473 c 0.47123,-0.799823 0.70813,-1.592009 0.70813,-2.386737 0,-0.517088 -0.0764,-1.044364 -0.22161,-1.581824 0.34133,-0.626614 0.48906,-1.472292 0.44831,-2.547215 l -0.0331,-1.388229 c -0.0459,-0.280198 -0.0942,-0.557846 -0.14774,-0.835489 z m 17.8356,16.248693 c -2.55486,0 -4.4882,-0.728506 -5.80765,-2.193158 -1.31945,-1.462101 -2.10399,-3.772425 -2.36127,-6.928428 -0.0688,-0.797279 -0.0968,-3.173828 -0.0968,-7.127107 0,-0.06623 -0.0102,-0.320947 -0.0331,-0.776896 l -0.0968,-1.93079 c -0.0509,-1.148796 -0.0815,-2.300137 -0.0968,-3.451478 0,-0.993415 0.0535,-1.676067 0.16048,-2.063247 a 1.0825665,1.0825665 0 0 1 -0.22416,-0.61133 c 0,-0.430478 0.37699,-0.697937 1.12332,-0.807469 a 3.9227116,3.9227116 0 0 1 1.57928,0 l 0.29038,-0.160471 0.28783,0.160471 0.32095,-0.160471 a 1.3754963,1.3754963 0 0 0 0.67501,0.127356 2.2670217,2.2670217 0 0 0 1.19211,-0.290377 c 0.40245,0.216509 0.9934,0.323492 1.76776,0.323492 0.45086,2.104001 0.67247,4.793863 0.67247,8.05939 0,0.687747 -0.028,2.172774 -0.0943,4.449986 -0.0255,1.482483 -0.0459,2.967502 -0.0636,4.44998 0,0.280201 0.0535,0.552748 0.16046,0.825303 a 2.4147601,2.4147601 0 0 0 1.1106,1.240497 1.65569,1.65569 0 0 0 0.75652,0.193581 c 1.0087,0 1.5105,-0.896614 1.5105,-2.674575 0,-0.753975 -0.0637,-2.422397 -0.19359,-5.002726 l -0.11208,-3.189119 a 47.607452,47.607452 0 0 1 -0.0459,-1.808519 c 0,-3.268082 0.25218,-5.501985 0.76926,-6.706819 l 0.64445,-0.163021 0.35151,0.163021 0.83804,-0.420289 c 0.51453,0.132451 1.08256,0.193584 1.70409,0.193584 0.66228,0 1.12841,-0.09679 1.38313,-0.285282 l 0.57822,0.351516 0.2267,-0.160475 0.67247,0.290382 c 0.25727,0.17066 0.39737,0.354061 0.42028,0.550196 -0.17321,0.57567 -0.25981,1.339835 -0.25981,2.287402 0,0.407554 0.0331,1.069827 0.0968,1.997019 l 0.25981,3.578833 c 0.25473,2.878352 0.38718,4.74037 0.38718,5.578403 0,4.279323 -0.83039,7.371643 -2.47845,9.28715 -1.65059,1.869649 -4.30989,2.804485 -7.97532,2.804485 z m 3.66799,-21.539259 -0.25472,-0.417744 c 0,0.150286 0.0434,0.303117 0.13755,0.453408 a 1.1971913,1.1971913 0 0 1 0.14773,0.254724 l -0.0636,0.292927 h -0.51708 l 0.38717,0.320947 0.38208,-0.19359 a 2.1702274,2.1702274 0 0 0 0.29294,-0.937371 h -0.29038 l -0.22416,0.229249 z m 1.15389,5.677746 c -0.0815,-0.216515 -0.17067,-0.326048 -0.25473,-0.326048 a 0.68010648,0.68010648 0 0 1 -0.58076,0.326048 l -0.12736,-0.06623 a 1.5792735,1.5792735 0 0 1 0.28783,-0.517086 l 0.29038,0.06368 -0.028,-0.320951 c -0.0255,-0.170661 0.0943,-0.731052 0.34897,-1.673518 l -0.28783,-0.262368 c 0,0.173216 -0.15283,0.443218 -0.45086,0.804925 l 0.19104,0.649538 h -0.57567 l 0.0306,0.677562 -0.0306,0.22415 -0.3235,-0.06622 v 1.451913 l 0.35662,0.16047 0.4483,-0.16047 0.0306,-0.226705 a 1.1462469,1.1462469 0 0 0 0.24199,0.05095 1.1819079,1.1819079 0 0 1 0.30567,0.08151 v 0.254723 c 0.21651,-0.127356 0.34386,-0.247079 0.38718,-0.35661 a 1.5028571,1.5028571 0 0 1 -0.25983,-0.257269 c -0.0993,-0.127356 -0.19359,-0.254718 -0.28783,-0.38208 l 0.0968,-0.129907 0.0968,0.160471 h 0.45086 l 0.22415,-0.387175 -0.35661,0.226704 z m -1.2838,-6.869841 0.29038,0.450854 0.22161,-0.483967 0.0968,0.132456 -0.3566,-0.644444 -0.25472,0.545101 z m 1.02907,2.743351 a 1.2455883,1.2455883 0 0 1 -0.38717,0.06113 l -0.16047,-0.03053 v -0.519632 h -0.28784 l -0.19359,0.970485 c 0.17067,0.106983 0.22161,0.280198 0.16047,0.514537 h 0.3235 c 0.23434,-0.427929 0.48143,-0.654633 0.73869,-0.675007 z m -0.74123,-1.872203 0.35406,-0.19359 -0.19359,-0.22925 z m 0.22415,6.546343 h 0.29038 v 0.127363 h -0.28783 v -0.12736 z m 0.93483,-4.256402 -0.19359,-0.06367 -0.0942,0.19104 c 0.10698,0.04587 0.2216,0.101888 0.34896,0.1783 l 0.4534,0.272553 -0.0968,-0.80492 z m -0.0968,0.578221 h -0.16303 v 0.483973 h 0.16302 z m 0.0636,-1.640408 h -0.12735 l 0.0636,0.804925 h 0.16048 z M 193.07358,78.159 a 2.437685,2.437685 0 0 0 -0.50944,0.320958 l 0.18595,-0.06368 c 0.0663,0 0.14264,0.03819 0.22925,0.112077 a 6.3425661,6.3425661 0 0 1 0.57821,0.596045 l 0.0968,-0.193585 c -0.19359,-0.168116 -0.2802,-0.364256 -0.25727,-0.57822 z m -0.41519,5.644632 0.22415,0.0917 v -0.320951 z m 0.0968,-5.838217 0.22416,0.193585 a 0.36425179,0.36425179 0 0 0 0.0306,-0.16047 1.6760677,1.6760677 0 0 1 -0.12737,-0.323497 z m 0.12736,3.833563 0.12736,0.06878 0.0993,-0.229254 -0.12735,-0.03053 z m 0.51454,-2.644013 h -0.28784 l -0.19613,0.326042 0.25982,0.547651 0.57821,-0.09679 c -0.25727,-0.193585 -0.38718,-0.387175 -0.38718,-0.583311 a 0.45849878,0.45849878 0 0 1 0.0331,-0.19359 z m -0.28784,6.255961 h -0.12735 v 0.292928 h 0.12735 z m 0.44831,1.036719 h -0.38208 v 0.124812 h 0.38208 v -0.127362 z m -0.12736,-8.999317 h -0.12736 v 0.450859 h 0.12736 z m 1.60475,4.322631 v -0.483973 l -0.5451,0.323492 v 0.320951 h -0.19359 l -0.16048,-0.132451 c 0.0459,-0.127367 0.0917,-0.254723 0.14519,-0.38463 0.0535,-0.127362 0.1019,-0.270008 0.14519,-0.417744 0.15284,-0.343876 0.33369,-0.504353 0.54511,-0.483973 l -0.50944,-0.132457 c -0.17576,-0.03819 -0.25982,-0.147736 -0.25982,-0.318402 l -0.32095,0.483973 -0.3566,-0.422834 a 1.0749249,1.0749249 0 0 0 -0.0637,0.323492 c 0,0.239438 0.0968,0.399915 0.29039,0.483972 l -0.0968,0.160471 a 0.60623727,0.60623727 0 0 1 0.21142,-0.224149 1.9358837,1.9358837 0 0 0 0.30313,-0.257274 l 0.12735,0.127362 c -0.15028,0.152836 -0.22415,0.407555 -0.22415,0.774355 0,0.173211 -0.11972,0.310762 -0.34897,0.420289 l -0.29038,-0.132451 v 0.292928 c 0.12735,0.04328 0.27255,0.387175 0.44831,1.031618 0.16812,0.644449 0.32349,0.975591 0.45086,0.99851 a 1.372949,1.372949 0 0 0 -0.0968,0.483973 v 0.127361 h 0.38463 l 0.25472,-0.481422 -0.19104,0.163021 -0.29039,-0.19359 c 0.17322,-0.132458 0.33115,-0.267459 0.48398,-0.417745 l -0.19359,-0.387175 -0.0993,0.320952 a 1.7015398,1.7015398 0 0 1 -0.44831,-0.57822 0.47632929,0.47632929 0 0 0 0.25726,-0.356611 l -0.16047,-0.127357 c 0.19359,-0.109533 0.4585,-0.19359 0.80747,-0.259818 l -0.3235,-0.417745 0.32095,-0.224155 z m -0.86605,-2.93694 -0.0968,0.389725 0.29038,0.420284 0.12737,-0.196135 -0.32095,-0.611329 z m -0.0968,7.577962 0.29038,0.387175 0.0993,-0.578216 h -0.29293 z m 0.0637,-8.189297 0.10188,0.257274 h 0.31841 l -0.19359,-0.483978 -0.2267,0.229254 z m 0.2267,7.06088 0.29038,-0.09679 a 2.165133,2.165133 0 0 0 -0.2267,-0.127362 c -0.0434,0.04079 -0.0637,0.117172 -0.0637,0.224154 z m 0.19359,0.743786 -0.0942,0.09425 0.18848,0.226705 0.0993,-0.06622 z m 0.51199,11.026899 -0.48397,0.417746 0.0688,0.09679 0.48142,-0.450854 z m 0.3235,-18.41127 -0.35662,0.54765 0.0993,0.453399 0.48398,-0.38972 c -0.0663,-0.04079 -0.14265,-0.249629 -0.2267,-0.611329 z m -0.35662,4.865175 0.48397,0.38718 c 0.0459,-0.338781 0.12991,-0.57822 0.25982,-0.705576 l -0.64445,-0.0968 -0.0968,0.417745 z m 0.0993,-5.221786 0.16048,0.257262 h 0.3235 l -0.29039,-0.54765 z m 0.16048,4.159599 v 0.290382 h 0.3235 z m 0.86605,-1.966451 c -0.10698,0.109533 -0.20377,0.163027 -0.28783,0.163027 -0.12737,-0.08661 -0.19104,-0.226705 -0.19104,-0.422839 l -0.29038,0.259812 a 2.0836222,2.0836222 0 0 0 0.30566,0.468688 c 0.16302,0.203775 0.35661,0.478879 0.5935,0.822755 l -0.0637,0.16047 -0.41774,-0.320951 a 1.1717191,1.1717191 0 0 0 -0.0306,0.320951 l 0.0306,0.320953 h 0.35151 l 0.35661,-0.483973 c 0,-0.04079 -0.0764,-0.224154 -0.22925,-0.547651 -0.12736,-0.320953 -0.16812,-0.56803 -0.12736,-0.738691 z m -0.73869,4.253852 h 0.12991 l 0.0968,-0.481422 h -0.12736 l -0.0968,0.483967 z m 0.80492,0.871149 c -0.36425,-0.168117 -0.55529,-0.351516 -0.57822,-0.547652 l -0.19358,0.323497 0.67246,0.99851 h 0.38973 v -0.384631 z m -0.0968,-2.353626 c -0.0892,0.112077 -0.17067,0.229244 -0.24199,0.356612 a 7.3436216,7.3436216 0 0 1 -0.26745,0.420284 l 0.23688,0.417743 c 0.0968,0.175761 0.21906,0.376991 0.36935,0.611335 h 0.29039 c 0.0433,-0.170666 0.0764,-0.407554 0.0942,-0.708127 l -0.41774,-0.354066 0.0637,-0.259813 0.2267,0.09679 0.19614,-0.19359 v -0.38717 z m -0.22161,4.610452 h -0.16303 v 0.483979 h 0.16303 z m 0.4152,-7.445505 0.1299,0.06368 0.0968,-0.320952 h -0.12737 z m 0,14.345913 v 0.483971 h 0.16046 v -0.483971 h -0.16301 z m 0.2267,-5.094429 -0.12737,0.0357 0.0943,0.287838 h 0.1299 l -0.0968,-0.320955 z m 0.57822,1.645503 h -0.12737 v 0.483971 h 0.12737 z M 207.19541,79.06072 c -0.0636,0.838034 -0.0968,1.528332 -0.0968,2.065793 0,0.575671 0.0331,1.072378 0.0968,1.479932 l -0.0636,0.127357 0.22161,0.163026 -0.16048,-0.06368 c -0.12736,0.713217 -0.19359,1.436624 -0.1885,2.165131 0,0.188495 0.008,0.509441 0.0306,0.94247 0.0204,0.443214 0.0509,1.006149 0.0968,1.696447 0.0407,0.687748 0.0764,1.255781 0.0968,1.693903 0.0204,0.440666 0.0306,0.756518 0.0306,0.950108 0,0.863496 -0.0636,1.609843 -0.19359,2.256838 a 1.2481355,1.2481355 0 0 1 0.0662,0.38718 c 0,0.08656 -0.023,0.236887 -0.0662,0.453397 l 0.12736,0.06366 -0.1885,4.801505 -0.74123,0.519631 a 1.2939854,1.2939854 0 0 0 -0.70813,0.06366 l -0.0637,-0.163016 -0.99341,0.101885 c 0.0204,-0.08915 -0.0255,-0.135002 -0.135,-0.135002 a 1.7626729,1.7626729 0 0 0 -0.57822,0.132459 c -0.17066,-0.132459 -0.30057,-0.196141 -0.38208,-0.196141 -0.12991,0 -0.1401,0.03309 -0.0331,0.0968 h -0.42029 l -0.16048,0.163016 -0.51452,-0.163016 v 0.224147 l -0.19359,-0.224147 -0.0637,0.163016 -0.16046,-0.163016 v 0.193582 l -0.29039,0.06366 -0.12736,-0.09426 c -0.0637,0 -0.1834,-0.01271 -0.35661,-0.03309 a 3.5864792,3.5864792 0 0 0 -0.35152,-0.03057 c -0.49416,-0.626618 -0.73869,-1.828904 -0.73869,-3.614494 v -0.417745 c 0,-0.193582 0.0102,-0.438123 0.0331,-0.741244 0.0204,-0.305663 0.0306,-0.547653 0.0306,-0.738692 v -0.455948 c 0.0866,-0.04337 0.14265,-0.191047 0.17831,-0.450853 0.0306,-0.259824 0.0688,-0.407558 0.10952,-0.453414 l -0.0306,-10.188863 c -0.0866,-0.0382 -0.13754,-0.695387 -0.16302,-1.963899 a 16.584919,16.584919 0 0 1 -0.028,-0.937377 V 78.12584 c 0,-1.352576 0.34134,-2.030134 1.02909,-2.030134 l 0.12735,-0.127362 0.28784,-0.101887 0.16047,0.163021 0.70813,-0.160476 0.48397,0.290382 c 0.28019,-0.02296 0.56549,-0.0382 0.86606,-0.05095 0.30312,-0.0127 0.60114,-0.0127 0.90171,-0.0127 -0.0434,-0.06623 0.023,-0.09934 0.19358,-0.09934 a 2.0887166,2.0887166 0 0 1 0.50945,0.101892 c 0.58586,-0.04841 0.93737,-0.03566 1.06474,0.0255 l 0.83803,0.649538 -0.22671,0.127361 0.28784,0.132452 c -0.0279,0.239445 -0.0509,0.481428 -0.0611,0.723412 -0.0204,0.331142 -0.0535,0.76671 -0.0968,1.306721 z m -3.92272,16.411712 -0.19358,0.160473 0.0611,0.09934 0.19359,-0.196141 z m 0.41521,0.272547 a 21.080754,21.080754 0 0 0 -0.22416,0.598595 l 0.35661,0.03057 0.0306,-0.191039 0.0968,0.129908 c 0,-0.213967 -0.0331,-0.540016 -0.0968,-0.96795 z m 0.93482,-2.883448 0.19359,-0.19359 -0.35661,-0.287829 0.16302,0.48397 z m 2.63637,-10.351878 -0.0636,0.127357 v -0.03053 z m 12.09418,10.285653 -0.48397,-0.450854 a 1.9104115,1.9104115 0 0 0 -0.35152,0.514536 l -0.19359,-0.160473 c -0.0254,0.150285 -0.0509,0.300569 -0.0637,0.450854 a 9.2718639,9.2718639 0 0 1 -0.0968,0.646995 h -0.32348 l -0.0968,-0.226698 0.22925,-0.453405 -0.22925,0.03309 a 25.752347,25.752347 0 0 0 -1.31691,-2.801939 c -0.21651,0.213967 -0.3133,0.738691 -0.29038,1.579268 -0.084,0.08665 -0.19105,0.343875 -0.3235,0.771809 l -0.22415,0.03309 0.19359,0.550204 0.0331,-0.135001 c 0.27765,0.562927 0.38463,1.013789 0.3235,1.360207 l 0.25472,0.384628 -0.4203,0.356615 c 0,0.191039 0.0357,0.611327 0.10189,1.258322 l 0.0943,0.789635 c 0.023,0.203778 0.0306,0.356614 0.0306,0.468688 0,0.662278 -0.21396,1.265968 -0.64445,1.800881 l -0.57821,-0.290381 h -0.16302 l -0.21907,0.290381 -0.96793,-0.09679 c -0.19615,-0.02038 -0.27001,-0.04075 -0.22671,-0.06113 l -0.12736,-0.13245 -0.51453,0.06627 -0.12737,0.160464 h -0.77435 l -0.12736,0.129908 c -0.29803,0 -0.54765,-0.0052 -0.7387,-0.01533 a 3.4030797,3.4030797 0 0 1 -0.45086,-0.05094 c -0.16811,-0.257273 -0.37698,-0.351521 -0.61132,-0.29039 a 3.9991281,3.9991281 0 0 0 0.051,-1.17172 c -0.0153,-0.208864 -0.028,-0.458491 -0.051,-0.761611 -0.15029,-0.213967 -0.22926,-0.631713 -0.22926,-1.253237 0,-1.851824 0.079,-3.120335 0.22926,-3.808084 a 20.145926,20.145926 0 0 0 -0.29039,-1.548703 l 0.28784,-0.514545 a 16.320008,16.320008 0 0 0 -0.61133,-1.258322 6.9793698,6.9793698 0 0 0 0.35661,-0.738688 2.3510798,2.3510798 0 0 0 0.16047,-0.585861 c 0.0408,-0.104432 0.0764,-0.56548 0.0942,-1.380589 -0.16812,-0.135002 -0.25472,-0.272553 -0.25472,-0.42284 0,-0.06368 0.0382,-0.196134 0.11207,-0.399915 a 1.538518,1.538518 0 0 0 0.11463,-0.402454 1.7703147,1.7703147 0 0 1 -0.2267,-0.840583 c 0,-0.193591 0.0306,-0.61133 0.0968,-1.260873 0.0611,-0.641894 0.0942,-1.049449 0.0942,-1.222665 l 0.19359,-0.06623 v -2.351081 l -0.35662,-0.514531 v -0.389725 c 0.0484,-0.02037 0.15284,-0.397365 0.3235,-1.125871 l -0.16047,0.127361 c 0.21396,-0.427934 0.32605,-0.667368 0.32605,-0.713216 0.14773,-0.254724 0.3617,-0.359162 0.63934,-0.320952 l 0.16048,-0.127363 0.45341,0.06368 c 0.0433,-0.127368 0.28783,-0.170666 0.73614,-0.127368 l 0.16048,0.127368 c 0.38717,-0.02037 0.81765,-0.02037 1.29143,0 0.3617,0 0.83294,-0.07642 1.41371,-0.22416 l 0.22415,0.160476 a 0.64699268,0.64699268 0 0 1 0.41774,-0.127356 c 0.13246,0.0076 0.26237,0.02544 0.38718,0.06367 0.66482,0.60369 0.99341,1.227764 0.99341,1.869658 l 0.0663,-0.03312 0.0688,0.06623 -0.0688,0.257264 c 0.40756,0.728506 0.61134,1.324556 0.61134,1.775415 l 0.0968,-0.03312 c 0.25982,0.840578 0.36935,1.416248 0.3235,1.7372 l 0.12736,-0.127362 c 0.14774,0.366801 0.3184,0.840584 0.49671,1.421344 0.1834,0.578221 0.38208,1.248138 0.59859,1.997025 l 0.3235,0.290377 0.18594,-0.06622 0.0688,-0.578221 0.12736,-0.16047 c 0.0408,-0.43048 0.0611,-0.858408 0.0637,-1.291443 0,-1.352565 -0.14011,-2.267017 -0.41775,-2.738255 l 0.28783,-0.807464 -0.22415,-0.127362 v -0.356611 l 0.29038,-0.19104 -0.22415,-0.229249 0.28784,-0.417744 -0.19105,-0.226699 -0.0688,-1.064739 0.1299,-0.19104 v -0.453403 l 0.61134,-0.417744 0.58076,0.160475 0.22926,-0.226704 a 1.749937,1.749937 0 0 1 0.50944,0.226704 c 0.33114,-0.06113 0.66227,-0.08152 0.9985,-0.06368 l 0.0663,0.06368 c 0.32094,-0.08661 0.72596,-0.127361 1.22266,-0.127361 0.25472,0 0.45595,0.04079 0.60878,0.127361 l 0.35661,-0.06368 c 0.17067,0.127361 0.39228,0.170666 0.67248,0.127361 l 0.3566,0.483974 -0.0993,0.09934 c 0.18341,0.593505 0.27001,1.212474 0.25473,1.833993 0,0.282742 -0.0254,0.82021 -0.0943,1.614939 l -0.0509,1.001054 a 13.805907,13.805907 0 0 0 -0.0127,0.547652 c 0,0.77181 0.11716,1.339835 0.35151,1.709181 -0.12736,0.147736 -0.19869,0.397365 -0.22161,0.738696 v 0.420284 c 0,0.150292 0.0102,0.343877 0.0306,0.578221 l 0.0637,0.840583 c 0,0.19359 -0.084,0.483968 -0.25473,0.873693 l 0.16047,0.06113 a 2.7255204,2.7255204 0 0 0 0,0.644443 c 0.0204,0.152837 0.0306,0.280199 0.0306,0.387181 v 0.257268 c 0,0.43048 -0.0764,0.787098 -0.2267,1.064739 l -0.38208,-0.22925 0.0586,-0.15793 c -0.29549,-0.02299 -0.49927,-0.08656 -0.60625,-0.193582 v 0.710669 a 3.9583727,3.9583727 0 0 0 -0.71066,0.384629 L 224.2236,89.65199 a 2.0479611,2.0479611 0 0 1 -0.20377,-0.239438 0.38717673,0.38717673 0 0 1 -0.0968,-0.22925 1.7983341,1.7983341 0 0 1 0.54511,-0.51454 c 0.19103,-0.127362 0.28783,-0.343871 0.28783,-0.641899 l -0.22669,-0.483972 0.12735,-0.646989 0.71322,-0.611334 a 1.2990798,1.2990798 0 0 1 0.25472,0.611334 1.0214333,1.0214333 0 0 0 0.22162,-0.547651 v -0.09425 l -0.76927,-0.80747 -0.29038,0.224154 c -0.0637,-0.06623 -0.12737,-0.247078 -0.19359,-0.547651 -0.0408,-0.173211 -0.18085,-0.259813 -0.41519,-0.259813 h -0.12737 v 0.193585 l -0.29038,-0.02799 c -0.12991,0.0382 -0.19613,0.07897 -0.19613,0.127362 0,0.127357 0.13245,0.203775 0.38717,0.224154 a 0.88388373,0.88388373 0 0 1 -0.0968,0.275098 0.94246965,0.94246965 0 0 0 -0.0943,0.272554 c 0,0.06623 0.0331,0.140096 0.0943,0.224153 -0.084,0.02545 -0.12736,0.05859 -0.12736,0.101888 0,0.01783 0.0866,0.07896 0.25472,0.19359 l -0.12736,0.0917 -0.19104,0.132452 -0.13246,-0.09934 -0.28529,0.295477 -0.57822,-0.229249 v 0.257268 c 0,0.23944 0.0255,0.473784 0.0637,0.708128 l 0.16047,-0.127362 -0.22415,0.320952 0.0637,0.09934 -0.0637,0.22416 -0.19358,-0.06623 0.32094,0.356611 a 2.1498497,2.1498497 0 0 0 -0.0636,-0.514537 l 0.12736,0.160476 c 0.36425,-0.751425 0.66227,-1.128416 0.90171,-1.128416 l 0.3235,0.483972 v 0.320947 c -0.15283,0.02037 -0.22925,0.196135 -0.22925,0.517087 0,0.203775 0.0255,0.410099 0.0688,0.611333 A 1.3780434,1.3780434 0 0 1 222.9552,88.4803 l -0.12991,0.481426 c 0.0892,0.193582 0.1834,0.435572 0.29038,0.741235 0.10699,0.298026 0.2267,0.654641 0.35662,1.062198 l -0.25983,0.450854 -0.22669,0.160473 -0.38209,-0.03057 0.0637,-0.904259 a 3.0643001,3.0643001 0 0 1 -0.50181,-0.466137 13.576658,13.576658 0 0 1 -0.62406,-0.759078 l -0.19359,0.160482 c 0.10189,-0.152836 0.15792,-0.331134 0.16302,-0.514536 a 1.6378595,1.6378595 0 0 0 -0.0357,-0.320952 c 0,0.02037 -0.0968,0.05095 -0.29038,0.09679 -0.19104,0.04333 -0.28783,0.106983 -0.28783,0.19104 0,0.04333 0.0637,0.173216 0.18849,0.387174 l 0.16302,-0.127356 c -0.0434,0.366803 -0.20377,0.883882 -0.48397,1.546161 l 0.25981,0.224155 0.0637,-0.285286 0.25981,0.0917 -0.16301,0.389732 -0.3235,-0.29039 -0.1885,0.420289 0.12482,0.19359 a 2.5395737,2.5395737 0 0 1 0.7769,0.611335 c 0.0178,0.152828 0.30822,0.644444 0.86605,1.482478 l -0.12736,0.323498 c 0.0611,0.106988 0.10443,0.440665 0.12736,0.998507 l 0.12736,0.127365 c 0.0662,-0.04084 0.15029,-0.211425 0.25472,-0.511994 0.0917,-0.213967 0.21651,-0.343874 0.38973,-0.389723 l 0.2267,-0.224155 h 0.54511 l 0.67501,1.031624 -0.2267,-0.127365 -0.83294,0.448311 h -0.51709 l -0.28784,-0.320946 -0.25726,0.354054 v 0.710678 c 0,0.08665 0.0204,0.127365 0.0636,0.127365 0.12737,0 0.35407,-0.191047 0.67247,-0.58077 0.023,0.06627 0.0764,0.09679 0.16047,0.09679 a 0.29292976,0.29292976 0 0 0 0.16303,-0.06366 c 0.0663,-0.04337 0.10699,-0.06627 0.12735,-0.06627 a 0.8660532,0.8660532 0 0 1 0.4203,0.163025 v 0.611336 c 0.14773,0.14519 0.22925,0.343866 0.2267,0.550196 l -0.0331,0.19359 -0.67502,-0.517088 -0.58076,1.676068 c 0,0.106988 0.0331,0.170661 0.0968,0.19359 0.023,0.02543 0.0663,0.03309 0.12736,0.03309 a 1.8823922,1.8823922 0 0 0 -0.17321,0.420288 18.008813,18.008813 0 0 0 -0.17831,0.611336 0.89916699,0.89916699 0 0 1 -0.58076,-0.06627 1.3754963,1.3754963 0 0 1 -0.99596,0.453405 c -0.79218,0 -1.49012,-0.524725 -2.08871,-1.579277 l 0.12735,-0.259815 c -0.56038,-1.222663 -0.83803,-2.086168 -0.83803,-2.575233 0,-0.109531 0.0866,-0.389723 0.25982,-0.840585 0.19104,-0.453397 0.28528,-0.804917 0.28528,-1.062181 l -0.12735,0.09425 0.12735,-0.160482 a 1.999564,1.999564 0 0 1 -0.028,-0.420288 l 0.25727,-0.127357 z m -3.95838,2.470796 a 0.68774814,0.68774814 0 0 1 -0.19359,0.106979 l -0.18594,-0.481419 0.0254,-0.02795 c 0.0255,0 0.0433,-0.01019 0.0637,-0.03562 -0.0611,-0.06627 -0.19105,-0.106979 -0.38208,-0.127356 l -0.29294,0.285286 -0.41519,-0.224156 -0.16302,0.295484 0.12991,0.124814 -0.35661,0.193581 c 0.0459,-0.173204 -0.0178,-0.376983 -0.19104,-0.613879 l -0.16303,0.163025 -0.28529,-0.160473 c -0.17321,0 -0.31076,-0.247084 -0.41774,-0.743786 a 1.65569,1.65569 0 0 0 0.12737,-0.25473 9.9596123,9.9596123 0 0 1 0.16301,-0.387171 3.2910022,3.2910022 0 0 0 -0.54764,0.384628 l -0.22925,-0.09679 a 1.2226634,1.2226634 0 0 1 -0.48397,0.356614 l -0.18596,-0.163024 v -0.254721 l -0.16047,0.483962 0.25472,0.160482 0.16048,-0.132459 c 0.12991,0.08665 0.27,0.185944 0.41774,0.292932 0.28019,0.193581 0.4203,0.37444 0.4203,0.547653 0,0.106979 -0.0866,0.208864 -0.25983,0.305663 -0.1732,0.09425 -0.25726,0.178299 -0.25726,0.241982 0.23689,0.236895 0.39736,0.356614 0.48396,0.356614 0.0434,0 0.0637,-0.02543 0.0637,-0.06879 l 0.16301,0.160473 0.16048,-0.160473 c 0.18849,0 0.30821,-0.09425 0.34897,-0.287838 l 0.38972,0.19359 c -0.19613,0.106988 -0.29292,0.213967 -0.29292,0.320955 0,0.06879 0.0331,0.140096 0.0968,0.226698 l 0.29293,-0.0357 v -0.02795 c -0.0254,-0.196141 0.1783,-0.473782 0.60878,-0.840577 l 0.22415,0.09679 0.29039,0.455948 0.12991,-0.135002 0.12735,0.226699 -0.0636,0.163033 0.35405,0.257264 0.16048,-0.257264 -0.22415,-0.320955 a 1.3143632,1.3143632 0 0 1 0.21141,-0.292932 c 0.10699,-0.122262 0.20888,-0.254721 0.30567,-0.387172 h -0.16302 c -0.0663,0 -0.15284,0.03823 -0.25981,0.117168 z m -3.95327,-2.114182 v 0.292933 h 0.12735 v -0.295484 h -0.12735 z m 2.57269,4.577341 -0.0637,-0.160473 a 5.1020723,5.1020723 0 0 0 -0.77435,-0.743786 l -0.28784,0.160473 -0.12991,-0.160473 -0.0611,0.160473 -0.25981,0.196133 0.38717,0.132459 0.16302,-0.160473 -0.0356,0.188487 0.16048,-0.129899 a 1.0367166,1.0367166 0 0 0 0.35661,0.387172 l -0.0688,0.420297 0.10189,-0.160482 0.0942,0.129908 -0.12735,0.160481 0.12735,0.160465 0.12737,-0.127356 0.16302,0.127356 0.0637,-0.127356 0.0637,0.127356 0.0611,-0.127356 0.16048,0.127356 -0.0942,-0.290372 0.16302,0.160464 a 0.53491523,0.53491523 0 0 0 0.0611,-0.224147 0.41519611,0.41519611 0 0 0 -0.22416,-0.38718 z m -0.84059,0.677561 -0.12735,0.226707 0.0663,0.129908 0.16302,-0.160482 z m 4.7964,-4.57735 0.19359,0.127365 c 0.0459,0.02543 0.0942,0.04589 0.1452,0.06366 l 0.24199,0.09679 a 0.48397093,0.48397093 0 0 1 -0.25982,0.292932 z m 1.1539,-0.48397 v 0.06627 l 0.0357,-0.03309 c 0,0.02551 0.0867,0.08403 0.25982,0.191038 l 0.0611,-0.127365 -0.25472,-0.295466 z m 0.29293,0.675018 -0.0637,0.06366 0.16047,0.196133 0.0943,-0.09934 z m 0.64189,0.738692 a 0.14009684,0.14009684 0 0 0 -0.0942,-0.02543 c -0.0866,0 -0.1401,0.09424 -0.16302,0.287829 l 0.0662,0.07898 a 0.95775299,0.95775299 0 0 0 0.0968,0.114616 c 0.0433,0.04589 0.0102,0.150293 -0.0968,0.320955 l 0.19104,0.196133 0.12736,-0.160474 0.16302,0.09171 v -0.514537 c 0,-0.17067 0.0892,-0.305672 0.25727,-0.417745 -0.34387,-0.106988 -0.56038,-0.213967 -0.64444,-0.320946 l 0.0968,0.351511 z m 0.51454,0.616421 -0.1885,0.160473 0.22162,0.09935 z m -0.0279,-5.705765 c 0.10189,-0.02299 0.2216,-0.05347 0.34897,-0.09679 l -0.28783,-0.259816 z m 0.89917,6.961544 a 0.77180626,0.77180626 0 0 1 -0.19614,-0.320955 l -0.16047,0.160482 a 2.9292976,2.9292976 0 0 0 -0.44831,-0.802374 l -0.0942,0.481428 0.3184,0.450854 c 0.084,0 0.12991,0.03056 0.12991,0.0968 0,0.150285 -0.10698,0.331135 -0.3235,0.550196 l 0.54765,-0.323498 0.22925,0.356606 a 1.65569,1.65569 0 0 1 0.4152,-0.713211 l -0.19359,-0.320955 z m 1.22011,-3.996579 -0.19104,-0.160474 -0.22925,0.06366 0.22925,-0.578219 c 0.14265,0.152827 0.25982,0.326041 0.35152,0.514536 z m 0.12991,0.87115 -0.35661,-0.320954 0.25727,-0.259807 0.35661,0.384629 -0.25472,0.196132 z m 0.64444,-1.197191 0.0917,0.389723 -0.41519,-0.254721 a 1.2073801,1.2073801 0 0 1 0.32349,-0.132459 z m 0.0917,-1.900223 v -0.287838 h 0.13246 v 0.287838 z m 0.3235,-3.869224 -0.0611,-0.191039 -0.0968,0.03058 0.0636,0.160475 z m -0.0611,3.935449 -0.0968,-0.03309 0.0636,-0.257272 h 0.12737 z m 2.02503,8.739497 c -0.0434,-0.303121 -0.19359,-0.5069 -0.45085,-0.611336 a 6.2534138,6.2534138 0 0 1 -0.67756,0.838034 l -0.0637,-0.165567 -0.16048,0.163024 0.0306,-0.06627 c 0,-0.06366 -0.0968,-0.0968 -0.28529,-0.0968 l -0.0662,-0.254721 c 0.10698,-0.04084 0.16047,-0.09934 0.16047,-0.163024 0,-0.213967 -0.11717,-0.30057 -0.35406,-0.254721 -0.0408,-0.173205 -0.0204,-0.303112 0.0688,-0.387172 l -0.29293,-0.226707 v -0.32604 l 0.32095,-0.160473 c 0.19359,0 0.5553,-0.397369 1.0953,-1.189555 l 0.16048,0.160473 h 0.15793 l 0.70812,-0.517079 a 1.8518256,1.8518256 0 0 0 0.25727,0.387172 l -0.0968,2.353628 z m -1.51304,-12.766643 0.25472,-0.389726 0.16303,0.160472 a 2.2491911,2.2491911 0 0 1 -0.25473,0.417744 z m 1.80342,6.994653 -0.0968,-0.295475 -0.0663,0.06618 -0.41773,-0.354063 -0.16303,0.127356 -0.15793,-0.221604 -0.12735,0.160481 a 0.39736559,0.39736559 0 0 0 -0.29294,-0.290389 l -0.19358,0.127356 c 0.3668,-1.095298 0.64699,-1.61748 0.83803,-1.579268 l 0.0306,-0.09425 0.4203,0.127356 0.28783,-0.285287 0.19613,0.160482 a 13.423825,13.423825 0 0 1 -0.0968,2.287395 z m 0,1.900223 -0.32348,0.03309 c -0.17576,0 -0.28021,-0.05347 -0.3235,-0.160473 l 0.0968,-0.38718 -0.44831,-0.06618 a 1.1462469,1.1462469 0 0 1 0.17575,-0.562936 c 0.11718,-0.206321 0.24199,-0.305663 0.36936,-0.305663 l 0.16301,0.127356 0.22416,-0.127356 0.17575,0.320946 0.2751,0.455948 c -0.25472,0.234353 -0.38463,0.4585 -0.38463,0.672467 z"
       id="path15"
       style="fill:#000000;stroke-width:2.54722" />
  </g>
</svg>
