<?xml version="1.0" encoding="UTF-8" standalone="no"?>
<svg
   height="50pt"
   viewBox="0 -48 46 50"
   width="46pt"
   version="1.1"
   id="svg830"
   sodipodi:docname="binoculars.svg"
   inkscape:version="1.1 (c4e8f9e, 2021-05-24)"
   xmlns:inkscape="http://www.inkscape.org/namespaces/inkscape"
   xmlns:sodipodi="http://sodipodi.sourceforge.net/DTD/sodipodi-0.dtd"
   xmlns="http://www.w3.org/2000/svg"
   xmlns:svg="http://www.w3.org/2000/svg">
  <defs
     id="defs834" />
  <sodipodi:namedview
     id="namedview832"
     pagecolor="#ffffff"
     bordercolor="#666666"
     borderopacity="1.0"
     inkscape:pageshadow="2"
     inkscape:pageopacity="0.0"
     inkscape:pagecheckerboard="0"
     inkscape:document-units="pt"
     showgrid="false"
     inkscape:zoom="1.2363281"
     inkscape:cx="341.33333"
     inkscape:cy="341.73776"
     inkscape:window-width="2029"
     inkscape:window-height="1025"
     inkscape:window-x="0"
     inkscape:window-y="25"
     inkscape:window-maximized="0"
     inkscape:current-layer="svg830" />
  <path
     d="m 14.663644,-22.375118 c -3.797374,0 -6.8866742,3.089301 -6.8866742,6.886674 0,3.797374 3.0893002,6.8866744 6.8866742,6.8866744 3.797065,0 6.886365,-3.0893004 6.886365,-6.8866744 0,-3.797373 -3.0893,-6.886673 -6.886365,-6.886674 z m 0,1.200795 c 2.657359,0 4.893885,1.832661 5.514337,4.300276 -0.297422,1.186602 -0.981431,2.260899 -1.939104,3.03685 -1.007039,0.81575 -2.276635,1.264969 -3.574925,1.264969 -1.298597,0 -2.568195,-0.449219 -3.575542,-1.264969 -0.957673,-0.775951 -1.64199,-1.850248 -1.939412,-3.03685 0.620451,-2.467614 2.856977,-4.300276 5.514646,-4.300276 z m 0,11.3717584 c -2.674638,0 -4.922271,-1.8564184 -5.525753,-4.3480984 0.343084,0.46156 0.744171,0.881468 1.194932,1.246457 1.220232,0.988527 2.758249,1.532772 4.331129,1.532772 1.572572,0 3.110588,-0.544245 4.33082,-1.532772 0.450453,-0.365298 0.851232,-0.784897 1.194316,-1.246148 -0.603791,2.491371 -2.851116,4.3477894 -5.525444,4.3477894 z m 0,0"
     id="path824"
     style="stroke-width:0.0789834" />
  <path
     d="m 44.995429,-18.853569 c -6.32e-4,-0.0037 -0.115698,-0.291559 -0.162286,-0.399545 l -5.115101,-12.400393 c -0.630325,-1.527835 -1.765711,-2.732024 -3.167666,-3.453673 l -0.480997,-1.166547 c -0.312539,-0.75713 -0.837347,-1.398562 -1.519196,-1.855185 -0.681849,-0.45508 -1.474768,-0.695732 -2.292987,-0.695732 -2.273858,0 -4.123797,1.849939 -4.123797,4.123797 v 1.384369 c -0.938545,1.166239 -1.502227,2.646253 -1.502227,4.256156 v 0.458166 h -2.477179 v -0.458166 c 0,-1.609903 -0.563682,-3.089917 -1.502228,-4.256156 v -1.384369 c 0,-2.273858 -1.849939,-4.123797 -4.123796,-4.123797 -0.81822,0 -1.611139,0.240652 -2.293605,0.696349 -0.680923,0.456006 -1.206039,1.097438 -1.518579,1.854568 l -0.480996,1.166547 c -1.401648,0.721649 -2.537342,1.925838 -3.167358,3.453673 l -1.3131,3.183093 c -0.126496,0.306678 0.01944,0.657475 0.326116,0.783972 0.306677,0.126496 0.657475,-0.01944 0.783663,-0.326115 l 1.313099,-3.183093 c 0.8682,-2.104476 2.900172,-3.464163 5.176498,-3.464163 3.087449,0 5.599491,2.511734 5.599491,5.599491 v 8.956285 c -1.624405,-2.905725 -4.73129,-4.875065 -8.289863,-4.875065 -2.228813,0 -4.280222,0.772865 -5.901541,2.06375 l 1.295821,-3.141441 c 0.126497,-0.306369 -0.01975,-0.657476 -0.326115,-0.783972 -0.306369,-0.126497 -0.657475,0.01975 -0.783972,0.326115 l -2.9951981,7.261228 c -0.046896,0.107985 -0.1749359,0.42762 -0.180798,0.447984 -0.3865867,1.032954 -0.5985461,2.150755 -0.5985461,3.316994 0,5.232959 4.2573902,9.4903499 9.4906582,9.4903499 5.232958,0 9.490349,-4.2573909 9.490349,-9.4903499 v -0.386278 h 2.477487 v 0.386278 c 0,5.232959 4.257391,9.4903499 9.490349,9.4903499 5.233268,0 9.490658,-4.2573909 9.490658,-9.4903499 0,-1.184442 -0.218747,-2.318595 -0.617058,-3.365125 z M 17.353707,-35.860607 c -0.543011,0 -1.074297,0.06479 -1.586147,0.186351 l 0.05831,-0.141615 c 0.221526,-0.53684 0.59392,-0.991611 1.075842,-1.314333 0.483773,-0.323029 1.046222,-0.493954 1.626257,-0.493954 1.611755,0 2.923311,1.311556 2.923311,2.923311 v 0.217513 c -1.140323,-0.863573 -2.559865,-1.377273 -4.097573,-1.377273 z m 14.903798,-1.763551 c 0.580034,0 1.142174,0.170925 1.62533,0.493337 0.482848,0.323339 0.855242,0.77811 1.076766,1.31495 l 0.05831,0.141615 c -0.51185,-0.121869 -1.043136,-0.186351 -1.586456,-0.186351 -1.537399,0 -2.956941,0.5137 -4.097264,1.377273 v -0.217513 c 0,-1.611755 1.311248,-2.923311 2.923312,-2.923311 z m -4.42523,8.563836 c 0,-3.087757 2.511733,-5.599491 5.599491,-5.599491 2.276326,0 4.308297,1.359687 5.17619,3.464163 l 3.415723,8.280298 c -1.621319,-1.290885 -3.673037,-2.06375 -5.90185,-2.06375 -3.558572,0 -6.665458,1.96934 -8.289554,4.874757 z m -1.200795,1.65896 v 5.76332 h -2.477487 v -5.76332 z M 14.663644,-7.1985801 c -4.571165,0 -8.2898637,-3.7186999 -8.2898637,-8.2898639 0,-4.571164 3.7186987,-8.289863 8.2898637,-8.289863 4.570856,0 8.289554,3.718699 8.289554,8.289863 0,4.571164 -3.718698,8.2898639 -8.289554,8.2898639 z m 9.490349,-9.8769369 v -3.362039 h 2.477487 v 3.362039 z m 11.967836,9.8769369 c -4.570855,0 -8.289554,-3.7186999 -8.289554,-8.2898639 0,-4.571164 3.718699,-8.289863 8.289554,-8.289863 4.571164,0 8.289863,3.718699 8.289863,8.289863 0,4.571164 -3.718699,8.2898639 -8.289863,8.2898639 z m 0,0"
     id="path826"
     style="stroke-width:0.0789834" />
  <path
     d="m 40.785244,-19.746452 c -0.265027,0.19931 -0.317785,0.575716 -0.118476,0.840742 0.46156,0.612738 0.787983,1.29829 0.970632,2.026726 -0.296804,1.188454 -0.98143,2.264911 -1.940646,3.041787 -1.00673,0.81575 -2.276327,1.264969 -3.574925,1.264969 -1.29829,0 -2.568194,-0.449219 -3.575233,-1.264969 -0.957673,-0.775642 -1.64199,-1.849939 -1.939412,-3.036234 0.620142,-2.467922 2.856978,-4.300892 5.514645,-4.300892 1.139397,0 2.238686,0.335679 3.178465,0.970632 0.274899,0.185734 0.648219,0.113538 0.833645,-0.161361 0.185735,-0.2749 0.113539,-0.647911 -0.16136,-0.833645 -1.13909,-0.769471 -2.4707,-1.176421 -3.85075,-1.176421 -3.797373,0 -6.886673,3.089301 -6.886673,6.886674 0,3.797374 3.0893,6.8866744 6.886673,6.8866744 3.797374,0 6.886674,-3.0893004 6.886674,-6.8866744 0,-1.507164 -0.47822,-2.938738 -1.382826,-4.139532 -0.199001,-0.265026 -0.575407,-0.318094 -0.840433,-0.118476 z m -4.663415,9.9438874 c -2.67402,0 -4.921653,-1.8561104 -5.525135,-4.3474814 0.342775,0.460943 0.743554,0.880851 1.194315,1.24584 1.220232,0.988527 2.758249,1.532772 4.331129,1.532772 1.572572,0 3.110588,-0.544245 4.33082,-1.532772 0.450761,-0.365298 0.851849,-0.785206 1.194624,-1.246766 -0.603482,2.491989 -2.851116,4.3484074 -5.525753,4.3484074 z m 0,0"
     id="path828"
     style="stroke-width:0.0789834" />
</svg>
