<?xml version="1.0" encoding="UTF-8" standalone="no"?>
<svg
   width="200"
   height="70"
   viewBox="0 0 200 70"
   version="1.1"
   id="svg136"
   sodipodi:docname="cdate.svg"
   inkscape:version="1.2.1 (9c6d41e, 2022-07-14)"
   xmlns:inkscape="http://www.inkscape.org/namespaces/inkscape"
   xmlns:sodipodi="http://sodipodi.sourceforge.net/DTD/sodipodi-0.dtd"
   xmlns="http://www.w3.org/2000/svg"
   xmlns:svg="http://www.w3.org/2000/svg"
   xmlns:rdf="http://www.w3.org/1999/02/22-rdf-syntax-ns#"
   xmlns:cc="http://creativecommons.org/ns#"
   xmlns:dc="http://purl.org/dc/elements/1.1/">
  <defs
     id="defs140" />
  <sodipodi:namedview
     id="namedview138"
     pagecolor="#ffffff"
     bordercolor="#000000"
     borderopacity="0.25"
     inkscape:showpageshadow="2"
     inkscape:pageopacity="0.0"
     inkscape:pagecheckerboard="0"
     inkscape:deskcolor="#d1d1d1"
     showgrid="false"
     inkscape:zoom="1"
     inkscape:cx="70"
     inkscape:cy="25.5"
     inkscape:window-width="1463"
     inkscape:window-height="1205"
     inkscape:window-x="986"
     inkscape:window-y="84"
     inkscape:window-maximized="0"
     inkscape:current-layer="svg136" />
  <title
     id="title132">C-date-logo-secondary-color</title>
  <g
     id="C-date-logo-secondary-color"
     stroke="none"
     stroke-width="1"
     fill="none"
     fill-rule="evenodd"
     transform="translate(6,10)">
    <path
       d="m 18.516526,11.183726 c 6.246394,0 12.080485,2.968584 15.478551,7.820018 0.70228,1.013632 0.783304,2.333486 0.21028,3.425407 -0.573024,1.091921 -1.70521,1.7751 -2.938353,1.77305 h -0.06872 c -1.326242,0 -2.357,-1.147577 -3.274375,-2.137105 -2.563151,-2.765867 -5.040407,-4.665898 -9.211541,-4.665898 -7.12941,0 -11.9052563,5.428659 -11.9052563,12.822631 0,7.194691 4.9064083,12.887912 11.7746933,12.887912 3.95124,0 6.717107,-1.872544 9.300874,-4.569694 l 0.325488,-0.343587 c 0.869852,-0.912157 1.765042,-1.75916 2.931708,-1.75916 v 0.0034 c 1.219424,0.0033 2.335302,0.686111 2.893332,1.770366 0.55803,1.084255 0.465141,2.389148 -0.240848,3.383424 -3.5355,4.968255 -9.04662,7.730708 -15.210554,7.730708 -4.953,0.0075 -9.7033951,-1.965667 -13.1934175,-5.480213 C 1.898365,40.33044 -0.04152369,35.566345 6.7430831e-4,30.613517 6.7430831e-4,19.687481 7.9031531,11.183726 18.516526,11.183726 Z m 26.919966,16.25162 0.0016,3.093078 c 0.0012,0.03623 0.0018,0.07261 0.0018,0.109144 L 45.436,30.746 l 4.92e-4,0.04275 -0.0015,2.54e-4 -1.15e-4,0.02931 c -0.0937,1.674961 -1.481606,3.004304 -3.18,3.004304 v -0.01718 h -5.968089 c -0.869737,0 -1.701625,-0.355758 -2.302512,-0.984548 -0.600887,-0.62879 -0.918501,-1.475957 -0.879095,-2.344801 0.113013,-1.723968 1.553675,-3.059031 3.281247,-3.040736 z m 40.769919,20.975927 c -2.84636,0 -5.153791,-2.30743 -5.153791,-5.15379 h -0.133998 c -2.810534,3.927188 -7.521099,6.084909 -12.822631,6.084909 -10.530912,0 -18.838823,-7.981504 -18.838823,-18.646415 0,-11.056598 7.850941,-19.495071 18.642979,-19.495071 4.906408,0 9.551692,1.766032 12.496224,5.428659 h 0.130563 V 6.7789534 c 0,-1.79789 0.714209,-3.5221431 1.985509,-4.7934433 C 83.783743,0.71420987 85.507996,0 87.305886,0 v 0 c 0.01393,0 0.02575,0.01022656 0.02749,0.02405188 V 48.387222 c -0.0017,0.01383 -0.01355,0.02416 -0.02749,0.02405 z M 68.41209,17.402634 c -6.851105,0 -12.231663,5.679477 -12.369097,12.688632 -0.130563,6.871721 5.177841,12.83981 12.025511,13.018475 7.012591,0.178665 12.953238,-5.514556 12.953238,-12.492788 0.01713,-7.393972 -4.957991,-13.214319 -12.609652,-13.214319 z m 60.27873,31.008639 c -3.10632,0 -5.6245,-2.518176 -5.6245,-5.624503 h -0.134 c -2.54941,4.318876 -7.12941,6.528135 -12.29694,6.528135 -10.59963,0 -19.24082,-7.981504 -19.24082,-18.450571 0,-11.578849 8.30791,-19.690915 18.97282,-19.690915 5.2981,0 9.74754,1.961876 12.55807,6.084908 h 0.134 c -9.1e-4,-1.353796 0.53624,-2.652457 1.4932,-3.610058 0.95696,-0.957601 2.25526,-1.49563 3.60905,-1.49563 h 1.70075 v 36.258634 z m -5.49737,-18.055446 c 0,-7.064129 -5.10569,-12.953193 -12.62679,-12.953193 -7.5211,0 -13.56134,7.156897 -12.162945,15.317065 0.927682,5.425224 5.260305,9.70287 10.730195,10.307581 7.72381,0.865837 14.05954,-5.342763 14.05954,-12.671453 z M 139.47599,41.60827 V 18.381854 h -4.90641 v -6.215472 h 4.90641 V 6.8030044 c 0,-3.7571951 3.04581,-6.80300354208738 6.803,-6.80300354208738 v 0 V 12.166382 h 5.95435 v 0.264562 c 0,1.578875 -0.62744,3.093033 -1.7442,4.209144 -1.11675,1.116111 -2.63127,1.742677 -4.21015,1.741766 v 0 30.029419 0 c -3.75719,0 -6.803,-3.045808 -6.803,-6.803003 z m 20.28875,-8.373192 c 1.57019,6.019627 6.34604,9.878099 11.9087,9.878099 3.92753,0.02887 7.60669,-1.91786 9.7922,-5.181278 0.36147,-0.557349 0.97807,-0.896608 1.64234,-0.903631 h 5.7104 c -2.81397,7.459253 -9.62041,12.30038 -17.40263,12.30038 -10.20794,0 -18.45057,-9.029441 -18.45057,-18.711695 0,-11.448287 8.63775,-19.429791 18.25472,-19.429791 10.65117,0 18.77354,8.246065 18.77354,18.646414 0.0287,1.137296 -0.0368,2.275014 -0.19584,3.401502 z m 23.42227,-5.236251 c -0.52225,-6.146754 -5.95435,-10.596193 -11.7747,-10.596193 -5.56266,0 -11.12188,4.384157 -11.64757,10.596193 z"
       id="Combined-Shape"
       fill="#AAD7C8"
       fill-rule="nonzero"
       style="fill:#000080" />
  </g>
  <metadata
     id="metadata4824">
    <rdf:RDF>
      <cc:Work
         rdf:about="">
        <dc:title>C-date-logo-secondary-color</dc:title>
      </cc:Work>
    </rdf:RDF>
  </metadata>
</svg>
