<?xml version="1.0" encoding="UTF-8" standalone="no"?>
<svg
   id="Layer_2"
   viewBox="0 0 200 70.000003"
   version="1.1"
   sodipodi:docname="cdating.svg"
   width="200"
   height="70"
   inkscape:version="1.2 (dc2aeda, 2022-05-15)"
   xmlns:inkscape="http://www.inkscape.org/namespaces/inkscape"
   xmlns:sodipodi="http://sodipodi.sourceforge.net/DTD/sodipodi-0.dtd"
   xmlns="http://www.w3.org/2000/svg"
   xmlns:svg="http://www.w3.org/2000/svg">
  <sodipodi:namedview
     id="namedview156"
     pagecolor="#ffffff"
     bordercolor="#000000"
     borderopacity="0.25"
     inkscape:showpageshadow="2"
     inkscape:pageopacity="0.0"
     inkscape:pagecheckerboard="0"
     inkscape:deskcolor="#d1d1d1"
     showgrid="false"
     inkscape:zoom="1.2091403"
     inkscape:cx="258.44808"
     inkscape:cy="92.627793"
     inkscape:window-width="1512"
     inkscape:window-height="858"
     inkscape:window-x="0"
     inkscape:window-y="38"
     inkscape:window-maximized="1"
     inkscape:current-layer="Layer_2" />
  <defs
     id="defs134">
    <style
       id="style132">.cls-1{fill:#fff;}</style>
  </defs>
  <g
     id="Ebene_1"
     style="fill:#2f3e63;fill-opacity:1"
     transform="matrix(0.21520973,0,0,0.21520973,22,16)">
    <g
       id="g152"
       style="fill:#2f3e63;fill-opacity:1">
      <path
         class="cls-1"
         d="m 90.63,106.06 v 0 c -3.82,0 -6.64,3.11 -9.48,6.11 -7.52,7.85 -15.57,13.3 -27.07,13.3 -19.99,0 -34.27,-16.57 -34.27,-37.51 0,-20.94 13.9,-37.32 34.65,-37.32 12.14,0 19.35,5.53 26.81,13.58 2.67,2.88 5.67,6.22 9.53,6.22 H 91 c 1.97,0 3.89,-0.6 5.51,-1.72 4.38,-3.03 5.47,-9.04 2.43,-13.41 C 89.05,41.19 72.07,32.55 53.89,32.55 23,32.55 0,57.3 0,89.1 c 0,0.18 0,0.36 0,0.54 0.05,29.82 24.26,53.96 54.08,53.92 17.94,0 33.98,-8.04 44.27,-22.5 1.14,-1.6 1.75,-3.51 1.75,-5.47 0.01,-5.25 -4.23,-9.51 -9.47,-9.53 z"
         id="path136"
         style="fill:#2f3e63;fill-opacity:1" />
      <path
         class="cls-1"
         d="M 234.37,19.73 V 48.4 h -0.38 C 225.42,37.74 211.9,32.6 197.62,32.6 c -31.41,0 -54.26,24.56 -54.26,56.74 0,32.18 24.18,54.27 54.83,54.27 15.43,0 29.14,-6.28 37.32,-17.71 h 0.39 c 0,8.28 6.72,15 15,15 h 3.2 c 0,0 0.07,-0.03 0.08,-0.07 V 0.07 c 0,0 -0.04,-0.07 -0.08,-0.07 -10.89,0 -19.73,8.83 -19.73,19.73 z m -36.26,105.74 c -19.93,-0.52 -35.38,-17.89 -35,-37.89 0.4,-20.4 16.06,-36.93 36,-36.93 22.27,0 36.75,16.94 36.7,38.46 0,20.31 -17.29,36.88 -37.7,36.36 z"
         id="path138"
         style="fill:#2f3e63;fill-opacity:1" />
      <path
         class="cls-1"
         d="m 358.16,50.23 h -0.39 c -8.18,-12 -21.13,-17.71 -36.55,-17.71 -31.04,0 -55.22,23.61 -55.22,57.31 0,30.47 25.15,53.7 56,53.7 15.04,0 28.37,-6.43 35.79,-19 h 0.39 c 0,9.04 7.33,16.37 16.37,16.37 h 3.41 V 35.37 H 373 c -8.2,0 -14.85,6.66 -14.84,14.86 z m -40.53,75 c -15.92,-1.76 -28.53,-14.21 -31.23,-30 -4.07,-23.75 13.51,-44.58 35.4,-44.58 21.89,0 36.75,17.14 36.75,37.7 0,20.56 -18.44,39.4 -40.92,36.88 z"
         id="path140"
         style="fill:#2f3e63;fill-opacity:1" />
      <path
         class="cls-1"
         d="m 731.07,35.37 h -4.96 c -8.2,0 -14.85,6.66 -14.84,14.86 h -0.39 c -8.18,-12 -21.13,-17.71 -36.55,-17.71 -31.04,0 -55.22,23.61 -55.22,57.31 0,30.47 25.15,53.7 56,53.7 15.04,0 28.37,-6.43 35.79,-19 h 0.39 v 15.05 h -0.03 c 0,20.94 -14.28,37.51 -34.27,37.51 -11.5,0 -19.55,-5.45 -27.07,-13.3 -2.84,-3 -5.66,-6.12 -9.48,-6.12 v 0 c -5.25,0.02 -9.49,4.29 -9.47,9.54 0,1.96 0.62,3.87 1.75,5.47 10.29,14.46 26.33,22.5 44.27,22.5 29.82,0.05 54.04,-24.09 54.08,-53.92 0,-0.05 0,-0.19 0,-0.36 v 0 z m -60.33,89.86 c -15.92,-1.76 -28.53,-14.21 -31.23,-30 -4.07,-23.75 13.51,-44.58 35.4,-44.58 21.89,0 36.75,17.14 36.75,37.7 0,20.56 -18.44,39.4 -40.92,36.88 z"
         id="path142"
         style="fill:#2f3e63;fill-opacity:1" />
      <path
         class="cls-1"
         d="m 425.74,0 c -10.93,0 -19.8,8.86 -19.8,19.8 V 35.41 H 391.66 V 53.5 h 14.28 v 67.6 c 0,10.94 8.86,19.8 19.8,19.8 V 53.5 h 0.01 c 9.57,0 17.32,-7.75 17.32,-17.32 v -0.77 h -17.33 z"
         id="path144"
         style="fill:#2f3e63;fill-opacity:1" />
      <path
         class="cls-1"
         d="m 452.69,55.17 v 65.93 c 0,10.94 8.86,19.8 19.8,19.8 V 35.37 c -10.94,0 -19.8,8.86 -19.8,19.8 z"
         id="path146"
         style="fill:#2f3e63;fill-opacity:1" />
      <path
         class="cls-1"
         d="m 96.35,88.7 c 0,0.14 0,0.28 0,0.42 0,5.12 4.15,9.27 9.27,9.27 h 17.37 v 0.05 c 4.96,0 8.99,-3.91 9.23,-8.8 l 0.03,-0.03 v -9.76 h -26.34 c -5.03,-0.05 -9.22,3.83 -9.55,8.85 z"
         id="path148"
         style="fill:#2f3e63;fill-opacity:1" />
      <path
         class="cls-1"
         d="m 552.06,32.27 c -15.42,0 -28.37,5.71 -36.55,17.71 h -0.39 V 35.12 c -10.94,0 -19.8,8.86 -19.8,19.8 v 85.73 h 19.8 V 88.1 c 0,-20.56 14.47,-37.7 36.36,-37.7 19.93,0 36.27,17.26 35.98,38.27 v 32.18 c 0,10.94 8.87,19.8 19.8,19.8 V 88.67 c -0.43,-33.21 -24.44,-56.4 -55.2,-56.4 z"
         id="path150"
         style="fill:#2f3e63;fill-opacity:1" />
    </g>
  </g>
</svg>
