<?xml version="1.0" encoding="UTF-8" standalone="no"?>
<svg
   width="250"
   height="100"
   viewBox="0 0 250 100"
   version="1.1"
   id="svg946"
   sodipodi:docname="logoClickAndFlirtBlack.svg"
   inkscape:version="1.1 (c4e8f9e, 2021-05-24)"
   xmlns:inkscape="http://www.inkscape.org/namespaces/inkscape"
   xmlns:sodipodi="http://sodipodi.sourceforge.net/DTD/sodipodi-0.dtd"
   xmlns="http://www.w3.org/2000/svg"
   xmlns:svg="http://www.w3.org/2000/svg">
  <defs
     id="defs950" />
  <sodipodi:namedview
     id="namedview948"
     pagecolor="#ffffff"
     bordercolor="#666666"
     borderopacity="1.0"
     inkscape:pageshadow="2"
     inkscape:pageopacity="0.0"
     inkscape:pagecheckerboard="0"
     showgrid="false"
     inkscape:zoom="1"
     inkscape:cx="80.5"
     inkscape:cy="19.5"
     inkscape:window-width="2048"
     inkscape:window-height="1031"
     inkscape:window-x="0"
     inkscape:window-y="25"
     inkscape:window-maximized="1"
     inkscape:current-layer="svg946" />
  <rect
     style="fill:#ffffff;stroke:#000000;stroke-width:8.00126;stroke-linejoin:round;stroke-dasharray:0, 88.0139;paint-order:markers stroke fill"
     id="rect1031"
     width="248"
     height="98"
     x="1"
     y="1"
     rx="1.8911099"
     ry="1.9601901" />
  <g
     id="g932"
     transform="matrix(1.2905141,0,0,1.2905141,23.270229,24.000716)">
    <g
       id="g930">
      <path
         fill="#f5831f"
         d="m 84.396,31.03 c 0.023,0.059 0.047,0.11 0.07,0.17 L 84.39,30.987 c 0.003,0.016 0.006,0.028 0.006,0.043 z m -0.005,-0.043 c -0.012,-0.141 -0.086,-0.232 -0.162,-0.462 0.052,0.163 0.109,0.311 0.162,0.462 z m 19.82,-7.798 a 31.529,31.529 0 0 0 -1.264,-4.806 l -0.086,-0.085 V 18.13 a 74.306,74.306 0 0 0 -1.602,-5.227 c -0.592,-2.107 -0.928,-4.047 -0.928,-5.818 0,-0.758 0,-1.264 0.084,-1.77 v -0.17 h -0.084 v -0.17 l -0.084,0.254 C 99.825,5.397 99.317,5.483 98.727,5.651 97.041,6.072 95.272,6.157 93.248,5.988 91.141,5.82 89.453,5.736 88.189,5.651 V 5.735 L 88.021,5.651 H 87.935 C 86.333,5.397 84.818,5.397 83.298,5.397 c -3.963,0.254 -7.083,1.35 -9.274,3.205 -2.108,1.855 -3.373,4.383 -3.541,7.42 -0.253,2.951 0.505,5.564 2.192,8.009 1.602,2.193 4.131,3.626 7.504,4.046 0.926,0.171 1.771,0.256 2.613,0.256 h 0.928 c 0,-0.085 0,-0.085 -0.084,-0.085 h -0.76 c -0.59,0 -1.264,0 -1.938,-0.171 -2.699,-0.42 -4.554,-1.433 -5.818,-3.202 -1.264,-1.854 -1.939,-3.877 -1.686,-6.239 0.168,-2.359 1.096,-4.299 2.782,-5.732 1.688,-1.518 4.132,-2.361 7.253,-2.529 1.096,0 2.275,0 3.539,0.084 h 0.084 v 0.084 h 0.17 c 0.928,0 2.191,0.085 3.877,0.254 1.604,0.084 2.951,0 4.217,-0.338 0.422,-0.084 0.844,-0.252 1.18,-0.336 l 0.086,-0.086 v 0.086 c 0,-0.086 0.084,-0.086 0.168,-0.086 l -0.168,0.17 v 1.433 c 0,1.349 0.254,2.782 0.758,4.468 0.506,1.688 0.928,3.12 1.182,4.131 l 0.086,0.085 c 0.42,1.348 0.756,2.612 0.924,3.795 0.594,3.372 0.424,6.069 -0.504,8.261 -0.844,2.108 -2.359,3.541 -4.383,4.3 -2.109,0.761 -4.049,0.677 -6.072,-0.254 -1.732,-0.905 -3.139,-2.625 -4.146,-5.225 0.092,0.244 0.18,0.49 0.27,0.758 1.264,3.54 3.033,5.819 5.564,6.998 2.445,1.265 4.975,1.349 7.588,0.422 2.781,-0.929 4.639,-2.783 5.732,-5.564 1.18,-2.785 1.434,-6.241 0.59,-10.626 z M 9.096,5.559 c -4.39,0 -6.584,1.684 -6.584,5.051 v 16.705 c 0,3.11 2.194,4.667 6.584,4.667 1.52,0 2.883,-0.369 4.088,-1.111 1.207,-0.741 1.811,-1.729 1.811,-2.96 V 21.324 H 9.82 v 6.407 c 0,0.42 -0.263,0.634 -0.787,0.634 -0.549,0 -0.824,-0.214 -0.824,-0.634 V 9.721 c 0,-0.422 0.275,-0.632 0.824,-0.632 0.524,0 0.787,0.21 0.787,0.632 v 5.141 h 5.174 v -4.705 c 0,-3.065 -1.966,-4.598 -5.898,-4.598 z m 7.128,26.188 h 5.155 V 5.795 h -5.155 z m 6.241,0 h 5.156 V 10.736 h -5.156 z m 0,-22.17 h 5.156 V 5.795 h -5.156 z m 12.338,1.014 c -4.076,0 -6.114,1.479 -6.114,4.435 v 12.576 c 0,2.957 2.038,4.437 6.114,4.437 3.967,0 5.951,-1.419 5.951,-4.253 v -5.123 h -5.156 v 5.086 c 0,0.712 -0.289,1.067 -0.867,1.067 -0.592,0 -0.887,-0.355 -0.887,-1.067 V 14.88 c 0,-0.688 0.295,-1.03 0.887,-1.03 0.578,0 0.867,0.343 0.867,1.03 v 5.158 h 5.156 v -5.194 c 0.002,-2.836 -1.984,-4.253 -5.951,-4.253 z m 20.244,0.145 h -5.331 l -2.63,6.711 V 5.795 H 41.93 v 25.952 h 5.156 v -7.59 l 3.143,7.59 h 6.066 L 51.313,19.93 Z"
         id="path928" />
    </g>
  </g>
  <g
     id="g938"
     transform="matrix(1.2905141,0,0,1.2905141,23.270229,24.000716)">
    <g
       id="g936">
      <path
         fill="#c82026"
         d="m 110.035,31.987 h 5.697 V 19.535 h 4.453 v -3.148 h -4.453 V 9.365 h 4.979 V 6.034 h -10.676 z m 11.578,0 h 5.156 V 6.034 h -5.156 z m 6.241,0 h 5.158 V 10.975 h -5.158 z m 0,-22.171 h 5.158 V 6.034 h -5.158 z m 17.347,1.838 c -0.732,-0.549 -1.613,-0.824 -2.641,-0.824 -1.434,0 -2.496,0.284 -3.182,0.851 v -0.706 h -5.156 v 21.013 h 5.156 V 15.083 c 0,-0.615 0.295,-0.923 0.885,-0.923 0.592,0 0.889,0.32 0.889,0.959 v 4.562 h 5.154 v -5.864 c 10e-4,-0.893 -0.365,-1.615 -1.105,-2.163 z m 9.871,16.451 c -0.369,-0.211 -0.553,-0.623 -0.553,-1.241 V 14.088 h 2.787 v -3.113 h -2.787 V 6.74 h -5.154 v 4.234 h -2.299 v 3.113 h 2.299 V 26.9 c 0,1.992 0.23,3.335 0.688,4.037 0.457,0.698 1.852,1.049 4.178,1.049 h 3.258 v -3.565 c -1.243,0.002 -2.05,-0.104 -2.417,-0.316 z M 83.814,11.836 a 14.46,14.46 0 0 0 -2.613,-0.252 h -0.929 c 0,0.084 0,0.168 0.085,0.168 h 0.76 c 0.59,0 1.264,0 1.939,0.169 2.697,0.337 4.637,1.435 5.902,3.204 1.264,1.855 1.854,3.878 1.684,6.239 H 90.56 c -0.084,2.361 -1.098,4.215 -2.783,5.734 -1.686,1.434 -4.047,2.274 -7.25,2.442 A 16.636,16.636 0 0 1 76.984,29.458 H 76.9 v -0.086 h -0.168 c -0.842,0 -2.191,0 -3.793,-0.253 -1.688,-0.084 -3.035,0 -4.217,0.339 -0.505,0.169 -0.926,0.253 -1.264,0.337 l -0.086,0.168 v -0.082 h -0.168 l 0.168,-0.086 c 0.086,-0.423 0.086,-0.844 0.086,-1.434 a 18.81,18.81 0 0 0 -0.845,-4.469 c -0.421,-1.687 -0.843,-3.119 -1.097,-4.13 v -0.085 h -0.082 c -0.086,0 -0.086,0 -0.086,-0.084 -0.421,-1.351 -0.674,-2.529 -0.926,-3.71 -0.59,-3.457 -0.422,-6.156 0.505,-8.18 0.843,-2.275 2.36,-3.709 4.469,-4.468 2.023,-0.759 3.964,-0.591 5.901,0.336 1.939,0.845 3.373,2.614 4.301,5.396 0.026,0.026 0.034,0.04 0.047,0.056 C 79.555,8.705 79.412,8.335 79.26,7.957 77.995,4.5 76.225,2.223 73.78,1.043 71.249,-0.224 68.719,-0.308 66.108,0.621 c -2.699,0.927 -4.639,2.781 -5.734,5.564 -1.181,2.698 -1.35,6.24 -0.592,10.539 0.256,1.518 0.676,3.205 1.351,4.806 v 0.252 c 0.421,1.349 0.843,3.036 1.603,5.229 0.59,2.107 0.928,4.047 0.928,5.901 v 1.687 l -0.084,0.253 c 0,-0.084 0.084,-0.084 0.084,-0.084 v 0.17 l 0.167,-0.17 c 0.337,-0.169 0.844,-0.337 1.519,-0.421 1.602,-0.422 3.372,-0.592 5.48,-0.422 2.107,0.168 3.71,0.338 4.975,0.422 0.084,0 0.084,0 0.084,-0.084 l 0.084,0.084 h 0.084 c 1.686,0.168 3.205,0.252 4.637,0.168 4.049,-0.168 7.082,-1.265 9.275,-3.203 2.193,-1.855 3.373,-4.301 3.541,-7.336 h 0.086 c 0.168,-3.035 -0.592,-5.649 -2.277,-8.009 -1.602,-2.276 -4.131,-3.625 -7.505,-4.131 z"
         id="path934" />
    </g>
  </g>
  <g
     id="g944"
     transform="matrix(1.2905141,0,0,1.2905141,23.270229,24.000716)">
    <g
       id="g942">
      <path
         fill="#afafaf"
         d="m 85.898,23.923 a 8.526,8.526 0 0 1 -0.822,-0.794 c 0.309,-0.484 0.594,-1.317 0.859,-2.498 l -1.719,-0.479 c -0.127,0.579 -0.268,1.038 -0.42,1.378 l -1.365,-2.226 c 0.688,-0.533 1.158,-1.02 1.412,-1.456 0.254,-0.438 0.381,-0.917 0.381,-1.439 0,-0.813 -0.254,-1.474 -0.764,-1.983 -0.51,-0.509 -1.168,-0.764 -1.979,-0.764 -0.836,0 -1.508,0.243 -2.015,0.73 -0.507,0.487 -0.759,1.119 -0.759,1.896 0,0.804 0.336,1.689 1.016,2.657 -1.509,0.914 -2.264,2.151 -2.264,3.709 0,0.903 0.287,1.718 0.863,2.442 0.575,0.729 1.459,1.092 2.654,1.092 0.6,0 1.127,-0.101 1.582,-0.302 0.455,-0.201 0.889,-0.531 1.301,-0.988 0.521,0.6 1.064,1.064 1.627,1.396 L 86.642,24.5 c -0.158,-0.093 -0.408,-0.286 -0.744,-0.577 z m -5.062,-8.36 c 0.178,-0.176 0.41,-0.264 0.697,-0.264 0.291,0 0.535,0.1 0.727,0.301 0.191,0.202 0.289,0.461 0.289,0.78 0,0.348 -0.189,0.7 -0.568,1.058 l -0.512,0.479 -0.471,-0.66 c -0.287,-0.408 -0.432,-0.756 -0.432,-1.049 0,-0.254 0.092,-0.47 0.27,-0.645 z m 0.06,8.708 c -0.435,0 -0.792,-0.151 -1.068,-0.457 -0.278,-0.305 -0.417,-0.718 -0.417,-1.232 0,-0.412 0.11,-0.809 0.333,-1.186 0.223,-0.377 0.545,-0.695 0.971,-0.96 l 1.939,2.911 c -0.603,0.617 -1.191,0.924 -1.758,0.924 z"
         id="path940" />
    </g>
  </g>
</svg>
