<?xml version="1.0" encoding="UTF-8" standalone="no"?>
<svg
   width="160"
   height="60"
   viewBox="0 0 160 60"
   version="1.1"
   id="svg6872"
   sodipodi:docname="cougarpourmoi.svg"
   inkscape:version="1.1 (c4e8f9e, 2021-05-24)"
   xmlns:inkscape="http://www.inkscape.org/namespaces/inkscape"
   xmlns:sodipodi="http://sodipodi.sourceforge.net/DTD/sodipodi-0.dtd"
   xmlns:xlink="http://www.w3.org/1999/xlink"
   xmlns="http://www.w3.org/2000/svg"
   xmlns:svg="http://www.w3.org/2000/svg">
  <sodipodi:namedview
     id="namedview6874"
     pagecolor="#ffffff"
     bordercolor="#666666"
     borderopacity="1.0"
     inkscape:pageshadow="2"
     inkscape:pageopacity="0.0"
     inkscape:pagecheckerboard="0"
     showgrid="false"
     inkscape:zoom="1"
     inkscape:cx="115.5"
     inkscape:cy="20"
     inkscape:window-width="1636"
     inkscape:window-height="748"
     inkscape:window-x="234"
     inkscape:window-y="150"
     inkscape:window-maximized="0"
     inkscape:current-layer="g6870" />
  <defs
     id="defs6839">
    <path
       id="a"
       d="M 0,29.223 H 157.938 V 0 H 0 Z" />
  </defs>
  <g
     fill="none"
     fill-rule="evenodd"
     transform="translate(0,5)"
     id="g6870">
    <path
       fill="#FFF"
       d="m 50.959,17.548 c -0.263,2.625 -2.428,4.758 -5.792,4.758 -3.807,0 -6.235,-2.396 -6.235,-6.153 0,-2.673 1.657,-6.153 6.235,-6.153 2.56,0 5.333,1.165 5.694,4.25 h -1.215 c -0.36,-2.232 -2.362,-3.134 -4.48,-3.134 -2.903,0 -4.922,1.624 -4.922,5.037 0,2.609 1.362,5.037 4.923,5.037 2.79,0 4.168,-1.41 4.578,-3.642 z m 7.428,3.642 c 2.576,0 5.054,-1.51 5.054,-5.037 0,-3.528 -2.478,-5.037 -5.054,-5.037 -2.576,0 -5.054,1.51 -5.054,5.037 0,3.528 2.478,5.037 5.054,5.037 m 0,-11.19 c 3.33,0 6.366,2.018 6.366,6.153 0,4.135 -3.035,6.153 -6.366,6.153 -3.33,0 -6.366,-2.018 -6.366,-6.153 0,-4.135 3.035,-6.153 6.366,-6.153 m 18.461,7.482 c 0,2.133 -0.59,4.824 -5.234,4.824 -4.644,0 -5.235,-2.69 -5.235,-4.824 v -7.187 h 1.215 v 7.187 c 0,3.069 1.985,3.708 4.02,3.708 2.034,0 4.02,-0.64 4.02,-3.708 v -7.187 h 1.214 z m 12.732,2.314 h -0.033 c -1.198,1.723 -2.576,2.51 -4.874,2.51 -3.97,0 -6.136,-2.494 -6.136,-6.153 0,-3.543 2.379,-6.153 6.268,-6.153 3.265,0 5.349,1.838 5.66,4.003 h -1.312 c -0.476,-1.985 -2.248,-2.888 -4.348,-2.888 -3.2,0 -4.956,1.953 -4.956,5.038 0,3.15 1.608,5.037 4.726,5.037 3.511,0 4.627,-2.001 4.988,-4.102 h -4.299 v -1.115 h 5.415 v 6.038 h -0.936 z m 8.07,-8.286 -2.61,5.824 h 5.185 z m 3.067,6.94 h -6.17 l -1.59,3.56 H 91.644 L 96.96,10.296 h 1.411 l 5.316,11.716 h -1.41 l -1.56,-3.56 z m 5.235,-2.707 h 5.136 c 1.329,0 2.527,-0.492 2.527,-2.28 0,-1.724 -1.297,-2.052 -2.412,-2.052 h -5.251 z m -1.214,-5.448 h 6.382 c 1.986,0 3.807,0.706 3.807,3.167 0,1.247 -0.771,2.494 -2.297,2.839 v 0.033 c 1.657,0.262 2.002,1.329 2.084,3.248 0.033,0.739 0.131,2.166 0.41,2.429 h -1.312 c -0.214,-0.246 -0.296,-1.116 -0.312,-2.396 -0.033,-2.067 -0.82,-2.756 -2.839,-2.756 h -4.71 v 5.152 h -1.213 z"
       id="path6841"
       style="fill:#000000" />
    <path
       fill="#ffec00"
       d="m 44.818,31.355 h 3.4 c 1.328,0 1.832,-0.411 1.832,-1.383 0,-1.009 -0.504,-1.42 -1.831,-1.42 h -3.401 z m -5.27,-5.943 h 10.876 c 3.738,0 5.12,1.683 5.12,4.654 0,2.56 -1.345,4.541 -5.082,4.541 h -5.644 v 4.149 h -5.27 z m 25.92,10.447 c 2.15,0 3.514,-1.065 3.514,-3.775 0,-2.71 -1.365,-3.775 -3.514,-3.775 -2.149,0 -3.513,1.065 -3.513,3.775 0,2.71 1.364,3.775 3.513,3.775 m 0,-10.913 c 3.196,0 9.12,0.224 9.12,7.138 0,6.914 -5.924,7.138 -9.12,7.138 -3.195,0 -9.119,-0.224 -9.119,-7.138 0,-6.914 5.924,-7.138 9.12,-7.138 m 10.512,0.467 h 5.27 v 8.073 c 0,1.719 0.99,2.26 2.71,2.26 1.719,0 2.71,-0.541 2.71,-2.26 v -8.073 h 5.269 v 8.278 c 0,4.242 -2.56,5.531 -7.98,5.531 -5.419,0 -7.979,-1.289 -7.979,-5.531 z m 23.347,5.867 h 3.737 c 1.028,0 1.458,-0.41 1.458,-1.252 0,-1.009 -0.654,-1.251 -1.532,-1.251 h -3.663 z m -5.27,-5.868 h 11.1 c 1.514,0 2.43,0.132 3.158,0.487 0.99,0.486 1.813,1.775 1.813,3.233 0,1.252 -0.523,2.597 -2.056,3.045 v 0.038 c 0.785,0.224 1.42,0.897 1.514,2.056 l 0.225,2.915 a 2.98,2.98 0 0 0 0.653,1.57 h -5.755 c -0.187,-0.393 -0.187,-0.972 -0.28,-2.523 -0.057,-0.991 -0.393,-1.589 -1.365,-1.589 h -3.737 v 4.112 h -5.27 z m 17.823,0.001 h 7.419 l 2.186,7.755 h 0.037 l 2.187,-7.755 h 7.419 v 13.342 h -4.784 v -9.53 h -0.038 l -2.802,9.53 h -4 l -2.803,-9.53 h -0.037 v 9.53 h -4.784 z m 30.009,10.446 c 2.15,0 3.513,-1.065 3.513,-3.775 0,-2.71 -1.364,-3.775 -3.513,-3.775 -2.149,0 -3.513,1.065 -3.513,3.775 0,2.71 1.364,3.775 3.513,3.775 m 0,-10.913 c 3.195,0 9.12,0.224 9.12,7.138 0,6.914 -5.925,7.138 -9.12,7.138 -3.195,0 -9.12,-0.224 -9.12,-7.138 0,-6.914 5.925,-7.138 9.12,-7.138"
       id="path6843" />
    <mask
       id="b"
       fill="#ffffff">
      <use
         xlink:href="#a"
         id="use6845"
         x="0"
         y="0"
         width="100%"
         height="100%" />
    </mask>
    <path
       fill="#ffec00"
       d="m 152.668,28.755 h 5.27 V 15.413 h -5.27 z"
       mask="url(#b)"
       id="path6848"
       transform="translate(0,10)" />
    <path
       fill="#fab900"
       d="M 7.812,27.545 0,14.014 7.812,0.484 h 15.623 l 7.812,13.53 -7.812,13.53 z"
       mask="url(#b)"
       id="path6850"
       transform="translate(0,10)" />
    <path
       fill="#f6a600"
       d="M 23.435,0.484 H 7.812 l 15.623,9.02 z m 0,18.04 -3.905,2.256 3.905,6.765 z"
       mask="url(#b)"
       id="path6852"
       transform="translate(0,10)" />
    <path
       fill="#f6a600"
       d="m 19.53,20.78 -3.907,2.254 7.812,4.51 z"
       mask="url(#b)"
       id="path6854"
       transform="translate(0,10)" />
    <path
       fill="#f29100"
       d="m 31.247,14.014 -7.812,-4.51 v 9.02 z M 7.812,27.545 19.529,20.779 7.812,0.484 Z"
       mask="url(#b)"
       id="path6856"
       transform="translate(0,10)" />
    <path
       fill="#f29100"
       d="M 23.435,9.504 7.812,0.484 19.53,20.78 23.435,18.524 Z M 0,14.014 l 7.812,4.51 v -4.51 z"
       mask="url(#b)"
       id="path6858"
       transform="translate(0,10)" />
    <path
       fill="#ed7203"
       d="m 31.247,14.014 h -7.812 v 4.51 z"
       mask="url(#b)"
       id="path6860"
       transform="translate(0,10)" />
    <path
       fill="#e74e0f"
       d="m 23.435,18.524 v -4.51 H 7.812 v 4.51 l 7.812,4.51 z"
       mask="url(#b)"
       id="path6862"
       transform="translate(0,10)" />
    <path
       fill="#ed7203"
       d="m 8.126,0.483 15.91,26.021 -0.6,1.04 L 7.693,0.689 7.811,0.485 Z"
       mask="url(#b)"
       id="path6864"
       transform="translate(0,10)" />
    <path
       fill="#e74e0f"
       d="M 23.255,0.484 7.812,27.544 H 8.86 L 23.573,0.723 23.435,0.485 Z"
       mask="url(#b)"
       id="path6866"
       transform="translate(0,10)" />
    <path
       fill="#fefefe"
       d="M 8.296,16.449 C 7.4,16.472 6.108,15.161 6.053,13.037 c -0.056,-2.124 1.283,-2.91 1.283,-2.91 0,0 -0.236,-0.153 0.218,-1.047 0.454,-0.894 1.554,-1.386 1.554,-1.386 0,0 -0.112,0.148 -0.51,0.954 C 8.2,9.453 8.386,9.954 8.386,9.954 c 0,0 1.9,0.76 1.956,2.899 0.056,2.138 -1.15,3.573 -2.046,3.596 m 4.632,-4.76 c -1.055,0.027 -2.226,-1.62 -2.273,-3.44 -0.048,-1.82 1.172,-2.72 1.172,-2.72 0,0 0.174,-0.525 0.455,-1.414 0.28,-0.89 1.157,-1.086 1.157,-1.086 0,0 -0.32,0.442 -0.517,1.214 -0.197,0.771 0.083,0.966 0.083,0.966 0,0 1.75,0.59 1.81,2.874 0.059,2.283 -0.833,3.578 -1.887,3.606 m 9.763,8.867 c 0,0 0.266,2.613 -2.069,2.661 -2.334,0.048 -3.743,-3.072 -4.84,-3.049 -1.096,0.023 -1.95,3.225 -4.957,3.287 -3.006,0.062 -1.981,-3.427 -1.981,-3.427 0,0 0.856,-8.263 6.728,-8.384 5.871,-0.12 7.119,8.912 7.119,8.912 m -4.354,-8.8 c -0.882,0.009 -2.128,-1.231 -2.143,-2.894 0,0 -0.194,-1.34 0.43,-2.368 0.624,-1.028 1.314,-1.162 1.314,-1.162 0,0 0.23,-0.584 -0.074,-1.184 -0.305,-0.599 -0.455,-0.812 -0.455,-0.812 0,0 0.831,0.268 1.302,1.123 0.47,0.855 0.331,1.061 0.331,1.061 0,0 1.335,0.732 1.248,2.946 -0.087,2.215 -1.071,3.281 -1.953,3.29 m 4.87,4.163 c -0.144,0.005 -2.108,0.085 -2.188,-2.978 -0.08,-3.063 1.56,-3.381 1.56,-3.381 0,0 0.276,-0.499 0.029,-1.1 -0.247,-0.6 -0.697,-1.24 -0.697,-1.24 0,0 1.24,0.43 1.596,1.318 0.355,0.887 0.288,1.106 0.288,1.106 0,0 1.126,0.491 1.38,3 0.253,2.51 -1.823,3.272 -1.968,3.275"
       mask="url(#b)"
       id="path6868"
       transform="translate(0,10)" />
  </g>
</svg>
