<?xml version="1.0" encoding="UTF-8" standalone="no"?>
<svg
   width="660"
   height="264"
   viewBox="0 0 660 264"
   version="1.1"
   id="svg6388"
   sodipodi:docname="cupid.svg"
   inkscape:version="1.2 (dc2aeda, 2022-05-15)"
   xmlns:inkscape="http://www.inkscape.org/namespaces/inkscape"
   xmlns:sodipodi="http://sodipodi.sourceforge.net/DTD/sodipodi-0.dtd"
   xmlns="http://www.w3.org/2000/svg"
   xmlns:svg="http://www.w3.org/2000/svg">
  <defs
     id="defs6392" />
  <sodipodi:namedview
     id="namedview6390"
     pagecolor="#ffffff"
     bordercolor="#000000"
     borderopacity="0.25"
     inkscape:showpageshadow="2"
     inkscape:pageopacity="0.0"
     inkscape:pagecheckerboard="0"
     inkscape:deskcolor="#d1d1d1"
     showgrid="false"
     inkscape:zoom="1"
     inkscape:cx="326"
     inkscape:cy="51.5"
     inkscape:window-width="1512"
     inkscape:window-height="859"
     inkscape:window-x="0"
     inkscape:window-y="38"
     inkscape:window-maximized="1"
     inkscape:current-layer="svg6388" />
  <g
     fill="none"
     fill-rule="evenodd"
     id="g6386"
     transform="matrix(4.7903335,0,0,4.7903335,81,38.999744)">
    <g
       fill="#0291f3"
       id="g6384">
      <g
         id="g6382">
        <g
           id="g6380">
          <path
             d="m 97.108,18.863 c 0.275,-1.235 2.386,0.354 2.057,1.73 -0.794,3.333 -4.65,5.73 -7.512,3.234 -0.683,-0.596 -0.89,-1.479 -1.006,-1.953 -0.733,2.18 -2.262,3.913 -5.166,4.068 -1.294,0.069 -2.355,-0.8 -3.067,-1.658 a 3.054,3.054 0 0 1 -0.376,-0.577 c -0.201,0.359 -1.07,1.648 -1.679,2.236 -0.752,0.726 -1.594,1.207 -2.504,1.358 -1.136,0.188 -1.94,-0.656 -2.32,-1.549 -0.669,-2.385 0.43,-6.856 1.127,-9.369 l -0.009,0.01 c 0,0 -1.45,0.743 -3.187,1.942 0.056,0.209 0.103,0.425 0.133,0.658 0.333,2.633 -0.083,5.77 -1.814,7.826 -1.099,1.305 -2.205,1.854 -3.657,1.67 -1.11,-0.142 -2.296,-1.379 -2.264,-2.805 0.05,-2.155 0.9,-3.584 2.17,-4.86 v -0.003 c 0,0 1.094,-1.023 2.672,-2.314 -0.228,-0.348 -0.553,-0.58 -1.01,-0.62 -2.386,-0.207 -3.102,1.572 -3.102,1.572 -0.104,0.143 -0.19,0.295 -0.25,0.454 -0.002,0.007 -0.352,1.361 -0.458,1.65 -0.256,0.694 -2.74,11.295 -3.122,12.879 -0.226,1.164 -0.564,2.274 -0.806,3.325 -0.222,0.967 -1.123,1.63 -2.048,1.868 -0.737,0.189 -1.725,-0.035 -1.558,-0.997 0.096,-0.552 2.333,-9.626 2.456,-10.155 -0.49,0.583 -1.461,1.364 -2.372,1.515 -1.136,0.188 -1.963,-0.445 -2.342,-1.338 -0.895,0.892 -2.555,1.689 -3.774,2.088 -1.156,0.378 -2.804,0.18 -3.703,-0.83 -0.668,-0.75 -0.674,-2.019 -0.529,-3.016 -0.095,0.103 -0.296,0.24 -0.392,0.342 -3.12,3.283 -7.63,6.519 -12.473,5.576 -3.109,-0.605 -6.123,-3.93 -6.336,-7.465 -0.272,-4.508 0.937,-8.425 2.906,-11.588 -0.116,-0.962 -0.425,-2.015 -1.15,-2.78 -0.965,-1.018 -2.589,-1.388 -4.826,-1.098 -7.24,0.934 -18.152,2.513 -22.37,3.128 0.94,1.259 3.399,2.914 9.768,2.105 l 11.02,-1.407 c 0,0 -0.942,2.845 -2.648,3.064 -1.706,0.219 -8.021,1.086 -8.021,1.086 a 28.356,28.356 0 0 1 -3.009,0.226 c 0.22,0.478 0.559,0.998 1.084,1.432 1.176,0.973 2.982,1.303 5.366,0.98 l 8.697,-1.188 c 0,0 -0.838,2.916 -2.393,3.127 l -5.225,0.706 a 4.036,4.036 0 0 0 1.263,1.643 c 1.243,0.951 2.942,0.937 5.392,0.553 l 3.199,-0.5 c 0,0 -0.144,2.068 -2.128,2.839 -0.995,0.386 -2.276,0.59 -3.026,0.59 -2.165,0 -3.785,-0.243 -5.173,-1.329 -1.466,-1.145 -2.095,-2.619 -2.362,-3.56 C 13.031,23.368 11.213,22.778 9.833,21.616 8.437,20.441 7.843,18.954 7.588,17.936 5.486,17.65 3.771,16.982 2.464,15.932 0.379,14.26 0.14,12.254 0.119,12.032 L 0,10.727 1.295,10.537 c 0.15,-0.023 15.054,-2.216 24.168,-3.392 3.172,-0.408 5.594,0.247 7.2,1.951 0.331,0.352 0.608,0.731 0.84,1.126 C 33.505,9.062 33.3,7.448 32.293,6.386 31.33,5.37 29.705,5 27.467,5.289 L 26.872,5.366 26.867,5.367 C 19.637,6.309 8.1,8.245 5.1,8.42 2.082,8.597 1.65,6.128 1.65,6.128 l 1.296,-0.19 c 0.15,-0.023 15.053,-2.215 24.167,-3.391 3.172,-0.41 5.594,0.247 7.2,1.95 1.187,1.26 1.682,2.868 1.863,4.286 2.871,-2.35 5.947,-4.055 8.618,-4.343 3.596,-0.39 7.28,1.816 7.237,5.21 -0.042,3.332 -1.985,6.459 -4.378,6.734 -3.346,0.6 -2.067,-3.271 0.287,-2.144 1.53,-1.036 2.146,-5.412 -0.057,-6.583 -3.642,-1.936 -9.453,1.052 -13.507,9.394 -1.588,3.265 -2.802,7.842 -0.152,10.882 1.14,1.308 2.474,1.873 3.845,1.93 0,0 7.659,1.136 11.736,-10.16 0.472,-0.874 1.438,-1.555 2.453,-1.606 0.927,-0.047 1.254,0.41 1.01,1.465 -0.37,1.592 -1.126,3.416 -1.536,4.998 -1.305,5.038 2.305,2.964 3.04,2.213 0.57,-0.58 1.111,-1.588 1.405,-2.524 0.53,-1.948 0.847,-3.74 1.308,-5.397 0.258,-0.922 1.759,-1.844 2.68,-1.89 0.46,-0.024 0.908,0.28 0.995,0.746 0,0 -2.946,9.261 -2.141,10.102 0.265,0.277 1.727,0.337 4.565,-10.818 H 63.58 c 0.098,-0.41 0.572,-2.267 0.596,-2.375 0.223,-0.967 1.123,-1.63 2.048,-1.868 0.737,-0.19 1.725,0.035 1.558,0.996 -0.03,0.177 -0.283,1.237 -0.615,2.61 2.104,-1.103 4.305,-1.156 5.688,0.476 2.149,-1.59 4.609,-3.126 6.471,-3.48 0.123,-0.03 0.243,-0.05 0.353,-0.056 0.46,-0.023 0.907,0.28 0.995,0.746 0,0 -3.675,10.438 -2.085,11.15 0.434,0.194 1.627,-0.447 2.877,-3.252 -0.22,-1.96 0.178,-3.852 0.93,-5.665 0.669,-1.617 1.752,-2.787 3.641,-3.341 1.664,-0.489 3.057,-0.245 3.991,0.519 0.034,-0.13 2.464,-10.558 2.617,-10.918 l 0.007,-0.012 c 0.05,-0.2 0.098,-0.397 0.143,-0.592 0.222,-0.968 1.123,-1.63 2.048,-1.868 0.737,-0.19 1.725,0.034 1.558,0.996 -0.025,0.142 -3.934,15.161 -4.175,16.697 -0.669,4.253 1.709,5.18 2.76,4.899 1.323,-0.356 1.865,-2.638 2.122,-3.79 z m -9.016,2.38 c 0.606,-2.439 1.135,-4.225 1.57,-6.237 -0.275,-0.296 -1.26,-0.608 -1.98,-0.397 -0.906,0.267 -2.983,2.008 -3.332,6.287 -0.102,1.24 0.329,1.736 0.775,1.941 1.1,0.503 2.624,-0.213 2.967,-1.594 z m -8.517,-9.287 c -0.737,0.19 -1.725,-0.035 -1.558,-0.997 0.002,-0.017 0.008,-0.046 0.015,-0.08 l 0.062,-0.252 C 78.316,9.66 79.216,8.997 80.141,8.76 80.879,8.57 81.866,8.794 81.7,9.756 l -0.016,0.08 c -0.02,0.083 -0.042,0.168 -0.061,0.252 -0.223,0.967 -1.123,1.63 -2.048,1.868 z m -8.43,9.764 c 0.042,-0.51 0.058,-1.07 0.014,-1.602 -1.63,1.422 -3.077,3.13 -3.426,4.902 -0.072,0.613 0.11,1.102 0.648,1.37 0.607,0.303 1.417,-0.157 1.926,-1.265 a 9.73,9.73 0 0 0 0.579,-1.61 l 0.002,0.002 0.01,-0.046 a 7.7,7.7 0 0 0 0.247,-1.751 z"
             id="path6378" />
        </g>
      </g>
    </g>
  </g>
</svg>
