<?xml version="1.0" encoding="UTF-8" standalone="no"?>
<!-- Generator: Adobe Illustrator 19.2.1, SVG Export Plug-In . SVG Version: 6.00 Build 0)  -->

<svg
   version="1.1"
   id="layer"
   x="0px"
   y="0px"
   viewBox="0 0 200 100"
   xml:space="preserve"
   sodipodi:docname="eharmony.svg"
   width="200"
   height="100"
   inkscape:version="1.1 (c4e8f9e, 2021-05-24)"
   xmlns:inkscape="http://www.inkscape.org/namespaces/inkscape"
   xmlns:sodipodi="http://sodipodi.sourceforge.net/DTD/sodipodi-0.dtd"
   xmlns="http://www.w3.org/2000/svg"
   xmlns:svg="http://www.w3.org/2000/svg"><defs
   id="defs13766" /><sodipodi:namedview
   id="namedview13764"
   pagecolor="#ffffff"
   bordercolor="#666666"
   borderopacity="1.0"
   inkscape:pageshadow="2"
   inkscape:pageopacity="0.0"
   inkscape:pagecheckerboard="0"
   showgrid="false"
   inkscape:zoom="1.3"
   inkscape:cx="122.30769"
   inkscape:cy="100"
   inkscape:window-width="1711"
   inkscape:window-height="756"
   inkscape:window-x="0"
   inkscape:window-y="25"
   inkscape:window-maximized="0"
   inkscape:current-layer="layer" />
<style
   type="text/css"
   id="style13740">
	.st0{fill:#0CAEB1;}
	.st1{fill:#058984;}
	.st2{fill:#EF5F54;}
	.st3{fill:#FD9F82;}
	.st4{fill:#617DC6;}
	.st5{fill:#1A5F78;}
	.st6{fill:#AF385C;}
	.st7{fill:#233560;}
</style>
<g
   id="mdb-atlas-competitive-hires-comp"
   transform="matrix(0.29524486,0,0,0.29524486,4.9034602,-47.85983)">
	<g
   id="D---180426-atlas-competitive-dynamo-2"
   transform="translate(-963,-77)">
		<g
   id="Hero"
   transform="translate(153,-385)">
			<g
   id="Grid"
   transform="translate(547.12237,0.736576)">
				<g
   id="logo-eharmony"
   transform="translate(263.03804,461.44462)">
					<path
   id="Fill-1"
   class="st0"
   d="m 237.2,320.3 v 26.6 c 0.1,0.9 -0.2,1.8 -0.9,2.4 -0.6,0.6 -1.5,0.9 -2.4,0.9 h -2.2 c -0.9,0.1 -1.8,-0.2 -2.5,-0.8 -0.6,-0.6 -1,-1.5 -0.9,-2.4 v -24.1 c 0,-13.8 -3.1,-21.3 -11.8,-21.3 -8.3,0 -20.2,6.9 -20.2,19.6 V 347 c 0.1,0.9 -0.2,1.8 -0.9,2.4 -0.6,0.6 -1.5,0.9 -2.4,0.9 h -2.2 c -0.9,0.1 -1.8,-0.2 -2.4,-0.9 -0.6,-0.6 -1,-1.5 -0.9,-2.4 v -75.9 c -0.1,-1.7 1,-3.2 2.6,-3.7 l 2.4,-0.8 c 2.4,-0.8 3.8,0.3 3.8,2.6 v 33.7 c 5.2,-6.2 12.7,-8.3 21.3,-8.3 14,-0.2 19.6,10.5 19.6,25.7" />
					<path
   id="Fill-3"
   class="st0"
   d="m 168.8,340.6 c 2.5,-1.4 3.1,-1.1 4.6,0.4 l 0.1,0.1 c 1.7,1.6 1,3.4 -0.3,4.6 -3,2.7 -11.4,5.5 -19.3,5.5 -15.6,0 -27.6,-10.5 -27.6,-28.2 0,-16.7 10.7,-28.6 26.4,-28.6 16.7,0 25.3,13.4 25.3,26 0,2.8 -0.4,4 -3.2,4 h -39.7 c 0.8,14.8 9.3,20.3 19.9,20.3 6.2,0.1 9.9,-1.8 13.8,-4.1 m -33.5,-22.2 h 33.9 c -1.1,-10 -4.9,-17.5 -16,-17.5 -10,0 -16.3,6.3 -17.9,17.5 v 0" />
					<path
   id="Fill-4"
   class="st0"
   d="m 294.5,295.5 h 2.2 c 0.9,-0.1 1.8,0.2 2.4,0.9 0.6,0.6 1,1.5 0.9,2.4 v 48.1 c 0,2.1 -0.7,3.2 -2.3,3.2 -0.8,0 -1.6,-0.1 -2.8,-2.2 L 292,343 c -4.9,5.4 -11.9,8.4 -19.2,8.3 -15.8,0 -26.9,-12.1 -26.9,-28.4 0,-16.3 10.8,-28.4 26.7,-28.4 7.6,0 13.9,1.3 18.6,7 v -2.6 c -0.1,-0.9 0.2,-1.8 0.9,-2.4 0.6,-0.8 1.5,-1.1 2.4,-1 m -3,27.4 c 0,-17.1 -9.9,-21.2 -17.9,-21.2 -11.2,0 -18.9,8.1 -18.9,21.1 0,13 7.7,21.1 19,21.1 8.1,0 17.8,-4.2 17.8,-21 v 0" />
					<path
   id="Fill-5"
   class="st0"
   d="m 348.7,297.8 c 2.1,1.7 1.7,3.3 0.1,4.7 l -1.3,1.2 c -1.8,1.6 -3.2,1.1 -4.8,0.1 -2.2,-1.4 -4.7,-2.1 -7.3,-2.1 -7.9,0 -14,5.8 -14,15.7 l -0.2,29.4 c 0.1,0.9 -0.2,1.8 -0.9,2.4 -0.6,0.6 -1.5,0.9 -2.5,0.8 h -2.2 c -0.9,0.1 -1.8,-0.2 -2.4,-0.9 -0.6,-0.6 -1,-1.5 -0.9,-2.4 v -48.1 c -0.1,-0.9 0.2,-1.8 0.9,-2.4 0.6,-0.6 1.5,-1 2.4,-0.9 h 2.2 c 0.9,-0.1 1.8,0.2 2.4,0.9 0.6,0.6 1,1.5 0.9,2.4 v 3.6 c 4.3,-4.8 10.1,-7.9 16.2,-7.9 3.9,0.2 8.7,1.3 11.4,3.5" />
					<path
   id="Fill-6"
   class="st0"
   d="m 439.6,320.2 v 26.7 c 0.1,0.9 -0.2,1.8 -0.9,2.4 -0.6,0.6 -1.5,0.9 -2.4,0.9 h -2.2 c -0.9,0.1 -1.8,-0.2 -2.4,-0.9 -0.6,-0.6 -1,-1.5 -0.9,-2.4 v -25.6 c 0,-12.8 -3.6,-19.8 -11.6,-19.8 -8,0 -15.9,6.6 -16,19.6 v 25.8 c 0.1,0.9 -0.2,1.8 -0.9,2.4 -0.6,0.6 -1.5,0.9 -2.4,0.9 h -2.2 c -0.9,0.1 -1.8,-0.2 -2.4,-0.9 -0.6,-0.6 -1,-1.5 -0.9,-2.4 v -25.6 c 0,-12.8 -3.6,-19.8 -11.6,-19.8 -8,0 -15.9,6.6 -16,19.6 v 25.8 c 0.1,0.9 -0.2,1.8 -0.9,2.4 -0.6,0.6 -1.5,0.9 -2.4,0.9 h -2.2 c -0.9,0.1 -1.8,-0.2 -2.4,-0.9 -0.6,-0.6 -1,-1.5 -0.9,-2.4 v -48.1 c -0.1,-0.9 0.2,-1.8 0.9,-2.4 0.6,-0.6 1.5,-1 2.4,-0.9 h 2.2 c 0.9,-0.1 1.8,0.2 2.4,0.9 0.6,0.6 1,1.5 0.9,2.4 v 4.2 c 4.4,-5.4 9.3,-8.8 16.6,-8.8 8.2,0 14.8,4.2 17.7,11.8 5.2,-7.9 11.1,-11.8 19.2,-11.8 13.2,0 19.3,10.7 19.3,26" />
					<path
   id="Fill-7"
   class="st0"
   d="m 449.4,322.9 c 0,-17.8 12.6,-28.4 27.1,-28.4 14.5,0 27.1,10.6 27.1,28.4 0,17.8 -12.6,28.4 -27.1,28.4 -14.6,0 -27.1,-10.6 -27.1,-28.4 m 45,0 c 0,-13.9 -8.7,-21.3 -18,-21.3 -9.3,0 -18.1,7.3 -18.1,21.5 0,14.1 8.8,21.2 18,21.2 9.2,-0.1 18.1,-7.2 18.1,-21.4" />
					<path
   id="Fill-8"
   class="st0"
   d="m 563,320.2 v 26.7 c 0.1,0.9 -0.2,1.8 -0.9,2.4 -0.6,0.6 -1.5,0.9 -2.4,0.9 h -2.2 c -0.9,0.1 -1.8,-0.2 -2.4,-0.9 -0.6,-0.6 -1,-1.5 -0.9,-2.4 v -25.6 c 0,-12.1 -2.5,-19.8 -11.9,-19.8 -8.6,0 -19.7,6.4 -20.1,20.6 v 24.8 c 0.1,0.9 -0.2,1.8 -0.9,2.4 -0.6,0.6 -1.5,0.9 -2.4,0.8 h -2.2 c -0.9,0.1 -1.8,-0.2 -2.4,-0.9 -0.6,-0.6 -1,-1.5 -0.9,-2.4 v -48.1 c -0.1,-0.9 0.2,-1.8 0.9,-2.4 0.6,-0.6 1.5,-1 2.4,-0.9 h 2.2 c 0.9,-0.1 1.8,0.2 2.4,0.9 0.6,0.6 1,1.5 0.9,2.4 v 4.5 c 5.6,-6.9 12.7,-9.1 21,-9.1 14.1,0.1 19.8,10.9 19.8,26.1" />
					<path
   id="Fill-9"
   class="st0"
   d="m 615.7,293.9 h 1.9 c 2.4,0 3.5,1.5 2.5,3.8 l -33.8,77.2 c -0.6,1.6 -2.2,2.6 -3.9,2.5 h -1.9 c -2.4,0 -3.5,-1.5 -2.5,-3.8 l 12.2,-26.3 -19.5,-49.5 c -0.9,-2.3 0.2,-3.8 2.7,-3.8 h 2.5 c 1.8,-0.1 3.4,1 3.9,2.6 l 14.7,40.6 17.3,-40.7 c 0.7,-1.6 2.2,-2.7 3.9,-2.6" />
					<path
   id="Fill-10"
   class="st0"
   d="m 66.9,283.4 c -10.6,-10.5 -27.8,-10.5 -38.4,0 l 19.2,19 19.2,-19" />
					<path
   id="Fill-11"
   class="st1"
   d="m 28.5,321.4 19.2,-19 -19.2,-19 c -10.6,10.5 -10.6,27.5 0,38" />
					<path
   id="Fill-12"
   class="st2"
   d="m 105.3,321.4 c 10.6,-10.5 10.6,-27.5 0,-38 l -19.2,19 19.2,19" />
					<path
   id="Fill-13"
   class="st3"
   d="m 66.9,283.4 19.2,19 19.2,-19 c -10.6,-10.5 -27.8,-10.5 -38.4,0" />
					<polyline
   id="Fill-14"
   class="st4"
   points="86.1,302.4 66.9,283.4 47.7,302.4 66.9,321.4 86.1,302.4      " />
					<polyline
   id="Fill-15"
   class="st5"
   points="47.7,302.4 28.5,321.4 47.7,340.4 66.9,321.4 47.7,302.4      " />
					<polyline
   id="Fill-16"
   class="st6"
   points="66.9,321.4 86.1,302.4 105.3,321.4 86.1,340.4 66.9,321.4      " />
					<polyline
   id="Fill-17"
   class="st7"
   points="47.7,340.4 66.9,321.4 86.1,340.4 66.9,359.4 47.7,340.4      " />
				</g>
			</g>
		</g>
	</g>
</g>
</svg>
