<?xml version="1.0" encoding="UTF-8" standalone="no"?>
<!-- Generator: Adobe Illustrator 19.2.1, SVG Export Plug-In . SVG Version: 6.00 Build 0)  -->

<svg
   version="1.1"
   id="Ebene_1"
   x="0px"
   y="0px"
   viewBox="0 0 200 69.999998"
   enable-background="new 0 0 254.4 103.3"
   xml:space="preserve"
   sodipodi:docname="elitesingles.svg"
   width="200"
   height="70"
   inkscape:version="1.2.2 (b0a84865, 2022-12-01)"
   xmlns:inkscape="http://www.inkscape.org/namespaces/inkscape"
   xmlns:sodipodi="http://sodipodi.sourceforge.net/DTD/sodipodi-0.dtd"
   xmlns="http://www.w3.org/2000/svg"
   xmlns:svg="http://www.w3.org/2000/svg"><defs
   id="defs3248" /><sodipodi:namedview
   id="namedview3246"
   pagecolor="#ffffff"
   bordercolor="#000000"
   borderopacity="0.25"
   inkscape:showpageshadow="2"
   inkscape:pageopacity="0.0"
   inkscape:pagecheckerboard="0"
   inkscape:deskcolor="#d1d1d1"
   showgrid="false"
   inkscape:zoom="2"
   inkscape:cx="104"
   inkscape:cy="52.75"
   inkscape:window-width="1463"
   inkscape:window-height="1205"
   inkscape:window-x="373"
   inkscape:window-y="135"
   inkscape:window-maximized="0"
   inkscape:current-layer="Ebene_1" />
<g
   id="g3243"
   transform="matrix(0.63249516,0,0,0.63249516,19.494756,3.4632495)">
	<g
   id="g3231">
		<path
   fill="#33343f"
   d="m 112.2,103.2 c -2.5,0 -5,-0.9 -6.9,-2.6 l 2.1,-2.5 c 1.5,1.2 3,2 4.9,2 1.5,0 2.4,-0.6 2.4,-1.5 v -0.1 c 0,-0.9 -0.6,-1.4 -3.3,-2.1 -3.3,-0.8 -5.4,-1.8 -5.4,-5 v 0 c 0,-3 2.4,-4.9 5.7,-4.9 2.4,0 4.4,0.7 6.1,2.1 l -1.9,2.7 c -1.4,-1 -2.9,-1.6 -4.2,-1.6 -1.4,0 -2.1,0.6 -2.1,1.4 v 0 c 0,1.1 0.7,1.4 3.5,2.1 3.3,0.9 5.2,2.1 5.2,4.9 v 0.1 c -0.1,3.2 -2.6,5 -6.1,5 z"
   id="path3217" />
		<path
   fill="#33343f"
   d="M 124.1,103 V 86.6 h 3.6 V 103 Z"
   id="path3219" />
		<path
   fill="#33343f"
   d="M 145.8,103 137.9,92.6 V 103 h -3.5 V 86.6 h 3.3 l 7.7,10.1 V 86.6 H 149 V 103 Z"
   id="path3221" />
		<path
   fill="#33343f"
   d="m 163.2,103.3 c -5.1,0 -8.6,-3.6 -8.6,-8.4 v 0 c 0,-4.6 3.6,-8.5 8.6,-8.5 2.9,0 4.7,0.8 6.4,2.2 l -2.3,2.7 c -1.3,-1.1 -2.4,-1.7 -4.3,-1.7 -2.6,0 -4.7,2.3 -4.7,5.1 v 0 c 0,3 2.1,5.2 5,5.2 1.3,0 2.5,-0.3 3.4,-1 v -2.3 h -3.6 v -3.1 h 7.1 v 7.1 c -1.7,1.5 -4,2.7 -7,2.7 z"
   id="path3223" />
		<path
   fill="#33343f"
   d="M 176.2,103 V 86.6 h 3.6 v 13.1 h 8.2 v 3.3 z"
   id="path3225" />
		<path
   fill="#33343f"
   d="M 193.3,103 V 86.6 h 12.3 v 3.2 h -8.8 v 3.3 h 7.7 v 3.2 h -7.7 v 3.4 h 8.9 v 3.2 h -12.4 z"
   id="path3227" />
		<path
   fill="#33343f"
   d="m 217.3,103.2 c -2.5,0 -5,-0.9 -6.9,-2.6 l 2.1,-2.5 c 1.5,1.2 3,2 4.9,2 1.5,0 2.4,-0.6 2.4,-1.5 v -0.1 c 0,-0.9 -0.6,-1.4 -3.3,-2.1 -3.3,-0.8 -5.4,-1.8 -5.4,-5 v 0 c 0,-3 2.4,-4.9 5.7,-4.9 2.4,0 4.4,0.7 6.1,2.1 l -1.9,2.7 c -1.4,-1 -2.9,-1.6 -4.2,-1.6 -1.4,0 -2.1,0.6 -2.1,1.4 v 0 c 0,1.1 0.7,1.4 3.5,2.1 3.3,0.9 5.2,2.1 5.2,4.9 v 0.1 c -0.1,3.2 -2.6,5 -6.1,5 z"
   id="path3229" />
	</g>
	<g
   id="g3241"
   style="fill:#31a45c;fill-opacity:1">
		<path
   fill="#FFFFFF"
   d="m 253.9,43.8 c -3,0.1 -4.5,3.7 -6.1,6.1 -4.6,6.9 -11,14.8 -18.6,17.7 -7.1,2.8 -13.8,0 -16.4,-6.1 6.4,-6.1 15.9,-10.3 13.4,-23.4 -0.3,-1.7 -1.8,-4.5 -3,-5.6 -7.4,-6.6 -17.9,1.3 -20.8,5.6 -2.1,3.2 -2.1,6.5 -3.5,10.4 -1.1,3 -3.8,7 -6.1,10.4 -3.7,5.5 -7.8,11 -13.4,12.5 -18.6,5.2 -12,-27.2 -9.5,-38.1 5.9,-0.5 14.1,1.4 14.7,-4.3 -4.6,-0.3 -10.4,0.6 -14.3,-0.4 1.9,-8.2 5,-23.9 -8.2,-21.6 -1.9,6.6 -1.2,15.8 -3.9,21.6 -3.4,-0.3 -7,-0.5 -10,-1.3 -0.3,2.1 -0.7,4.1 0.4,5.6 2.2,1.1 6.9,-0.3 9.1,0.9 -3.5,18.1 -4.5,42.3 14.3,43.3 13.8,0.7 20.8,-10.2 26.8,-19.5 3.4,10.9 12.5,19.3 26.4,17.3 10.4,-1.5 19.7,-11.6 24.7,-19 2.5,-3.5 5.7,-8.4 4,-12.1 z m -35.1,-7.4 c 5.1,8.2 -3.1,18.3 -7.8,20.8 -1.5,-8 -2.1,-23 7.8,-20.8 z"
   id="path3233"
   style="fill:#31a45c;fill-opacity:1" />
		<path
   fill="#FFFFFF"
   d="m 131.4,40.3 c -0.9,1.7 -0.2,5 -0.4,7.4 -3.3,4.4 -6.1,8.3 -10.4,13 -3,3.2 -8.6,10.2 -14.7,9.1 -4,-0.7 -7.9,-9 -6.9,-15.6 0.3,-2.2 2.8,-5.7 4.3,-8.7 4.3,-8 10.8,-18.7 11.7,-28.6 0.8,-9.1 -4.6,-12.5 -11.2,-8.7 -7.6,4.4 -15,19.8 -16,34.6 -1.2,17.4 3.2,38.6 21.2,31.6 9,-3.4 15.1,-12.6 22,-19.8 -0.7,10.1 -2.8,27.6 9.5,22.1 0.6,-4.1 0.2,-11 0.4,-17.7 0.4,-11.1 2.6,-21 -9.5,-18.7 z M 108.5,10.5 c 2.2,1.5 2,4.5 1.7,6.9 -1.2,9.8 -7.5,20.4 -11.3,28.1 -0.1,-8.7 2.6,-31.8 9.6,-35 z"
   id="path3235"
   style="fill:#31a45c;fill-opacity:1" />
		<path
   fill="#FFFFFF"
   d="m 131,25.6 c -1.9,11.9 12.1,8.6 11.3,1.3 -0.6,-4.9 -8.4,-4.7 -11.3,-1.3 z"
   id="path3237"
   style="fill:#31a45c;fill-opacity:1" />
		<path
   fill="#FFFFFF"
   d="m 69.8,80.3 c 2.7,0.2 5.6,-0.3 8.4,-0.9 -1,1 -2.3,2.2 -3.2,3 -1.7,1.5 0.5,3 1.6,4.5 3.3,-2.4 6.8,-4.9 8,-9.3 0.2,-1.7 -0.4,-3.8 -1.8,-5.2 -2.6,-1.4 -6.1,0.5 -9.2,1.8 0,0 0,0 0,0 -4.3,2.2 -8,2.1 -11.5,1.6 C 51.2,74.7 42,70.1 36.8,60.3 c -1.9,-3.6 -3,-7.1 -3.5,-10.7 9.4,-3.1 18.2,-4.9 28.5,-6.4 -1.1,0.8 -2.2,2 -2.2,3.1 0,1.8 0.9,2.6 1.6,3.2 1.3,0.8 2.9,1.6 5.6,0.5 0.6,-0.3 2.6,-1.5 3.6,-2.5 0.5,-0.5 0.9,-1.1 1.4,-1.6 0.4,-0.6 0.8,-1.1 1.2,-1.6 0.4,-0.5 0.8,-1 1.2,-1.4 l 1.4,-1.4 c 0.9,-0.9 1.9,-1.8 2.8,-2.7 0.1,-0.1 0.2,-0.3 0.3,-0.4 C 79,37.7 78.7,37 78,36.7 H 77.9 C 76.3,36 74.7,35.3 73.1,34.6 72.3,34.2 71.5,33.9 70.8,33.5 70.4,33.3 70.1,33.1 69.7,32.9 69.3,32.7 68.9,32.4 68.5,32.2 66.8,31.4 64.9,30.8 63,30.9 c -1,0.1 -1.9,0.4 -2.7,0.8 -0.8,0.5 -1.5,1.1 -1.9,1.9 -0.4,0.8 -0.8,1.8 -0.4,2.6 0.7,1.5 2.5,1.8 3.7,1.9 -3,0.4 -6.5,1.1 -10.9,1.8 C 44.4,41.1 38.7,42.6 33,44.4 33,42.6 33.2,40.8 33.5,39 36,23.2 49.8,11.2 65,8.8 c 0,0 0,0 0,0 2.1,-0.5 2.7,-1.2 2.5,-2.1 -3.3,-5.4 -8.2,-6 -13.1,-6.8 -0.2,1.8 -1,2.7 1.2,3.3 0.8,0.2 1.6,0.3 2.4,0.5 -0.1,0 -0.2,0 -0.3,0 C 43.8,5.7 30.8,18 26,29.6 c -2.3,5.6 -3.1,12 -2.4,18.2 -2.1,0.9 -4.4,1.8 -6.7,2.8 C 12.2,48.2 6.5,47.4 1,46.5 c -0.7,2.7 -2.5,3.9 1.5,5 2.5,0.7 4.8,0.8 7.2,1.6 0.4,0.1 0.7,0.3 1,0.4 -4.5,2.1 -6.4,3.6 -3.6,7.3 1.9,-1 3.7,-1.8 5.5,-2.7 -0.1,0.4 -0.2,0.9 -0.4,1.3 -0.7,2.4 -2,4.4 -3,6.8 -1.5,3.8 0.5,3.1 3.1,4.1 2.5,-4.8 5.1,-9.8 6,-14.9 2.1,-0.9 4,-1.7 6,-2.5 1.5,5.9 4.4,11.3 8.6,15.5 6.3,6.3 14.8,9.4 23.8,11.1 3.7,0.5 9.1,0.8 13.1,0.8 z"
   id="path3239"
   style="fill:#31a45c;fill-opacity:1" />
	</g>
</g>
</svg>
