<?xml version="1.0" encoding="UTF-8" standalone="no"?>
<svg
   width="200"
   height="70"
   viewBox="0 0 200 70"
   fill="none"
   version="1.1"
   id="svg1644"
   sodipodi:docname="espaceflirt.svg"
   inkscape:version="1.2.1 (9c6d41e, 2022-07-14)"
   xmlns:inkscape="http://www.inkscape.org/namespaces/inkscape"
   xmlns:sodipodi="http://sodipodi.sourceforge.net/DTD/sodipodi-0.dtd"
   xmlns="http://www.w3.org/2000/svg"
   xmlns:svg="http://www.w3.org/2000/svg">
  <sodipodi:namedview
     id="namedview1646"
     pagecolor="#ffffff"
     bordercolor="#666666"
     borderopacity="1.0"
     inkscape:pageshadow="2"
     inkscape:pageopacity="0.0"
     inkscape:pagecheckerboard="0"
     showgrid="false"
     inkscape:zoom="1"
     inkscape:cx="-104"
     inkscape:cy="19.5"
     inkscape:window-width="1463"
     inkscape:window-height="1205"
     inkscape:window-x="0"
     inkscape:window-y="25"
     inkscape:window-maximized="0"
     inkscape:current-layer="svg1644"
     inkscape:showpageshadow="2"
     inkscape:deskcolor="#d1d1d1" />
  <path
     d="M 59.832697,58.384598 C 65.949666,48.541786 83.22213,35.261876 83.22213,24.512245 83.22213,17.596302 77.10516,12 69.559548,12 c -2.576665,0 -4.990983,0.649384 -7.045821,1.788126 7.452846,8.019897 1.11439,18.142176 -5.966219,25.396727 C 60.633991,34.13589 63.767271,29.098522 63.767271,24.513405 63.778867,17.595142 57.661898,12 50.107007,12 46.298831,12 42.862892,13.427486 40.390593,15.714247 37.905538,13.427486 34.469599,12 30.662583,12 23.116969,12 17,17.595142 17,24.512245 17,35.261876 34.272465,48.542946 40.389434,58.384598 42.131175,55.576011 44.789013,52.487956 47.690369,49.249151 37.731596,36.295093 32.937748,27.611896 37.928731,18.860282 A 11.577596,11.577596 0 0 0 36.45486,24.501809 C 36.44326,35.25028 53.715729,48.527871 59.832697,58.384598 Z M 38.265019,18.279315 c -0.02319,0.03479 -0.03479,0.06958 -0.05798,0.104365 0.0116,-0.03479 0.03479,-0.06958 0.05798,-0.104365 z"
     fill="url(#a)"
     id="path1621"
     style="fill:url(#a);stroke-width:1.15962" />
  <path
     opacity="0.25"
     fill-rule="evenodd"
     clip-rule="evenodd"
     d="m 43.071623,17.757488 c 1.902928,0 3.434779,2.599857 3.434779,5.803873 0,3.204016 -1.542287,5.803873 -3.434779,5.803873 -1.904088,0 -3.435939,-2.599857 -3.435939,-5.803873 -0.0116,-3.204016 1.530692,-5.803873 3.435939,-5.803873 z"
     fill="#ffffff"
     id="path1623"
     style="stroke-width:1.15962" />
  <path
     opacity="0.5"
     fill-rule="evenodd"
     clip-rule="evenodd"
     d="m 24.835518,16.96779 c 2.599857,0 4.701079,3.551901 4.701079,7.939884 0,4.387983 -2.112818,7.939884 -4.701079,7.939884 -2.601016,0 -4.701079,-3.551901 -4.701079,-7.939884 -0.0116,-4.387983 2.100063,-7.939884 4.701079,-7.939884 z"
     fill="#ffffff"
     id="path1625"
     style="stroke-width:1.15962" />
  <path
     opacity="0.25"
     fill-rule="evenodd"
     clip-rule="evenodd"
     d="m 71.985462,43.875496 v -1.301088 c 0,-0.718961 -0.09277,-1.171211 -0.266711,-1.333557 -0.173943,-0.162346 -0.591404,-0.256275 -1.252384,-0.256275 h -0.906819 v -2.634645 h 7.080612 c -1.43793,1.844947 -3.017322,3.691054 -4.654698,5.525565 z m -1.821755,-11.65413 h 0.96248 c 0.638948,0 1.057569,-0.08117 1.254704,-0.231923 0.197134,-0.15075 0.3015,-0.580968 0.3015,-1.301088 V 19.915532 c 0,-0.75375 -0.09277,-1.217596 -0.278308,-1.391538 -0.185538,-0.173943 -0.614596,-0.266712 -1.299928,-0.266712 h -0.940448 v -2.752926 h 8.868733 c 0.9161,0.811731 1.7058,1.728986 2.34474,2.750607 h -2.41431 v 5.341187 h 0.74215 c 0.86971,0 1.47387,-0.208731 1.82291,-0.637789 0.34789,-0.429057 0.52183,-1.185126 0.52183,-2.264728 v -0.173942 h 0.44065 c 0.46385,1.253544 0.72012,2.58942 0.72012,3.982118 0,1.578236 -0.40586,3.227208 -1.06684,4.898213 h -0.0928 c -0.0348,-1.357909 -0.20989,-2.240376 -0.52299,-2.646241 -0.31309,-0.405865 -0.91725,-0.603 -1.79972,-0.603 h -0.76534 v 6.057829 h 1.85654 c -0.51023,0.917255 -1.05525,1.834511 -1.6826,2.763362 h -8.973103 v -2.751766 z"
     fill="#000000"
     id="path1627"
     style="stroke-width:1.15962" />
  <path
     opacity="0.25"
     fill-rule="evenodd"
     clip-rule="evenodd"
     d="m 73.134641,42.562812 c 0,-0.718962 -0.09277,-1.159615 -0.266712,-1.333558 -0.173942,-0.162346 -0.591403,-0.256274 -1.252384,-0.256274 h -0.906819 v -2.634646 h 5.943024 a 95.461822,95.461822 0 0 1 -3.517109,4.224478 z M 71.312885,32.220206 h 0.962481 c 0.638948,0 1.057569,-0.08117 1.254703,-0.231923 0.197135,-0.15075 0.3015,-0.579808 0.3015,-1.298769 V 19.914372 c 0,-0.75375 -0.09277,-1.217596 -0.278307,-1.391538 -0.185539,-0.173942 -0.614596,-0.266711 -1.299929,-0.266711 h -0.940448 v -2.751767 h 7.729995 c 0.91725,0.811731 1.70695,1.728986 2.3459,2.750607 h -1.2663 v 5.341187 h 0.74331 c 0.86971,0 1.47387,-0.208731 1.82292,-0.637789 0.13915,-0.162346 0.23192,-0.382673 0.31309,-0.650544 0.13916,0.707365 0.22033,1.439082 0.22033,2.193992 0,0.858115 -0.13915,1.728986 -0.34788,2.611453 -0.058,-0.139154 -0.11596,-0.266712 -0.19714,-0.359481 -0.31309,-0.405865 -0.91725,-0.603 -1.79972,-0.603 h -0.76535 v 6.057829 h 0.70737 c -0.51023,0.917255 -1.05525,1.834511 -1.6826,2.763362 h -7.823925 z"
     fill="#000000"
     id="path1629"
     style="stroke-width:1.15962" />
  <path
     opacity="0.25"
     fill-rule="evenodd"
     clip-rule="evenodd"
     d="M 74.134229,41.413633 A 0.56821133,0.56821133 0 0 0 74.018267,41.228095 C 73.843165,41.065749 73.425704,40.97298 72.763564,40.97298 h -0.9045 v -2.634646 h 4.792686 c -0.80013,1.032058 -1.64781,2.053678 -2.518681,3.075299 z m -1.683761,-9.193427 h 0.96248 c 0.638948,0 1.057569,-0.08117 1.254704,-0.231923 0.197134,-0.15075 0.301499,-0.579808 0.301499,-1.298769 V 19.914372 c 0,-0.75375 -0.09277,-1.217596 -0.278307,-1.391538 -0.185539,-0.173942 -0.614596,-0.266711 -1.299929,-0.266711 h -0.940447 v -2.751767 h 6.580812 c 0.91726,0.811731 1.70696,1.728986 2.3459,2.750607 h -0.11596 v 5.341187 h 0.74216 c 0.46384,0 0.84651,-0.06958 1.16077,-0.185539 0.0348,0.359481 0.058,0.718961 0.058,1.090038 0,0.580967 -0.0696,1.173531 -0.17394,1.77653 a 3.6527871,3.6527871 0 0 0 -1.02046,-0.127557 h -0.76767 v 5.247257 a 34.496226,34.496226 0 0 1 -2.12325,3.586689 h -6.686342 z"
     fill="#000000"
     id="path1631"
     style="stroke-width:1.15962" />
  <path
     opacity="0.25"
     fill-rule="evenodd"
     clip-rule="evenodd"
     d="m 74.458921,41.019364 c -0.162346,-0.02319 -0.324692,-0.04638 -0.545019,-0.04638 h -0.906819 v -2.634646 h 3.644667 c -0.69577,0.892904 -1.42632,1.786967 -2.193989,2.68103 z m -0.859275,-8.799158 h 0.962481 c 0.638943,0 1.056413,-0.08117 1.254703,-0.231923 0.19713,-0.15075 0.3015,-0.579808 0.3015,-1.298769 V 19.914372 c 0,-0.75375 -0.0928,-1.217596 -0.27831,-1.391538 -0.18554,-0.173942 -0.61459,-0.266711 -1.299926,-0.266711 h -0.940448 v -2.751767 h 5.431634 a 12.462382,12.462382 0 0 1 3.37796,4.782252 v 3.309542 h 0.76651 c 0.0232,0.301499 0.0464,0.602999 0.0464,0.904499 0,0.546179 -0.0696,1.092357 -0.16235,1.648973 h -0.66098 v 2.647401 c -0.70852,2.018889 -1.8577,4.085323 -3.27359,6.186545 h -5.53716 v -2.763362 z"
     fill="#000000"
     id="path1633"
     style="stroke-width:1.15962" />
  <path
     fill-rule="evenodd"
     clip-rule="evenodd"
     d="m 172.72933,29.22608 c 0,1.148019 0.24352,2.031646 0.72012,2.646241 0.47544,0.614596 1.14918,0.916096 2.03165,0.916096 0.74215,0 1.35791,-0.220327 1.83335,-0.66098 0.4766,-0.440654 0.7897,-1.078442 0.95204,-1.914525 h 3.52871 c -0.32469,1.775371 -1.0796,3.098492 -2.26357,3.969362 -1.18397,0.869712 -2.82018,1.311525 -4.89821,1.311525 -2.37953,0 -4.26043,-0.660981 -5.64153,-1.985261 -1.3811,-1.321961 -2.07803,-3.121683 -2.07803,-5.385252 0,-2.251972 0.69693,-4.040098 2.07803,-5.374815 1.3811,-1.333557 3.2504,-2.007293 5.58355,-2.007293 2.30995,0 4.07372,0.66098 5.31567,1.995697 1.24311,1.32312 1.85771,3.227208 1.85771,5.699507 v 0.498635 h -9.00789 v 0.289903 h -0.0109 z m 4.16766,-2.832939 V 26.18441 c 0,-0.9045 -0.18554,-1.601428 -0.54618,-2.101222 -0.35948,-0.487038 -0.88131,-0.730558 -1.55505,-0.730558 -0.65054,0 -1.16077,0.266712 -1.52025,0.788539 -0.36064,0.533422 -0.53458,1.277895 -0.53458,2.251972 z m -14.68421,1.962068 c -0.7897,0 -1.41589,-0.197134 -1.87973,-0.602999 -0.46501,-0.405866 -0.69693,-0.963641 -0.69693,-1.660569 0,-0.579808 0.16234,-1.05525 0.48704,-1.41589 0.32585,-0.359481 0.7665,-0.556615 1.32428,-0.579807 a 1.4495187,1.4495187 0 0 0 -0.55778,-0.534583 c -0.22033,-0.104365 -0.49863,-0.162346 -0.84768,-0.162346 -0.91609,0 -1.55504,0.347884 -1.93771,1.032057 -0.38384,0.685333 -0.56937,1.92728 -0.56937,3.70381 0,1.682602 0.17394,2.878165 0.52298,3.586689 0.34789,0.707366 0.9161,1.066846 1.71739,1.066846 0.61576,0 1.1028,-0.231923 1.45068,-0.684173 0.36064,-0.452249 0.54618,-1.090038 0.55777,-1.902928 h 3.45914 c -0.058,1.71739 -0.61576,3.028915 -1.69536,3.94617 -1.06801,0.916096 -2.58826,1.369505 -4.55033,1.369505 -2.32155,0 -4.1665,-0.672576 -5.5476,-2.008453 -1.37066,-1.345153 -2.05484,-3.133279 -2.05484,-5.385252 0,-2.275164 0.69577,-4.074887 2.08963,-5.398007 1.3927,-1.321961 3.28403,-1.984101 5.68791,-1.984101 1.85655,0 3.34201,0.429057 4.44481,1.287172 1.10279,0.859275 1.66056,1.985261 1.66056,3.390714 0,0.939288 -0.26671,1.659409 -0.80129,2.16964 -0.53342,0.521827 -1.28833,0.766505 -2.26357,0.766505 z m -16.30882,7.115398 c -0.85928,0 -1.58983,-0.162346 -2.20559,-0.475443 -0.6146,-0.313096 -1.12599,-0.800134 -1.54345,-1.462274 -0.49979,0.626192 -1.17237,1.101634 -2.02005,1.437923 -0.84768,0.337448 -1.82175,0.499794 -2.92455,0.499794 -1.42864,0 -2.53144,-0.336289 -3.30838,-1.008865 -0.7781,-0.673737 -1.16077,-1.625781 -1.16077,-2.867728 0,-1.207159 0.34788,-2.112819 1.03322,-2.715818 0.69576,-0.60416 2.01888,-1.079602 3.98095,-1.41705 1.63738,-0.278307 2.65784,-0.591403 3.08806,-0.939288 0.42906,-0.336288 0.63779,-0.859275 0.63779,-1.579396 0,-0.695768 -0.24352,-1.252384 -0.71897,-1.659409 -0.4766,-0.405865 -1.12598,-0.614595 -1.95047,-0.614595 -0.26671,0 -0.54502,0.03479 -0.82448,0.115961 -0.27831,0.08117 -0.56821,0.197135 -0.86971,0.359481 0.49863,0.15075 0.8813,0.382673 1.12598,0.684173 0.24352,0.301499 0.37108,0.695768 0.37108,1.183966 0,0.591404 -0.23192,1.079602 -0.68533,1.451838 -0.45225,0.371077 -1.06801,0.556615 -1.82176,0.556615 -0.89406,0 -1.59099,-0.20873 -2.07803,-0.637788 -0.4882,-0.430217 -0.73172,-1.02278 -0.73172,-1.799722 0,-1.195563 0.60416,-2.124415 1.82292,-2.786555 1.21875,-0.672577 2.90135,-1.008865 5.08375,-1.008865 1.19556,0 2.26357,0.09277 3.20402,0.278308 0.94044,0.185538 1.64781,0.45225 2.13601,0.776942 0.5914,0.394269 0.99843,0.870871 1.23035,1.405453 0.23192,0.545019 0.34788,1.403134 0.34788,2.576664 v 5.282047 c 0,0.35948 0.0348,0.591403 0.11596,0.695769 0.0812,0.104365 0.23193,0.162346 0.45341,0.162346 0.22033,0 0.38268,-0.05798 0.46385,-0.173943 0.0928,-0.115961 0.12756,-0.347884 0.12756,-0.695769 v -1.660568 h 1.89249 v 1.799722 c 0,1.495903 -0.33629,2.576665 -1.01003,3.226049 -0.63894,0.684173 -1.74174,1.010025 -3.26199,1.010025 z m -4.31841,-5.083752 -0.0232,-1.77653 c -0.33629,0.185538 -0.78854,0.417461 -1.34631,0.695769 -1.26514,0.628511 -1.90293,1.219914 -1.90293,1.789285 0,0.394269 0.13915,0.718962 0.41746,0.974077 0.27831,0.255115 0.63779,0.382673 1.0796,0.382673 0.54502,0 0.97524,-0.173942 1.29993,-0.533423 0.32469,-0.359481 0.48704,-0.834923 0.48704,-1.439082 v -0.09277 z m -4.96779,8.380537 v 5.1197 h 3.83021 v 2.437511 h -3.83021 v 7.126993 c 0,0.533423 0.0812,0.927692 0.23192,1.171211 0.15075,0.256275 0.40703,0.372237 0.73172,0.372237 0.40587,0 0.69693,-0.197135 0.85928,-0.591404 0.16234,-0.394269 0.24351,-1.185127 0.24351,-2.356338 v -1.218755 h 2.36794 v 1.786967 c 0,1.799722 -0.37108,3.088054 -1.12599,3.8534 -0.74331,0.766506 -1.99685,1.137582 -3.72584,1.137582 -0.94045,0 -1.76493,-0.139153 -2.4607,-0.417461 -0.70853,-0.278308 -1.2779,-0.684173 -1.71855,-1.230351 -0.28991,-0.359481 -0.51023,-0.776942 -0.63779,-1.230352 -0.12756,-0.45225 -0.19714,-1.241947 -0.19714,-2.356337 v -6.035796 h -1.81131 v -2.437511 h 0.10436 c 1.09004,0 1.93888,-0.394269 2.54188,-1.195563 0.603,-0.801294 1.04481,-2.101222 1.33471,-3.924137 h 3.262 z m -10.80761,-3.296785 c -0.88131,0 -1.68144,-0.173943 -2.40156,-0.510231 -0.71896,-0.336288 -1.34632,-0.846519 -1.91569,-1.533011 v 3.866156 c 0,0.533423 0.10437,0.9045 0.3015,1.078442 0.19714,0.185539 0.603,0.279467 1.19557,0.279467 h 0.40586 v 2.553473 h -9.45898 V 38.65143 h 0.66098 c 0.52183,0 0.86971,-0.09277 1.03322,-0.266711 0.16235,-0.173942 0.25511,-0.545019 0.25511,-1.102794 V 25.198737 c 0,-0.557774 -0.0812,-0.928851 -0.25511,-1.103953 -0.16235,-0.173942 -0.51023,-0.266711 -1.03206,-0.266711 h -0.66214 V 21.2746 h 7.19657 v 1.880896 c 0.69577,-0.824486 1.3927,-1.41705 2.11282,-1.788126 0.71896,-0.371077 1.5075,-0.556616 2.39113,-0.556616 1.86814,0 3.28403,0.614596 4.27086,1.856544 0.97524,1.241948 1.47503,3.04167 1.47503,5.398008 0,2.263568 -0.49864,4.050535 -1.50982,5.386411 -1.02046,1.356749 -2.37953,2.01889 -4.06213,2.01889 z m -0.98567,-10.678894 c -0.3131,-0.718962 -0.77694,-1.078442 -1.4043,-1.078442 -0.63778,0 -1.11439,0.35948 -1.42864,1.090038 -0.3131,0.730557 -0.47544,1.822914 -0.47544,3.273593 0,1.485466 0.15075,2.576664 0.46384,3.285189 0.3131,0.707365 0.7897,1.066846 1.44024,1.066846 0.63779,0 1.10164,-0.359481 1.40314,-1.066846 0.30266,-0.707365 0.45341,-1.799723 0.45341,-3.285189 0.0109,-1.462275 -0.13916,-2.553472 -0.45225,-3.285189 z m -20.30254,29.797465 h 0.54502 c 0.53458,0 0.87203,-0.08117 1.04597,-0.255115 0.16235,-0.162346 0.24352,-0.522986 0.24352,-1.056409 v -5.63109 c 0,-0.545019 -0.0812,-0.894064 -0.24352,-1.05641 -0.16235,-0.162346 -0.51023,-0.243519 -1.04481,-0.243519 h -0.54502 v -2.461862 h 7.26615 v 9.403317 c 0,0.533423 0.0812,0.881308 0.24351,1.05525 0.16235,0.162346 0.51024,0.255115 1.04366,0.255115 h 0.4766 v 2.450267 h -9.03108 v -2.460703 z m 4.17925,-16.808618 c 0.68417,0 1.27674,0.243519 1.76493,0.742153 0.48704,0.499794 0.73056,1.092357 0.73056,1.788126 0,0.696929 -0.24352,1.288333 -0.73056,1.788127 -0.48703,0.487038 -1.068,0.730557 -1.76493,0.730557 -0.69577,0 -1.28833,-0.243519 -1.76377,-0.718961 -0.47545,-0.475442 -0.70853,-1.079602 -0.70853,-1.799723 0,-0.707365 0.24352,-1.298768 0.71896,-1.798562 0.47545,-0.487039 1.05641,-0.730558 1.75334,-0.730558 z m -3.01848,-2.309953 c -1.04365,0 -2.03048,-0.115962 -2.95933,-0.359481 -0.9277,-0.231923 -1.75334,-0.568211 -2.46071,-1.010025 l -0.52182,1.068006 H 97.7208 v -5.014175 h 2.53028 c 0.3015,0.892903 0.77694,1.555043 1.41589,1.995697 0.64938,0.440654 1.47387,0.660981 2.4723,0.660981 0.66098,0 1.13758,-0.09277 1.43908,-0.278308 0.3015,-0.185538 0.45225,-0.475442 0.45225,-0.869711 0,-0.533423 -0.74216,-1.008865 -2.23922,-1.462275 -0.49863,-0.15075 -0.90566,-0.278307 -1.19556,-0.371077 -2.1708,-0.696928 -3.5635,-1.359068 -4.20245,-1.973664 -0.63778,-0.614596 -0.96248,-1.451838 -0.96248,-2.507088 0,-1.405453 0.57981,-2.531439 1.72783,-3.366362 1.15034,-0.836082 2.71698,-1.253544 4.70224,-1.253544 0.88131,0 1.74058,0.09277 2.55347,0.266712 0.81173,0.173942 1.60143,0.45225 2.37953,0.81173 l 0.40587,-0.81173 h 2.11281 v 4.318406 h -2.23921 a 4.0169062,4.0169062 0 0 0 -1.57824,-1.5678 4.5920752,4.5920752 0 0 0 -2.22878,-0.545019 c -0.56821,0 -1.02046,0.09277 -1.34631,0.278308 -0.32469,0.185538 -0.48704,0.440654 -0.48704,0.75375 0,0.580967 0.71896,1.091197 2.14645,1.533011 0.35948,0.115961 0.64938,0.20873 0.85927,0.266711 0.17394,0.05798 0.42906,0.127558 0.74216,0.231923 1.5446,0.487038 2.6474,0.952044 3.32113,1.405453 0.47544,0.324693 0.84652,0.75375 1.10164,1.287173 0.25511,0.534583 0.38267,1.138742 0.38267,1.811319 0,1.450678 -0.55662,2.599856 -1.68144,3.424343 -1.12715,0.823326 -2.659,1.276736 -4.62107,1.276736 z M 74.748825,32.220206 H 75.7113 c 0.63895,0 1.05641,-0.08117 1.25471,-0.231923 0.19713,-0.15075 0.3015,-0.579808 0.3015,-1.298769 V 19.914372 c 0,-0.75375 -0.0928,-1.217596 -0.27831,-1.391538 -0.18554,-0.173942 -0.6146,-0.266711 -1.29993,-0.266711 H 74.748825 V 15.504356 H 94.93424 v 7.254552 h -3.0521 C 91.685,21.819619 91.47627,21.076306 91.25478,20.55332 c -0.22032,-0.533423 -0.48703,-0.950884 -0.80013,-1.275577 -0.36064,-0.372236 -0.81289,-0.627351 -1.33588,-0.789697 -0.52182,-0.15075 -1.3695,-0.231923 -2.53028,-0.231923 h -3.03007 v 5.340027 h 0.74331 c 0.86971,0 1.47387,-0.208731 1.82292,-0.637789 0.34788,-0.417461 0.52182,-1.17353 0.52182,-2.264728 v -0.173942 h 2.40273 v 8.891927 h -2.40273 c -0.0348,-1.357909 -0.20873,-2.240376 -0.52182,-2.646241 -0.3131,-0.405865 -0.91726,-0.603 -1.79973,-0.603 h -0.76534 v 6.057829 h 3.39999 c 1.31152,0 2.22878,-0.08117 2.72857,-0.243519 0.49864,-0.162346 0.88131,-0.429058 1.15962,-0.823327 0.3015,-0.463846 0.53458,-1.021621 0.70852,-1.695357 0.17395,-0.66098 0.28991,-1.508659 0.34789,-2.518684 h 3.16923 v 8.032653 H 74.748825 Z M 92.93739,45.99991 h -2.99413 c -0.058,-0.916095 -0.15075,-1.671005 -0.2899,-2.251972 -0.13916,-0.579807 -0.33629,-1.078442 -0.603,-1.472711 -0.31426,-0.476602 -0.72128,-0.802453 -1.21992,-0.999588 -0.49863,-0.197134 -1.45068,-0.289904 -2.85497,-0.289904 h -2.36793 v 5.130137 h 0.70736 c 0.83492,0 1.41589,-0.208731 1.75334,-0.614596 0.33629,-0.405865 0.49863,-1.137582 0.49863,-2.182395 v -0.162346 h 2.30996 v 8.531287 h -2.3088 C 85.53323,50.389053 85.3593,49.528619 85.0694,49.145946 84.7679,48.751677 84.19853,48.566138 83.33925,48.566138 H 82.5971 v 4.212881 c 0,0.765346 0.0928,1.230352 0.2899,1.381102 0.19714,0.15075 0.603,0.220327 1.2176,0.220327 h 1.02278 v 2.658997 H 74.145825 v -2.657838 h 0.928855 c 0.603,0 1.00886,-0.06958 1.20716,-0.220327 0.19713,-0.139153 0.2899,-0.557774 0.2899,-1.254703 V 42.562812 c 0,-0.718962 -0.0928,-1.171211 -0.26671,-1.333558 C 76.13109,41.066908 75.71362,40.97298 75.05148,40.97298 H 74.146984 V 38.338334 H 92.92695 v 7.660417 h 0.0109 z m 8.57883,7.278903 c 0,0.545019 0.0812,0.892904 0.24352,1.05525 0.16234,0.162346 0.51023,0.243519 1.03205,0.243519 h 0.43022 v 2.450267 h -9.01948 v -2.449107 h 0.60415 c 0.52183,0 0.85812,-0.08117 1.03206,-0.255115 0.1751,-0.162347 0.25628,-0.522987 0.25628,-1.05641 V 42.088529 c 0,-0.533423 -0.0812,-0.881307 -0.25512,-1.056409 -0.17394,-0.162346 -0.51023,-0.255115 -1.03206,-0.255115 h -0.60531 v -2.449107 h 7.31369 z m 20.32457,-8.102229 c 0.46384,-0.591404 0.98683,-1.033217 1.5446,-1.324281 0.56822,-0.289903 1.17122,-0.440653 1.81016,-0.440653 0.98684,0 1.77653,0.289904 2.36794,0.881307 0.5914,0.580967 0.88246,1.370665 0.88246,2.345901 0,0.846519 -0.23192,1.520255 -0.70736,2.031646 -0.4766,0.51023 -1.0912,0.765345 -1.8577,0.765345 -0.6146,0 -1.11439,-0.197134 -1.52142,-0.579807 -0.40586,-0.394269 -0.61459,-0.870871 -0.61459,-1.451838 0,-0.394269 0.0928,-0.742153 0.2899,-1.043653 0.19713,-0.3015 0.49863,-0.556616 0.90566,-0.766506 a 2.9419431,2.9419431 0 0 0 -0.59141,-0.08117 c -0.73171,0 -1.31268,0.347885 -1.74174,1.043654 -0.42905,0.696928 -0.63778,1.648972 -0.63778,2.867727 v 3.877753 c 0,0.533423 0.0812,0.881307 0.25511,1.055249 0.17394,0.162346 0.52183,0.255116 1.04365,0.255116 h 0.87087 v 2.450266 h -9.35577 v -2.44911 h 0.47544 c 0.53459,0 0.87087,-0.08117 1.04598,-0.255115 0.16234,-0.162346 0.24352,-0.521827 0.24352,-1.056409 v -5.63225 c 0,-0.545019 -0.0812,-0.894063 -0.24352,-1.056409 -0.16235,-0.162346 -0.51023,-0.243519 -1.04482,-0.243519 h -0.47544 v -2.461863 h 7.04466 v 1.2663 h 0.0109 z"
     fill="#fff"
     id="path1635"
     style="fill:#000000;stroke-width:1.15962" />
  <defs
     id="defs1642">
    <linearGradient
       id="a"
       x1="0"
       y1="19.997999"
       x2="57.108002"
       y2="19.997999"
       gradientUnits="userSpaceOnUse"
       gradientTransform="matrix(1.159615,0,0,1.159615,17.000001,12)">
      <stop
         stop-color="#F955FF"
         id="stop1637" />
      <stop
         offset="1"
         stop-color="#B40000"
         id="stop1639" />
    </linearGradient>
  </defs>
</svg>
