<?xml version="1.0" encoding="UTF-8" standalone="no"?>
<!-- Created with Inkscape (http://www.inkscape.org/) -->

<svg
   width="54mm"
   height="12mm"
   viewBox="0 0 54 12"
   version="1.1"
   id="svg5"
   inkscape:version="1.2.2 (b0a84865, 2022-12-01)"
   sodipodi:docname="logo_fw.svg"
   xmlns:inkscape="http://www.inkscape.org/namespaces/inkscape"
   xmlns:sodipodi="http://sodipodi.sourceforge.net/DTD/sodipodi-0.dtd"
   xmlns="http://www.w3.org/2000/svg"
   xmlns:svg="http://www.w3.org/2000/svg">
  <sodipodi:namedview
     id="namedview7"
     pagecolor="#ffffff"
     bordercolor="#666666"
     borderopacity="1.0"
     inkscape:pageshadow="2"
     inkscape:pageopacity="0.0"
     inkscape:pagecheckerboard="0"
     inkscape:document-units="mm"
     showgrid="false"
     width="209mm"
     inkscape:zoom="3.4296751"
     inkscape:cx="128.72939"
     inkscape:cy="-5.9772426"
     inkscape:window-width="1649"
     inkscape:window-height="747"
     inkscape:window-x="1070"
     inkscape:window-y="83"
     inkscape:window-maximized="0"
     inkscape:current-layer="layer1"
     inkscape:showpageshadow="2"
     inkscape:deskcolor="#d1d1d1" />
  <defs
     id="defs2" />
  <g
     inkscape:label="Calque 1"
     inkscape:groupmode="layer"
     id="layer1">
    <g
       id="rect31-5-7">
      <path
         style="color:#000000;fill:#000000;stroke-linejoin:round;stroke-miterlimit:0;-inkscape-stroke:none;paint-order:markers stroke fill"
         d="M 1.9990004,8.1930008 H 38.201336 V 9.5360594 H 1.9990004 Z"
         id="path727" />
      <path
         style="color:#000000;fill:#ff4a64;stroke-width:0;stroke-linejoin:round;stroke-miterlimit:0;-inkscape-stroke:none;paint-order:markers stroke fill"
         d="M 1.9990004,8.1930008 H 38.201336 V 9.5360594 H 1.9990004 Z"
         id="path729" />
    </g>
    <g
       aria-label="BestDatingSites"
       id="text3990"
       style="font-size:6.93545px;line-height:1.25;font-family:Montserrat;-inkscape-font-specification:Montserrat;fill:#ff4a64;stroke-width:0.144488">
      <path
         d="M 2.1362589,6.3465772 V 1.4917621 h 1.8240234 q 0.6241905,0 1.0680593,0.3814498 0.4438688,0.3814497 0.4438688,0.9085439 0,0.3259662 -0.1941926,0.6172551 -0.1872571,0.2843534 -0.478546,0.3814497 0.3883852,0.07629 0.6380614,0.4091916 0.2566116,0.3259661 0.2566116,0.769835 0,0.5825778 -0.4508042,0.9848339 Q 4.7994718,6.3465772 4.1683458,6.3465772 Z M 3.1627056,3.447559 h 0.7490286 q 0.2149989,0 0.3675788,-0.1456444 Q 4.4318929,3.1562701 4.4318929,2.9551421 4.4318929,2.754014 4.279313,2.615305 4.1336686,2.476596 3.9117342,2.476596 H 3.1627056 Z m 0,1.9141843 H 4.078185 q 0.2358053,0 0.4022561,-0.1595154 0.1664508,-0.1664508 0.1664508,-0.4022561 0,-0.2358053 -0.1664508,-0.4022561 Q 4.3209257,4.2312649 4.0920559,4.2312649 H 3.1627056 Z"
         style="font-weight:bold;font-family:Fellix;-inkscape-font-specification:'Fellix Bold'"
         id="path645" />
      <path
         d="m 9.4670215,4.494812 q 0,0.2080635 -0.027742,0.3814498 H 6.9910658 q 0.138709,0.7074159 0.8738667,0.7074159 0.2358053,0 0.4438688,-0.097096 0.2080635,-0.097096 0.2982244,-0.2496762 L 9.3699252,5.7015803 Q 9.182668,6.0414174 8.7804119,6.2286745 8.3781558,6.4159317 7.8441262,6.4159317 q -0.7490286,0 -1.2691874,-0.5132233 -0.5201587,-0.5201588 -0.5201587,-1.2761229 0,-0.7420931 0.5132233,-1.248381 0.5132233,-0.5062878 1.2553164,-0.5062878 0.693545,0 1.1651556,0.4716106 0.4785461,0.4716106 0.4785461,1.1512847 z M 7.0049367,4.2520712 H 8.489123 Q 8.4613812,3.9954596 8.2533177,3.8290088 8.0452542,3.662558 7.7747717,3.662558 q -0.6241905,0 -0.769835,0.5895132 z"
         style="font-weight:bold;font-family:Fellix;-inkscape-font-specification:'Fellix Bold'"
         id="path647" />
      <path
         d="m 11.228613,6.4159317 q -0.922414,0 -1.5257986,-0.4299979 L 9.9941033,5.3062597 q 0.4854817,0.3606434 1.1512847,0.3606434 0.22887,0 0.360643,-0.07629 0.138709,-0.07629 0.138709,-0.201128 0,-0.138709 -0.194192,-0.214999 -0.187257,-0.083225 -0.45774,-0.138709 Q 10.722326,4.9802935 10.451843,4.8901327 10.18136,4.7999718 9.9871679,4.5780374 9.7999107,4.3491675 9.7929753,4.002395 9.7860398,3.5169135 10.174425,3.1978828 10.56281,2.8719167 11.159259,2.8719167 q 0.811448,0 1.296929,0.3883852 L 12.17877,3.9677178 Q 11.977642,3.8151379 11.679418,3.7180416 11.388129,3.6140098 11.117646,3.6140098 q -0.187257,0 -0.30516,0.07629 -0.110967,0.07629 -0.110967,0.1941926 0,0.1317735 0.194193,0.2219344 0.194192,0.083225 0.464675,0.1525799 0.270483,0.069355 0.540965,0.1733862 0.277418,0.097096 0.471611,0.3259662 0.194192,0.2288699 0.201128,0.5687069 0,0.4716106 -0.38145,0.7837059 -0.374514,0.3051598 -0.964028,0.3051598 z"
         style="font-weight:bold;font-family:Fellix;-inkscape-font-specification:'Fellix Bold'"
         id="path649" />
      <path
         d="m 15.188746,5.4380332 0.04855,0.8669313 q -0.194192,0.097096 -0.499352,0.097096 -0.61032,0 -0.984834,-0.3675789 Q 13.378594,5.6669031 13.378594,5.0149708 V 3.8706215 H 12.747468 V 2.9412712 h 0.631126 V 2.0465981 h 0.977898 v 0.8946731 h 0.83919 v 0.9293503 h -0.83919 v 1.0958011 q 0,0.2358053 0.15258,0.3814498 0.15258,0.138709 0.374514,0.138709 0.173387,0 0.30516,-0.048548 z"
         style="font-weight:bold;font-family:Fellix;-inkscape-font-specification:'Fellix Bold'"
         id="path651" />
      <path
         d="m 17.463573,1.4917621 q 1.054188,0 1.754668,0.6866096 0.707416,0.6866095 0.707416,1.7199916 0,1.0541884 -0.707416,1.7546689 -0.70048,0.693545 -1.754668,0.693545 H 15.799065 V 1.4917621 Z m 0.06935,3.8699812 q 0.575642,0 0.950157,-0.416127 0.381449,-0.4161271 0.381449,-1.047253 0,-0.6172551 -0.374514,-1.0195112 Q 18.115505,2.476596 17.532927,2.476596 h -0.707416 v 2.8851473 z"
         style="font-weight:bold;font-family:Fellix;-inkscape-font-specification:'Fellix Bold'"
         id="path653" />
      <path
         d="m 22.984181,2.9412712 h 0.977898 v 3.405306 H 22.984181 V 5.8610957 q -0.367579,0.554836 -1.08193,0.554836 -0.658868,0 -1.123543,-0.5201588 -0.45774,-0.5201587 -0.45774,-1.2553165 0,-0.7351577 0.45774,-1.248381 0.464675,-0.5201587 1.123543,-0.5201587 0.714351,0 1.08193,0.554836 z m -0.85306,2.5383747 q 0.360643,0 0.603384,-0.2358053 0.249676,-0.2427407 0.249676,-0.6033842 0,-0.3537079 -0.249676,-0.5964487 -0.242741,-0.2427407 -0.603384,-0.2427407 -0.353708,0 -0.603384,0.2496762 -0.249677,0.2427407 -0.249677,0.5895132 0,0.353708 0.249677,0.5964488 0.249676,0.2427407 0.603384,0.2427407 z"
         style="font-weight:bold;font-family:Fellix;-inkscape-font-specification:'Fellix Bold'"
         id="path655" />
      <path
         d="m 26.805605,5.4380332 0.04855,0.8669313 q -0.194193,0.097096 -0.499353,0.097096 -0.610319,0 -0.984834,-0.3675789 Q 24.995453,5.6669031 24.995453,5.0149708 V 3.8706215 H 24.364327 V 2.9412712 h 0.631126 V 2.0465981 h 0.977898 v 0.8946731 h 0.83919 v 0.9293503 h -0.83919 v 1.0958011 q 0,0.2358053 0.15258,0.3814498 0.15258,0.138709 0.374515,0.138709 0.173386,0 0.305159,-0.048548 z"
         style="font-weight:bold;font-family:Fellix;-inkscape-font-specification:'Fellix Bold'"
         id="path657" />
      <path
         d="m 27.457537,1.4640203 q 0.180321,-0.1733862 0.423062,-0.1733862 0.242741,0 0.416127,0.1733862 0.180322,0.1733863 0.180322,0.416127 0,0.2427408 -0.180322,0.4230625 -0.173386,0.1733862 -0.416127,0.1733862 -0.242741,0 -0.423062,-0.1733862 -0.173387,-0.1803217 -0.173387,-0.4230625 0,-0.2427407 0.173387,-0.416127 z m -0.06242,1.4772509 h 0.977898 v 3.405306 h -0.977898 z"
         style="font-weight:bold;font-family:Fellix;-inkscape-font-specification:'Fellix Bold'"
         id="path659" />
      <path
         d="m 30.966869,2.8719167 q 0.651932,0 1.026447,0.416127 0.374514,0.4091915 0.374514,1.1304783 V 6.3465772 H 31.389932 V 4.5433601 q 0,-0.3329016 -0.187258,-0.5340296 -0.180321,-0.2011281 -0.485481,-0.2011281 -0.30516,0 -0.492417,0.2011281 -0.180322,0.201128 -0.180322,0.5340296 v 1.8032171 h -0.977898 v -3.405306 h 0.977898 V 3.38514 q 0.339837,-0.5132233 0.922415,-0.5132233 z"
         style="font-weight:bold;font-family:Fellix;-inkscape-font-specification:'Fellix Bold'"
         id="path661" />
      <path
         d="M 35.572001,2.9343357 H 36.5499 v 3.1695007 q 0,0.7490286 -0.540966,1.1928974 -0.534029,0.4508043 -1.331606,0.4508043 -0.436933,0 -0.880802,-0.1456445 -0.443869,-0.1456444 -0.68661,-0.3953206 l 0.478546,-0.6796741 q 0.450805,0.3467725 1.088866,0.3467725 0.332902,0 0.61032,-0.2219344 0.284353,-0.214999 0.284353,-0.5479006 V 5.7709348 q -0.367579,0.5409651 -1.08193,0.5409651 -0.658868,0 -1.123543,-0.5062878 -0.45774,-0.5062879 -0.45774,-1.2206393 0,-0.7074159 0.45774,-1.2137037 0.464675,-0.5062879 1.123543,-0.5062879 0.714351,0 1.08193,0.5409651 z m -0.85306,2.4690203 q 0.360643,0 0.603384,-0.2358053 0.249676,-0.2358053 0.249676,-0.5825779 0,-0.339837 -0.249676,-0.5756423 -0.242741,-0.2358053 -0.603384,-0.2358053 -0.353708,0 -0.603384,0.2358053 -0.249677,0.2358053 -0.249677,0.5756423 0,0.3398371 0.249677,0.5825779 0.249676,0.2358053 0.603384,0.2358053 z"
         style="font-weight:bold;font-family:Fellix;-inkscape-font-specification:'Fellix Bold'"
         id="path663" />
      <path
         d="m 38.977299,1.4224076 q 0.47161,0 0.964027,0.214999 0.499353,0.2080635 0.776771,0.5270942 L 40.121648,2.9759484 Q 39.851165,2.7124013 39.518264,2.5667569 39.192297,2.414177 38.894073,2.414177 q -0.263547,0 -0.423062,0.1109672 -0.159516,0.1109672 -0.159516,0.2843534 0,0.1872572 0.180322,0.3190307 0.187257,0.1317736 0.464675,0.2011281 0.277418,0.062419 0.596449,0.1733862 0.319031,0.1109672 0.596449,0.2566117 0.277418,0.138709 0.457739,0.4369333 0.187257,0.2912889 0.187257,0.707416 0,0.6103196 -0.485481,1.0611238 -0.485482,0.4508043 -1.303865,0.4508043 -0.561771,0 -1.130478,-0.2635471 Q 37.305855,5.8888375 36.99376,5.4935168 l 0.658868,-0.7490286 q 0.644996,0.6727387 1.352412,0.6727387 0.332902,0 0.53403,-0.138709 0.201128,-0.138709 0.201128,-0.3675789 0,-0.1872572 -0.187257,-0.3120953 Q 39.372619,4.4740056 39.102137,4.4115866 38.831654,4.3491675 38.505688,4.2451358 38.186657,4.141104 37.916175,4.0093305 37.645692,3.8706215 37.458435,3.586268 37.278113,3.2949791 37.278113,2.8857876 q 0,-0.6241905 0.478546,-1.0403175 0.478546,-0.4230625 1.22064,-0.4230625 z"
         style="font-weight:bold;font-family:Fellix;-inkscape-font-specification:'Fellix Bold'"
         id="path665" />
      <path
         d="m 41.411629,1.4640203 q 0.180321,-0.1733862 0.423062,-0.1733862 0.242741,0 0.416127,0.1733862 0.180322,0.1733863 0.180322,0.416127 0,0.2427408 -0.180322,0.4230625 -0.173386,0.1733862 -0.416127,0.1733862 -0.242741,0 -0.423062,-0.1733862 -0.173387,-0.1803217 -0.173387,-0.4230625 0,-0.2427407 0.173387,-0.416127 z m -0.06242,1.4772509 h 0.977898 v 3.405306 H 41.34921 Z"
         style="font-weight:bold;font-family:Fellix;-inkscape-font-specification:'Fellix Bold'"
         id="path667" />
      <path
         d="m 45.177575,5.4380332 0.04855,0.8669313 q -0.194193,0.097096 -0.499353,0.097096 -0.610319,0 -0.984833,-0.3675789 Q 43.367422,5.6669031 43.367422,5.0149708 V 3.8706215 H 42.736296 V 2.9412712 h 0.631126 V 2.0465981 h 0.977899 v 0.8946731 h 0.839189 v 0.9293503 h -0.839189 v 1.0958011 q 0,0.2358053 0.15258,0.3814498 0.15258,0.138709 0.374514,0.138709 0.173386,0 0.30516,-0.048548 z"
         style="font-weight:bold;font-family:Fellix;-inkscape-font-specification:'Fellix Bold'"
         id="path669" />
      <path
         d="m 48.888027,4.494812 q 0,0.2080635 -0.02774,0.3814498 h -2.448213 q 0.138709,0.7074159 0.873866,0.7074159 0.235806,0 0.443869,-0.097096 0.208064,-0.097096 0.298224,-0.2496762 l 0.7629,0.4646751 q -0.187257,0.3398371 -0.589513,0.5270942 -0.402256,0.1872572 -0.936286,0.1872572 -0.749029,0 -1.269187,-0.5132233 -0.520159,-0.5201588 -0.520159,-1.2761229 0,-0.7420931 0.513223,-1.248381 0.513223,-0.5062878 1.255317,-0.5062878 0.693545,0 1.165155,0.4716106 0.478546,0.4716106 0.478546,1.1512847 z M 46.425942,4.2520712 h 1.484187 Q 47.882387,3.9954596 47.674323,3.8290088 47.46626,3.662558 47.195777,3.662558 q -0.62419,0 -0.769835,0.5895132 z"
         style="font-weight:bold;font-family:Fellix;-inkscape-font-specification:'Fellix Bold'"
         id="path671" />
      <path
         d="m 50.64962,6.4159317 q -0.922415,0 -1.525799,-0.4299979 L 49.41511,5.3062597 q 0.485481,0.3606434 1.151285,0.3606434 0.22887,0 0.360643,-0.07629 0.138709,-0.07629 0.138709,-0.201128 0,-0.138709 -0.194192,-0.214999 -0.187258,-0.083225 -0.45774,-0.138709 Q 50.143332,4.9802935 49.87285,4.8901327 49.602367,4.7999718 49.408175,4.5780374 49.220917,4.3491675 49.213982,4.002395 q -0.0069,-0.4854815 0.38145,-0.8045122 0.388385,-0.3259661 0.984834,-0.3259661 0.811447,0 1.296929,0.3883852 L 51.599777,3.9677178 Q 51.398649,3.8151379 51.100424,3.7180416 50.809135,3.6140098 50.538653,3.6140098 q -0.187257,0 -0.30516,0.07629 -0.110967,0.07629 -0.110967,0.1941926 0,0.1317735 0.194192,0.2219344 0.194193,0.083225 0.464676,0.1525799 0.270482,0.069355 0.540965,0.1733862 0.277418,0.097096 0.47161,0.3259662 0.194193,0.2288699 0.201128,0.5687069 0,0.4716106 -0.381449,0.7837059 -0.374515,0.3051598 -0.964028,0.3051598 z"
         style="font-weight:bold;font-family:Fellix;-inkscape-font-specification:'Fellix Bold'"
         id="path673" />
    </g>
    <g
       aria-label="Australia "
       transform="scale(1.0435673,0.95825156)"
       id="text17992"
       style="font-size:2.97776px;line-height:1.25;font-family:Montserrat;-inkscape-font-specification:Montserrat;fill:#1a1a1a;stroke-width:0.0881997">
      <path
         d="M 38.918977,9.9975414 38.787955,9.6491435 H 37.98396 l -0.133999,0.3483979 h -0.467509 l 0.827818,-2.084432 h 0.357331 l 0.830795,2.084432 z M 38.12987,9.270968 h 0.512175 l -0.25311,-0.6670183 z"
         style="font-weight:bold;font-family:Fellix;-inkscape-font-specification:'Fellix Bold'"
         id="path626" />
      <path
         d="m 40.488249,8.5354612 h 0.419864 V 9.9975414 H 40.488249 V 9.803987 q -0.139955,0.223332 -0.396042,0.223332 -0.279909,0 -0.440708,-0.1786656 Q 39.4907,9.6699878 39.4907,9.3603008 V 8.5354612 h 0.419864 v 0.7712399 q 0,0.1459102 0.07742,0.2322653 0.0804,0.086355 0.211421,0.086355 0.131022,0 0.208444,-0.086355 0.0804,-0.086355 0.0804,-0.2322653 z"
         style="font-weight:bold;font-family:Fellix;-inkscape-font-specification:'Fellix Bold'"
         id="path628" />
      <path
         d="m 41.780594,10.027319 q -0.396042,0 -0.655108,-0.1846211 l 0.125066,-0.2918205 q 0.208444,0.1548435 0.494309,0.1548435 0.09827,0 0.154843,-0.032755 0.05956,-0.032755 0.05956,-0.086355 0,-0.059555 -0.08338,-0.09231 -0.0804,-0.035733 -0.196532,-0.059555 -0.116133,-0.023822 -0.232266,-0.062533 -0.116132,-0.038711 -0.199509,-0.1339992 -0.0804,-0.098266 -0.08338,-0.2471541 -0.003,-0.2084432 0.163777,-0.3454201 0.166755,-0.1399548 0.422842,-0.1399548 0.348398,0 0.556841,0.1667546 l -0.11911,0.3037315 Q 42.102192,8.910659 41.974148,8.8689704 41.849082,8.824304 41.732949,8.824304 q -0.0804,0 -0.131021,0.032755 -0.04764,0.032755 -0.04764,0.083377 0,0.056577 0.08338,0.095288 0.08338,0.035733 0.19951,0.065511 0.116133,0.029778 0.232265,0.074444 0.119111,0.041689 0.202488,0.1399548 0.08338,0.098266 0.08636,0.2441763 0,0.2024877 -0.163777,0.3364869 -0.160799,0.1310214 -0.413908,0.1310214 z"
         style="font-weight:bold;font-family:Fellix;-inkscape-font-specification:'Fellix Bold'"
         id="path630" />
      <path
         d="m 43.48089,9.6074549 0.02084,0.37222 q -0.08338,0.041689 -0.214399,0.041689 -0.262043,0 -0.422842,-0.1578218 Q 42.703695,9.7057209 42.703695,9.4258115 V 8.9344811 H 42.432719 V 8.5354612 h 0.270976 v -0.384131 h 0.419864 v 0.384131 h 0.360309 v 0.3990199 h -0.360309 v 0.4704861 q 0,0.1012438 0.06551,0.1637768 0.06551,0.059555 0.160799,0.059555 0.07444,0 0.131021,-0.020844 z"
         style="font-weight:bold;font-family:Fellix;-inkscape-font-specification:'Fellix Bold'"
         id="path632" />
      <path
         d="m 44.505239,8.5056836 q 0.122089,0 0.193555,0.032755 l -0.04764,0.4079531 q -0.08338,-0.035733 -0.187599,-0.035733 -0.119111,0 -0.214399,0.095288 -0.09529,0.092311 -0.09529,0.2709762 V 9.9975414 H 43.734 V 8.5354612 h 0.419864 v 0.1816434 q 0.04467,-0.092311 0.148888,-0.1518658 0.104221,-0.059555 0.202487,-0.059555 z"
         style="font-weight:bold;font-family:Fellix;-inkscape-font-specification:'Fellix Bold'"
         id="path634" />
      <path
         d="m 45.869048,8.5354612 h 0.419864 V 9.9975414 H 45.869048 V 9.7890982 q -0.157821,0.2382208 -0.464531,0.2382208 -0.282887,0 -0.482397,-0.223332 -0.196532,-0.223332 -0.196532,-0.5389746 0,-0.3156425 0.196532,-0.5359968 0.19951,-0.223332 0.482397,-0.223332 0.30671,0 0.464531,0.2382208 z m -0.366264,1.0898602 q 0.154843,0 0.259065,-0.1012438 0.107199,-0.1042216 0.107199,-0.2590652 0,-0.1518657 -0.107199,-0.2560873 -0.104222,-0.1042216 -0.259065,-0.1042216 -0.151866,0 -0.259066,0.1071993 -0.107199,0.1042216 -0.107199,0.2531096 0,0.1518658 0.107199,0.2560874 0.1072,0.1042216 0.259066,0.1042216 z"
         style="font-weight:bold;font-family:Fellix;-inkscape-font-specification:'Fellix Bold'"
         id="path636" />
      <path
         d="m 47.00357,7.9131094 v 2.084432 h -0.419864 v -2.084432 z"
         style="font-weight:bold;font-family:Fellix;-inkscape-font-specification:'Fellix Bold'"
         id="path638" />
      <path
         d="m 47.328144,7.9011983 q 0.07742,-0.074444 0.181643,-0.074444 0.104222,0 0.178666,0.074444 0.07742,0.074444 0.07742,0.1786656 0,0.1042216 -0.07742,0.1816434 -0.07444,0.074444 -0.178666,0.074444 -0.104221,0 -0.181643,-0.074444 -0.07444,-0.077422 -0.07444,-0.1816434 0,-0.1042216 0.07444,-0.1786656 z m -0.0268,0.6342629 h 0.419864 v 1.4620802 h -0.419864 z"
         style="font-weight:bold;font-family:Fellix;-inkscape-font-specification:'Fellix Bold'"
         id="path640" />
      <path
         d="m 49.099909,8.5354612 h 0.419864 V 9.9975414 H 49.099909 V 9.7890982 q -0.157821,0.2382208 -0.46453,0.2382208 -0.282888,0 -0.482397,-0.223332 -0.196533,-0.223332 -0.196533,-0.5389746 0,-0.3156425 0.196533,-0.5359968 0.199509,-0.223332 0.482397,-0.223332 0.306709,0 0.46453,0.2382208 z m -0.366264,1.0898602 q 0.154843,0 0.259065,-0.1012438 0.107199,-0.1042216 0.107199,-0.2590652 0,-0.1518657 -0.107199,-0.2560873 -0.104222,-0.1042216 -0.259065,-0.1042216 -0.151866,0 -0.259065,0.1071993 -0.1072,0.1042216 -0.1072,0.2531096 0,0.1518658 0.1072,0.2560874 0.107199,0.1042216 0.259065,0.1042216 z"
         style="font-weight:bold;font-family:Fellix;-inkscape-font-specification:'Fellix Bold'"
         id="path642" />
    </g>
  </g>
</svg>
