<?xml version="1.0" encoding="UTF-8" standalone="no"?>
<svg
   width="200"
   height="70"
   viewBox="0 0 200 70"
   version="1.1"
   id="svg9122"
   sodipodi:docname="maturedating.svg"
   inkscape:version="1.2.1 (9c6d41e, 2022-07-14)"
   xmlns:inkscape="http://www.inkscape.org/namespaces/inkscape"
   xmlns:sodipodi="http://sodipodi.sourceforge.net/DTD/sodipodi-0.dtd"
   xmlns="http://www.w3.org/2000/svg"
   xmlns:svg="http://www.w3.org/2000/svg">
  <defs
     id="defs9126" />
  <sodipodi:namedview
     id="namedview9124"
     pagecolor="#ffffff"
     bordercolor="#000000"
     borderopacity="0.25"
     inkscape:showpageshadow="2"
     inkscape:pageopacity="0.0"
     inkscape:pagecheckerboard="0"
     inkscape:deskcolor="#d1d1d1"
     showgrid="false"
     inkscape:zoom="1"
     inkscape:cx="-116"
     inkscape:cy="20.5"
     inkscape:window-width="1463"
     inkscape:window-height="1205"
     inkscape:window-x="0"
     inkscape:window-y="25"
     inkscape:window-maximized="0"
     inkscape:current-layer="svg9122" />
  <g
     fill="none"
     fill-rule="evenodd"
     id="g9120"
     transform="matrix(1.2004604,0,0,1.2004604,4.948185,10.947182)">
    <g
       id="g9118">
      <g
         id="g9116">
        <g
           id="g9114">
          <g
             id="g9112">
            <path
               fill="#ff4078"
               fill-rule="nonzero"
               d="m 29.32,7.892 c -1.754,-1.785 -4.169,-2.64 -6.86,-2.64 -2.05,0 -4.262,0.498 -6.463,1.46 l 0.02,0.007 a 23.549,23.549 0 0 1 5.559,3.406 c 0.299,-0.03 0.595,-0.047 0.885,-0.047 1.049,0 2.508,0.213 3.504,1.227 1.48,1.506 1.282,4.01 1.032,5.37 -0.546,2.969 -2.328,6.165 -4.887,8.77 -1.86,1.89 -4.023,3.354 -6.164,4.23 1.94,0.914 3.606,1.191 4.901,1.197 1.869,-0.006 2.354,-0.164 3.07,-0.565 a 25.657,25.657 0 0 0 1.548,-1.45 C 32.22,21.985 33.947,12.598 29.32,7.892 Z"
               id="path9080" />
            <path
               fill="#ff4078"
               fill-rule="nonzero"
               d="m 10.624,10.13 -0.046,-0.002 a 1.41,1.41 0 0 0 -0.037,-0.002 25.448,25.448 0 0 0 -1.83,1.688 24.955,24.955 0 0 0 -3.513,4.495 c -0.04,0.07 -0.076,0.14 -0.114,0.21 -2.047,3.777 -1.92,7.001 -1.879,7.555 0.2,0.343 0.405,0.675 0.614,0.998 a 28.62,28.62 0 0 0 3.373,4.016 l 0.088,0.085 c -0.804,-2.428 -0.386,-4.891 0.27,-6.8 a 16.388,16.388 0 0 1 1.161,-2.606 19.899,19.899 0 0 1 3.355,-4.54 19.73,19.73 0 0 1 4.216,-3.274 C 14.257,10.725 12.287,10.209 10.624,10.13 Z"
               id="path9082" />
            <path
               fill="#49a4e9"
               fill-rule="nonzero"
               d="M 7.47,29.22 C 7.468,29.22 7.466,29.218 7.466,29.217 7.376,29.173 7.284,29.132 7.192,29.088 7.366,29.172 7.47,29.22 7.47,29.22 Z"
               id="path9084" />
            <g
               fill="#2980e8"
               fill-rule="nonzero"
               id="g9090">
              <path
                 d="m 22.556,11.003 v -0.03 c -0.31,-0.282 -0.636,-0.566 -0.98,-0.848 A 23.549,23.549 0 0 0 15.997,6.711 C 14.077,5.88 12.381,5.461 10.883,5.327 A 14.178,14.178 0 0 0 10.631,5.307 C 6.266,4.994 3.645,7.141 2.261,8.616 c -1.877,2 -3.962,8.507 1.528,16.415 l 0.03,0.041 A 25.636,25.636 0 0 1 3.205,24.074 c -0.041,-0.554 -0.17,-3.778 1.878,-7.555 -0.334,-2.454 0.35,-4.35 1.33,-5.3 0.569,-0.55 1.732,-1.003 3.245,-1.086 v 0.002 c 0.184,-0.01 0.373,-0.016 0.569,-0.016 h 0.008 c 0.069,0 0.137,0.003 0.206,0.004 l 0.1,0.003 0.036,0.002 0.046,0.002 c 1.664,0.079 3.634,0.595 5.658,1.824 2.812,1.705 5.728,4.787 8.072,10 l 0.21,0.467 c 0,0 1.952,-2.754 2.466,-5.936 0,0 -1.431,-2.697 -4.473,-5.482 z"
                 id="path9086" />
              <path
                 d="m 20.847,30.872 c -1.295,-0.006 -2.96,-0.283 -4.901,-1.198 -1.482,-0.698 -3.124,-1.767 -4.887,-3.371 -1.471,-1.34 -2.624,-2.66 -3.51,-3.93 -0.654,1.909 -1.073,4.37 -0.27,6.798 0.953,1.09 3.394,3.144 6.323,4.579 1.324,0.648 2.263,0.908 2.464,0.963 l 0.041,0.011 c 0,0 4.199,-1.315 7.796,-4.404 0,0 -1.187,0.545 -3.056,0.552 z"
                 id="path9088" />
            </g>
            <path
               fill="#ff8bad"
               fill-rule="nonzero"
               d="m 29.337,7.892 c -1.754,-1.785 -4.168,-2.64 -6.86,-2.64 -2.05,0 -4.261,0.498 -6.463,1.459 l 0.02,0.008 c 0.844,0.367 1.635,0.771 2.375,1.199 3.842,-1.565 7.729,-1.454 10.586,0.699 1.036,0.781 1.85,1.808 2.462,2.955 -0.42,-1.386 -1.117,-2.66 -2.12,-3.68 z m -18.76,2.236 a 1.41,1.41 0 0 0 -0.036,-0.002 25.448,25.448 0 0 0 -1.83,1.688 24.955,24.955 0 0 0 -3.513,4.495 c -0.04,0.07 -0.076,0.14 -0.115,0.21 -2.047,3.777 -1.937,7.049 -1.896,7.603 0.461,0.773 1.5,2.184 2.016,2.779 L 5.208,26.894 C 4.168,20.536 8.69,13.365 13.643,10.716 A 11.117,11.117 0 0 0 10.624,10.13 l -0.046,-0.002 z"
               id="path9092" />
            <path
               fill="#d92965"
               fill-rule="nonzero"
               d="m 8.71,11.814 c 0.356,0.008 3.124,0.013 5.437,1.551 l 0.316,-0.219 a 18.92,18.92 0 0 1 1.819,-1.193 13.937,13.937 0 0 0 -0.751,-0.425 l -0.014,-0.007 c -1.753,-0.92 -3.44,-1.323 -4.893,-1.391 l -0.046,-0.003 h -0.037 c 0,0 -0.623,0.55 -1.28,1.154 -0.184,0.177 -0.37,0.35 -0.55,0.533 z"
               opacity="0.62"
               id="path9094" />
            <path
               fill="#7fb3f1"
               fill-rule="nonzero"
               d="m 27.045,16.394 a 24.98,24.98 0 0 0 -4.5,-5.413 V 10.974 A 24.77,24.77 0 0 0 21.564,10.125 23.562,23.562 0 0 0 15.985,6.712 C 14.065,5.88 12.369,5.46 10.872,5.327 A 10.375,10.375 0 0 0 10.62,5.307 C 6.254,4.994 3.555,7.093 2.248,8.616 c -0.592,0.69 -1.265,1.821 -1.65,3.36 0.628,-1.333 1.524,-2.48 2.69,-3.358 3.956,-2.981 10.227,-1.372 15.478,2.343 2.622,1.942 5.575,4.889 7.163,9.008 0.05,-0.11 0.093,-0.22 0.14,-0.329 a 0.098,0.098 0 0 0 0.004,0.01 c 0.468,-0.955 0.665,-1.559 0.874,-2.75 0.016,-0.074 0.036,-0.15 0.05,-0.224 z"
               id="path9096" />
            <path
               fill="#7fb3f1"
               d="m 95.461,15.737 c -3.094,0 -5.261,2.179 -5.261,5.407 0,3.19 2.108,5.369 5.319,5.369 1.613,0 2.982,-0.53 3.986,-1.453 0.34,-0.39 0.034,-0.724 0.034,-0.724 l -0.668,-0.713 c 0,0 -0.318,-0.36 -0.736,-0.028 a 3.798,3.798 0 0 1 -2.404,0.837 c -1.509,0 -2.63,-0.911 -2.958,-2.417 h 7.133 c 0,0 0.542,-0.03 0.53,-0.579 0.06,-3.506 -1.526,-5.7 -4.975,-5.7 z m -2.746,4.556 c 0.232,-1.565 1.276,-2.555 2.765,-2.555 1.566,0 2.592,0.99 2.65,2.555 z M 37.119,13.15 v 12.677 c 0,0.303 0.24,0.547 0.538,0.547 h 1.324 a 0.542,0.542 0 0 0 0.536,-0.547 v -9.289 l 3.857,8.111 c 0.09,0.189 0.278,0.309 0.484,0.309 h 1.009 c 0.205,0 0.393,-0.12 0.482,-0.309 l 3.858,-8.11 0.019,9.29 c 0,0.302 0.24,0.545 0.537,0.545 h 1.285 a 0.542,0.542 0 0 0 0.537,-0.547 V 13.15 A 0.542,0.542 0 0 0 51.048,12.603 H 48.942 A 0.537,0.537 0 0 0 48.46,12.91 l -4.089,8.526 -4.106,-8.527 a 0.537,0.537 0 0 0 -0.483,-0.306 h -2.125 a 0.542,0.542 0 0 0 -0.538,0.547 z m 25.576,6.338 c -0.02,-2.34 -1.547,-3.737 -4.254,-3.737 -1.7,0 -2.809,0.364 -4.094,1.049 -0.436,0.254 -0.227,0.686 -0.227,0.686 l 0.458,0.895 c 0,0 0.236,0.473 0.736,0.227 0.89,-0.484 1.745,-0.772 2.567,-0.772 1.546,0 2.34,0.728 2.34,1.949 v 0.275 h -3.018 c -2.514,0.019 -3.926,1.219 -3.926,3.166 0,1.87 1.393,3.266 3.617,3.266 1.469,0 2.63,-0.472 3.345,-1.397 v 0.732 c 0,0.302 0.241,0.547 0.538,0.547 h 1.4 a 0.542,0.542 0 0 0 0.536,-0.548 z m -2.474,3.227 c -0.136,1.023 -1.276,1.81 -2.727,1.81 -1.14,0 -1.837,-0.571 -1.837,-1.456 0,-0.924 0.619,-1.299 1.954,-1.299 h 2.61 z m 9.41,1.31 c -0.352,0.122 -0.663,0.205 -0.952,0.205 -0.676,0 -1.083,-0.334 -1.083,-1.337 V 17.73 h 2.422 a 0.542,0.542 0 0 0 0.537,-0.547 v -0.776 a 0.542,0.542 0 0 0 -0.537,-0.546 h -2.422 v -1.926 a 0.542,0.542 0 0 0 -0.537,-0.546 h -0.574 c -0.64,0 -1.384,0.527 -1.384,1.4 v 1.072 h -0.927 a 0.543,0.543 0 0 0 -0.537,0.546 v 0.006 l 0.008,0.776 c 0.005,0.3 0.243,0.541 0.537,0.541 h 0.92 v 5.613 c 0,2.164 1.353,3.148 3.036,3.148 0.764,0 1.512,-0.199 2.206,-0.55 0.377,-0.19 0.255,-0.652 0.255,-0.652 L 70.32,24.364 c 0,0 -0.198,-0.51 -0.69,-0.34 z m 9.777,-7.63 v 4.648 c 0,1.691 -0.968,2.99 -2.592,3.01 -1.392,0 -2.224,-0.885 -2.224,-2.36 V 16.396 A 0.54,0.54 0 0 0 74.055,15.85 h -1.46 a 0.541,0.541 0 0 0 -0.535,0.546 v 6.044 c 0,2.478 1.43,4.033 3.75,4.033 1.644,0 2.883,-0.65 3.598,-2.045 v 1.4 c 0,0.302 0.24,0.546 0.537,0.546 h 1.459 A 0.542,0.542 0 0 0 81.94,25.828 V 16.396 A 0.541,0.541 0 0 0 81.404,15.85 h -1.459 a 0.54,0.54 0 0 0 -0.537,0.546 z"
               id="path9098" />
            <path
               fill="#7fb3f1"
               fill-rule="nonzero"
               d="M 89.478,15.854 A 8.834,8.834 0 0 0 89.216,15.85 c -1.04,0 -1.973,0.245 -2.755,0.692 V 16.395 A 0.542,0.542 0 0 0 85.923,15.85 h -1.44 a 0.541,0.541 0 0 0 -0.537,0.545 v 9.432 c 0,0.302 0.24,0.547 0.538,0.547 h 1.44 a 0.542,0.542 0 0 0 0.537,-0.547 v -5.703 h 0.016 c 0.245,-1.314 1.487,-2.046 2.984,-2.028 0.523,-0.02 0.527,-0.533 0.527,-0.533 v -1.175 c 0,0 0.005,-0.482 -0.51,-0.534 z"
               id="path9100" />
            <path
               fill="#7fb3f1"
               d="m 123.533,19.488 c -0.02,-2.34 -1.548,-3.737 -4.255,-3.737 -1.699,0 -2.808,0.364 -4.094,1.049 -0.435,0.254 -0.227,0.686 -0.227,0.686 l 0.458,0.895 c 0,0 0.236,0.473 0.736,0.227 0.89,-0.484 1.746,-0.772 2.567,-0.772 1.546,0 2.34,0.728 2.34,1.949 v 0.275 h -3.018 c -2.514,0.019 -3.926,1.219 -3.926,3.166 0,1.87 1.393,3.266 3.617,3.266 1.47,0 2.63,-0.472 3.345,-1.397 v 0.732 c 0,0.302 0.242,0.547 0.538,0.547 h 1.401 a 0.542,0.542 0 0 0 0.536,-0.548 z m -2.474,3.227 c -0.137,1.023 -1.277,1.81 -2.728,1.81 -1.14,0 -1.837,-0.571 -1.837,-1.456 0,-0.924 0.62,-1.299 1.954,-1.299 h 2.61 v 0.945 z m 19.453,3.103 v -4.647 c 0,-1.692 0.968,-2.99 2.592,-3.01 1.392,0 2.225,0.884 2.225,2.36 v 5.297 c 0,0.301 0.24,0.546 0.537,0.546 h 1.46 a 0.541,0.541 0 0 0 0.535,-0.546 v -6.044 c 0,-2.478 -1.43,-4.033 -3.75,-4.033 -1.645,0 -2.883,0.65 -3.599,2.046 v -1.4 a 0.542,0.542 0 0 0 -0.536,-0.547 h -1.459 a 0.542,0.542 0 0 0 -0.537,0.547 v 9.431 c 0,0.301 0.24,0.546 0.537,0.546 h 1.459 a 0.541,0.541 0 0 0 0.536,-0.546 z"
               id="path9102" />
            <path
               fill="#7fb3f1"
               fill-rule="nonzero"
               d="m 112.422,13.03 v 12.78 c 0,0 0.008,0.565 -0.562,0.565 h -1.379 c -0.53,0 -0.557,-0.564 -0.557,-0.564 v -1.118 c -0.73,1.153 -1.921,1.799 -3.458,1.799 -2.94,0 -4.9,-2.19 -4.9,-5.375 0,-3.167 1.96,-5.298 4.842,-5.298 1.575,0 2.767,0.645 3.516,1.818 V 13.92 c 0,-0.843 0.692,-1.411 1.387,-1.411 h 0.55 c 0.41,0 0.56,0.4 0.56,0.52 z m -2.498,8.145 c 0,-1.876 -1.191,-3.186 -2.92,-3.186 -1.711,0 -2.902,1.33 -2.921,3.186 0.019,1.876 1.19,3.186 2.92,3.186 1.73,0 2.92,-1.31 2.92,-3.186 z"
               id="path9104" />
            <path
               fill="#7fb3f1"
               d="m 135.66,16.396 a 0.542,0.542 0 0 0 -0.537,-0.546 h -1.44 a 0.541,0.541 0 0 0 -0.537,0.546 v 9.431 c 0,0.303 0.24,0.547 0.537,0.547 h 1.44 a 0.542,0.542 0 0 0 0.537,-0.547 z"
               id="path9106" />
            <path
               fill="#7fb3f1"
               fill-rule="nonzero"
               d="m 135.748,13.39 c 0,0.821 -0.557,1.408 -1.345,1.408 -0.789,0 -1.345,-0.587 -1.345,-1.408 0,-0.82 0.556,-1.407 1.345,-1.407 0.788,0 1.345,0.586 1.345,1.407 z m 24.143,3.048 v 8.892 c 0,2.99 -2.134,4.887 -5.38,4.887 a 7.519,7.519 0 0 1 -3.916,-1.11 c -0.411,-0.352 -0.18,-0.736 -0.18,-0.736 l 0.147,-0.271 c 0,0 0.588,-1.078 1.782,-0.578 0.64,0.283 1.33,0.434 2.095,0.434 1.845,0 2.954,-0.907 2.954,-2.568 v -1.231 c -0.691,1.056 -1.806,1.642 -3.266,1.642 -2.728,0 -4.573,-2.033 -4.573,-5.043 0,-2.952 1.825,-4.965 4.496,-4.965 1.48,-0.02 2.632,0.586 3.343,1.642 v -0.995 c 0,-0.415 0.364,-0.568 0.555,-0.568 h 1.384 c 0.33,0 0.559,0.27 0.559,0.568 z m -2.499,4.377 c 0,-1.76 -1.114,-2.99 -2.728,-2.99 -1.614,0 -2.728,1.25 -2.748,2.99 0.02,1.759 1.116,2.99 2.748,2.99 1.614,0 2.728,-1.231 2.728,-2.99 z"
               id="path9108" />
            <path
               fill="#7fb3f1"
               d="m 130.467,24.026 c -0.35,0.121 -0.662,0.204 -0.95,0.204 -0.677,0 -1.083,-0.334 -1.083,-1.337 V 17.73 h 2.421 a 0.542,0.542 0 0 0 0.538,-0.547 v -0.776 a 0.542,0.542 0 0 0 -0.538,-0.546 h -2.421 v -1.926 a 0.542,0.542 0 0 0 -0.537,-0.546 h -0.574 c -0.64,0 -1.384,0.527 -1.384,1.4 v 1.072 h -0.928 a 0.543,0.543 0 0 0 -0.537,0.546 v 0.006 l 0.009,0.776 c 0.004,0.3 0.242,0.541 0.536,0.541 h 0.92 v 5.613 c 0,2.164 1.353,3.148 3.036,3.148 0.764,0 1.513,-0.199 2.206,-0.55 0.378,-0.19 0.255,-0.652 0.255,-0.652 l -0.279,-0.925 c 0,0 -0.197,-0.51 -0.69,-0.34 z"
               id="path9110" />
          </g>
        </g>
      </g>
    </g>
  </g>
</svg>
