<?xml version="1.0" encoding="UTF-8" standalone="no"?>
<svg
   version="1.1"
   id="Capa_1"
   x="0px"
   y="0px"
   viewBox="0 0 448.264 448.264"
   style="enable-background:new 0 0 448.264 448.264;"
   xml:space="preserve"
   sodipodi:docname="megaphone.svg"
   inkscape:version="1.1 (c4e8f9e, 2021-05-24)"
   xmlns:inkscape="http://www.inkscape.org/namespaces/inkscape"
   xmlns:sodipodi="http://sodipodi.sourceforge.net/DTD/sodipodi-0.dtd"
   xmlns="http://www.w3.org/2000/svg"
   xmlns:svg="http://www.w3.org/2000/svg"
   xmlns:rdf="http://www.w3.org/1999/02/22-rdf-syntax-ns#"
   xmlns:cc="http://creativecommons.org/ns#"
   xmlns:dc="http://purl.org/dc/elements/1.1/"><metadata
   id="metadata63"><rdf:RDF><cc:Work
       rdf:about=""><dc:format>image/svg+xml</dc:format><dc:type
         rdf:resource="http://purl.org/dc/dcmitype/StillImage" /></cc:Work></rdf:RDF></metadata><defs
   id="defs61" /><sodipodi:namedview
   pagecolor="#ffffff"
   bordercolor="#666666"
   borderopacity="1"
   objecttolerance="10"
   gridtolerance="10"
   guidetolerance="10"
   inkscape:pageopacity="0"
   inkscape:pageshadow="2"
   inkscape:window-width="2048"
   inkscape:window-height="1031"
   id="namedview59"
   showgrid="false"
   inkscape:zoom="0.39517365"
   inkscape:cx="-656.67334"
   inkscape:cy="82.242326"
   inkscape:window-x="0"
   inkscape:window-y="25"
   inkscape:window-maximized="1"
   inkscape:current-layer="Capa_1"
   inkscape:pagecheckerboard="0" />
<g
   id="g26"
   style="fill:#ff4a64;fill-opacity:1">
	<g
   id="g24"
   style="fill:#ff4a64;fill-opacity:1">
		<g
   id="g22"
   style="fill:#ff4a64;fill-opacity:1">
			<path
   d="m 0.003,194.874 c -0.195,16.946 10.251,32.197 26.122,38.139 v -72.62 c 0,-1.045 0.522,-2.612 0.522,-3.657 -15.978,5.894 -26.605,21.106 -26.644,38.138 z"
   id="path10"
   style="fill:#ff4a64;fill-opacity:1" />
			<path
   d="M 142.631,284.735 H 74.19 l 25.6,92.996 c 3.791,14.192 16.657,24.056 31.347,24.033 10.452,0.124 20.341,-4.724 26.645,-13.061 6.365,-7.932 8.328,-18.527 5.224,-28.212 z"
   id="path12"
   style="fill:#ff4a64;fill-opacity:1" />
			<path
   d="m 26.648,156.212 h 0.522 v -0.522 c 0,0.522 0,0.522 -0.522,0.522 z"
   id="path14"
   style="fill:#ff4a64;fill-opacity:1" />
			<path
   d="m 401.244,148.898 h -4.18 v 94.041 h 4.18 c 25.969,0 47.02,-21.052 47.02,-47.02 0,-25.969 -21.052,-47.021 -47.02,-47.021 z"
   id="path16"
   style="fill:#ff4a64;fill-opacity:1" />
			<path
   d="m 41.799,160.392 v 74.188 c 0.565,19.212 16.307,34.49 35.526,34.482 h 95.086 V 128 H 77.325 c -18.808,0 -35.526,13.584 -35.526,32.392 z"
   id="path18"
   style="fill:#ff4a64;fill-opacity:1" />
			<path
   id="polygon20"
   d="M 188.084,271.151 381.39,348.474 V 46.498 l -193.306,77.323 z"
   style="fill:#ff4a64;fill-opacity:1" />
		</g>
	</g>
</g>
<g
   id="g28"
   style="fill:#ff4a64;fill-opacity:1">
</g>
<g
   id="g30"
   style="fill:#ff4a64;fill-opacity:1">
</g>
<g
   id="g32"
   style="fill:#ff4a64;fill-opacity:1">
</g>
<g
   id="g34"
   style="fill:#ff4a64;fill-opacity:1">
</g>
<g
   id="g36"
   style="fill:#ff4a64;fill-opacity:1">
</g>
<g
   id="g38"
   style="fill:#ff4a64;fill-opacity:1">
</g>
<g
   id="g40"
   style="fill:#ff4a64;fill-opacity:1">
</g>
<g
   id="g42"
   style="fill:#ff4a64;fill-opacity:1">
</g>
<g
   id="g44"
   style="fill:#ff4a64;fill-opacity:1">
</g>
<g
   id="g46"
   style="fill:#ff4a64;fill-opacity:1">
</g>
<g
   id="g48"
   style="fill:#ff4a64;fill-opacity:1">
</g>
<g
   id="g50"
   style="fill:#ff4a64;fill-opacity:1">
</g>
<g
   id="g52"
   style="fill:#ff4a64;fill-opacity:1">
</g>
<g
   id="g54"
   style="fill:#ff4a64;fill-opacity:1">
</g>
<g
   id="g56"
   style="fill:#ff4a64;fill-opacity:1">
</g>
</svg>
