<?xml version="1.0" encoding="UTF-8" standalone="no"?>
<svg
   id="Layer_1"
   enable-background="new 0 0 512.01 512.01"
   viewBox="0 0 122 114.01001"
   version="1.1"
   sodipodi:docname="pentagon.svg"
   width="122"
   height="114.01001"
   inkscape:version="1.1 (c4e8f9e, 2021-05-24)"
   xmlns:inkscape="http://www.inkscape.org/namespaces/inkscape"
   xmlns:sodipodi="http://sodipodi.sourceforge.net/DTD/sodipodi-0.dtd"
   xmlns="http://www.w3.org/2000/svg"
   xmlns:svg="http://www.w3.org/2000/svg">
  <defs
     id="defs20000" />
  <sodipodi:namedview
     id="namedview19998"
     pagecolor="#ffffff"
     bordercolor="#666666"
     borderopacity="1.0"
     inkscape:pageshadow="2"
     inkscape:pageopacity="0.0"
     inkscape:pagecheckerboard="0"
     showgrid="false"
     inkscape:zoom="0.54115914"
     inkscape:cx="-43.425304"
     inkscape:cy="255.93211"
     inkscape:window-width="2048"
     inkscape:window-height="1021"
     inkscape:window-x="0"
     inkscape:window-y="25"
     inkscape:window-maximized="1"
     inkscape:current-layer="Layer_1" />
  <g
     id="g19965"
     transform="matrix(-0.22069895,0,0,-0.22069882,117.00001,109.31824)"
     style="fill:#ff4a64;fill-opacity:1">
    <g
       id="g19963"
       style="fill:#ff4a64;fill-opacity:1">
      <path
         d="M 507.804,200.28 262.471,12.866 c -3.84,-2.923 -9.131,-2.923 -12.949,0 L 4.188,200.28 c -3.605,2.773 -5.077,7.531 -3.648,11.84 l 93.717,281.92 c 1.451,4.373 5.525,7.296 10.133,7.296 h 303.253 c 4.587,0 8.683,-2.944 10.133,-7.296 l 93.717,-281.92 c 1.389,-4.331 -0.083,-9.067 -3.689,-11.84 z"
         id="path19961"
         style="fill:#ff4a64;fill-opacity:1" />
    </g>
  </g>
  <g
     id="g19967"
     transform="matrix(-0.22069895,0,0,-0.22069882,4.0000052,-3.6817044)"
     style="fill:#ff4a64;fill-opacity:1" />
  <g
     id="g19969"
     transform="matrix(-0.22069895,0,0,-0.22069882,4.0000052,-3.6817044)"
     style="fill:#ff4a64;fill-opacity:1" />
  <g
     id="g19971"
     transform="matrix(-0.22069895,0,0,-0.22069882,4.0000052,-3.6817044)"
     style="fill:#ff4a64;fill-opacity:1" />
  <g
     id="g19973"
     transform="matrix(-0.22069895,0,0,-0.22069882,4.0000052,-3.6817044)"
     style="fill:#ff4a64;fill-opacity:1" />
  <g
     id="g19975"
     transform="matrix(-0.22069895,0,0,-0.22069882,4.0000052,-3.6817044)"
     style="fill:#ff4a64;fill-opacity:1" />
  <g
     id="g19977"
     transform="matrix(-0.22069895,0,0,-0.22069882,4.0000052,-3.6817044)"
     style="fill:#ff4a64;fill-opacity:1" />
  <g
     id="g19979"
     transform="matrix(-0.22069895,0,0,-0.22069882,4.0000052,-3.6817044)"
     style="fill:#ff4a64;fill-opacity:1" />
  <g
     id="g19981"
     transform="matrix(-0.22069895,0,0,-0.22069882,4.0000052,-3.6817044)"
     style="fill:#ff4a64;fill-opacity:1" />
  <g
     id="g19983"
     transform="matrix(-0.22069895,0,0,-0.22069882,4.0000052,-3.6817044)"
     style="fill:#ff4a64;fill-opacity:1" />
  <g
     id="g19985"
     transform="matrix(-0.22069895,0,0,-0.22069882,4.0000052,-3.6817044)"
     style="fill:#ff4a64;fill-opacity:1" />
  <g
     id="g19987"
     transform="matrix(-0.22069895,0,0,-0.22069882,4.0000052,-3.6817044)"
     style="fill:#ff4a64;fill-opacity:1" />
  <g
     id="g19989"
     transform="matrix(-0.22069895,0,0,-0.22069882,4.0000052,-3.6817044)"
     style="fill:#ff4a64;fill-opacity:1" />
  <g
     id="g19991"
     transform="matrix(-0.22069895,0,0,-0.22069882,4.0000052,-3.6817044)"
     style="fill:#ff4a64;fill-opacity:1" />
  <g
     id="g19993"
     transform="matrix(-0.22069895,0,0,-0.22069882,4.0000052,-3.6817044)"
     style="fill:#ff4a64;fill-opacity:1" />
  <g
     id="g19995"
     transform="matrix(-0.22069895,0,0,-0.22069882,4.0000052,-3.6817044)"
     style="fill:#ff4a64;fill-opacity:1" />
</svg>
