<?xml version="1.0" encoding="UTF-8" standalone="no"?>
<svg
   width="400"
   height="140"
   viewBox="0 0 400 140"
   version="1.1"
   id="svg578"
   sodipodi:docname="logoSeniorstodate (2).svg"
   inkscape:version="1.2.2 (b0a84865, 2022-12-01)"
   xmlns:inkscape="http://www.inkscape.org/namespaces/inkscape"
   xmlns:sodipodi="http://sodipodi.sourceforge.net/DTD/sodipodi-0.dtd"
   xmlns="http://www.w3.org/2000/svg"
   xmlns:svg="http://www.w3.org/2000/svg">
  <defs
     id="defs582" />
  <sodipodi:namedview
     id="namedview580"
     pagecolor="#ffffff"
     bordercolor="#000000"
     borderopacity="0.25"
     inkscape:showpageshadow="2"
     inkscape:pageopacity="0.0"
     inkscape:pagecheckerboard="0"
     inkscape:deskcolor="#d1d1d1"
     showgrid="false"
     inkscape:zoom="2"
     inkscape:cx="195.5"
     inkscape:cy="33.25"
     inkscape:window-width="1666"
     inkscape:window-height="1203"
     inkscape:window-x="882"
     inkscape:window-y="25"
     inkscape:window-maximized="0"
     inkscape:current-layer="svg578" />
  <path
     fill="#8f82bc"
     d="m 38.059665,66.601592 0.229491,9.107823 H 37.44305 c -0.398714,-2.285649 -1.379271,-4.119267 -2.941672,-5.50781 -1.560083,-1.390861 -3.247661,-2.086292 -5.062735,-2.086292 -1.402452,0 -2.512822,0.36626 -3.33343,1.098781 -0.81829,0.73252 -1.226276,1.576308 -1.226276,2.526731 0,0.607342 0.143722,1.145142 0.433485,1.611081 0.398714,0.628205 1.038509,1.254093 1.919388,1.875344 0.644433,0.442758 2.13729,1.226276 4.476255,2.355191 3.27316,1.571673 5.477675,3.055259 6.620499,4.455392 a 7.4179262,7.4179262 0 0 1 1.692215,4.789199 c 0,2.281012 -0.911015,4.246763 -2.733043,5.894934 -1.822027,1.643534 -4.137812,2.461823 -6.940397,2.461823 -0.880879,0 -1.713077,-0.08577 -2.496596,-0.257309 a 18.739536,18.739536 0 0 1 -2.948625,-0.992148 c -0.660659,-0.266581 -1.205414,-0.398713 -1.629626,-0.398713 -0.356988,0 -0.73252,0.132132 -1.133552,0.398713 a 2.8304025,2.8304025 0 0 0 -0.968967,1.230913 H 20.405 V 84.852009 h 0.764973 c 0.605025,2.902264 1.768712,5.116052 3.495699,6.636726 1.724667,1.525312 3.586103,2.285649 5.579671,2.285649 1.541538,0 2.765495,-0.407986 3.681145,-1.226276 0.91565,-0.820608 1.372317,-1.775666 1.372317,-2.860538 0,-0.64675 -0.173858,-1.268001 -0.528527,-1.870708 -0.347716,-0.607344 -0.880879,-1.182232 -1.597173,-1.724668 -0.713975,-0.542436 -1.979658,-1.254093 -3.792414,-2.123382 -2.547595,-1.221639 -4.374259,-2.264786 -5.489266,-3.124801 -1.112689,-0.860016 -1.968068,-1.81971 -2.566138,-2.879082 a 7.0168945,7.0168945 0 0 1 -0.894788,-3.50497 c 0,-2.17438 0.815972,-4.03118 2.452552,-5.561127 1.63658,-1.529948 3.697373,-2.294921 6.184696,-2.294921 0.911014,0 1.789574,0.106633 2.642636,0.322216 a 12.981371,12.981371 0 0 1 2.359828,0.894787 c 0.927241,0.435803 1.578627,0.653705 1.949524,0.653705 a 1.1242794,1.1242794 0 0 0 0.846106,-0.319898 c 0.206312,-0.217901 0.398714,-0.73252 0.577209,-1.553129 z m 15.371333,2.197561 v 11.119936 h 0.558663 c 1.773348,0 3.055258,-0.547072 3.855003,-1.634263 0.799746,-1.087189 1.305092,-2.688997 1.52763,-4.812379 h 0.7812 V 87.7705 h -0.7812 c -0.164586,-1.557765 -0.512301,-2.835039 -1.040829,-3.824869 -0.533163,-0.992148 -1.145141,-1.662079 -1.847527,-2.000522 -0.700066,-0.343079 -1.717713,-0.516936 -3.05294,-0.516936 v 7.691461 c 0,1.506767 0.06491,2.427054 0.197039,2.76086 a 1.6458524,1.6458524 0 0 0 0.73252,0.822927 c 0.35467,0.217901 0.931877,0.322216 1.729304,0.322216 h 1.671351 c 2.610183,0 4.708065,-0.588799 6.282057,-1.77103 1.571673,-1.182232 2.705225,-2.978761 3.391383,-5.396542 h 0.762656 l -1.256411,8.678974 H 42.76773 v -0.741792 h 0.92724 c 0.813654,0 1.465041,-0.141404 1.961115,-0.426531 a 1.8753445,1.8753445 0 0 0 0.827562,-0.96433 c 0.150677,-0.326853 0.224856,-1.168324 0.224856,-2.54064 V 71.898455 c 0,-1.237866 -0.03478,-1.995885 -0.09968,-2.278694 A 1.9332971,1.9332971 0 0 0 45.843847,68.532572 C 45.322274,68.15704 44.608298,67.969273 43.697284,67.969273 h -0.927241 v -0.74411 h 23.410512 v 8.076267 h -0.783519 c -0.398713,-1.970387 -0.957376,-3.386748 -1.682941,-4.249081 -0.720931,-0.860016 -1.743214,-1.49054 -3.062213,-1.891572 -0.771929,-0.241083 -2.216106,-0.361624 -4.332533,-0.361624 z m 27.397647,-1.57399 13.79966,16.940688 V 72.426983 c 0,-1.641216 -0.241082,-2.749269 -0.723247,-3.326477 -0.660659,-0.7812 -1.766394,-1.154414 -3.32184,-1.126597 v -0.748746 h 9.242272 v 0.746428 c -1.18455,0.146041 -1.979658,0.338443 -2.383009,0.572571 a 2.3111476,2.3111476 0 0 0 -0.948103,1.147461 c -0.229492,0.530845 -0.340761,1.441859 -0.340761,2.733042 V 95.162927 H 95.451232 L 76.537839,72.424665 v 17.357947 c 0,1.571673 0.368578,2.631046 1.105734,3.182754 0.73252,0.551709 1.578628,0.827562 2.526731,0.827562 h 0.658341 v 0.741794 h -9.919158 v -0.741794 c 1.536902,-0.01391 2.610183,-0.326852 3.215208,-0.927241 0.607342,-0.607342 0.908695,-1.629625 0.908695,-3.083075 V 70.507594 l -0.595752,-0.725565 c -0.593434,-0.723248 -1.112689,-1.200777 -1.569355,-1.427952 -0.45203,-0.227173 -1.105734,-0.356987 -1.958796,-0.382486 v -0.746428 z m 35.666315,26.570084 v 0.741792 h -14.62491 v -0.741792 h 0.92493 c 0.81365,0 1.46504,-0.141404 1.96343,-0.426531 a 1.8567996,1.8567996 0 0 0 0.82292,-0.96433 c 0.15068,-0.326853 0.22718,-1.168324 0.22718,-2.54064 V 71.898455 c 0,-1.397815 -0.0741,-2.271739 -0.22718,-2.617137 -0.14836,-0.350032 -0.45666,-0.656023 -0.91796,-0.917968 -0.45898,-0.259627 -1.08256,-0.391759 -1.86839,-0.391759 h -0.92493 v -0.746428 h 14.62491 v 0.746428 h -0.92724 c -0.81133,0 -1.46273,0.141404 -1.96111,0.424213 a 1.9286608,1.9286608 0 0 0 -0.84147,0.96433 c -0.153,0.324535 -0.22949,1.170642 -0.22949,2.54064 v 17.96529 c 0,1.400133 0.0788,2.269422 0.23876,2.617137 0.15763,0.347715 0.46825,0.656023 0.92492,0.917968 0.4613,0.261945 1.08487,0.394078 1.86839,0.394078 z M 133.992,66.844993 c 4.45539,-0.162266 8.07394,1.105735 10.86263,3.806324 2.78403,2.69827 4.17489,6.075745 4.17489,10.127787 0,3.46788 -1.03619,6.516185 -3.11553,9.149549 -2.75158,3.486424 -6.63208,5.234274 -11.6531,5.234274 -5.03028,0 -8.92469,-1.666715 -11.67396,-4.993192 -2.17437,-2.635682 -3.25693,-5.753529 -3.25693,-9.36745 0,-4.052042 1.40941,-7.434152 4.23749,-10.141696 2.82345,-2.707543 6.3006,-3.977862 10.42451,-3.815596 z m 0.24572,1.288865 c -2.55456,0 -4.50176,1.277274 -5.83698,3.827187 -1.08487,2.095563 -1.63195,5.102141 -1.63195,9.02437 0,4.659385 0.84147,8.104084 2.51745,10.336417 1.16834,1.557765 2.80723,2.336647 4.90975,2.336647 1.41636,0 2.59859,-0.336125 3.54902,-1.010693 1.20772,-0.860015 2.15119,-2.232332 2.82344,-4.119267 0.67457,-1.882299 1.01301,-4.346441 1.01301,-7.380837 0,-3.61392 -0.34307,-6.316828 -1.03156,-8.104084 -0.68616,-1.796529 -1.56472,-3.062213 -2.62872,-3.799369 -1.06401,-0.741792 -2.29261,-1.110371 -3.68346,-1.110371 z m 27.72912,13.95961 v 7.652054 c 0,1.476631 0.0904,2.408508 0.27818,2.788677 a 2.0329754,2.0329754 0 0 0 0.98056,0.917968 c 0.46825,0.231811 1.34218,0.34308 2.61945,0.34308 v 0.741792 h -14.31196 v -0.741792 c 1.29118,0 2.16743,-0.12286 2.62642,-0.352352 a 2.1025185,2.1025185 0 0 0 0.96895,-0.917968 c 0.18314,-0.375532 0.27818,-1.302774 0.27818,-2.779405 V 72.023634 c 0,-1.481268 -0.095,-2.410827 -0.27818,-2.793314 a 2.023703,2.023703 0 0 0 -0.98055,-0.917968 c -0.46825,-0.229493 -1.33986,-0.340761 -2.61713,-0.340761 v -0.746428 h 12.99064 c 3.38211,0 5.85784,0.229491 7.42488,0.686157 a 7.5013778,7.5013778 0 0 1 3.83878,2.52905 c 0.99214,1.230911 1.48589,2.665817 1.48589,4.318624 0,2.01443 -0.7441,3.681145 -2.23,4.997827 -0.94811,0.832199 -2.27406,1.458086 -3.97787,1.870709 l 6.7225,9.24459 c 0.88087,1.200777 1.50676,1.942569 1.87534,2.241604 0.56793,0.412623 1.21701,0.642115 1.96112,0.683841 v 0.741792 h -8.80879 l -9.01278,-12.445889 z m 0,-13.393993 v 11.963724 h 1.17528 c 1.91013,0 3.34039,-0.171539 4.29545,-0.5123 0.94347,-0.343079 1.6899,-0.959694 2.23234,-1.8568 0.54474,-0.89247 0.81828,-2.056157 0.81828,-3.495697 0,-2.07702 -0.49839,-3.61624 -1.49749,-4.610705 -0.99447,-0.994466 -2.60323,-1.49054 -4.8147,-1.49054 h -2.20916 z m 39.33588,-2.097883 0.22949,9.105505 h -0.84379 c -0.40103,-2.285648 -1.38158,-4.119267 -2.94166,-5.50781 -1.56241,-1.390861 -3.24767,-2.086292 -5.06506,-2.086292 -1.40013,0 -2.51282,0.366261 -3.33111,1.09878 -0.82061,0.732521 -1.22628,1.57631 -1.22628,2.526731 0,0.607344 0.14372,1.145143 0.43349,1.611081 0.39639,0.628206 1.03851,1.254093 1.91707,1.875345 0.64675,0.442757 2.1396,1.226276 4.47625,2.355192 3.27084,1.571673 5.48,3.055258 6.6205,4.455391 a 7.4179262,7.4179262 0 0 1 1.69221,4.789199 c 0,2.281012 -0.90869,4.246763 -2.73535,5.894933 -1.81971,1.643534 -4.13318,2.461825 -6.94272,2.461825 -0.87624,0 -1.70845,-0.08577 -2.49659,-0.25731 a 18.804443,18.804443 0 0 1 -2.94631,-0.992147 c -0.66299,-0.266582 -1.20542,-0.398714 -1.62731,-0.398714 a 2.0584745,2.0584745 0 0 0 -1.13819,0.398714 2.8280844,2.8280844 0 0 0 -0.96665,1.230912 h -0.76497 V 84.849691 h 0.76497 c 0.60503,2.902263 1.77104,5.116051 3.49338,6.636726 1.72931,1.525311 3.58842,2.285649 5.58199,2.285649 1.53922,0 2.7655,-0.407987 3.68114,-1.226276 0.91102,-0.820609 1.37,-1.775667 1.37,-2.860538 0,-0.646751 -0.17385,-1.268002 -0.52389,-1.870708 a 6.0201107,6.0201107 0 0 0 -1.59716,-1.724669 c -0.71862,-0.542436 -1.97967,-1.254092 -3.79706,-2.12338 -2.54296,-1.22164 -4.36962,-2.264786 -5.48463,-3.124802 -1.115,-0.860016 -1.97271,-1.81971 -2.56845,-2.879083 a 6.9937135,6.9937135 0 0 1 -0.89711,-3.50497 c 0,-2.174379 0.81597,-4.031179 2.45255,-5.561127 1.6389,-1.529946 3.69969,-2.294921 6.19165,-2.294921 0.90638,0 1.78494,0.106633 2.638,0.322217 0.64675,0.159949 1.43259,0.458985 2.35983,0.897105 0.92956,0.435803 1.57863,0.653705 1.94952,0.653705 a 1.1196432,1.1196432 0 0 0 0.84611,-0.319898 c 0.20399,-0.217901 0.39871,-0.73252 0.57952,-1.553129 z"
     id="path564"
     style="stroke-width:2.3181" />
  <path
     fill="#bf2774"
     d="m 217.05654,28.930118 c 7.32057,1.780302 10.80931,6.727132 10.5775,15.515056 0,0 -0.30367,3.528151 -1.72467,8.692883 -1.421,5.164731 -19.78963,39.231556 -15.8025,24.757329 3.90832,-14.184466 -9.46712,-16.375073 -11.07589,-16.727424 -0.3709,-0.0255 -1.03619,-0.185448 -1.77103,-0.215583 -2.13497,-0.0765 -5.53331,-0.238765 -8.68129,-1.140507 -7.06789,-2.053838 -10.98085,-11.745822 -7.71928,-18.64913 3.20362,-6.77813 11.58819,-9.142594 17.37417,-7.601056 1.87535,0.50071 5.12764,2.318102 5.12764,2.318102 0,0 5.06042,-9.052188 13.69535,-6.94967 z"
     id="path566"
     style="stroke-width:2.3181" />
  <path
     fill="#f4aece"
     d="m 200.01385,41.227649 1.17065,3.477153 -0.33381,0.111269 c -0.47289,-0.732521 -0.88784,-1.23323 -1.24714,-1.50213 a 2.7214517,2.7214517 0 0 0 -1.28886,-0.500711 c -0.27354,-0.03013 -0.71166,0.051 -1.30278,0.248037 l -0.9481,0.324535 3.34502,9.907568 c 0.22254,0.656023 0.39408,1.052418 0.52389,1.193822 a 1.0269192,1.0269192 0 0 0 0.56794,0.289763 1.7849385,1.7849385 0 0 0 0.91797,-0.104315 l 0.42421,-0.143722 0.12054,0.354669 -6.65295,2.243923 -0.11591,-0.352351 0.42189,-0.141404 a 1.8289824,1.8289824 0 0 0 0.82293,-0.500711 0.9527399,0.9527399 0 0 0 0.22949,-0.581843 c 0.0162,-0.176176 -0.0812,-0.58648 -0.29903,-1.230913 l -3.34734,-9.909885 -0.91797,0.308308 c -0.85538,0.289762 -1.41404,0.681521 -1.67831,1.179913 -0.37321,0.695431 -0.46825,1.53922 -0.29439,2.536004 l -0.35236,0.120541 -1.17528,-3.477153 z m 7.79115,-2.830403 c 1.9982,-0.760336 3.84109,-0.716293 5.53563,0.125178 1.69452,0.84379 2.86054,2.218424 3.50728,4.126221 a 7.3020211,7.3020211 0 0 1 0.0371,4.77529 c -0.69543,2.067747 -2.18133,3.484108 -4.46234,4.251399 -2.28565,0.771928 -4.31631,0.584162 -6.09198,-0.558662 -1.40476,-0.906378 -2.3946,-2.204516 -2.96716,-3.906002 -0.64443,-1.907798 -0.53781,-3.715917 0.31293,-5.419722 0.85074,-1.706123 2.23002,-2.837357 4.12855,-3.393702 z m 0.31758,0.570254 c -1.16369,0.389441 -1.8429,1.288864 -2.04457,2.693634 -0.15995,1.149779 0.0719,2.647273 0.69311,4.492481 0.73947,2.192925 1.66672,3.681147 2.78172,4.473937 0.77889,0.554027 1.64585,0.67225 2.60091,0.345397 0.64212,-0.215583 1.12893,-0.556344 1.45114,-1.017646 0.41493,-0.588798 0.6282,-1.376953 0.63052,-2.3691 0.002,-0.992148 -0.23413,-2.199879 -0.71629,-3.625512 -0.57257,-1.699168 -1.15674,-2.91849 -1.7548,-3.655646 -0.59808,-0.734839 -1.19615,-1.198459 -1.79653,-1.38159 a 2.9277627,2.9277627 0 0 0 -1.84521,0.04404 z"
     id="path568"
     style="stroke-width:2.3181" />
  <g
     fill="#f7bfd9"
     id="g576"
     transform="matrix(2.3181019,0,0,2.3181019,15.989016,22.555338)">
    <path
       d="m 127.741,19.786 c 0.743,-0.052 1.445,-0.153 1.979,0.018 0.93,0.297 1.414,0.791 1.451,1.564 0.03,0.625 -0.287,1.309 -0.569,2.223 -0.018,0.068 -1.358,4.197 -1.366,4.25 -0.023,0.188 -0.121,0.635 0.037,0.875 0.159,0.242 0.279,0.324 0.596,0.41 0.319,0.086 0.98,0.047 1.264,-0.125 0.281,-0.172 0.539,-0.406 0.769,-0.699 a 5.864,5.864 0 0 0 0.927,-1.786 l 0.582,0.154 c -0.247,0.863 -0.533,1.576 -0.861,2.135 -0.326,0.562 -0.697,1.016 -1.112,1.359 a 3.6,3.6 0 0 1 -1.391,0.725 6.346,6.346 0 0 1 -1.668,0.207 c -1.802,0 -2.949,-0.51 -3.443,-1.527 a 4.368,4.368 0 0 1 -1.469,1.139 c -0.575,0.275 -1.26,0.414 -2.055,0.414 -0.9,0 -1.651,-0.205 -2.251,-0.621 a 4.186,4.186 0 0 1 -1.39,-1.592 5.506,5.506 0 0 1 -0.57,-2.148 7.072,7.072 0 0 1 0.212,-2.289 c 0.318,-1.088 0.76,-2.01 1.325,-2.77 a 6.11,6.11 0 0 1 2.025,-1.772 6.744,6.744 0 0 1 2.622,-0.765 c 0.963,-0.086 1.991,0.009 3.087,0.285 0.211,0.067 0.423,0.138 0.635,0.206 0.212,0.07 0.414,0.113 0.609,0.13 z m -3.072,8.23 c 0,-0.137 1.913,-5.871 2.037,-6.389 0.123,-0.52 0.063,-0.829 0,-1.033 -0.111,-0.354 -0.519,-0.421 -0.712,-0.421 a 2.72,2.72 0 0 0 -1.418,0.557 5.376,5.376 0 0 0 -1.11,1.167 7.297,7.297 0 0 0 -0.823,1.475 12.027,12.027 0 0 0 -0.516,1.461 c -0.354,1.242 -0.45,2.205 -0.292,2.885 0.16,0.684 0.468,1.119 0.928,1.311 0.406,0.154 0.484,0.154 0.929,0.049 0.412,-0.098 0.871,-0.613 0.977,-1.062 z"
       id="path570" />
    <path
       d="m 143.348,26.697 c -0.283,0.811 -0.664,1.496 -1.138,2.057 a 6.314,6.314 0 0 1 -1.581,1.359 6.84,6.84 0 0 1 -1.836,0.764 7.726,7.726 0 0 1 -1.906,0.244 5.589,5.589 0 0 1 -1.895,-0.309 3.628,3.628 0 0 1 -1.452,-0.932 c -0.389,-0.416 -0.649,-0.928 -0.783,-1.541 -0.131,-0.611 -0.085,-1.324 0.144,-2.135 l 1.878,-6.367 h -1.565 l 0.257,-1.01 h 1.622 l 1.139,-3.908 c 0.058,-0.155 0.104,-0.345 0.143,-0.569 0.037,-0.224 0.066,-0.456 0.085,-0.699 0.02,-0.241 0.024,-0.473 0.015,-0.698 a 1.227,1.227 0 0 0 -0.129,-0.543 c -0.133,-0.275 -0.37,-0.379 -0.711,-0.31 l -0.113,-0.208 a 5.289,5.289 0 0 1 1.367,-0.621 5.07,5.07 0 0 1 1.48,-0.234 c 0.7,0 1.275,0.147 1.722,0.441 0.445,0.293 0.772,0.668 0.981,1.125 0.209,0.458 0.318,0.962 0.327,1.514 a 5.285,5.285 0 0 1 -0.214,1.605 l -0.939,3.106 h 2.677 l -0.256,1.01 h -2.734 l -2.048,6.91 c -0.152,0.484 -0.119,0.938 0.1,1.359 0.218,0.422 0.545,0.703 0.981,0.842 0.323,0.086 0.659,0.131 1.011,0.131 0.352,0 0.698,-0.082 1.039,-0.248 0.343,-0.164 0.669,-0.422 0.981,-0.777 0.313,-0.352 0.594,-0.84 0.841,-1.461 z"
       id="path572" />
    <path
       d="m 143.348,23.67 a 5.714,5.714 0 0 1 1.311,-2.045 7.432,7.432 0 0 1 1.935,-1.399 9.522,9.522 0 0 1 2.291,-0.802 11.524,11.524 0 0 1 2.406,-0.259 c 0.836,0 1.585,0.113 2.249,0.337 0.666,0.224 1.225,0.518 1.682,0.879 0.453,0.363 0.786,0.777 0.995,1.244 0.209,0.465 0.284,0.939 0.228,1.422 -0.057,0.467 -0.256,0.924 -0.598,1.373 -0.342,0.449 -0.845,0.854 -1.509,1.215 -0.664,0.361 -1.495,0.654 -2.491,0.869 -0.997,0.215 -2.178,0.305 -3.545,0.271 0.305,1.207 1.244,1.992 2.82,2.355 0.777,0.189 1.498,0.219 2.163,0.09 a 5.215,5.215 0 0 0 1.778,-0.686 4.966,4.966 0 0 0 1.338,-1.23 5.496,5.496 0 0 0 0.84,-1.592 l 0.57,0.156 a 5.618,5.618 0 0 1 -1.196,2.303 c -0.568,0.656 -1.238,1.205 -2.007,1.645 -0.769,0.44 -1.613,0.771 -2.533,0.996 -0.921,0.223 -1.855,0.328 -2.805,0.309 -1.253,-0.016 -2.345,-0.201 -3.274,-0.557 -0.931,-0.352 -1.661,-0.854 -2.192,-1.5 -0.531,-0.646 -0.844,-1.428 -0.939,-2.342 -0.096,-0.913 0.065,-1.931 0.483,-3.052 z m 4.84,2.484 c 0.607,-0.018 1.148,-0.172 1.622,-0.467 0.475,-0.293 0.883,-0.65 1.226,-1.074 0.34,-0.422 0.615,-0.881 0.824,-1.371 a 6.41,6.41 0 0 0 0.428,-1.385 c 0.075,-0.432 0.08,-0.799 0.015,-1.1 -0.067,-0.302 -0.195,-0.479 -0.385,-0.531 -0.228,-0.052 -0.489,-0.029 -0.783,0.064 -0.294,0.097 -0.603,0.29 -0.925,0.583 -0.323,0.294 -0.637,0.699 -0.939,1.216 -0.305,0.518 -0.569,1.174 -0.797,1.967 a 9.73,9.73 0 0 0 -0.256,1.113 c -0.06,0.347 -0.069,0.675 -0.03,0.985 z m -29.097,-15.71 c -0.37,-0.867 -0.945,-1.614 -1.726,-2.244 -0.779,-0.628 -1.779,-1.118 -3,-1.47 -1.221,-0.351 -2.681,-0.527 -4.382,-0.527 -2.442,0 -4.753,0.232 -6.935,0.695 -2.182,0.464 -4.198,1.077 -6.048,1.84 -1.851,0.764 -3.521,1.639 -5.009,2.627 -1.489,0.987 -2.752,2.01 -3.793,3.062 -1.038,1.056 -1.838,2.103 -2.397,3.143 -0.559,1.039 -0.839,1.985 -0.839,2.84 0,0.686 0.115,1.26 0.344,1.715 0.229,0.457 0.522,0.82 0.886,1.088 0.362,0.271 0.76,0.457 1.192,0.562 0.434,0.104 0.855,0.156 1.264,0.156 h 0.143 c 0.755,0 1.598,-0.23 2.527,-0.695 0.929,-0.465 1.895,-1.051 2.895,-1.762 a 43.38,43.38 0 0 0 3.012,-2.357 c 1.009,-0.86 1.969,-1.687 2.883,-2.479 a 79.631,79.631 0 0 1 1.831,-1.604 c 0.59,-0.5 1.099,-0.924 1.524,-1.269 -0.316,0.853 -0.765,1.853 -1.347,2.997 a 2007.1,2007.1 0 0 0 -1.843,3.624 144.385,144.385 0 0 0 -1.723,3.376 c 0,0 -1.344,4.15 1.85,4.709 0.146,-0.334 0.312,-0.693 0.498,-1.082 a 66.58,66.58 0 0 1 1.171,-2.301 l 1.346,-2.547 c 0.488,-0.943 0.977,-1.874 1.464,-2.794 0.488,-0.92 0.923,-1.784 1.3,-2.593 a 28.88,28.88 0 0 0 0.922,-2.165 c 0.236,-0.636 0.354,-1.133 0.354,-1.493 0,-0.283 -0.11,-0.567 -0.331,-0.853 a 3.811,3.811 0 0 0 -0.779,-0.752 c -0.3,-0.217 -0.61,-0.388 -0.933,-0.516 -0.324,-0.128 -0.578,-0.176 -0.769,-0.146 h 0.047 c -0.329,0 -0.736,0.131 -1.216,0.393 -0.48,0.262 -1.017,0.613 -1.607,1.055 -0.59,0.442 -1.217,0.95 -1.878,1.525 -0.662,0.576 -1.339,1.171 -2.032,1.785 -0.819,0.718 -1.657,1.448 -2.516,2.188 a 43.587,43.587 0 0 1 -2.48,1.997 19.739,19.739 0 0 1 -2.232,1.458 c -0.692,0.383 -1.284,0.572 -1.772,0.572 -0.017,0 -0.024,0.004 -0.024,0.012 0,0.008 -0.007,0.014 -0.023,0.014 a 0.49,0.49 0 0 1 -0.271,-0.205 c -0.071,-0.104 -0.106,-0.26 -0.106,-0.471 0,-0.494 0.232,-1.174 0.696,-2.042 0.465,-0.868 1.138,-1.811 2.021,-2.828 0.882,-1.018 1.961,-2.054 3.237,-3.108 1.274,-1.055 2.725,-2.008 4.346,-2.861 1.623,-0.853 3.406,-1.549 5.352,-2.087 1.945,-0.539 4.028,-0.808 6.249,-0.808 0.898,0 1.666,0.112 2.304,0.336 0.638,0.226 1.161,0.535 1.571,0.931 0.409,0.397 0.713,0.877 0.909,1.437 0.196,0.562 0.296,1.179 0.296,1.853 0,0.986 -0.182,2.062 -0.543,3.22 a 19.784,19.784 0 0 1 -1.537,3.557 27.56,27.56 0 0 1 -2.397,3.636 30.626,30.626 0 0 1 -3.13,3.457 30.958,30.958 0 0 1 -3.722,3.018 c -0.609,0.42 -1.234,0.809 -1.871,1.168 l -0.007,0.008 c 0,0 -0.054,0.029 -0.148,0.084 l -0.044,0.023 c -0.662,0.363 -2.897,1.551 -4.597,1.951 -0.005,0.002 -0.008,0.002 -0.012,0.002 -0.557,0.16 -1.113,0.299 -1.672,0.41 a 16.366,16.366 0 0 1 -3.214,0.314 c -0.394,0 -0.714,-0.041 -0.956,-0.123 a 1.612,1.612 0 0 1 -0.569,-0.305 1.13,1.13 0 0 1 -0.294,-0.402 9.101,9.101 0 0 1 -0.165,-0.426 3.264,3.264 0 0 0 -0.32,-0.707 c -0.117,-0.188 -0.356,-0.281 -0.72,-0.281 -0.299,0 -0.522,0.098 -0.674,0.291 -0.149,0.195 -0.224,0.441 -0.224,0.742 0,0.268 0.074,0.58 0.224,0.93 0.151,0.352 0.387,0.682 0.709,0.988 0.322,0.306 0.736,0.57 1.242,0.785 0.503,0.219 1.109,0.326 1.817,0.326 2.362,0 4.675,-0.34 6.935,-1.021 2.26,-0.681 4.386,-1.594 6.379,-2.738 a 32.743,32.743 0 0 0 5.492,-3.949 c 1.671,-1.488 3.11,-3.037 4.324,-4.645 1.213,-1.607 2.154,-3.225 2.824,-4.849 0.669,-1.623 1.004,-3.138 1.004,-4.544 -0.002,-1.032 -0.188,-1.983 -0.557,-2.851 z"
       id="path574" />
  </g>
</svg>
