<?xml version="1.0" encoding="UTF-8" standalone="no"?>
<svg
   width="200"
   height="70"
   viewBox="0 0 200 70"
   version="1.1"
   id="svg1169"
   sodipodi:docname="singles50.svg"
   inkscape:version="1.1 (c4e8f9e, 2021-05-24)"
   xmlns:inkscape="http://www.inkscape.org/namespaces/inkscape"
   xmlns:sodipodi="http://sodipodi.sourceforge.net/DTD/sodipodi-0.dtd"
   xmlns="http://www.w3.org/2000/svg"
   xmlns:svg="http://www.w3.org/2000/svg">
  <defs
     id="defs1173" />
  <sodipodi:namedview
     id="namedview1171"
     pagecolor="#ffffff"
     bordercolor="#666666"
     borderopacity="1.0"
     inkscape:pageshadow="2"
     inkscape:pageopacity="0.0"
     inkscape:pagecheckerboard="0"
     showgrid="false"
     inkscape:zoom="1"
     inkscape:cx="49.5"
     inkscape:cy="32"
     inkscape:window-width="2048"
     inkscape:window-height="1046"
     inkscape:window-x="0"
     inkscape:window-y="25"
     inkscape:window-maximized="1"
     inkscape:current-layer="g1167" />
  <g
     fill="#455399"
     id="g1167"
     transform="matrix(1.1040884,0,0,1.1040884,75.323634,13.94255)">
    <path
       d="m 14.117109,25.751346 c 0,0.875887 -0.162511,1.64423 -0.489923,2.306223 -0.326217,0.661994 -0.768343,1.212859 -1.327572,1.656179 -0.559229,0.442126 -1.211663,0.775513 -1.958497,0.998966 -0.7468342,0.223452 -1.5450502,0.334581 -2.3958444,0.334581 -0.575958,0 -1.110094,-0.0466 -1.6047962,-0.142197 -0.493508,-0.0944 -0.929659,-0.207919 -1.308454,-0.340556 -0.377599,-0.133833 -0.6930622,-0.272445 -0.9463882,-0.419422 -0.253326,-0.146977 -0.436151,-0.274835 -0.54728,-0.385964 -0.111128,-0.111129 -0.191189,-0.272445 -0.237791,-0.482754 -0.0478,-0.211503 -0.0717,-0.513821 -0.0717,-0.90815 0,-0.265275 0.0084,-0.489923 0.02629,-0.670358 0.01792,-0.180435 0.04541,-0.326217 0.08365,-0.438541 0.03943,-0.111129 0.09082,-0.191189 0.154147,-0.237792 0.06453,-0.0466 0.139807,-0.0717 0.225843,-0.0717 0.120688,0 0.290369,0.0717 0.509042,0.212699 0.218673,0.142197 0.5006772,0.298733 0.8436232,0.470804 0.344141,0.17207 0.754004,0.328607 1.230783,0.469609 0.4767792,0.142197 1.0288382,0.212698 1.6561792,0.212698 0.4122522,0 0.7814872,-0.04899 1.1077042,-0.148172 0.326217,-0.09798 0.603442,-0.237792 0.831674,-0.419422 0.2270382,-0.180435 0.4014982,-0.403887 0.5221872,-0.669163 0.119493,-0.26647 0.180435,-0.562814 0.180435,-0.889031 0,-0.377599 -0.102765,-0.701427 -0.309488,-0.972677 C 10.085404,24.947151 9.8165438,24.706969 9.4867418,24.496661 9.1557448,24.285158 8.7793408,24.089188 8.3599188,23.903973 7.9393016,23.718759 7.5055406,23.523984 7.0586346,23.318456 6.6117296,23.111732 6.1779684,22.87872 5.7573514,22.615834 5.3367344,22.354144 4.9603294,22.041071 4.6305274,21.675421 4.2995312,21.310966 4.0318652,20.8784 3.8263372,20.380112 3.6196132,19.883019 3.5168492,19.285552 3.5168492,18.5901 c 0,-0.798216 0.148171,-1.500837 0.444515,-2.106669 0.296344,-0.605832 0.6954522,-1.107704 1.1973242,-1.506812 0.503068,-0.399108 1.09456,-0.697842 1.7780632,-0.895006 0.682307,-0.198359 1.4064382,-0.296344 2.1711962,-0.296344 0.395523,0 0.791046,0.02987 1.1853752,0.09081 0.395522,0.05975 0.764757,0.142197 1.107703,0.244962 0.342947,0.103959 0.64885,0.218673 0.91532,0.347725 0.265276,0.129053 0.442126,0.236598 0.528161,0.321438 l 0.174461,0.218673 0.07767,0.237792 0.04541,0.374014 0.01195,0.560424 -0.01912,0.630926 c -0.01314,0.17207 -0.03465,0.314268 -0.06453,0.425396 -0.02987,0.111129 -0.07289,0.19358 -0.129053,0.244962 -0.05616,0.05138 -0.130248,0.07767 -0.225843,0.07767 -0.0944,0 -0.244961,-0.05975 -0.451685,-0.180435 -0.205529,-0.120689 -0.458855,-0.250937 -0.759978,-0.393134 -0.301124,-0.142197 -0.64885,-0.270055 -1.043178,-0.385964 -0.395523,-0.115908 -0.8292842,-0.17446 -1.3012832,-0.17446 -0.369235,0 -0.690672,0.04541 -0.965507,0.135028 -0.2748352,0.09082 -0.5042622,0.215088 -0.6894772,0.374014 -0.185215,0.158926 -0.322633,0.350116 -0.412253,0.573569 -0.09081,0.223452 -0.135027,0.458854 -0.135027,0.708596 0,0.369234 0.100374,0.689477 0.302318,0.959532 0.200749,0.270055 0.471999,0.511432 0.811361,0.72174 0.3393612,0.210309 0.7241302,0.407473 1.1531112,0.592688 0.428982,0.185215 0.8675232,0.381184 1.3144282,0.586713 0.446905,0.206723 0.884251,0.439735 1.314428,0.702621 0.430176,0.261691 0.812555,0.574763 1.147137,0.940413 0.334581,0.36565 0.605831,0.794632 0.81136,1.289335 0.206724,0.493508 0.309488,1.075441 0.309488,1.745799 m 5.766753,4.561064 c 0,0.08604 -0.02629,0.161316 -0.07767,0.225843 -0.05138,0.06453 -0.139808,0.118298 -0.264081,0.161316 -0.124273,0.04302 -0.289174,0.07528 -0.495898,0.09679 -0.205528,0.02151 -0.467219,0.03226 -0.785071,0.03226 -0.317853,0 -0.579544,-0.01075 -0.785072,-0.03226 -0.206724,-0.02151 -0.371625,-0.05377 -0.495898,-0.09679 -0.124273,-0.04302 -0.212698,-0.09679 -0.264081,-0.161316 -0.05138,-0.06453 -0.07767,-0.139807 -0.07767,-0.225843 V 18.8506 c 0,-0.08603 0.02629,-0.161316 0.07767,-0.225843 0.05138,-0.06453 0.139808,-0.119493 0.264081,-0.16729 0.124273,-0.0466 0.289174,-0.08365 0.495898,-0.109934 0.205528,-0.02629 0.468414,-0.03824 0.785072,-0.03824 0.317852,0 0.579543,0.01195 0.785071,0.03824 0.206724,0.02629 0.371625,0.06214 0.495898,0.109934 0.124273,0.0478 0.212699,0.103959 0.264081,0.16729 0.05138,0.06453 0.07767,0.139808 0.07767,0.225843 z M 20.132409,14.9348 c 0,0.652434 -0.133833,1.104119 -0.399108,1.352666 -0.26647,0.249741 -0.759978,0.374014 -1.481719,0.374014 -0.730105,0 -1.222418,-0.120688 -1.475744,-0.36087 -0.253326,-0.240182 -0.379989,-0.673943 -0.379989,-1.301284 0,-0.652434 0.130248,-1.105314 0.393134,-1.35864 0.26169,-0.253326 0.757588,-0.379989 1.487693,-0.379989 0.720545,0 1.211663,0.121883 1.468574,0.366845 0.258106,0.244961 0.385964,0.681112 0.385964,1.308453 z m 14.070352,15.38239 c 0,0.08604 -0.02629,0.161316 -0.07767,0.225843 -0.05138,0.06453 -0.137418,0.118298 -0.258106,0.161316 -0.119494,0.04302 -0.284394,0.07528 -0.495898,0.09679 -0.210308,0.02151 -0.470804,0.03226 -0.779097,0.03226 -0.317853,0 -0.581933,-0.01075 -0.793437,-0.03226 -0.210308,-0.02151 -0.375209,-0.05377 -0.495897,-0.09679 -0.119494,-0.04302 -0.205529,-0.09679 -0.256911,-0.161316 -0.05138,-0.06453 -0.07767,-0.139807 -0.07767,-0.225843 v -6.5578 c 0,-0.559229 -0.04063,-0.996575 -0.123078,-1.314427 -0.08126,-0.317853 -0.199554,-0.590298 -0.353701,-0.81853 -0.154146,-0.227038 -0.3537,-0.403888 -0.598662,-0.528161 -0.244961,-0.124274 -0.530551,-0.18641 -0.856768,-0.18641 -0.412252,0 -0.829284,0.150561 -1.249901,0.451685 -0.420617,0.301123 -0.857963,0.738469 -1.314428,1.314428 v 7.639215 c 0,0.08604 -0.02629,0.161316 -0.07767,0.225843 -0.05138,0.06453 -0.139807,0.118298 -0.26408,0.161316 -0.124273,0.04302 -0.290369,0.07528 -0.495898,0.09679 -0.206724,0.02151 -0.468414,0.03226 -0.786267,0.03226 -0.317852,0 -0.579543,-0.01075 -0.785072,-0.03226 -0.206723,-0.02151 -0.371624,-0.05377 -0.495898,-0.09679 -0.124273,-0.04302 -0.212698,-0.09679 -0.26408,-0.161316 -0.05258,-0.06453 -0.07767,-0.139807 -0.07767,-0.225843 V 18.825506 c 0,-0.08603 0.02151,-0.161316 0.06453,-0.225842 0.04302,-0.06453 0.120688,-0.117104 0.231817,-0.161316 0.111129,-0.04302 0.255716,-0.07528 0.431371,-0.09679 0.175656,-0.02151 0.396718,-0.03226 0.663189,-0.03226 0.274835,0 0.501872,0.01075 0.682307,0.03226 0.180435,0.02151 0.320243,0.05377 0.419422,0.09679 0.09798,0.04302 0.169681,0.09679 0.212699,0.161316 0.04302,0.06453 0.06453,0.139807 0.06453,0.225842 v 1.327572 c 0.635705,-0.687087 1.282165,-1.202104 1.938184,-1.546245 0.657214,-0.342946 1.341911,-0.515016 2.055287,-0.515016 0.781487,0 1.441091,0.129052 1.977616,0.385963 0.536526,0.256911 0.971482,0.607027 1.301284,1.050348 0.330997,0.442125 0.568789,0.959532 0.714571,1.552219 0.146977,0.592688 0.218673,1.306064 0.218673,2.138933 v 7.099105 z m 9.612053,-7.974992 c 0,-0.617781 -0.172071,-1.099339 -0.515017,-1.443481 -0.344141,-0.342946 -0.829284,-0.515016 -1.45543,-0.515016 -0.317853,0 -0.597467,0.05377 -0.837649,0.161316 -0.240182,0.107544 -0.439736,0.253326 -0.598662,0.438541 -0.158927,0.185215 -0.277225,0.400303 -0.353701,0.644069 -0.07767,0.244962 -0.115908,0.500678 -0.115908,0.765953 0,0.584323 0.17207,1.045568 0.515016,1.384929 0.344141,0.339362 0.82092,0.509042 1.430337,0.509042 0.326217,0 0.610611,-0.05138 0.850793,-0.154146 0.240182,-0.102764 0.439736,-0.244962 0.599857,-0.425397 0.158926,-0.180435 0.27842,-0.388353 0.359675,-0.62495 0.08126,-0.236597 0.123079,-0.482754 0.123079,-0.74086 m 0.759978,9.172317 c 0,-0.385964 -0.154147,-0.682308 -0.463635,-0.889032 -0.309488,-0.206723 -0.733689,-0.317852 -1.274995,-0.334581 l -2.306223,-0.06453 c -0.223453,0.162511 -0.401498,0.320243 -0.535331,0.470804 -0.133832,0.150562 -0.240181,0.293954 -0.321437,0.431372 -0.08126,0.137417 -0.135028,0.270055 -0.161316,0.400303 -0.02629,0.129053 -0.03943,0.26169 -0.03943,0.399108 0,0.430176 0.217478,0.756393 0.650044,0.979846 0.433762,0.223453 1.045568,0.334582 1.83542,0.334582 0.489923,0 0.902175,-0.04899 1.237952,-0.148172 0.334581,-0.09918 0.604636,-0.230622 0.81136,-0.393134 0.205529,-0.162511 0.352506,-0.345336 0.438541,-0.547279 0.08604,-0.201944 0.129053,-0.414643 0.129053,-0.638095 m 3.401978,-11.890793 c 0,0.412253 -0.0478,0.716961 -0.142197,0.91532 -0.0944,0.197164 -0.211503,0.296344 -0.347726,0.296344 h -1.352666 c 0.1888,0.205529 0.323827,0.439736 0.405083,0.701426 0.08126,0.262886 0.121883,0.535331 0.121883,0.81853 0,0.669164 -0.111129,1.264241 -0.334581,1.784037 -0.223453,0.519797 -0.543695,0.958338 -0.959533,1.314428 -0.417032,0.356091 -0.920099,0.626146 -1.508007,0.811361 -0.587908,0.185215 -1.242732,0.277225 -1.964472,0.277225 -0.369235,0 -0.72174,-0.04541 -1.056322,-0.135028 -0.334582,-0.09082 -0.592687,-0.194774 -0.773123,-0.315463 -0.102764,0.111129 -0.194774,0.244962 -0.277224,0.399108 -0.08126,0.154147 -0.121884,0.326217 -0.121884,0.515017 0,0.249741 0.109934,0.45288 0.328607,0.611806 0.218673,0.158927 0.526966,0.246157 0.921295,0.264081 l 2.796146,0.103959 c 0.652434,0.02629 1.234367,0.117104 1.745799,0.277225 0.511432,0.158926 0.940414,0.382379 1.28814,0.669163 0.347726,0.28798 0.614196,0.633316 0.798216,1.037203 0.185215,0.403888 0.277225,0.862743 0.277225,1.37776 0,0.567594 -0.124274,1.101729 -0.37282,1.604797 -0.249741,0.503067 -0.623756,0.939218 -1.120848,1.307258 -0.498288,0.369235 -1.123239,0.661993 -1.874852,0.877082 -0.751614,0.213893 -1.629891,0.321437 -2.634831,0.321437 -0.979846,0 -1.815105,-0.07767 -2.505777,-0.231817 -0.691867,-0.154147 -1.258266,-0.369235 -1.700392,-0.64407 -0.442126,-0.274835 -0.764758,-0.603442 -0.966702,-0.985821 -0.201944,-0.382379 -0.302318,-0.800606 -0.302318,-1.257071 0,-0.283199 0.03704,-0.554449 0.109934,-0.81136 0.07289,-0.258106 0.180435,-0.504262 0.321437,-0.74086 0.142197,-0.236597 0.315463,-0.461244 0.522186,-0.676332 0.206724,-0.213894 0.442126,-0.420617 0.708597,-0.617781 -0.369235,-0.19836 -0.654824,-0.466025 -0.856768,-0.805386 -0.201944,-0.339362 -0.302319,-0.710986 -0.302319,-1.113679 0,-0.507847 0.115909,-0.967897 0.347726,-1.384929 0.231817,-0.417032 0.532941,-0.792242 0.902176,-1.126823 -0.301124,-0.301124 -0.541306,-0.661994 -0.721741,-1.082611 -0.180435,-0.420617 -0.270055,-0.943998 -0.270055,-1.571338 0,-0.670359 0.118299,-1.269021 0.353701,-1.797182 0.236597,-0.528161 0.565204,-0.973871 0.985821,-1.339521 0.420616,-0.36565 0.923684,-0.64407 1.508007,-0.837649 0.584323,-0.19358 1.228392,-0.289174 1.932209,-0.289174 0.36087,0 0.707401,0.02151 1.037203,0.06453 0.330996,0.04302 0.6369,0.103959 0.921294,0.180435 h 3.645745 c 0.146977,0 0.26408,0.0944 0.354895,0.2832 0.08962,0.188799 0.135028,0.506652 0.135028,0.953557 m 5.511037,10.693468 c 0,0.08603 -0.02629,0.161316 -0.07767,0.225843 -0.05138,0.06453 -0.139808,0.118298 -0.264081,0.161316 -0.124273,0.04302 -0.289174,0.07528 -0.495898,0.09679 -0.205528,0.02151 -0.467219,0.03226 -0.785071,0.03226 -0.317853,0 -0.579544,-0.01075 -0.785072,-0.03226 -0.206724,-0.02151 -0.371625,-0.05377 -0.495898,-0.09679 -0.124273,-0.04302 -0.212698,-0.09679 -0.264081,-0.161316 -0.05138,-0.06453 -0.07767,-0.139808 -0.07767,-0.225843 v -16.94178 c 0,-0.08484 0.02629,-0.162511 0.07767,-0.231817 0.05138,-0.06931 0.139808,-0.127858 0.264081,-0.17446 0.124273,-0.0466 0.289174,-0.08365 0.495898,-0.109934 0.205528,-0.02629 0.468414,-0.03824 0.785072,-0.03824 0.317852,0 0.579543,0.01195 0.785071,0.03824 0.206724,0.02629 0.371625,0.06214 0.495898,0.109934 0.124273,0.0466 0.212699,0.105154 0.264081,0.17446 0.05138,0.06811 0.07767,0.146977 0.07767,0.231817 z m 10.875098,-7.00829 c 0.02629,-0.91054 -0.156536,-1.625111 -0.54728,-2.144907 -0.390743,-0.519797 -0.994185,-0.779098 -1.810325,-0.779098 -0.412253,0 -0.770733,0.07767 -1.075441,0.231818 -0.304708,0.154146 -0.559229,0.36326 -0.759978,0.62495 -0.201944,0.262886 -0.356091,0.571179 -0.46483,0.92727 -0.107544,0.357285 -0.168486,0.737274 -0.18641,1.139967 z m 3.143873,0.927269 c 0,0.395523 -0.08843,0.687087 -0.264081,0.875887 -0.175655,0.1888 -0.419422,0.283199 -0.727715,0.283199 h -6.996344 c 0,0.489923 0.05855,0.934439 0.174461,1.333547 0.115908,0.399108 0.301123,0.73847 0.554449,1.018084 0.253326,0.27842 0.579543,0.491118 0.978652,0.6369 0.400303,0.146977 0.878276,0.218673 1.436311,0.218673 0.566399,0 1.064686,-0.04063 1.494863,-0.121883 0.428981,-0.08126 0.800606,-0.172071 1.113678,-0.270055 0.314268,-0.09918 0.573569,-0.1888 0.779098,-0.27125 0.205528,-0.08126 0.372819,-0.121884 0.501872,-0.121884 l 0.19358,0.04541 0.129052,0.161316 c 0.03346,0.07767 0.05736,0.187605 0.0705,0.328607 l 0.01912,0.535331 -0.01195,0.482753 -0.03943,0.341751 -0.07767,0.237792 -0.135028,0.187605 c -0.05616,0.05975 -0.207919,0.141002 -0.45766,0.244962 -0.249741,0.102764 -0.567594,0.204333 -0.953558,0.302318 -0.385963,0.09798 -0.829284,0.185215 -1.326377,0.256911 -0.498287,0.07289 -1.031228,0.109934 -1.597627,0.109934 -1.022864,0 -1.91787,-0.129053 -2.686212,-0.385964 -0.768343,-0.256911 -1.410023,-0.648849 -1.926235,-1.172231 -0.515016,-0.523381 -0.899785,-1.185375 -1.153111,-1.983591 -0.252132,-0.798216 -0.37999,-1.735044 -0.37999,-2.808096 0,-1.021668 0.133833,-1.942963 0.400303,-2.762688 0.265276,-0.819725 0.652435,-1.516372 1.159087,-2.08755 0.506652,-0.571179 1.123238,-1.00733 1.848563,-1.308453 0.72652,-0.301124 1.543856,-0.450491 2.454396,-0.450491 0.961922,0 1.784037,0.142198 2.467539,0.424202 0.682308,0.283199 1.243927,0.676333 1.681273,1.178205 0.438541,0.503068 0.759978,1.098145 0.966702,1.785232 0.205528,0.687088 0.309488,1.433922 0.309488,2.241697 v 0.515017 z m 10.950376,2.834384 c 0,0.652435 -0.12308,1.228393 -0.366842,1.726681 -0.244962,0.498287 -0.590298,0.915319 -1.037203,1.249901 -0.446906,0.334582 -0.973872,0.585518 -1.584483,0.752809 -0.610612,0.16729 -1.271411,0.250936 -1.983592,0.250936 -0.428981,0 -0.840038,-0.03226 -1.230782,-0.09679 -0.390743,-0.06453 -0.740859,-0.146977 -1.050347,-0.244961 -0.309488,-0.09918 -0.566399,-0.199554 -0.773123,-0.302319 -0.205529,-0.103959 -0.35609,-0.199554 -0.451685,-0.290369 -0.0944,-0.09081 -0.167291,-0.231817 -0.218673,-0.424202 -0.05138,-0.193579 -0.07767,-0.479168 -0.07767,-0.856767 0,-0.249742 0.0084,-0.449296 0.02629,-0.598663 0.01792,-0.150561 0.04302,-0.27125 0.07767,-0.36087 0.03465,-0.09081 0.07767,-0.150562 0.129052,-0.180435 l 0.19358,-0.04541 c 0.0944,0 0.233012,0.05377 0.419422,0.161316 0.185215,0.107544 0.413447,0.225842 0.688282,0.3537 0.274835,0.129053 0.595077,0.249742 0.960727,0.36087 0.364455,0.111129 0.779097,0.167291 1.242732,0.167291 0.292759,0 0.55206,-0.02987 0.779097,-0.09081 0.227038,-0.05975 0.424202,-0.145782 0.592688,-0.256911 0.167291,-0.111128 0.295149,-0.253326 0.381184,-0.425396 0.08484,-0.172071 0.129053,-0.369235 0.129053,-0.592688 0,-0.258106 -0.07887,-0.479168 -0.237792,-0.663188 -0.160121,-0.185215 -0.369235,-0.346531 -0.632121,-0.483949 -0.26169,-0.137417 -0.558034,-0.265275 -0.889031,-0.385964 -0.330997,-0.119493 -0.670358,-0.252131 -1.018084,-0.399108 -0.347726,-0.146977 -0.687087,-0.314267 -1.018084,-0.503067 -0.330997,-0.1888 -0.626146,-0.420617 -0.889031,-0.695452 -0.261691,-0.274835 -0.471999,-0.605832 -0.630925,-0.991795 -0.158927,-0.385964 -0.237792,-0.850794 -0.237792,-1.392099 0,-0.54967 0.107544,-1.053932 0.321437,-1.513982 0.213893,-0.458855 0.523381,-0.851988 0.927269,-1.178205 0.403888,-0.326217 0.896201,-0.579543 1.475744,-0.759978 0.579543,-0.180435 1.230782,-0.270056 1.951328,-0.270056 0.36087,0 0.710986,0.02629 1.050347,0.07767 0.339362,0.05138 0.645265,0.115909 0.921295,0.19358 0.274835,0.07767 0.507847,0.161316 0.695451,0.250936 0.1888,0.08962 0.323828,0.167291 0.405083,0.231817 l 0.174461,0.193579 0.07767,0.231818 0.04541,0.334581 0.01912,0.495898 -0.01912,0.566399 -0.06453,0.347726 -0.121883,0.17446 -0.180435,0.04541 c -0.07767,0 -0.198359,-0.04541 -0.36087,-0.135028 -0.162511,-0.08962 -0.366845,-0.18641 -0.611807,-0.289174 -0.244961,-0.102764 -0.528161,-0.199554 -0.850793,-0.290369 -0.321437,-0.08962 -0.689477,-0.135028 -1.101729,-0.135028 -0.291564,0 -0.546085,0.02987 -0.759979,0.09081 -0.215088,0.05975 -0.390743,0.146977 -0.528161,0.258106 -0.137417,0.111129 -0.240181,0.242572 -0.309488,0.391939 -0.06811,0.150562 -0.102764,0.311878 -0.102764,0.483948 0,0.265276 0.08125,0.489923 0.244962,0.669163 0.162511,0.180436 0.377599,0.339362 0.644069,0.476779 0.266471,0.137418 0.568789,0.265276 0.90815,0.385964 0.339362,0.120688 0.683503,0.250936 1.031229,0.393134 0.347726,0.142197 0.691867,0.307098 1.030033,0.495897 0.339361,0.1888 0.642875,0.420617 0.90815,0.695452 0.266471,0.274835 0.481559,0.603442 0.64407,0.985821 0.162514,0.382379 0.244964,0.835259 0.244964,1.359835 m 14.028523,-1.72668 c 0,0.902176 -0.15654,1.707561 -0.4708,2.414963 -0.31308,0.708596 -0.7552,1.306063 -1.327579,1.791206 -0.57117,0.485144 -1.25826,0.856768 -2.061259,1.113679 -0.80299,0.258106 -1.694409,0.385964 -2.673059,0.385964 -0.516219,0 -1.004949,-0.03107 -1.468579,-0.09679 -0.46363,-0.06453 -0.880669,-0.146977 -1.249899,-0.244961 -0.36924,-0.09918 -0.67275,-0.198359 -0.90815,-0.296344 -0.2366,-0.09918 -0.39075,-0.180435 -0.464829,-0.244962 l -0.16132,-0.212698 -0.0837,-0.277225 -0.0454,-0.405083 -0.0119,-0.579543 c 0,-0.240182 0.008,-0.444515 0.0263,-0.611806 0.0167,-0.167291 0.0454,-0.302318 0.0837,-0.405083 0.0382,-0.102764 0.0836,-0.175655 0.13503,-0.218673 l 0.180429,-0.06453 c 0.086,0 0.21748,0.05019 0.39314,0.148172 0.17565,0.09798 0.40747,0.207918 0.69545,0.328607 0.28798,0.120688 0.638099,0.230622 1.050349,0.328606 0.41225,0.09918 0.90576,0.148172 1.481719,0.148172 0.49829,0 0.95236,-0.05138 1.35983,-0.155341 0.407479,-0.102764 0.752809,-0.26886 1.037209,-0.495898 0.2832,-0.227037 0.50306,-0.512627 0.65721,-0.856768 0.15534,-0.344141 0.23182,-0.756393 0.23182,-1.236757 0,-0.412252 -0.0645,-0.779097 -0.19358,-1.101729 -0.12905,-0.322633 -0.331,-0.595078 -0.60583,-0.818531 -0.27484,-0.223452 -0.63093,-0.390743 -1.069469,-0.501872 -0.43854,-0.111129 -0.97148,-0.167291 -1.597629,-0.167291 -0.49829,0 -0.95236,0.02629 -1.35983,0.07767 -0.407479,0.05138 -0.792249,0.07767 -1.153119,0.07767 -0.24974,0 -0.42659,-0.06214 -0.53413,-0.18641 -0.10755,-0.124273 -0.16132,-0.353701 -0.16132,-0.689477 v -7.240108 c 0,-0.344141 0.0657,-0.591492 0.19956,-0.740859 0.13383,-0.149367 0.34653,-0.224648 0.63809,-0.224648 h 7.897315 c 0.0777,0 0.14937,0.02629 0.21868,0.07767 0.0681,0.05138 0.12666,0.133833 0.17326,0.244962 0.0478,0.111128 0.0824,0.2593 0.10396,0.444515 0.0215,0.185215 0.0323,0.405083 0.0323,0.663189 0,0.515016 -0.0454,0.889031 -0.13623,1.120848 -0.0896,0.231817 -0.21987,0.347726 -0.39194,0.347726 h -5.926866 v 3.568074 c 0.30112,-0.03346 0.599859,-0.05616 0.896199,-0.06453 l 0.93444,-0.01314 c 0.902179,0 1.702779,0.105155 2.401818,0.315463 0.70023,0.210309 1.28933,0.519797 1.764919,0.927269 0.47677,0.407473 0.84003,0.91532 1.08858,1.519957 0.24974,0.605832 0.37282,1.307258 0.37282,2.106669 m 10.644475,-2.82124 c 0,-0.789852 -0.0215,-1.487693 -0.0645,-2.093525 -0.043,-0.605832 -0.10993,-1.131603 -0.19955,-1.577313 -0.0908,-0.446906 -0.20195,-0.824505 -0.33459,-1.133993 -0.13383,-0.309488 -0.29395,-0.555645 -0.48394,-0.740859 -0.1888,-0.185215 -0.40389,-0.315463 -0.64407,-0.393134 -0.24019,-0.07767 -0.50785,-0.115909 -0.79822,-0.115909 -0.50785,0 -0.924879,0.123079 -1.255879,0.366845 -0.33099,0.244962 -0.59268,0.611807 -0.78626,1.10173 -0.19358,0.489923 -0.32861,1.099339 -0.405089,1.829444 -0.0777,0.730105 -0.1159,1.580899 -0.1159,2.551185 0,1.18418 0.0466,2.166416 0.14219,2.943124 0.0944,0.777902 0.242569,1.396878 0.444519,1.855733 0.20075,0.458855 0.46124,0.781487 0.7791,0.966702 0.31785,0.185215 0.700229,0.277225 1.147129,0.277225 0.33458,0 0.63093,-0.05377 0.88903,-0.161317 0.25811,-0.108739 0.48395,-0.26886 0.67634,-0.483948 0.19358,-0.213893 0.3537,-0.485143 0.48275,-0.81136 0.12905,-0.326218 0.23421,-0.705012 0.31546,-1.133993 0.0813,-0.428982 0.13742,-0.91532 0.16729,-1.45543 0.0299,-0.541306 0.0454,-1.138773 0.0454,-1.791207 m 3.41393,-0.167291 c 0,1.332352 -0.10755,2.533261 -0.32263,3.607507 -0.2139,1.074246 -0.56521,1.988371 -1.04916,2.74357 -0.48514,0.756393 -1.11726,1.334741 -1.89397,1.739824 -0.7779,0.403888 -1.72907,0.605832 -2.8547,0.605832 -1.142349,0 -2.087549,-0.194775 -2.833188,-0.586713 -0.74683,-0.390744 -1.340709,-0.953558 -1.778059,-1.688442 -0.43854,-0.73369 -0.74564,-1.631086 -0.92129,-2.692188 -0.17566,-1.061101 -0.26408,-2.260815 -0.26408,-3.600337 0,-1.321597 0.10993,-2.522506 0.3286,-3.600337 0.21868,-1.076636 0.57238,-1.994346 1.05633,-2.750739 0.485139,-0.755199 1.116069,-1.334742 1.893969,-1.73863 0.777899,-0.403888 1.724289,-0.605831 2.841548,-0.605831 1.14236,0 2.08875,0.194774 2.84036,0.585517 0.75161,0.390744 1.34669,0.953558 1.78404,1.688443 0.43854,0.733689 0.74325,1.63228 0.91532,2.692187 0.17207,1.061102 0.2581,2.260816 0.2581,3.600337"
       id="path1163"
       style="stroke-width:1.19493" />
    <path
       d="m -32.246512,11.905084 5.612606,5.532547 c 2.008685,1.978811 4.778543,2.875012 7.408593,2.399428 3.09488,-0.559229 5.544495,-2.786587 6.396484,-5.810966 0.846013,-3.00765 -0.04063,-6.0427834 -2.37314,-8.1195796 -1.350276,-1.203299 -3.108024,-1.9286238 -4.950613,-2.0397527 -2.489048,-0.1529516 -4.735524,0.7838767 -6.849363,2.8678429 l -5.245762,5.1716754 z M -48.519129,3.8512266 c -2.10189,0 -4.202584,0.7886568 -5.803796,2.3659698 -1.542661,1.5211522 -2.392259,3.5405904 -2.392259,5.6878876 0,2.147297 0.849598,4.166737 2.392259,5.686693 l 5.753609,5.769143 11.624322,-11.457031 -5.769144,-5.6878876 c -1.600017,-1.577313 -3.701906,-2.3659698 -5.803796,-2.3659698 z m 13.893502,38.1626194 -13.962808,-14.002241 -3.109219,3.065007 c -0.64885,0.63929 -1.692028,0.630925 -2.331317,-0.01673 -0.63929,-0.64885 -0.632121,-1.692027 0.01673,-2.331317 l 3.09488,-3.050668 -5.729711,-5.746439 c -2.165221,-2.135348 -3.364935,-4.988851 -3.364935,-8.026375 0,-3.0363282 1.199714,-5.8922216 3.374495,-8.0371283 4.478614,-4.41289274 11.762934,-4.41169784 16.239158,0 l 5.803796,5.7213461 4.169127,-4.1093794 c 0.417032,-0.411058 0.791046,-0.780292 1.143552,-1.0622969 l -0.03226,-0.032263 c 2.779417,-2.7399846 5.932849,-4.01856444 9.365895,-3.81184074 2.577473,0.1577313 5.042623,1.17701034 6.942569,2.86903744 3.2466359,2.8917412 4.5311909,7.2890998 3.3529849,11.4761498 -1.1961289,4.249187 -4.6375399,7.377525 -8.9823209,8.163792 -3.686372,0.670358 -7.541231,-0.562814 -10.312284,-3.295629 l -5.64726,-5.566005 -11.64344,11.477345 11.674509,11.707967 9.806826,-9.331242 c 0.624951,-0.595078 1.621526,-0.687088 2.275155,-0.125469 0.751614,0.647655 0.765953,1.782843 0.06572,2.449616 L -34.62443,42.016235 Z"
       id="path1165"
       style="stroke-width:1.19493" />
  </g>
</svg>
