<?xml version="1.0" encoding="UTF-8" standalone="no"?>
<svg
   height="48"
   viewBox="0 96 960 960"
   width="48"
   version="1.1"
   id="svg577"
   sodipodi:docname="network_check_FILL0_wght400_GRAD0_opsz48.svg"
   inkscape:version="1.2.2 (b0a84865, 2022-12-01)"
   xmlns:inkscape="http://www.inkscape.org/namespaces/inkscape"
   xmlns:sodipodi="http://sodipodi.sourceforge.net/DTD/sodipodi-0.dtd"
   xmlns="http://www.w3.org/2000/svg"
   xmlns:svg="http://www.w3.org/2000/svg">
  <defs
     id="defs581" />
  <sodipodi:namedview
     id="namedview579"
     pagecolor="#ffffff"
     bordercolor="#000000"
     borderopacity="0.25"
     inkscape:showpageshadow="2"
     inkscape:pageopacity="0.0"
     inkscape:pagecheckerboard="0"
     inkscape:deskcolor="#d1d1d1"
     showgrid="false"
     inkscape:zoom="21.395833"
     inkscape:cx="14.06816"
     inkscape:cy="19.653359"
     inkscape:window-width="2318"
     inkscape:window-height="1205"
     inkscape:window-x="0"
     inkscape:window-y="25"
     inkscape:window-maximized="0"
     inkscape:current-layer="svg577" />
  <path
     d="M63 519 0 456q93-95 218-147.5T480 256q24 0 54 1.5t62 5.5l-42 86q-18-2-36-2.5t-38-.5q-119 0-225.5 46T63 519Zm123 118-63-63q69-67 165.5-102T508 445l-39 81q-77-2-154.5 29T186 637Zm258 255q-27-11-39.5-41t1.5-59l237-490q3-7 10.5-10t15.5-1q8 2 13 9t3 15L547 850q-8 32-41 42.5t-62-.5Zm330-255q-16-17-44.5-37T681 571l21-86q35 12 73 38.5t62 50.5l-63 63Zm123-118q-39-38-85-69t-88-50l22-90q65 27 116 63.5t98 82.5l-63 63Z"
     id="path575"
     style="fill:#ffffff" />
</svg>
