<?xml version="1.0" encoding="UTF-8" standalone="no"?>
<svg
   xmlns:dc="http://purl.org/dc/elements/1.1/"
   xmlns:cc="http://creativecommons.org/ns#"
   xmlns:rdf="http://www.w3.org/1999/02/22-rdf-syntax-ns#"
   xmlns:svg="http://www.w3.org/2000/svg"
   xmlns="http://www.w3.org/2000/svg"
   xmlns:sodipodi="http://sodipodi.sourceforge.net/DTD/sodipodi-0.dtd"
   xmlns:inkscape="http://www.inkscape.org/namespaces/inkscape"
   width="160"
   height="49"
   viewBox="0 0 160 49"
   version="1.1"
   id="svg33"
   sodipodi:docname="topbaise.svg"
   inkscape:version="1.0.1 (c497b03c, 2020-09-10)">
  <metadata
     id="metadata39">
    <rdf:RDF>
      <cc:Work
         rdf:about="">
        <dc:format>image/svg+xml</dc:format>
        <dc:type
           rdf:resource="http://purl.org/dc/dcmitype/StillImage" />
        <dc:title></dc:title>
      </cc:Work>
    </rdf:RDF>
  </metadata>
  <defs
     id="defs37" />
  <sodipodi:namedview
     pagecolor="#ffffff"
     bordercolor="#666666"
     borderopacity="1"
     objecttolerance="10"
     gridtolerance="10"
     guidetolerance="10"
     inkscape:pageopacity="0"
     inkscape:pageshadow="2"
     inkscape:window-width="748"
     inkscape:window-height="480"
     id="namedview35"
     showgrid="false"
     inkscape:zoom="3.0603482"
     inkscape:cx="67"
     inkscape:cy="20"
     inkscape:window-x="0"
     inkscape:window-y="25"
     inkscape:window-maximized="0"
     inkscape:current-layer="svg33" />
  <style
     id="style10">.st0,.st2{fill-rule:evenodd;clip-rule:evenodd}.st0{fill:#034751}.st2{fill-opacity:.3}</style>
  <path
     class="st0"
     d="m 73.890127,5.3267602 c 8,0 14.5,8.4999998 14.5,18.9999998 0,10.5 -6.5,19 -14.5,19 -8,0 -14.5,-8.5 -14.5,-19 0,-10.5 6.5,-18.9999998 14.5,-18.9999998 z"
     id="path12" />
  <linearGradient
     id="SVGID_1_"
     gradientUnits="userSpaceOnUse"
     x1="73.300003"
     y1="20.5"
     x2="46.299999"
     y2="20.5"
     gradientTransform="matrix(1,0,0,-1,14.090127,44.32676)">
    <stop
       offset="0"
       stop-color="#9b0f0f"
       id="stop14" />
    <stop
       offset=".493"
       stop-color="#de3737"
       id="stop16" />
    <stop
       offset="1"
       stop-color="#9b0f0f"
       id="stop18" />
  </linearGradient>
  <path
     d="m 73.890127,6.3267602 c 7.5,0 13.5,7.7999998 13.5,17.4999998 0,9.7 -6,17.5 -13.5,17.5 -7.5,0 -13.5,-7.8 -13.5,-17.5 0,-9.7 6,-17.4999998 13.5,-17.4999998 z"
     fill-rule="evenodd"
     clip-rule="evenodd"
     fill="url(#SVGID_1_)"
     id="path21"
     style="fill:url(#SVGID_1_)" />
  <path
     class="st2"
     d="m 74.990127,28.52676 c 0.8,-0.8 2.9,-2.2 4.6,-7.2 0.1,-0.5 0.5,-0.7 0.3,0.2 -0.6,3 -3.2,6.3 -4.9,7 -0.1,0.1 -0.2,0.2 0,0 z m 8.3,-4 c -0.6,-0.6 -1.1,-1.1 -1.5,-1.8 0.2,-0.2 0.4,-0.3 0.5,-0.5 -0.2,0 -0.4,0.1 -0.5,0 -0.1,-0.6 -0.3,-1.4 -1.2,-1.3 2.8,-0.5 3.1,-2.3 2.3,-3.7 -0.7,-1.4 -2.7,-1.9 -4.5,-0.6 -2.9,-2.4 -7.8,-1.3 -10,1.7 -2.1,2.9 -1.1,6 -0.6,8.2 0.2,1.1 0.7,3.4 -1.2,2.9 -1,-0.2 -1.2,-1.4 0,-2 0.4,-0.2 0.3,-0.6 0,-0.7 -2.7,-1 -5.1,2.2 -4,5 0.5,1.3 1.9,2.1 3.4,2.4 3.3,0.6 5.9,-1 7.8,-3.4 -0.8,2 -2,2.4 -2.9,3.1 1.3,1.2 5.4,3.4 7.8,3.3 -1,-1.4 -2.6,-3.3 -1.5,-6 1.5,-3.8 1.7,-2 3.9,-2.4 1.6,-0.3 0.8,-0.6 1.2,-1.6 0.2,-0.5 0.3,-0.2 0.4,-0.8 0.1,-0.4 -0.2,-0.5 0,-1 0.2,-0.4 1,-0.4 0.6,-0.8 z"
     id="path23" />
  <path
     class="st2"
     d="m 74.990127,27.52676 c 0.8,-0.8 2.9,-2.2 4.6,-7.2 0.1,-0.5 0.5,-0.7 0.3,0.2 -0.6,3 -3.2,6.3 -4.9,7 -0.1,0.1 -0.2,0.2 0,0 z m 8.3,-4 c -0.6,-0.6 -1.1,-1.1 -1.5,-1.8 0.2,-0.2 0.4,-0.3 0.5,-0.5 -0.2,0 -0.4,0.1 -0.5,0 -0.1,-0.6 -0.3,-1.4 -1.2,-1.3 2.8,-0.5 3.1,-2.3 2.3,-3.7 -0.7,-1.4 -2.7,-1.9 -4.5,-0.6 -2.9,-2.4 -7.8,-1.3 -10,1.7 -2.1,2.9 -1.1,6 -0.6,8.2 0.2,1.1 0.7,3.4 -1.2,2.9 -1,-0.2 -1.2,-1.4 0,-2 0.4,-0.2 0.3,-0.6 0,-0.7 -2.7,-1 -5.1,2.2 -4,5 0.5,1.3 1.9,2.1 3.4,2.4 3.3,0.6 5.9,-1 7.8,-3.4 -0.8,2 -2,2.4 -2.9,3.1 1.3,1.2 5.4,3.4 7.8,3.3 -1,-1.4 -2.6,-3.3 -1.5,-6 1.5,-3.8 1.7,-2 3.9,-2.4 1.6,-0.3 0.8,-0.6 1.2,-1.6 0.2,-0.5 0.3,-0.2 0.4,-0.8 0.1,-0.4 -0.2,-0.5 0,-1 0.2,-0.4 1,-0.4 0.6,-0.8 z"
     id="path25" />
  <path
     d="m 74.990127,26.52676 c 0.8,-0.8 2.9,-2.2 4.6,-7.2 0.1,-0.5 0.5,-0.7 0.3,0.2 -0.6,3 -3.2,6.3 -4.9,7 -0.1,0.1 -0.2,0.2 0,0 z m 8.3,-4 c -0.6,-0.6 -1.1,-1.1 -1.5,-1.8 0.2,-0.2 0.4,-0.3 0.5,-0.5 -0.2,0 -0.4,0.1 -0.5,0 -0.1,-0.6 -0.3,-1.4 -1.2,-1.3 2.8,-0.5 3.1,-2.3 2.3,-3.7 -0.7,-1.4 -2.7,-1.9 -4.5,-0.6 -2.9,-2.4 -7.8,-1.3 -10,1.7 -2.1,2.9 -1.1,6 -0.6,8.2 0.2,1.1 0.7,3.4 -1.2,2.9 -1,-0.2 -1.2,-1.4 0,-2 0.4,-0.2 0.3,-0.6 0,-0.7 -2.7,-1 -5.1,2.2 -4,5 0.5,1.3 1.9,2.1 3.4,2.4 3.3,0.6 5.9,-1 7.8,-3.4 -0.8,2 -2,2.4 -2.9,3.1 1.3,1.2 5.4,3.4 7.8,3.3 -1,-1.4 -2.6,-3.3 -1.5,-6 1.5,-3.8 1.7,-2 3.9,-2.4 1.6,-0.3 0.8,-0.6 1.2,-1.6 0.2,-0.5 0.3,-0.2 0.4,-0.8 0.1,-0.4 -0.2,-0.5 0,-1 0.2,-0.4 1,-0.4 0.6,-0.8 z"
     fill-rule="evenodd"
     clip-rule="evenodd"
     fill="#ffffff"
     id="path27" />
  <path
     d="m 74.990127,4.3267602 c -0.5,0 -0.9,0.2 -1.1,0.5 -0.2,-0.3 -0.6,-0.5 -1.1,-0.5 -0.7,0 -1.7,0.5 -1.3,1.9 0.5,1.3 2.4,2.1 2.4,2.1 0,0 1.9,-0.8 2.4,-2.1 0.4,-1.4 -0.6,-1.9 -1.3,-1.9 z m 0.4,33.9999998 c -0.7,0 -1.3,0.3 -1.5,0.8 -0.3,-0.5 -0.9,-0.8 -1.6,-0.8 -1,0 -2.4,0.8 -1.8,2.8 0.7,2 3.4,3.2 3.4,3.2 0,0 2.6,-1.2 3.4,-3.2 0.6,-2 -0.8,-2.8 -1.9,-2.8 z"
     fill="#034751"
     id="path29" />
  <path
     class="st0"
     d="m 147.79013,30.42676 v 3.3 h -9.7 v -15.6 h 9.6 v 3.2 h -6 v 2.8 h 5.1 v 3.2 h -5.1 v 3.1 z m -18,3.8 c -0.6,0 -1.2,-0.1 -1.9,-0.2 -0.7,-0.1 -1.4,-0.3 -2.2,-0.6 l -0.3,-4.2 c 1,0.6 1.8,1 2.4,1.2 0.7,0.2 1.3,0.4 2,0.4 0.6,0 1.2,-0.1 1.6,-0.4 0.4,-0.3 0.6,-0.6 0.6,-1.1 0,-0.6 -0.7,-1.4 -2.1,-2.1 -0.2,-0.1 -0.4,-0.2 -0.5,-0.3 l -1.1,-0.6 c -1,-0.6 -1.8,-1.2 -2.3,-2 -0.5,-0.7 -0.7,-1.6 -0.7,-2.5 0,-1.3 0.5,-2.3 1.4,-3.1 0.9,-0.8 2.2,-1.2 3.7,-1.2 0.6,0 1.1,0.1 1.8,0.2 0.6,0.1 1.4,0.3 2.1,0.6 v 3.7 c -0.8,-0.5 -1.5,-0.8 -2.1,-1.1 -0.7,-0.3 -1.2,-0.4 -1.7,-0.4 -0.5,0 -0.9,0.1 -1.2,0.3 -0.3,0.2 -0.5,0.5 -0.5,0.9 0,0.3 0.1,0.5 0.3,0.8 0.2,0.2 0.4,0.5 0.8,0.6 l 1.8,1 c 1.5,0.8 2.6,1.6 3.1,2.3 0.5,0.7 0.8,1.6 0.8,2.5 0,1.5 -0.5,2.7 -1.6,3.7 -1.1,1.1 -2.5,1.6 -4.2,1.6 z m -11.1,-16.1 h 3.7 v 15.6 h -3.7 z m -6.1,13.3 h -6.3 l -1,2.3 h -3.7 l 7.9,-16.1 h 0.2 l 7.8,16.1 h -3.9 z m -3.2,-7.6 -2,4.9 h 4.1 z m -8.1,5.3 c 0,1.5 -0.6,2.6 -1.7,3.4 -1.1,0.8 -2.7,1.1 -4.9,1.1 h -4.200003 v -15.5 h 4.800003 c 1.8,0 3.2,0.3 4.1,1 0.9,0.7 1.4,1.6 1.4,2.9 0,0.8 -0.2,1.5 -0.6,2 -0.4,0.6 -1.1,1 -1.9,1.3 0.9,0.2 1.7,0.7 2.2,1.3 0.5,0.7 0.8,1.6 0.8,2.5 z m -4.4,-8 c -0.4,-0.3 -1,-0.4 -1.8,-0.4 h -1.100003 v 3.5 h 1.200003 c 0.7,0 1.3,-0.2 1.7,-0.5 0.4,-0.3 0.6,-0.8 0.6,-1.3 -0.1,-0.6 -0.2,-1 -0.6,-1.3 z m 0.3,6.2 c -0.4,-0.3 -1,-0.5 -1.8,-0.5 h -1.500003 v 4 h 1.500003 c 0.7,0 1.3,-0.2 1.8,-0.5 0.4,-0.4 0.6,-0.9 0.6,-1.5 0,-0.6 -0.2,-1.1 -0.6,-1.5 z m -45.500003,0.3 h -0.8 v 5.7 h -3.7 v -15.6 h 4 c 1.2,0 2.2,0.1 2.9,0.3 0.7,0.2 1.4,0.5 1.9,0.9 0.6,0.4 1,1 1.3,1.6 0.3,0.6 0.5,1.3 0.5,2 0,1.6 -0.6,2.8 -1.7,3.7 -0.9,1 -2.4,1.4 -4.4,1.4 z m 2.1,-6.5 c -0.5,-0.3 -1.3,-0.5 -2.3,-0.5 h -0.5 v 4.2 h 0.7 c 0.9,0 1.7,-0.2 2.1,-0.5 0.5,-0.4 0.7,-0.9 0.7,-1.6 0.1,-0.8 -0.2,-1.3 -0.7,-1.6 z m -10.7,9.5 c -0.8,1 -1.7,1.8 -2.8,2.4 -1.1,0.6 -2.3,0.8 -3.5,0.8 -1.1,0 -2.1,-0.2 -3,-0.6 -1,-0.4 -1.8,-1 -2.6,-1.8 -0.8,-0.8 -1.4,-1.7 -1.8,-2.7 -0.4,-1 -0.6,-2.1 -0.6,-3.2 0,-1.2 0.2,-2.2 0.6,-3.2 0.4,-1 1,-1.9 1.8,-2.7 0.7,-0.8 1.6,-1.3 2.5,-1.7 1,-0.4 2,-0.6 3,-0.6 1.1,0 2.1,0.2 3,0.6 1,0.4 1.8,1 2.6,1.8 0.8,0.8 1.3,1.7 1.7,2.7 0.4,1 0.6,2.1 0.6,3.3 0,1 -0.1,1.9 -0.4,2.8 -0.2,0.6 -0.6,1.4 -1.1,2.1 z m -3.4,-8.5 c -0.8,-0.9 -1.8,-1.4 -2.9,-1.4 -1.2,0 -2.1,0.5 -2.9,1.4 -0.8,0.9 -1.2,2.1 -1.2,3.4 0,1.4 0.4,2.5 1.2,3.4 0.8,0.9 1.8,1.4 2.9,1.4 1.2,0 2.1,-0.5 2.9,-1.4 0.8,-0.9 1.2,-2 1.2,-3.4 0,-1.4 -0.4,-2.5 -1.2,-3.4 z m -16.6,11.2 h -3.7 v -12.3 h -5 v -3.3 h 13.6 v 3.3 h -4.9 z"
     id="path31" />
</svg>
