<?xml version="1.0" encoding="UTF-8" standalone="no"?>
<svg
   width="250"
   height="100"
   viewBox="0 0 250 100"
   fill="none"
   version="1.1"
   id="svg3926"
   sodipodi:docname="touslesdeux.svg"
   inkscape:version="1.2 (dc2aeda, 2022-05-15)"
   xmlns:inkscape="http://www.inkscape.org/namespaces/inkscape"
   xmlns:sodipodi="http://sodipodi.sourceforge.net/DTD/sodipodi-0.dtd"
   xmlns="http://www.w3.org/2000/svg"
   xmlns:svg="http://www.w3.org/2000/svg">
  <sodipodi:namedview
     id="namedview3928"
     pagecolor="#ffffff"
     bordercolor="#000000"
     borderopacity="0.25"
     inkscape:showpageshadow="2"
     inkscape:pageopacity="0.0"
     inkscape:pagecheckerboard="0"
     inkscape:deskcolor="#d1d1d1"
     showgrid="false"
     inkscape:zoom="2.57"
     inkscape:cx="82.29572"
     inkscape:cy="23.151751"
     inkscape:window-width="1512"
     inkscape:window-height="857"
     inkscape:window-x="0"
     inkscape:window-y="38"
     inkscape:window-maximized="1"
     inkscape:current-layer="svg3926" />
  <path
     fill-rule="evenodd"
     clip-rule="evenodd"
     d="m 97.523131,44.609146 c 0.918647,0.131612 1.968905,0.394834 2.887549,0.656741 0.91865,0.263222 1.83861,0.65674 2.62565,1.050258 0.78835,0.525129 1.31348,1.050257 1.83861,1.837293 0.52513,0.788351 0.65542,1.706998 0.65542,2.888867 0,1.312164 -0.26322,2.362422 -0.91865,3.150774 -0.65674,0.918647 -1.31216,1.575387 -2.23212,2.100516 a 12.042431,12.042431 0 0 1 -3.019166,1.181869 c -1.181869,0.263222 -2.232127,0.393518 -3.282385,0.393518 -1.050258,0 -2.100516,-0.131612 -3.150773,-0.263223 -1.050258,-0.263223 -2.100516,-0.525129 -3.019163,-1.050258 a 8.5968479,8.5968479 0 0 1 -2.362422,-1.968904 c -0.658056,-0.787036 -0.919963,-1.837294 -1.050258,-3.019163 0,-0.131611 0.131611,-0.394834 0.261906,-0.526445 0.131612,-0.130295 0.263223,-0.130295 0.525129,-0.130295 h 4.595866 c 0.131611,0 0.131611,0 0.261906,0.131611 0.131611,0.131611 0.263223,0.263223 0.525129,0.394834 0.394834,0.655424 0.787036,1.048942 1.443776,1.312164 0.65674,0.263223 1.31348,0.393518 2.100516,0.393518 h 1.050257 c 0.394834,0 0.788352,-0.131611 1.18187,-0.263223 0.394833,-0.131611 0.65674,-0.393517 0.918646,-0.525129 0.263223,-0.263222 0.394834,-0.655424 0.394834,-1.050257 0,-0.525129 -0.263222,-0.918647 -0.658056,-1.180553 -0.393518,-0.263223 -0.918647,-0.394834 -1.312165,-0.526446 -0.394833,-0.131611 -0.787035,-0.261906 -1.312164,-0.393517 -0.526445,-0.131612 -1.050258,-0.263223 -1.706998,-0.393518 -0.918647,-0.131611 -1.838609,-0.394834 -2.757256,-0.787035 -0.918647,-0.263223 -1.706998,-0.658057 -2.362422,-1.181869 -0.658057,-0.526446 -1.313481,-1.18187 -1.706998,-1.83861 a 6.1014983,6.1014983 0 0 1 -0.656741,-2.75594 c 0,-1.31348 0.394834,-2.495349 1.18187,-3.545607 0.787035,-0.918647 1.706998,-1.705682 3.019162,-2.230811 1.31348,-0.526445 2.888867,-0.788352 4.594549,-0.788352 0.658057,0 1.445092,0 2.100516,0.131612 0.788352,0.131611 1.445092,0.263222 2.100515,0.525128 0.65806,0.263223 1.31348,0.656741 1.97022,1.050258 0.65543,0.394834 1.18056,0.918647 1.57539,1.575387 0.65542,0.918647 1.05026,1.837294 1.18055,2.757256 0,0.131612 -0.13161,0.263223 -0.26322,0.525129 -0.1303,0.131611 -0.26191,0.263223 -0.3922,0.263223 h -4.33396 c -0.394835,0 -0.788353,-0.131612 -1.05026,-0.526445 -0.131611,-0.394834 -0.394833,-0.787036 -0.918646,-1.050258 -0.526445,-0.263223 -1.181869,-0.394834 -1.970221,-0.394834 h -0.918646 c -0.263223,0 -0.656741,0.131611 -0.918647,0.263223 -0.263223,0.131611 -0.526445,0.394833 -0.65674,0.526445 -0.131612,0.261906 -0.263223,0.523812 -0.263223,0.918646 0,0.525129 0.263223,1.050258 0.919963,1.443776 0.394834,0.263222 1.575387,0.525129 3.282385,0.918646 z M 81.111206,55.900077 c -0.787035,0.655424 -1.837293,1.180553 -3.019162,1.575387 -1.180553,0.393518 -2.494034,0.525129 -3.806198,0.525129 -1.445092,0 -2.625645,-0.131611 -3.807514,-0.526445 C 69.296463,57.08063 68.246205,56.687112 67.459169,55.900077 66.670818,55.242021 66.015394,54.32469 65.490265,53.274432 64.96382,52.224174 64.832209,50.910694 64.832209,49.466918 V 38.701117 c 0,-0.393518 0.131611,-0.787036 0.263222,-1.180553 0.131611,-0.394834 0.394834,-0.658057 0.65674,-0.788352 0.263223,-0.263222 0.525129,-0.394834 0.918647,-0.525129 0.263222,-0.131611 0.65674,-0.131611 0.919963,-0.131611 h 2.362422 c 0.263222,0 0.394834,0.131611 0.525129,0.263222 0.131611,0.131612 0.263222,0.394834 0.263222,0.525129 v 12.603095 c 0,1.181869 0.261907,2.100516 0.787036,2.757256 0.525129,0.655424 1.443775,1.050258 2.757256,1.050258 1.312164,0 2.100516,-0.394834 2.75594,-1.050258 0.526445,-0.658056 0.788351,-1.575387 0.788351,-2.757256 v -10.63419 c 0,-0.394834 0.131611,-0.787035 0.263223,-1.181869 0.131611,-0.393518 0.393517,-0.655424 0.655424,-0.787036 0.263222,-0.263222 0.526445,-0.394833 0.919963,-0.526445 0.261906,-0.130295 0.655424,-0.130295 0.918646,-0.130295 h 2.362422 c 0.263223,0 0.394834,0.131611 0.526446,0.263223 0.130295,0.131611 0.261906,0.393517 0.261906,0.525129 V 49.59853 a 10.97638,10.97638 0 0 1 -0.65674,3.806197 c -0.525129,0.919963 -1.181869,1.83861 -1.968905,2.49535 z m -22.448934,0 c -1.705682,1.443776 -4.06942,2.100516 -7.088582,2.100516 -3.019163,0 -5.25129,-0.658057 -6.958288,-2.100516 -1.706998,-1.445092 -2.625645,-3.545608 -2.757256,-6.301547 v -5.382901 c 0.131611,-2.757256 1.050258,-4.856456 2.757256,-6.301548 1.706998,-1.443775 4.06942,-2.232127 6.958288,-2.232127 2.887551,0 5.251289,0.788352 6.958287,2.232127 1.705682,1.443776 2.625645,3.544292 2.75594,6.301548 v 5.382901 c -0.131611,2.755939 -0.918646,4.856455 -2.625645,6.301547 z M 55.249592,44.34724 c 0,-1.31348 -0.394834,-2.363738 -1.050258,-3.020479 -0.65674,-0.655424 -1.575387,-0.918646 -2.625644,-0.918646 -1.050258,0 -1.968905,0.263222 -2.625645,0.918646 -0.65674,0.658057 -1.050258,1.706999 -1.050258,3.020479 v 5.119678 c 0,1.312165 0.394834,2.362423 1.050258,3.019163 0.65674,0.65674 1.575387,0.918646 2.625645,0.918646 1.050257,0 1.968904,-0.263222 2.625644,-0.918646 0.656741,-0.65674 1.050258,-1.706998 1.050258,-3.019163 z M 39.232501,41.064855 h -7.220194 c 0.394834,0 0.918647,0.131611 1.181869,0.525129 0.393518,0.394834 0.525129,0.65674 0.525129,1.050258 v 14.178482 c 0,0.263222 -0.131611,0.394833 -0.263222,0.525129 -0.131612,0.131611 -0.393518,0.263222 -0.525129,0.263222 h -4.331327 c -0.263223,0 -0.394834,-0.131611 -0.526445,-0.263222 -0.131611,-0.131612 -0.261907,-0.263223 -0.261907,-0.526445 V 41.986134 c 0,-0.263223 -0.131611,-0.526445 -0.263222,-0.658056 -0.131611,-0.131612 -0.393518,-0.263223 -0.655424,-0.263223 h -4.59455 c -0.263222,0 -0.394833,-0.130295 -0.526445,-0.261906 -0.131611,-0.131612 -0.261906,-0.263223 -0.261906,-0.525129 v -1.575387 c 0,-0.393518 0.131611,-0.787036 0.263223,-1.050258 0.131611,-0.393518 0.393517,-0.655424 0.655424,-0.787035 0.263222,-0.263223 0.526445,-0.394834 0.919962,-0.526446 0.261907,-0.130295 0.655424,-0.130295 1.050258,-0.130295 h 15.095813 c 0.263222,0 0.394833,0.131612 0.526445,0.263223 0.131611,0.131611 0.263222,0.393518 0.263222,0.525129 v 3.41268 c 0,0.263222 -0.131611,0.394834 -0.263222,0.526445 -0.263223,0 -0.526445,0.130295 -0.788352,0.130295 z"
     fill="url(#a)"
     id="path3892"
     style="fill:url(#a);stroke-width:1.31611" />
  <path
     fill-rule="evenodd"
     clip-rule="evenodd"
     d="m 228.67376,57.475464 c -0.13029,0.131611 -0.39352,0.263222 -0.52513,0.263222 h -16.40929 c -0.26322,0 -0.39483,-0.131611 -0.52513,-0.263222 -0.13161,-0.131611 -0.26322,-0.394834 -0.26322,-0.526445 v -2.362422 c 0,-0.656741 0.26322,-1.18187 0.78835,-1.575387 1.18055,-1.050258 2.36242,-1.968905 3.28107,-2.887551 0.65674,-0.526446 1.05026,-0.919963 1.44509,-1.313481 0.39352,-0.263222 0.78703,-0.65674 1.05026,-0.918647 0.39352,-0.263222 0.65542,-0.526445 0.91864,-0.788351 0.26191,-0.263223 0.52513,-0.393518 0.65674,-0.525129 0.26191,-0.263223 0.65543,-0.525129 0.91865,-0.787035 0.39352,-0.263223 0.65674,-0.656741 1.05026,-1.050258 l 0.78703,-1.181869 c 0.26323,-0.394834 0.39484,-0.787036 0.39484,-1.18187 0,-1.575386 -0.78835,-2.362422 -2.36374,-2.362422 -0.78704,0 -1.44378,0.263223 -1.83729,0.787036 -0.39484,0.526445 -0.78836,1.050257 -0.91997,1.838609 -0.13029,0.525129 -0.52513,0.65674 -1.05025,0.65674 h -4.20104 c -0.13029,0 -0.39351,0 -0.52512,-0.131611 -0.1303,-0.131611 -0.26191,-0.263223 -0.26191,-0.526445 0,-1.180553 0.26191,-2.230811 0.78703,-3.149458 0.52513,-0.918646 1.18187,-1.706998 1.97022,-2.232127 0.78704,-0.65674 1.70569,-1.050258 2.75594,-1.443775 1.05026,-0.263223 2.10052,-0.526446 3.15078,-0.526446 1.05026,0 2.10051,0.131612 3.15077,0.394834 1.05026,0.263223 1.97022,0.65674 2.75726,1.181869 0.78835,0.525129 1.44377,1.18187 1.83861,2.100516 0.52513,0.787036 0.65542,1.837294 0.65542,3.019163 0,1.575387 -0.52513,2.888867 -1.44377,4.06942 -0.13162,0.131611 -0.26191,0.394834 -0.52513,0.658056 l -0.91865,0.917331 -1.05026,1.050258 c -0.39352,0.394834 -0.78835,0.788351 -1.18187,1.050258 a 33.697749,33.697749 0 0 1 -3.15077,2.757256 h 8.00855 c 0.2619,0 0.39351,0.131611 0.52512,0.263222 0.13162,0.131612 0.26191,0.263223 0.26191,0.525129 v 3.281069 c 0.26322,0.658056 0.26322,0.788352 0,0.919963 z m -23.23597,-0.919963 c -0.91996,0.526445 -1.97022,0.919963 -3.15077,1.181869 -1.18187,0.263223 -2.23213,0.263223 -3.28239,0.263223 -1.05026,0 -2.10051,-0.131611 -3.15077,-0.263223 -1.05026,-0.263222 -2.10052,-0.525129 -3.01916,-1.050258 a 8.5915835,8.5915835 0 0 1 -2.36374,-1.968904 c -0.65674,-0.788352 -0.91865,-1.83861 -1.05026,-3.019163 0,-0.131611 0.13161,-0.394833 0.26322,-0.526445 0.1303,-0.131611 0.26191,-0.131611 0.52513,-0.131611 h 4.59455 c 0.13161,0 0.13161,0 0.26191,0.131611 0.13161,0.131612 0.26322,0.263223 0.52513,0.394834 0.39483,0.65674 0.78835,1.050258 1.44509,1.312164 0.65542,0.263223 1.31216,0.394834 2.10051,0.394834 h 1.05026 c 0.39352,0 0.78704,-0.131611 1.18056,-0.263222 0.39483,-0.131612 0.65674,-0.394834 0.91996,-0.656741 0.2619,-0.263222 0.39352,-0.655424 0.39352,-1.050257 0,-0.525129 -0.26323,-0.918647 -0.65674,-1.180553 -0.39352,-0.263223 -0.91865,-0.394834 -1.31217,-0.658057 -0.39483,-0.130295 -0.78835,-0.261906 -1.31348,-0.392201 -0.52513,-0.131612 -1.05026,-0.263223 -1.707,-0.394834 -0.91864,-0.131611 -1.9689,-0.393518 -2.75594,-0.787036 -0.91996,-0.263222 -1.707,-0.65674 -2.36374,-1.181869 -0.65674,-0.525129 -1.31216,-1.181869 -1.70699,-1.837293 a 6.1067628,6.1067628 0 0 1 -0.65543,-2.757256 c 0,-1.31348 0.39352,-2.494034 1.18055,-3.544291 0.78836,-1.050258 1.83861,-1.706999 3.02048,-2.232128 1.31217,-0.526445 2.88755,-0.788351 4.59455,-0.788351 0.65674,0 1.44378,0 2.23213,0.131611 0.78704,0.131612 1.44378,0.263223 2.23081,0.526445 0.65674,0.261907 1.31348,0.655424 1.97022,1.048942 0.65543,0.394834 1.18055,0.918647 1.57539,1.575387 0.65542,0.918647 1.05026,1.838609 1.18055,2.757256 0,0.131611 -0.13029,0.263223 -0.26191,0.525129 -0.13161,0.131611 -0.26322,0.263222 -0.39351,0.263222 h -4.46426 c -0.39351,0 -0.78703,-0.131611 -1.05025,-0.526445 -0.13162,-0.393517 -0.39352,-0.787035 -0.91865,-1.180553 -0.52513,-0.263222 -1.18187,-0.394833 -1.96891,-0.394833 h -0.91996 c -0.26191,0 -0.65542,0.131611 -0.91865,0.263222 -0.2619,0.131611 -0.52512,0.394834 -0.65674,0.525129 -0.13029,0.263223 -0.2619,0.525129 -0.2619,0.918647 0,0.526445 0.2619,1.050258 0.91864,1.443775 0.65674,0.394834 1.83861,0.658057 3.5443,1.050258 1.05025,0.131611 1.97022,0.394834 3.02047,0.658057 0.91865,0.261906 1.8373,0.655424 2.62565,1.048941 0.78703,0.526445 1.31216,1.050258 1.83729,1.83861 0.52513,0.787035 0.65674,1.705682 0.65674,2.887551 0,1.31348 -0.26322,2.363738 -0.91864,3.150774 -0.91997,1.181869 -1.707,1.968904 -2.62565,2.494033 z M 186.26993,57.73737 H 171.1728 c -0.26322,0 -0.39484,-0.131611 -0.52513,-0.263222 -0.13161,-0.131612 -0.26322,-0.393518 -0.26322,-0.523813 V 38.701117 c 0,-0.787036 0.26322,-1.443776 0.78835,-1.968905 0.52513,-0.525129 1.18055,-0.787035 1.9689,-0.787035 h 12.86632 c 0.26191,0 0.39352,0.131611 0.52513,0.263222 0.13029,0.130295 0.26191,0.392202 0.26191,0.523813 v 3.019163 c 0,0.263222 -0.13162,0.394833 -0.26191,0.526445 -0.13161,0.131611 -0.39483,0.261906 -0.65674,0.261906 h -11.68445 c 0.52513,0 0.91865,0.131611 1.31217,0.525129 0.26322,0.394834 0.52512,0.787035 0.52512,1.181869 v 1.312165 c 0,0.263222 0.13162,0.394833 0.26323,0.65674 0.13161,0.263222 0.39351,0.263222 0.65674,0.263222 h 6.95828 c 0.26191,0 0.39352,0.131612 0.52513,0.261907 0.1303,0.131611 0.26191,0.394834 0.26191,0.525129 v 2.757256 c 0,0.263222 -0.13161,0.393517 -0.26191,0.525129 -0.13161,0.131611 -0.39483,0.263222 -0.52513,0.263222 h -9.58393 c 0.52513,0 0.91865,0.130295 1.18056,0.523813 0.39483,0.394834 0.52512,0.65674 0.52512,1.181869 v 1.443776 c 0,0.263222 0.13162,0.394834 0.26323,0.65674 0.13161,0.263223 0.39351,0.263223 0.65674,0.263223 h 9.1891 c 0.52512,0 0.78835,0.261906 0.78835,0.787035 v 3.019162 c 0,0.263223 -0.13161,0.394834 -0.26323,0.526445 0.13162,0.392202 -0.13029,0.523813 -0.39351,0.523813 z m -19.29816,0 h -14.70361 c -0.13162,0 -0.39484,-0.131611 -0.52645,-0.263222 -0.13161,-0.131612 -0.26191,-0.393518 -0.26191,-0.523813 V 38.701117 c 0,-0.393518 0.13162,-0.787036 0.26323,-1.050258 0.13161,-0.393518 0.39351,-0.655424 0.65542,-0.787036 0.26322,-0.263222 0.52645,-0.394833 0.91996,-0.526445 0.26191,-0.130295 0.65543,-0.261906 1.05026,-0.261906 h 2.49404 c 0.2619,0 0.39351,0.131611 0.52512,0.263222 0.13162,0.131612 0.26191,0.394834 0.26191,0.525129 v 15.097129 c 0,0.131611 0.13161,0.394834 0.26322,0.65674 0.13161,0.263223 0.39352,0.394834 0.78704,0.394834 h 8.53367 c 0.26323,0 0.39352,0.130295 0.52513,0.261906 0.13161,0.131611 0.26322,0.263223 0.26322,0.525129 v 3.281069 c 0,0.263223 -0.13161,0.394834 -0.26322,0.526445 -0.39352,0 -0.65674,0.131611 -0.78703,0.131611 z"
     fill="url(#b)"
     id="path3894"
     style="fill:url(#b);stroke-width:1.31611" />
  <path
     d="m 115.21695,44.407781 c 0,-1.184501 0.39483,-2.10578 1.1845,-2.895448 3.29028,5.001228 8.68634,8.423121 12.10824,11.186958 5.26445,-4.079949 15.1353,-11.713403 15.1353,-19.083634 0,-3.553504 -3.15867,-6.31734 -6.9754,-6.31734 -2.369,0 -4.6064,2.369002 -5.92251,4.21156 -0.52644,0.658056 -1.31611,1.05289 -2.10578,1.05289 -0.92128,0 -1.71095,-0.394834 -2.10578,-1.05289 -1.31611,-1.842558 -3.55351,-4.21156 -5.92251,-4.21156 -3.81673,0 -6.9754,2.895447 -6.9754,6.31734 v 0.131612 c -1.84255,0.921279 -3.29028,2.237391 -4.47478,3.816726 -0.39483,-1.316112 -0.52644,-2.632225 -0.52644,-3.948338 -0.26323,-6.185729 5.13284,-11.055346 11.84501,-11.055346 3.02706,0 5.92251,1.05289 8.02829,2.763837 2.23739,-1.710947 5.13284,-2.763837 8.1599,-2.763837 6.71217,0 12.10824,4.869617 12.10824,10.923735 0,12.108237 -17.89914,24.742918 -18.6888,25.269363 -0.39484,0.263223 -1.0529,0.526445 -1.57934,0.526445 -0.52645,0 -1.05289,-0.131611 -1.57934,-0.526445 -0.39483,-0.263222 -5.39606,-3.816726 -10.00245,-8.686343 -1.05289,-1.974169 -1.71095,-3.948338 -1.71095,-5.659285 z"
     fill="url(#c)"
     id="path3896"
     style="fill:url(#c);stroke-width:1.31611" />
  <path
     d="m 120.4814,33.484046 c 3.02706,0 5.92251,1.05289 8.02829,2.763837 2.23739,-1.710947 5.00123,-2.763837 8.02829,-2.763837 1.84256,0 3.5535,0.394834 5.13284,1.05289 -0.13161,1.447724 -0.78967,2.895448 -1.57934,4.474783 -1.05289,-0.526445 -2.23739,-0.921279 -3.5535,-0.921279 -2.36901,0 -4.6064,2.369003 -5.92251,4.211561 -0.52644,0.658056 -1.31611,1.05289 -2.10578,1.05289 -0.92128,0 -1.71095,-0.394834 -2.10578,-1.05289 -1.31612,-1.842558 -3.55351,-4.211561 -5.92251,-4.211561 -3.81673,0 -6.9754,2.895448 -6.9754,6.317341 0,7.370231 9.73924,15.003685 15.1353,19.083634 3.81673,-2.895448 10.00246,-7.107009 13.16113,-12.766293 3.02706,-3.15867 5.26445,-6.18573 6.71217,-9.212789 0.26323,0.921279 0.39484,1.842558 0.39484,2.763837 0,12.108236 -17.89914,24.742918 -18.6888,25.269363 -0.39484,0.263223 -1.0529,0.526445 -1.57934,0.526445 -0.52645,0 -1.05289,-0.131611 -1.57934,-0.526445 -0.78966,-0.394834 -18.6888,-13.029515 -18.6888,-25.137752 0,-6.054118 5.39607,-10.923735 12.10824,-10.923735 z"
     fill="url(#d)"
     id="path3898"
     style="fill:url(#d);stroke-width:1.31611" />
  <defs
     id="defs3924">
    <linearGradient
       id="a"
       x1="0"
       y1="20.462"
       x2="63.833"
       y2="20.462"
       gradientUnits="userSpaceOnUse"
       gradientTransform="matrix(1.3161127,0,0,1.3161127,21.509729,19.928086)">
      <stop
         stop-color="#fff"
         id="stop3900" />
      <stop
         offset="1"
         stop-color="#58C0DE"
         id="stop3902" />
    </linearGradient>
    <linearGradient
       id="b"
       x1="157.62"
       y1="20.469"
       x2="98.749001"
       y2="20.469"
       gradientUnits="userSpaceOnUse"
       gradientTransform="matrix(1.3161127,0,0,1.3161127,21.509729,19.928086)">
      <stop
         stop-color="#fff"
         id="stop3905" />
      <stop
         offset="1"
         stop-color="#58C0DE"
         id="stop3907" />
    </linearGradient>
    <linearGradient
       id="c"
       x1="91.319"
       y1="21.701"
       x2="71.367996"
       y2="1.75"
       gradientUnits="userSpaceOnUse"
       gradientTransform="matrix(1.3161127,0,0,1.3161127,21.509729,19.928086)">
      <stop
         stop-color="#32B0D9"
         id="stop3910" />
      <stop
         offset=".5"
         stop-color="#6132D9"
         id="stop3912" />
      <stop
         offset="1"
         stop-color="#D93259"
         id="stop3914" />
    </linearGradient>
    <linearGradient
       id="d"
       x1="71.367996"
       y1="30.025999"
       x2="90.834999"
       y2="10.559"
       gradientUnits="userSpaceOnUse"
       gradientTransform="matrix(1.3161127,0,0,1.3161127,21.509729,19.928086)">
      <stop
         stop-color="#15BB7A"
         id="stop3917" />
      <stop
         offset=".5"
         stop-color="#32B0D9"
         id="stop3919" />
      <stop
         offset=".87"
         stop-color="#A23B8F"
         id="stop3921" />
    </linearGradient>
  </defs>
</svg>
