<?xml version="1.0" encoding="UTF-8" standalone="no"?>
<svg
   width="160"
   height="47"
   viewBox="0 0 153.5 47"
   version="1.1"
   id="svg6745"
   sodipodi:docname="voisinssolitaires.svg"
   inkscape:version="1.1 (c4e8f9e, 2021-05-24)"
   xmlns:inkscape="http://www.inkscape.org/namespaces/inkscape"
   xmlns:sodipodi="http://sodipodi.sourceforge.net/DTD/sodipodi-0.dtd"
   xmlns="http://www.w3.org/2000/svg"
   xmlns:svg="http://www.w3.org/2000/svg">
  <sodipodi:namedview
     id="namedview6747"
     pagecolor="#ffffff"
     bordercolor="#666666"
     borderopacity="1.0"
     inkscape:pageshadow="2"
     inkscape:pageopacity="0.0"
     inkscape:pagecheckerboard="0"
     showgrid="false"
     inkscape:zoom="1"
     inkscape:cx="5"
     inkscape:cy="21"
     inkscape:window-width="1807"
     inkscape:window-height="736"
     inkscape:window-x="0"
     inkscape:window-y="25"
     inkscape:window-maximized="0"
     inkscape:current-layer="g6741" />
  <defs
     id="defs6729">
    <clipPath
       id="clip-path"
       transform="translate(-3.25)">
      <path
         fill="none"
         d="M 0,0 H 160 V 40 H 0 Z"
         id="path6724" />
    </clipPath>
    <style
       id="style6727">.cls-4{fill:#fff}</style>
  </defs>
  <g
     id="Слой_2"
     data-name="Слой 2">
    <g
       id="Шар_2"
       data-name="Шар 2">
      <g
         clip-path="url(#clip-path)"
         id="g6741">
        <path
           fill="#f30c22"
           d="m 7.33,4.92 c 0,0 3.35,-2.18 10.17,-2.25 7.5,-0.06 10.71,2.25 10.71,2.25 0,0 6,2.37 3.75,12.6 -1.96,8.63 -10.89,17.81 -10.89,17.81 0,0 -1.68,1.67 -3.3,1.67 -1.62,0 -3,-1.71 -3,-1.71 C 14.77,35.29 5.36,26.7 3.49,16 2.08,7.89 7.33,4.92 7.33,4.92 Z"
           transform="translate(-3.25)"
           id="path6731" />
        <path
           d="m 23.11,0 c 0,0 -1.61,6.88 -6.53,4.25 0,0 5.7,4.51 6.53,-4.25 z"
           class="cls-4"
           transform="translate(-3.25)"
           id="path6733" />
        <path
           d="m 20,7.14 c 0,0 -2.06,0 -3.7,-2.64 C 14.66,1.86 8,-0.61 7,15 5.88,32.57 11.18,38.51 11.18,38.51 A 45.45,45.45 0 0 1 7.36,20 c 0,-8.48 1.92,-15.35 5.06,-16.46 3.14,-1.11 4.19,4.39 7.58,3.6 z m 6,8.12 c 0,0 1.5,4.6 -2.7,6.39 0,0 -1.36,2.75 3,5.24 a 9.88,9.88 0 0 1 4.8,5.25 6.92,6.92 0 0 1 -0.16,5.15 C 31.42,32.65 29.6,30.54 27.22,28.62 24.84,26.7 21.77,24.95 22.62,21.31 22.58,21.3 26.42,20.05 26,15.26 Z"
           class="cls-4"
           transform="translate(-3.25)"
           id="path6735" />
        <path
           d="m 25.42,7.18 c 0,0 -0.5,2.1 2.41,2.41 2.91,0.31 2.56,3.77 1.45,9.8 C 28.13,25.57 32,31 32,31 a 12.51,12.51 0 0 1 -3.52,-8.32 c 0,-5 1.35,-9.31 0.57,-11.29 C 28.27,9.41 24,10.8 25.42,7.18 Z M 12.51,8.93 c 0,0 -2.9,5.9 -0.54,14.52 0,0 -1.76,5.36 -0.93,9.33 0.83,3.97 2.38,5.75 4.31,7.22 -0.55,-1.2 -4.88,-3 -2,-16.36 0.06,0 -3.18,-4.58 -0.84,-14.71 z M 23.09,21.3 c 0,0 -0.59,-1.71 -5.85,-1.71 0,0 4.75,0.57 5.43,2.32 z m 24.99,-9.19 h -0.42 c -0.13,0 -0.19,0 -0.19,0.06 a 4.35,4.35 0 0 0 -0.85,0.15 h -0.15 l -0.31,-0.08 c 0,0 -0.06,0 -0.08,0.13 l 0.15,0.45 A 0.18,0.18 0 0 1 46.13,13 c 0,0 -0.11,-0.1 -0.24,-0.31 -0.06,0 -0.12,0.23 -0.18,0.71 v 0.24 l -0.1,0.89 v 0.13 l -0.09,0.26 a 21.26,21.26 0 0 1 -0.36,2.39 l -0.27,1.41 a 7.43,7.43 0 0 1 -0.54,2.55 l -0.16,-0.09 q -0.44,-1.76 -0.63,-3 V 18.12 L 43.38,17.5 c -0.05,-0.42 -0.1,-0.63 -0.13,-0.63 V 16.6 Q 42.92,14.86 42.6,12.41 c 0,-0.3 -0.24,-0.45 -0.71,-0.45 -0.11,0 -0.17,0 -0.18,0.08 a 6,6 0 0 0 -1.15,0.21 7.09,7.09 0 0 0 -1.2,0.16 0.73,0.73 0 0 0 -0.49,0.76 v 0.09 L 39,13.65 a 1.45,1.45 0 0 0 0.21,0.74 l -0.09,0.18 a 12,12 0 0 0 0.4,1.65 5.25,5.25 0 0 0 0.21,1 l -0.06,0.13 0.13,0.26 0.21,1 a 28.13,28.13 0 0 0 0.75,3.46 c 0.11,0.79 0.2,1.18 0.27,1.18 l 0.26,1.52 v 0.33 l 0.1,0.27 v 0.26 a 4.25,4.25 0 0 0 0.29,1.29 4.25,4.25 0 0 1 0.21,1.18 v 0.2 a 1.51,1.51 0 0 1 0.06,0.54 q 0.15,0.42 0.42,0.42 h 0.39 c 0.11,0 0.16,0 0.16,-0.08 q 1,-0.08 1,-0.15 0.89,-0.12 0.9,-0.32 c 0.1,-0.05 0.15,-0.25 0.15,-0.61 q 0.13,-1 0.37,-2.27 v -0.1 l 0.26,-1.08 0.21,-1 a 8.72,8.72 0 0 1 0.37,-1.57 17.41,17.41 0 0 1 0.47,-2 c 0.07,-0.49 0.13,-0.74 0.18,-0.74 q 0.07,-0.47 0.13,-0.47 a 2.33,2.33 0 0 1 0.24,-1.16 l 0.24,-0.66 a 2.73,2.73 0 0 1 0.18,-1 6.22,6.22 0 0 1 0.31,-1.16 4,4 0 0 1 0.47,-1.62 2.6,2.6 0 0 1 0.18,-0.65 v -0.21 a 0.57,0.57 0 0 0 -0.5,-0.3 z M 55.81,16 V 15.81 C 55.76,15.33 55.7,15.08 55.64,15.08 V 14.7 l -0.1,-0.1 A 1.17,1.17 0 0 0 55.4,14.07 C 55.34,13.86 55.29,13.76 55.26,13.76 A 0.63,0.63 0 0 0 55.09,13.38 Q 54.9,13 54.78,13 a 1.41,1.41 0 0 0 -0.26,-0.38 0.22,0.22 0 0 1 -0.19,-0.1 3.27,3.27 0 0 0 -0.73,-0.34 h -0.22 l -0.11,-0.1 H 53 a 0.86,0.86 0 0 1 -0.33,-0.07 h -0.54 a 0.5,0.5 0 0 0 -0.27,0.14 h -0.11 c -0.25,0.06 -0.38,0.1 -0.38,0.13 h -0.08 a 0.83,0.83 0 0 1 -0.33,0.14 l -0.57,0.38 a 0.84,0.84 0 0 1 -0.27,0.29 v 0.12 h -0.08 a 0.59,0.59 0 0 0 -0.19,0.31 2.89,2.89 0 0 0 -0.36,0.67 c 0,0.22 -0.07,0.33 -0.11,0.33 v 0.1 c -0.06,0.33 -0.1,0.5 -0.12,0.5 v 0.19 a 0.87,0.87 0 0 0 -0.1,0.46 v 0.07 l -0.07,0.11 v 1.03 c 0,0.06 0,0.1 0.08,0.1 a 1.24,1.24 0 0 0 -0.12,0.45 v 0.38 l 0.07,0.1 -0.07,0.27 a 0.93,0.93 0 0 1 0.07,0.4 v 0.66 l -0.07,0.7 v 1 L 49,21.2 v 0.47 a 2.85,2.85 0 0 1 0,0.57 v 0.46 a 1,1 0 0 0 0,0.38 v 0.43 a 1.45,1.45 0 0 0 0,0.43 v 1.57 l 0.08,0.5 a 1.51,1.51 0 0 1 0.11,0.41 v 0.1 a 4.61,4.61 0 0 0 0.22,0.76 3.93,3.93 0 0 1 0.3,0.67 q 0.48,0.33 0.48,0.45 l 0.36,0.33 0.81,0.36 a 1.65,1.65 0 0 1 0.54,0.11 h 0.43 a 4,4 0 0 0 0.73,-0.1 h 0.17 L 53.37,29 h 0.24 a 1.42,1.42 0 0 1 0.38,-0.26 h 0.1 l 0.4,-0.29 v -0.19 h 0.17 A 1.69,1.69 0 0 0 55,28 0.63,0.63 0 0 0 55.16,27.67 l 0.17,-0.35 a 1.88,1.88 0 0 0 0.19,-0.6 v -0.14 a 2.13,2.13 0 0 0 0.21,-0.64 V 25.73 L 55.8,25.25 V 23.8 a 0.54,0.54 0 0 0 0.07,-0.24 v -0.83 c 0,-0.06 -0.05,-0.09 -0.08,-0.09 l 0.08,-0.33 v -3.59 l 0.08,-0.38 v -1.81 z m -6.66,3.39 0.1,-0.14 v 0.16 z m 0.19,1.91 -0.08,0.09 v -0.15 c 0.08,0 0.12,0 0.12,0.07 z m 0,-5.8 h -0.1 z m 0.27,-1.32 z m 0.69,1.43 h 0.07 z m 0.22,-2.69 h -0.1 v -0.08 c 0.06,0 0.1,0 0.1,0.07 z M 53,12.13 c 0.08,0 0.12,0.05 0.12,0.08 q -0.11,0 -0.11,-0.07 z m -1.79,0.31 v -0.07 a 0.16,0.16 0 0 1 0.14,0.1 H 51.16 Z M 51.34,20 h -0.08 v -0.07 h 0.08 z m 0,-2.86 z m 0,-1 v -0.07 a 0.35,0.35 0 0 0 0,0.19 z M 53.26,27 Z M 53.5,16.81 V 17 l 0.08,0.08 -0.08,0.07 v 4.46 l -0.1,0.36 v 0.18 l 0.08,0.08 v 0.64 a 2.71,2.71 0 0 1 -0.08,0.65 v 2.02 l -0.07,0.24 v 0.1 c -0.08,0.33 -0.15,0.5 -0.24,0.5 a 0.88,0.88 0 0 1 -0.78,0.29 H 52.12 A 1.47,1.47 0 0 1 51.61,26.21 3.62,3.62 0 0 1 51.4,25.16 v -0.57 a 0.59,0.59 0 0 0 0,-0.26 v -4.01 a 2.77,2.77 0 0 0 0,-0.57 v -3.72 a 0.86,0.86 0 0 1 0,-0.31 1.44,1.44 0 0 1 0.27,-0.88 v -0.15 h 0.13 c 0,-0.12 0.21,-0.23 0.62,-0.31 0.41,-0.08 0.46,0.1 0.46,0.14 0,0.04 0.21,0.14 0.21,0.19 a 1.17,1.17 0 0 1 0.27,0.43 v 0.29 a 0.75,0.75 0 0 1 0.07,0.29 v 1.07 z m 0.22,3.49 h 0.09 z m 0,-4.11 V 16 Z m 0.12,2.56 v -0.08 h 0.08 z M 54,12.58 v -0.07 z m 0.17,2 v -0.1 z M 55.31,14 v -0.1 z m 0.43,4 v -0.07 h 0.07 z m 0.08,-1.15 v -0.07 z m 4.64,2.87 v 0.07 c 0,0.07 0,0.07 0.1,0.09 0.1,0.02 0.08,0 0.08,0 a 0.1,0.1 0 0 0 -0.07,-0.1 H 60.5 Z m -0.73,8.72 v -0.19 l 0.06,-0.09 V 26.79 L 59.85,26.55 59.68,26 a 0.17,0.17 0 0 0 0.06,-0.12 V 25.8 a 0.3,0.3 0 0 0 -0.06,-0.16 v -2.46 a 1,1 0 0 1 0,-0.34 V 20.69 L 59.61,20.4 v -3.56 c 0,0 -0.05,-0.1 -0.08,-0.27 a 0.94,0.94 0 0 0 0,-0.27 V 15.83 L 59.6,15.7 c 0,-0.09 0,-0.13 -0.07,-0.13 v -0.46 l 0.07,-0.07 v -0.42 a 0.79,0.79 0 0 1 -0.07,-0.28 v -1.72 q 0,-0.25 -0.38,-0.25 H 58.3 a 0.21,0.21 0 0 0 -0.11,0 0.7,0.7 0 0 1 -0.23,0 H 57.1 l -0.17,0.14 -0.16,0.13 v 2.19 l 0.07,0.23 v 1.05 l -0.06,0.37 v 1.05 l 0.06,0.35 a 0.87,0.87 0 0 0 0,0.27 v 1.8 a 1.3,1.3 0 0 0 0.06,0.35 v 0.22 a 0.5,0.5 0 0 0 0,0.18 v 2.79 l -0.06,0.16 a 0.14,0.14 0 0 1 0.06,0.1 v 2.46 l 0.08,0.24 -0.08,0.18 v 0.8 a 0.34,0.34 0 0 1 0,0.15 v 0.94 a 0.67,0.67 0 0 0 0.54,0.31 H 58 a 1.85,1.85 0 0 0 0.48,0 h 0.51 a 0.27,0.27 0 0 1 0.16,0 h 0.27 c 0.19,0 0.29,-0.11 0.31,-0.33 l -0.08,-0.26 z m -2.57,-2.23 z m 0.25,-6.75 V 19.4 Z m 0.72,9.48 z m 0,-14.51 v -0.06 z m 1,0.14 h 0.06 z m 0.11,3.25 H 59.18 Z M 59.48,22 h 0.06 z m 8.36,-5.86 v -0.51 l -0.1,-0.52 v -0.15 c 0,-0.14 0,-0.21 -0.06,-0.21 a 2.18,2.18 0 0 0 -0.45,-1.14 1,1 0 0 0 -0.51,-0.34 0.46,0.46 0 0 0 -0.17,-0.26 l 0.11,-0.13 a 2.37,2.37 0 0 0 -0.88,-0.52 4.45,4.45 0 0 0 -0.77,-0.2 h -0.69 a 3.63,3.63 0 0 0 -1.1,0.18 1.34,1.34 0 0 0 -0.6,0.25 q -1.13,0.86 -1.13,1.18 L 61.33,14 a 3.37,3.37 0 0 1 -0.31,0.73 v 0.08 l -0.08,0.24 v 0.08 a 0.89,0.89 0 0 0 -0.12,0.33 v 1.08 l 0.11,0.31 a 2.52,2.52 0 0 0 0.36,1.15 2.07,2.07 0 0 0 0.28,0.68 c 0.09,0.08 0.13,0.14 0.13,0.18 l 0.39,0.78 c 0.19,0.22 0.28,0.36 0.28,0.44 a 8.15,8.15 0 0 1 1,1.57 l 0.18,0.2 q 0.73,1 1.26,1.87 a 1.09,1.09 0 0 0 0.24,0.41 c 0,0.2 0.07,0.3 0.13,0.3 v 0.1 l 0.28,0.93 q -0.06,0.69 -0.13,0.69 a 1.76,1.76 0 0 1 -0.15,0.59 1.32,1.32 0 0 1 -1,0.57 1.25,1.25 0 0 1 -0.61,-0.23 2,2 0 0 1 -0.49,-1 V 25.97 L 63,25.56 v -1.03 c 0,-0.21 -0.14,-0.31 -0.31,-0.31 h -0.58 c -0.09,0 -0.14,0 -0.16,0.08 h -0.49 l -0.31,0.08 c -0.31,0 -0.47,0.16 -0.47,0.33 v 1.59 a 3.62,3.62 0 0 0 0.36,1.48 3,3 0 0 0 0.8,1 c 0.16,0.06 0.25,0.13 0.28,0.21 0.03,0.08 0.1,0 0.1,0.06 a 4.52,4.52 0 0 0 1.16,0.41 h 0.1 l 0.81,0.08 c 0,0 0.12,-0.07 0.36,-0.1 l 0.16,0.06 a 3.36,3.36 0 0 0 0.73,-0.26 1.33,1.33 0 0 0 0.62,-0.34 q 0.85,-0.5 0.85,-0.86 0.39,-0.36 0.39,-0.55 v -0.08 c 0,-0.05 0,-0.09 0.1,-0.12 l 0.31,-0.86 v -0.1 a 1.23,1.23 0 0 0 0.08,-0.45 v -0.86 l -0.06,-0.1 -0.07,-0.33 -0.21,-0.7 -0.39,-0.94 a 14.36,14.36 0 0 0 -1,-1.72 0.72,0.72 0 0 1 -0.22,-0.36 13.08,13.08 0 0 1 -1,-1.56 2,2 0 0 1 -0.48,-0.73 3.67,3.67 0 0 1 -0.48,-0.68 0.94,0.94 0 0 0 -0.28,-0.42 q -0.09,-0.44 -0.16,-0.44 a 1.53,1.53 0 0 0 -0.19,-0.57 c 0,-0.19 0,-0.29 -0.09,-0.29 V 16.1 L 63.2,15.98 a 1.45,1.45 0 0 1 0.33,-1.06 q 0,-0.23 0.83,-0.37 h 0.08 a 0.87,0.87 0 0 1 0.73,0.5 q 0.16,0 0.26,1.3 l -0.06,0.15 c 0,0 0.06,0.12 0.06,0.27 0,0.15 0.1,0.36 0.29,0.36 h 0.51 l 0.21,-0.06 h 0.2 l 1,-0.1 h 0.09 a 0.41,0.41 0 0 0 0.13,-0.26 v -0.06 z m -5.32,-2.25 v -0.06 h 0.06 z m 4,10 h 0.06 V 24 l -0.06,-0.06 z m -0.38,-11.1 h -0.08 v -0.08 l 0.06,0.06 z m 1.16,1.35 H 67.23 Z M 67.53,16 v -0.06 h 0.08 z m 3.79,12.37 v -0.19 l 0.06,-0.09 V 26.72 L 71.44,26.48 71.28,26 a 0.17,0.17 0 0 0 0.06,-0.12 V 25.8 a 0.3,0.3 0 0 0 -0.06,-0.16 v -2.46 a 1,1 0 0 1 0,-0.34 v -2.28 l -0.07,-0.29 v -3.43 c 0,0 -0.05,-0.1 -0.08,-0.27 a 0.94,0.94 0 0 0 0,-0.27 V 15.83 L 71.2,15.7 c 0,-0.09 0,-0.13 -0.07,-0.13 v -0.46 l 0.07,-0.07 v -0.42 a 0.79,0.79 0 0 1 -0.07,-0.28 v -1.72 c 0,-0.16 -0.13,-0.25 -0.38,-0.25 H 69.9 a 0.21,0.21 0 0 0 -0.11,0 0.7,0.7 0 0 1 -0.23,0 H 68.7 l -0.17,0.14 -0.16,0.13 v 2.19 l 0.07,0.23 v 1.05 l -0.06,0.37 v 1.05 l 0.06,0.35 a 0.88,0.88 0 0 0 0,0.27 v 1.8 a 1.3,1.3 0 0 0 0.06,0.35 v 0.22 a 0.5,0.5 0 0 0 0,0.18 v 2.79 l -0.06,0.16 a 0.14,0.14 0 0 1 0.06,0.1 v 2.46 l 0.08,0.24 -0.08,0.18 v 0.8 a 0.34,0.34 0 0 1 0,0.15 v 0.94 a 0.67,0.67 0 0 0 0.54,0.31 h 0.47 a 1.85,1.85 0 0 0 0.48,0 h 0.51 a 0.27,0.27 0 0 1 0.16,0 h 0.27 q 0.29,0 0.31,-0.33 L 71.16,28.24 Z M 68.75,26.14 Z M 69,19.4 v -0.06 z m 0.72,9.48 z m 0,-14.51 v -0.06 z m 1,0.14 h 0.06 z m 0.11,3.25 H 70.77 Z M 71.08,22 h 0.06 z m 1,-2.33 v 0.07 c 0,0.07 0,0.07 0.11,0.09 0.11,0.02 0.08,0 0.08,0 A 0.1,0.1 0 0 0 72.2,19.73 H 72 Z m 8.22,9.08 v -0.83 l -0.08,-0.18 0.08,-0.8 v -0.1 l -0.08,-0.12 v -0.38 a 3.33,3.33 0 0 1 0,-0.66 v -0.23 a 2,2 0 0 0 0,-0.53 v -0.17 a 0.29,0.29 0 0 0 0.08,-0.18 c 0,-0.22 -0.07,-0.33 -0.1,-0.33 v -0.12 c 0,-0.22 0,-0.33 -0.08,-0.33 V 23.54 A 1.18,1.18 0 0 0 80.04,23.03 4.39,4.39 0 0 0 80,21.83 1.21,1.21 0 0 1 80.2,21.09 v -0.12 a 1.51,1.51 0 0 0 0.1,-0.43 v -0.29 c 0,-0.08 0,-0.13 -0.08,-0.15 v -0.27 a 7.53,7.53 0 0 0 -0.12,-1 V 17.91 A 0.48,0.48 0 0 1 80.02,17.63 V 16.52 A 5.77,5.77 0 0 1 80,15.5 L 79.92,15.42 V 15.14 L 79.98,14.79 80,14.53 v -0.6 a 0.43,0.43 0 0 1 -0.08,-0.26 v -0.35 a 3,3 0 0 0 -0.1,-0.68 V 12.36 A 0.42,0.42 0 0 0 79.7,12.1 0.75,0.75 0 0 1 79.29,12 H 79 c 0,0 -0.16,-0.06 -0.47,-0.08 h -0.08 l -0.08,-0.06 h -0.2 L 78,12 77.32,11.94 c -0.17,0 -0.25,0.08 -0.25,0.13 l 0.08,0.31 -0.08,0.07 0.15,1.9 v 0.08 a 12.07,12.07 0 0 1 0.15,1.52 l 0.12,1.49 V 19 a 0.53,0.53 0 0 1 -0.17,0.4 h -0.1 c 0,0 -0.11,-0.13 -0.23,-0.4 a 14,14 0 0 0 -0.5,-1.42 7.07,7.07 0 0 0 -0.35,-1.18 v -0.15 c 0,-0.46 -0.11,-0.69 -0.25,-0.69 a 2.28,2.28 0 0 0 -0.26,-0.58 1.75,1.75 0 0 0 -0.2,-0.86 2,2 0 0 0 -0.2,-0.53 3.64,3.64 0 0 0 -0.31,-0.92 v -0.08 a 0.54,0.54 0 0 0 -0.18,-0.38 c -0.06,-0.22 -0.12,-0.32 -0.2,-0.32 l 0.08,-0.1 h -0.06 c -0.13,0 -0.2,0.05 -0.2,0.15 L 73.99,11.86 H 73.84 L 73.43,11.8 73.33,11.86 73,11.78 72.9,11.86 h -0.38 l -0.1,0.08 v 0.17 l -0.08,0.38 0.11,0.1 v 2.29 l 0.08,2.3 v 4.22 l -0.08,0.54 v 0.67 l 0.08,1 v 4.92 h 0.06 v 0.12 l 0.2,0.23 L 73,29 h 0.33 c 0.18,0 0.28,0.07 0.28,0.1 0,0.03 0.2,0 0.2,-0.08 h 0.59 l 0.08,-0.08 0.32,-0.06 A 0.81,0.81 0 0 0 75,28.3 L 75.2,28 v -0.76 l 0.1,-0.38 v -0.4 l 0.1,-0.43 V 25.4 a 5.84,5.84 0 0 1 -0.12,-0.86 v -0.61 l 0.1,-1.37 v -0.28 h 0.08 v -0.06 h -0.1 v 0.08 c 0,0.08 0.27,0.33 0.46,0.83 a 3.59,3.59 0 0 0 0.35,0.83 2.22,2.22 0 0 0 0.31,0.89 2.38,2.38 0 0 1 0.23,0.69 2.83,2.83 0 0 1 0.2,0.71 5.14,5.14 0 0 0 0.32,0.94 5.08,5.08 0 0 0 0.53,1.35 c 0,0.45 0.09,0.69 0.13,0.71 h 0.17 c 0,0 0.05,0 0.08,0.1 a 7.36,7.36 0 0 1 1,-0.1 h 0.32 l 0.35,0.1 h 0.06 q 0.23,0 0.32,-0.31 V 28.87 Z M 87.94,25 v -0.1 l -0.06,-0.1 -0.07,-0.33 -0.21,-0.7 -0.39,-0.94 a 14.36,14.36 0 0 0 -1,-1.72 A 0.73,0.73 0 0 1 86,20.7 13.24,13.24 0 0 1 85,19.14 2.05,2.05 0 0 1 84.52,18.41 3.66,3.66 0 0 1 84.04,17.73 0.94,0.94 0 0 0 83.76,17.31 C 83.7,17.02 83.64,16.87 83.6,16.87 A 1.53,1.53 0 0 0 83.41,16.3 c 0,-0.19 0,-0.29 -0.09,-0.29 v -0.08 l -0.06,-0.12 a 1.45,1.45 0 0 1 0.33,-1.06 c 0,-0.15 0.28,-0.28 0.83,-0.37 h 0.08 a 0.87,0.87 0 0 1 0.73,0.5 c 0.11,0 0.19,0.43 0.26,1.3 l -0.06,0.15 c 0,0 0.06,0.12 0.06,0.27 0,0.15 0.1,0.36 0.29,0.36 h 0.51 L 86.5,16.9 h 0.2 l 1,-0.1 h 0.08 a 0.41,0.41 0 0 0 0.14,-0.26 v -0.8 l -0.11,-0.52 v -0.15 q 0,-0.21 -0.06,-0.21 A 2.17,2.17 0 0 0 87.3,13.72 1,1 0 0 0 86.79,13.38 0.46,0.46 0 0 0 86.62,13.12 l 0.11,-0.13 a 2.37,2.37 0 0 0 -0.89,-0.52 4.45,4.45 0 0 0 -0.77,-0.2 h -0.68 a 3.64,3.64 0 0 0 -1.1,0.18 1.33,1.33 0 0 0 -0.6,0.25 q -1.13,0.86 -1.13,1.18 l -0.16,0.23 a 3.37,3.37 0 0 1 -0.31,0.73 v 0.08 L 81,15 v 0.08 a 0.91,0.91 0 0 0 -0.11,0.33 v 1.08 L 81,16.8 a 2.52,2.52 0 0 0 0.39,1.2 2.09,2.09 0 0 0 0.28,0.68 c 0.09,0.08 0.14,0.14 0.14,0.18 l 0.39,0.78 c 0.18,0.22 0.28,0.36 0.28,0.44 a 8.18,8.18 0 0 1 1,1.57 l 0.18,0.2 q 0.73,1 1.26,1.87 a 1.08,1.08 0 0 0 0.24,0.41 c 0,0.2 0.07,0.3 0.14,0.3 v 0.1 l 0.28,0.93 c 0,0.46 -0.08,0.69 -0.13,0.69 a 1.76,1.76 0 0 1 -0.15,0.59 1.32,1.32 0 0 1 -1,0.57 1.25,1.25 0 0 1 -0.61,-0.23 2,2 0 0 1 -0.49,-1 V 25.97 L 83.09,25.53 V 24.5 c 0,-0.21 -0.14,-0.31 -0.31,-0.31 H 82.2 c -0.09,0 -0.14,0 -0.16,0.08 h -0.49 l -0.31,0.08 q -0.47,0.07 -0.47,0.33 v 1.59 a 3.61,3.61 0 0 0 0.36,1.48 3,3 0 0 0 0.8,1 c 0.16,0.06 0.25,0.13 0.28,0.21 0.03,0.08 0.11,0 0.11,0.06 a 4.52,4.52 0 0 0 1.16,0.41 h 0.1 l 0.81,0.08 c 0,0 0.12,-0.07 0.36,-0.1 l 0.16,0.06 a 3.35,3.35 0 0 0 0.73,-0.26 1.33,1.33 0 0 0 0.62,-0.34 c 0.56,-0.33 0.85,-0.62 0.85,-0.86 0.26,-0.24 0.39,-0.42 0.39,-0.55 v -0.08 c 0,-0.05 0,-0.09 0.1,-0.12 L 87.91,26.4 V 26.3 A 1.19,1.19 0 0 0 88,25.85 V 25.26 Z M 87.66,15.91 87.6,15.97 V 15.91 Z M 87.32,14 h 0.07 v 0.1 h -0.07 z m -1.17,-1.33 0.06,0.06 h -0.08 v -0.08 z m -3.53,1.15 v -0.06 h 0.06 z M 86.7,24 86.64,23.94 h 0.06 z"
           class="cls-4"
           transform="translate(-3.25)"
           id="path6737"
           style="fill:#280b0b" />
        <path
           fill="#ee1717"
           d="M 95.73,15.93 V 15.42 L 95.62,14.9 v -0.15 q 0,-0.21 -0.06,-0.21 A 2.17,2.17 0 0 0 95.11,13.4 1,1 0 0 0 94.6,13.06 0.47,0.47 0 0 0 94.43,12.8 l 0.11,-0.13 a 2.38,2.38 0 0 0 -0.89,-0.53 4.4,4.4 0 0 0 -0.77,-0.2 H 92.2 a 3.64,3.64 0 0 0 -1.1,0.18 1.33,1.33 0 0 0 -0.6,0.25 q -1.13,0.86 -1.13,1.19 l -0.16,0.23 a 3.37,3.37 0 0 1 -0.31,0.73 v 0.08 l -0.08,0.24 v 0.08 a 0.91,0.91 0 0 0 -0.11,0.33 v 1.07 l 0.11,0.31 a 2.52,2.52 0 0 0 0.35,1.09 2.07,2.07 0 0 0 0.28,0.68 c 0.09,0.08 0.13,0.14 0.13,0.18 l 0.39,0.78 c 0.18,0.22 0.28,0.36 0.28,0.44 a 8.21,8.21 0 0 1 1,1.57 l 0.18,0.2 q 0.73,1 1.26,1.87 a 1.1,1.1 0 0 0 0.24,0.41 c 0,0.2 0.07,0.3 0.14,0.3 v 0.1 l 0.28,0.93 c 0,0.46 -0.08,0.69 -0.13,0.69 a 1.77,1.77 0 0 1 -0.15,0.59 1.32,1.32 0 0 1 -1,0.57 1.24,1.24 0 0 1 -0.61,-0.23 2,2 0 0 1 -0.49,-1 v -0.11 l -0.11,-0.44 v -1.03 c 0,-0.21 -0.14,-0.31 -0.31,-0.31 h -0.58 c -0.09,0 -0.14,0 -0.16,0.08 h -0.49 l -0.31,0.08 c -0.31,0 -0.47,0.16 -0.47,0.33 v 1.58 a 3.61,3.61 0 0 0 0.46,1.55 3.05,3.05 0 0 0 0.8,1 c 0.16,0.06 0.25,0.13 0.28,0.21 0.03,0.08 0.11,0 0.11,0.06 a 4.48,4.48 0 0 0 1.16,0.41 h 0.1 l 0.81,0.08 c 0,0 0.12,-0.07 0.36,-0.1 l 0.16,0.06 a 3.4,3.4 0 0 0 0.73,-0.26 1.34,1.34 0 0 0 0.62,-0.34 c 0.56,-0.33 0.85,-0.62 0.85,-0.86 0.26,-0.24 0.39,-0.42 0.39,-0.54 v -0.08 c 0,-0.05 0,-0.09 0.1,-0.12 l 0.31,-0.86 v -0.1 a 1.22,1.22 0 0 0 0.08,-0.45 v -0.86 l -0.06,-0.1 -0.07,-0.34 -0.21,-0.7 -0.39,-0.94 a 14.36,14.36 0 0 0 -1,-1.72 0.73,0.73 0 0 1 -0.22,-0.36 13.24,13.24 0 0 1 -1,-1.56 2.05,2.05 0 0 1 -0.48,-0.73 3.63,3.63 0 0 1 -0.48,-0.68 0.94,0.94 0 0 0 -0.28,-0.42 c -0.06,-0.29 -0.12,-0.44 -0.16,-0.44 a 1.52,1.52 0 0 0 -0.19,-0.57 c 0,-0.19 0,-0.29 -0.09,-0.29 v -0.08 l -0.06,-0.12 a 1.45,1.45 0 0 1 0.33,-1.06 c 0,-0.15 0.28,-0.28 0.83,-0.37 h 0.08 a 0.87,0.87 0 0 1 0.73,0.5 q 0.16,0 0.26,1.3 l -0.06,0.15 c 0,0 0.06,0.12 0.06,0.27 0,0.15 0.1,0.36 0.29,0.36 h 0.51 l 0.21,-0.06 h 0.2 l 1,-0.1 h 0.08 a 0.41,0.41 0 0 0 0.14,-0.26 V 16.4 Z m -5.32,-2.25 v -0.06 h 0.06 z m 4,10 h 0.06 v 0.06 z M 94,12.61 h -0.08 v -0.08 l 0.06,0.06 z M 95.18,14 h -0.07 z m 0.24,1.85 v -0.06 h 0.09 z m 7.78,0 v -0.19 c -0.05,-0.48 -0.11,-0.73 -0.17,-0.73 v -0.38 l -0.09,-0.1 a 1.19,1.19 0 0 0 -0.14,-0.52 c -0.06,-0.21 -0.11,-0.31 -0.14,-0.31 a 0.63,0.63 0 0 0 -0.17,-0.38 q -0.26,-0.43 -0.38,-0.43 a 1.42,1.42 0 0 0 -0.26,-0.38 0.22,0.22 0 0 1 -0.19,-0.1 3.3,3.3 0 0 0 -0.73,-0.33 h -0.22 l -0.11,-0.1 h -0.1 a 0.85,0.85 0 0 1 -0.33,-0.07 h -0.55 a 0.49,0.49 0 0 0 -0.27,0.14 h -0.11 c -0.25,0.06 -0.38,0.1 -0.38,0.13 h -0.07 a 0.81,0.81 0 0 1 -0.33,0.14 l -0.57,0.38 a 0.85,0.85 0 0 1 -0.27,0.29 v 0.13 h -0.08 a 0.59,0.59 0 0 0 -0.19,0.31 2.86,2.86 0 0 0 -0.36,0.67 c 0,0.22 -0.07,0.33 -0.11,0.33 v 0.1 c -0.06,0.33 -0.1,0.5 -0.12,0.5 v 0.19 a 0.85,0.85 0 0 0 -0.1,0.46 v 0.07 l -0.07,0.11 v 1.03 c 0,0.06 0,0.1 0.08,0.1 a 1.19,1.19 0 0 0 -0.12,0.45 v 0.38 l 0.07,0.1 -0.07,0.27 a 1,1 0 0 1 0.07,0.4 v 0.66 l -0.07,0.7 v 1 l -0.08,0.11 v 0.47 a 2.85,2.85 0 0 1 0,0.57 v 0.46 a 1.05,1.05 0 0 0 0,0.38 v 0.43 a 1.49,1.49 0 0 0 0,0.43 v 1.57 l 0.08,0.5 a 1.51,1.51 0 0 1 0.11,0.41 v 0.1 a 4.51,4.51 0 0 0 0.22,0.76 3.86,3.86 0 0 1 0.31,0.67 c 0.32,0.22 0.47,0.37 0.47,0.45 l 0.36,0.33 0.81,0.36 a 1.65,1.65 0 0 1 0.54,0.11 h 0.43 a 3.9,3.9 0 0 0 0.73,-0.1 h 0.17 l 0.14,-0.1 h 0.24 a 1.42,1.42 0 0 1 0.38,-0.26 h 0.1 l 0.4,-0.29 v -0.19 h 0.17 a 1.58,1.58 0 0 0 0.29,-0.41 0.63,0.63 0 0 0 0.16,-0.33 l 0.17,-0.35 a 1.91,1.91 0 0 0 0.19,-0.6 v -0.14 a 2.1,2.1 0 0 0 0.21,-0.64 v -0.21 l 0.07,-0.48 v -1.36 a 0.52,0.52 0 0 0 0.07,-0.24 v -0.83 c 0,-0.06 -0.05,-0.1 -0.08,-0.1 l 0.08,-0.33 v -3.59 l 0.08,-0.38 v -1.81 z m -6.66,3.39 0.1,-0.14 v 0.16 z m 0.19,1.91 -0.08,0.1 V 21.1 c 0.08,0 0.12,0 0.12,0.07 z m 0,-5.8 h -0.1 z M 97,14 Z m 0.68,1.43 h 0.07 z m 0.22,-2.69 h -0.1 v -0.08 c 0.06,0 0.1,0 0.1,0.07 z m 2.47,-0.81 c 0.08,0 0.13,0.05 0.13,0.08 -0.08,0 -0.11,0 -0.11,-0.07 z m -1.79,0.31 v -0.07 a 0.15,0.15 0 0 1 0.14,0.1 h -0.19 z m 0.12,7.55 h -0.08 v -0.07 h 0.08 z m 0,-2.87 z m 0,-1 v -0.07 a 0.36,0.36 0 0 0 0,0.19 z m 1.92,10.91 z m 0.24,-10.19 v 0.19 l 0.08,0.08 -0.08,0.07 v 4.45 l -0.1,0.36 v 0.18 l 0.08,0.08 v 0.64 a 2.83,2.83 0 0 1 -0.08,0.65 v 2.02 l -0.07,0.24 v 0.1 c -0.08,0.33 -0.16,0.5 -0.24,0.5 a 0.88,0.88 0 0 1 -0.78,0.29 h -0.19 a 1.46,1.46 0 0 1 -0.5,-0.46 3.65,3.65 0 0 1 -0.21,-1.05 v -0.57 a 0.6,0.6 0 0 0 0,-0.26 V 20.5 a 2.77,2.77 0 0 0 0,-0.57 v -3.71 a 0.86,0.86 0 0 1 0,-0.31 1.44,1.44 0 0 1 0.27,-0.88 v -0.15 h 0.12 c 0,-0.12 0.21,-0.23 0.62,-0.31 0.41,-0.08 0.46,0.1 0.46,0.14 0,0.04 0.21,0.14 0.21,0.19 a 1.17,1.17 0 0 1 0.27,0.43 v 0.29 a 0.77,0.77 0 0 1 0.07,0.29 v 1.07 z m 0.22,3.49 h 0.1 z m 0,-4.11 v -0.19 z m 0.11,2.56 V 18.5 h 0.08 z m 0.19,-6.19 h -0.07 v -0.07 h 0.07 z m 0.17,2 v -0.1 z m 1.11,-0.62 V 13.7 Z m 0.43,4 V 17.7 h 0.07 z m 0.08,-1.15 v -0.07 z m 7.08,10.53 a 0.38,0.38 0 0 0 -0.24,-0.41 h -2.46 l -0.07,0.08 h -0.08 a 0.82,0.82 0 0 1 -0.46,-0.25 v -3.81 c 0,0 0.05,-0.11 0.07,-0.34 v -0.36 a 0.86,0.86 0 0 0 0,-0.32 v -2.39 a 0.81,0.81 0 0 0 0,-0.32 v -1.74 l 0.07,-0.43 V 15.3 a 0.63,0.63 0 0 0 0,-0.27 l 0.08,-0.92 v -0.68 l 0.08,-0.24 V 12.6 q -0.2,-0.38 -0.44,-0.38 h -1.62 c -0.25,0 -0.38,0.24 -0.38,0.71 l 0.07,0.24 a 0.78,0.78 0 0 1 -0.1,0.33 V 15.11 15 15.17 c 0,0 0,0.11 0.07,0.34 a 7.2,7.2 0 0 0 -0.07,1 v 1.29 a 3.37,3.37 0 0 0 -0.08,0.66 v 4.34 l -0.07,0.41 v 5.35 c 0.08,0.27 0.15,0.41 0.22,0.41 h 1.23 l 0.44,0.08 h 1.02 l 0.22,-0.08 h 2.36 c 0.13,-0.08 0.19,-0.25 0.19,-0.52 v -1.17 z m -5.63,-3.95 h 0.07 z m 0.16,-2.49 v -0.08 z m 0.72,6.25 -0.07,-0.06 0.07,-0.07 v 0.07 z m 0.39,-6.83 v -0.08 z m 0.28,2.42 h -0.07 v -0.07 z m 0.27,-10.31 v -0.07 z m 0,10.34 V 22.5 Z m 1.86,5 h -0.07 v -0.07 h 0.07 z m 0,-0.41 h -0.07 z m 1.26,1.39 c 0,0 -0.06,0.07 -0.14,0.07 l 0.09,-0.09 z m 0.14,-0.39 z m 3.7,0.1 v -0.19 l 0.06,-0.09 v -1.37 l 0.06,-0.24 -0.06,-0.46 a 0.18,0.18 0 0 0 0.06,-0.12 v -0.06 a 0.3,0.3 0 0 0 -0.06,-0.16 v -2.45 a 1,1 0 0 1 0,-0.34 v -2.4 l -0.07,-0.29 v -3.44 c 0,0 -0.05,-0.1 -0.09,-0.27 a 0.88,0.88 0 0 0 0,-0.27 v -0.47 l 0.07,-0.13 c 0,-0.09 0,-0.13 -0.07,-0.13 v -0.46 l 0.07,-0.07 v -0.42 a 0.81,0.81 0 0 1 -0.07,-0.28 v -1.72 c 0,-0.16 -0.13,-0.25 -0.38,-0.25 h -0.85 a 0.2,0.2 0 0 0 -0.11,0 0.7,0.7 0 0 1 -0.23,0 h -0.86 l -0.17,0.14 -0.16,0.12 v 2.19 l 0.07,0.23 v 1.05 l -0.06,0.37 v 1.05 l 0.06,0.35 a 0.83,0.83 0 0 0 0,0.27 v 2.06 a 1.16,1.16 0 0 0 0.06,0.35 v 0.22 a 0.47,0.47 0 0 0 0,0.18 v 2.79 l -0.06,0.16 a 0.14,0.14 0 0 1 0.06,0.1 v 2.45 l 0.08,0.24 -0.08,0.18 v 0.8 a 0.34,0.34 0 0 1 0,0.15 v 0.94 a 0.67,0.67 0 0 0 0.54,0.32 h 0.47 a 1.87,1.87 0 0 0 0.47,0 h 0.51 a 0.28,0.28 0 0 1 0.16,0 h 0.31 q 0.28,0 0.31,-0.33 l -0.08,-0.26 z M 110.9,26 Z m 0.25,-6.74 V 19.2 Z m 0.72,9.48 z m 0,-14.51 v -0.06 z m 1,0.14 h 0.06 z m 0.11,3.25 h -0.06 z m 0.25,4.22 h 0.06 z m 1,-2.33 v 0.07 c 0,0.07 0,0.07 0.1,0.09 0.1,0.02 0.08,0 0.08,0 0,0 0,-0.09 -0.07,-0.1 h -0.07 z m 11.68,-16.76 -0.08,-0.08 -0.08,0.08 0.11,0.15 z m -0.5,-1 V 1.68 h -0.15 l 0.08,0.08 z m 0.8,0.46 h -0.08 l 0.08,0.08 z m -4.3,11.06 v -0.71 c 0,-0.13 0,-0.19 0.1,-0.19 v -0.08 l -0.11,-0.23 v -0.23 h -0.37 v 0.1 l -0.07,-0.07 h -0.12 v -0.08 h -1.17 l -0.49,0.08 v -0.08 h -0.21 l -0.11,-0.14 h -0.26 a 0.81,0.81 0 0 0 -0.31,-0.08 h -0.54 a 0.67,0.67 0 0 0 -0.35,0.19 h -0.88 c -0.14,0 -0.21,0 -0.21,0.1 a 0.59,0.59 0 0 0 -0.27,-0.08 l -0.47,0.08 h -0.28 a 0.33,0.33 0 0 1 -0.32,-0.24 h -0.17 c -0.05,0 -0.1,0.07 -0.14,0.22 v 0.26 l -0.08,0.11 0.08,0.22 v 1.07 c 0,0.27 0.06,0.4 0.1,0.4 a 0.36,0.36 0 0 1 -0.16,0.29 v 0.11 l 0.07,0.08 h 1.61 c 0.22,0 0.33,0.09 0.33,0.28 v 2.55 l -0.1,0.35 v 0.74 h 0.09 -0.09 v 9.73 c 0,0.27 0.14,0.4 0.33,0.4 h 0.1 l 0.49,0.1 h 0.3 l 0.54,0.1 0.26,-0.07 h 0.1 L 119,29 c 0.18,0 0.27,-0.28 0.27,-0.74 v -1.77 a 2.71,2.71 0 0 1 0,-0.56 0.62,0.62 0 0 1 0,-0.27 v -1.95 l -0.1,-1.52 v -1.98 a 0.26,0.26 0 0 1 0.07,-0.16 V 18.3 l -0.08,-0.95 v -2.2 l 0.08,-0.07 v -0.52 l 0.11,-0.11 h 1.58 l 0.47,-0.1 a 0.21,0.21 0 0 0 0.24,-0.24 V 14 a 2.18,2.18 0 0 0 0.28,-0.69 z m -6.82,-1.09 h -0.07 c -0.1,0 -0.14,0 -0.14,-0.07 l 0.14,-0.1 v 0.09 z m 1.13,-0.1 V 12 Z m 14.18,15.36 v -0.27 l -0.07,-0.07 h -0.08 a 1.53,1.53 0 0 0 -0.15,-0.51 v -0.22 c 0,0.18 0.06,0.27 0.1,0.27 h 0.07 l -0.11,-0.6 c 0,-0.16 -0.1,-0.24 -0.2,-0.24 v -0.22 c 0.11,0 0.17,0 0.17,-0.09 l -0.08,-0.08 h -0.08 v -0.18 l -0.11,-1.05 a 2.75,2.75 0 0 1 -0.12,-0.68 l -0.16,-1.13 a 3,3 0 0 0 -0.14,-0.84 c 0,-0.48 -0.1,-0.72 -0.15,-0.72 v -0.69 c 0,-0.18 -0.08,-0.27 -0.12,-0.27 v -0.34 a 7.11,7.11 0 0 0 -0.19,-1.23 v -0.44 l -0.07,-0.27 a 5.48,5.48 0 0 0 -0.24,-1.22 v -0.22 a 2.51,2.51 0 0 1 -0.12,-0.73 2.36,2.36 0 0 0 -0.14,-0.62 v -0.22 l -0.07,-0.24 a 3.62,3.62 0 0 0 -0.29,-0.67 V 13.38 A 0.72,0.72 0 0 0 128,13 v -0.31 l -0.14,-0.17 v -0.29 a 0.69,0.69 0 0 0 -0.49,-0.31 h -0.29 l -0.12,-0.1 h -0.21 c -0.13,0 -0.19,-0.06 -0.19,-0.1 h -0.97 a 0.23,0.23 0 0 0 -0.12,0.1 c -0.09,0 -0.18,0.08 -0.26,0.24 l -0.17,0.73 v 0.5 l -0.11,0.33 v 0.24 l -0.07,0.08 -0.15,0.79 v 0.08 a 1.77,1.77 0 0 0 -0.09,0.5 c -0.08,0.67 -0.16,1.13 -0.22,1.4 v 0.61 l -0.11,0.27 v 0.14 l -0.17,0.51 v 0.5 l -0.09,0.16 v 0.08 l -0.1,0.57 v 0.17 l -0.08,0.19 -0.14,0.94 v 0.22 l -0.09,0.19 v 0.29 l -0.1,0.24 v 0.17 l -0.07,0.55 v 0.16 c 0,0.15 -0.08,0.22 -0.11,0.22 a 6.35,6.35 0 0 1 -0.14,0.86 c 0,0.27 -0.06,0.41 -0.1,0.41 a 8,8 0 0 1 -0.17,1.25 v 0.24 l -0.07,0.36 a 5,5 0 0 1 -0.12,0.82 v 0.19 A 2.7,2.7 0 0 0 123,28 v 0.1 l -0.07,0.39 a 0.8,0.8 0 0 0 0.11,0.43 0.38,0.38 0 0 1 0.36,0.19 0.82,0.82 0 0 0 0.31,-0.08 h 0.09 l 0.24,-0.1 0.1,0.1 h 0.19 l 0.24,-0.1 0.1,0.07 h 0.08 l 0.1,-0.07 c 0.12,0 0.22,-0.15 0.31,-0.46 v -0.19 a 1.83,1.83 0 0 0 0.14,-0.52 v -0.45 l 0.17,-1.4 v -0.1 l 0.12,-0.08 c 0,-0.2 0.12,-0.31 0.36,-0.31 l 0.11,0.11 h 0.34 l 0.19,0.08 0.52,-0.1 0.33,0.07 h 0.19 a 0.36,0.36 0 0 1 0.17,0.27 v 0.36 l 0.06,0.14 0.08,0.57 a 2.94,2.94 0 0 0 0.16,0.92 v 0.47 a 2.6,2.6 0 0 0 0.17,0.67 1.64,1.64 0 0 0 0.62,0.17 h 0.6 c 0.27,0 0.41,-0.09 0.41,-0.14 0.18,0 0.27,0 0.27,-0.1 a 3.48,3.48 0 0 1 0.19,-0.87 0.26,0.26 0 0 0 -0.08,-0.17 z m -2.87,-4.76 c 0,0.2 -0.07,0.31 -0.21,0.31 h -0.14 L 127,23 h -0.76 c -0.18,0 -0.27,-0.15 -0.27,-0.43 0,0 0.08,-0.06 0.1,-0.17 v -0.07 a 3.59,3.59 0 0 0 0.1,-0.77 v -0.12 l 0.17,-1.08 v -0.78 l 0.27,-1.92 v -0.22 a 2,2 0 0 1 0.26,-0.89 v 0.12 l 0.17,1 a 4,4 0 0 0 0.07,1 v 0.38 a 9.89,9.89 0 0 0 0.22,1.18 v 0.14 a 0.7,0.7 0 0 0 0.07,0.29 v 0.24 l 0.07,0.46 v 0.56 l 0.14,0.67 v 0.08 z m 1.29,5.72 z m 0.4,-1.54 h 0.07 z m -7.22,0.59 -0.12,0.1 a 0.16,0.16 0 0 0 0.1,0.16 c 0,0 0.06,-0.06 0.07,-0.19 0.01,-0.13 0,-0.08 0,-0.08 z m 11.74,0.67 v -0.19 l 0.06,-0.09 v -1.37 l 0.06,-0.24 -0.06,-0.46 a 0.17,0.17 0 0 0 0.06,-0.12 v -0.06 a 0.29,0.29 0 0 0 -0.06,-0.16 v -2.45 a 1,1 0 0 1 0,-0.34 v -2.25 l -0.07,-0.29 v -3.44 c 0,0 -0.05,-0.1 -0.09,-0.27 a 0.94,0.94 0 0 0 0,-0.27 v -0.47 l 0.07,-0.13 c 0,-0.09 0,-0.13 -0.07,-0.13 v -0.46 l 0.07,-0.07 v -0.42 a 0.82,0.82 0 0 1 -0.07,-0.28 v -1.72 q 0,-0.25 -0.38,-0.25 h -0.84 a 0.21,0.21 0 0 0 -0.12,0 0.7,0.7 0 0 1 -0.23,0 h -0.86 l -0.17,0.14 -0.16,0.12 v 2.19 l 0.07,0.23 v 1.05 l -0.06,0.37 v 1.05 l 0.06,0.35 a 0.83,0.83 0 0 0 0,0.27 v 2.06 a 1.2,1.2 0 0 0 0.06,0.35 v 0.22 a 0.47,0.47 0 0 0 0,0.18 v 2.79 l -0.06,0.16 a 0.13,0.13 0 0 1 0.06,0.1 v 2.45 l 0.08,0.24 -0.08,0.18 v 0.8 a 0.34,0.34 0 0 1 0,0.15 v 0.94 a 0.68,0.68 0 0 0 0.54,0.32 H 132 a 1.9,1.9 0 0 0 0.48,0 h 0.51 a 0.28,0.28 0 0 1 0.16,0 h 0.27 c 0.19,0 0.29,-0.11 0.3,-0.33 l -0.07,-0.26 z M 131.18,26 Z m 0.25,-6.74 V 19.2 Z m 0.72,9.48 z m 0,-14.51 v -0.06 z m 1,0.14 h 0.06 z m 0.11,3.25 h -0.06 z m 0.25,4.22 h 0.06 z m 1,-2.33 v 0.07 c 0,0.07 0,0.07 0.1,0.09 0.1,0.02 0.08,0 0.08,0 0,0 0,-0.09 -0.07,-0.1 h -0.07 z M 142,16.08 v -0.26 c 0,-0.25 -0.11,-0.37 -0.21,-0.37 v -0.32 l -0.07,-0.47 -0.11,-0.4 -0.16,-0.18 v -0.16 c -0.1,-0.12 -0.18,-0.18 -0.24,-0.18 V 13.6 l -0.09,-0.07 h -0.18 v -0.07 h 0.07 a 0.19,0.19 0 0 0 -0.18,-0.11 v -0.08 c 0,0 -0.08,-0.07 -0.24,-0.09 V 13.1 c 0,-0.05 0,-0.11 -0.14,-0.18 a 2,2 0 0 1 -0.51,-0.35 0.86,0.86 0 0 1 -0.42,-0.14 h -0.32 c 0,-0.07 -0.11,-0.12 -0.32,-0.16 h -0.07 a 0.16,0.16 0 0 0 -0.16,-0.09 h -0.16 a 0.34,0.34 0 0 0 -0.26,-0.1 h -0.17 a 0.23,0.23 0 0 0 -0.18,-0.1 h -0.08 l -0.21,0.07 h -0.26 v 0.1 L 137,12.01 h -0.51 l -0.7,0.1 -0.32,-0.1 -0.07,0.1 c 0.08,0 0.12,0 0.12,0.07 h -0.08 c 0,0 -0.06,0 -0.07,-0.1 a 0.58,0.58 0 0 0 -0.32,0.37 v 0.1 l 0.11,0.31 -0.08,0.1 v 0.23 a 1.2,1.2 0 0 1 -0.1,0.52 v 0.14 l -0.11,0.81 A 1.17,1.17 0 0 0 135,15.3 v 0.09 l -0.09,0.52 0.09,0.33 -0.09,0.58 v 0.21 l -0.08,0.23 v 0.16 a 0.45,0.45 0 0 0 0.08,0.24 l -0.08,0.1 v 0.07 l 0.11,0.73 a 0.3,0.3 0 0 1 -0.07,0.19 0.26,0.26 0 0 0 0.07,0.16 v 0.16 l -0.07,0.59 v 1.01 a 0.46,0.46 0 0 1 -0.09,0.21 0.49,0.49 0 0 0 0.08,0.28 1.47,1.47 0 0 1 -0.08,0.47 v 0.96 l 0.09,0.23 a 1.27,1.27 0 0 0 -0.09,0.38 1,1 0 0 0 0.12,0.49 1.46,1.46 0 0 1 -0.12,0.42 v 0.1 a 1.22,1.22 0 0 1 -0.14,0.52 l 0.1,0.47 v 1.12 a 0.76,0.76 0 0 0 0.13,0.26 1.35,1.35 0 0 1 -0.12,0.45 v 0.18 a 0.43,0.43 0 0 0 -0.12,0.24 v 0.16 a 1.21,1.21 0 0 0 0.14,0.59 l -0.09,0.1 c 0,0.14 0,0.21 0.07,0.21 0,0.2 0.19,0.33 0.58,0.38 l 0.12,-0.08 h 0.12 c 0.21,0 0.32,0 0.32,0.08 h 0.61 a 0.45,0.45 0 0 0 0.21,-0.1 h 0.21 q 0.17,0 0.37,-1.1 v -0.1 l -0.07,-0.19 v -0.1 a 1.07,1.07 0 0 0 -0.13,-0.37 v -0.26 l 0.12,-0.14 v -0.74 l 0.07,-0.45 v -0.11 l -0.09,-0.31 0.09,-0.63 a 0.33,0.33 0 0 1 0,-0.22 v -0.19 a 0.5,0.5 0 0 0 -0.07,-0.24 v -0.68 l -0.11,-0.47 v -0.16 a 0.57,0.57 0 0 1 0.14,-0.37 q 0,-0.11 0.49,-0.19 c 0.1,0 0.19,0.09 0.27,0.26 a 0.62,0.62 0 0 1 0.12,0.37 1.81,1.81 0 0 1 0.23,0.52 v 0.37 c 0.06,0.39 0.12,0.58 0.19,0.58 v 0.23 q 0.12,0.59 0.19,0.59 l 0.14,0.49 v 0.1 a 0.51,0.51 0 0 1 0.12,0.26 v 0.44 l 0.09,0.4 v 0.21 a 0.7,0.7 0 0 0 0.11,0.31 v 0.13 a 1,1 0 0 1 0.16,0.55 v 0.5 l 0.1,0.26 c 0.28,0.15 0.42,0.26 0.42,0.33 l 0.51,0.21 0.4,-0.1 h 0.28 l -0.09,-0.14 h 0.16 v 0.1 c 0,0.06 0,0.1 0.07,0.1 h 0.16 c 0.14,0 0.21,-0.09 0.21,-0.16 0.16,-0.15 0.24,-0.26 0.24,-0.33 v -0.1 a 0.25,0.25 0 0 1 -0.08,-0.16 0.14,0.14 0 0 0 0.14,-0.1 0.46,0.46 0 0 0 -0.14,-0.26 v -0.21 l -0.21,-0.16 v -0.07 c 0.11,0 0.16,0 0.16,-0.08 v -0.14 c -0.06,-0.26 -0.12,-0.39 -0.18,-0.39 a 0.73,0.73 0 0 1 0.07,-0.35 v -0.19 c 0,-0.2 -0.05,-0.3 -0.16,-0.3 v -0.08 c 0.08,0 0.11,0 0.11,-0.07 l -0.13,-0.56 v -0.17 l -0.16,-0.31 -0.16,-0.44 v -0.17 l -0.11,-0.33 v -0.44 l 0.07,-0.1 a 0.42,0.42 0 0 0 -0.16,-0.28 h 0.07 v -0.07 a 0.76,0.76 0 0 1 -0.14,-0.31 v -0.37 l 0.08,-0.09 v -0.07 a 1.71,1.71 0 0 0 -0.18,-0.75 c 0,-0.2 -0.05,-0.31 -0.1,-0.34 l 0.19,-0.29 v -0.14 c 0.25,-0.12 0.37,-0.2 0.37,-0.25 0,-0.05 -0.06,-0.12 -0.09,-0.12 L 141,20 l 0.12,0.07 c 0.09,0 0.23,-0.25 0.42,-0.75 l 0.16,-0.33 v -0.14 a 1.83,1.83 0 0 0 0.26,-0.73 v -0.96 h -0.07 v -0.35 h 0.07 a 0.31,0.31 0 0 1 -0.11,-0.16 0.39,0.39 0 0 0 0.16,-0.26 z m -6.87,7.12 z m 0.3,-9.38 V 13.74 Z M 137,12.25 Z m 1.74,10.75 -0.07,-0.08 0.07,-0.08 z m 0.8,-6.42 -0.08,0.47 v 0.29 l -0.14,0.42 v 0.43 l -0.12,0.17 c -0.06,0.39 -0.13,0.58 -0.23,0.58 l -0.26,0.23 q 0,0.16 -0.84,0.29 a 0.78,0.78 0 0 0 -0.33,-0.14 c -0.12,-0.14 -0.21,-0.21 -0.26,-0.21 v -0.14 c 0,-0.06 -0.07,-0.11 -0.18,-0.16 a 0.15,0.15 0 0 1 0.12,-0.14 c 0.08,0 0.12,-0.18 0.14,-0.53 v -0.66 l -0.07,-0.07 0.07,-0.26 v -0.96 a 0.52,0.52 0 0 1 0.15,-0.32 v -0.39 l -0.08,-0.07 0.08,-0.1 V 14.6 a 0.35,0.35 0 0 1 0.34,-0.16 h 0.3 a 3.69,3.69 0 0 0 0.8,0.28 1.33,1.33 0 0 0 0.34,0.47 1.85,1.85 0 0 1 0.16,0.68 0.22,0.22 0 0 1 0.14,0.19 h -0.07 v 0.45 z m 0.29,-4.07 h 0.07 z m 0.22,1 v 0.08 z m 0,15.19 h 0.07 z m 1.46,-0.84 c 0.08,0 0.13,0 0.14,0.08 0.01,0.08 0,0 -0.12,0.07 -0.12,0.07 -0.11,-0.06 -0.11,-0.1 z m -0.16,-1.5 h 0.08 v 0.09 -0.11 z m -0.63,-2.76 v 0.12 -0.16 z m 7.71,3.14 h -1.28 l -0.39,0.06 h -1.19 l -0.07,0.07 c 0,-0.08 0,-0.11 -0.1,-0.11 v -4.9 q 0,-0.1 -0.07,-0.1 c 0,-0.15 0.05,-0.23 0.1,-0.23 h 1.8 a 0.71,0.71 0 0 0 0.33,-0.2 v -1.54 q 0,-0.3 -0.73,-0.5 a 1,1 0 0 0 -0.54,-0.18 l -0.16,0.08 h -0.07 V 18.9 h -0.9 v -2.83 l -0.07,-0.56 v -1.25 l 0.65,0.1 h 0.47 l 0.36,-0.06 0.33,0.06 h 0.79 l 0.11,-0.06 h 0.13 l 0.16,0.09 a 0.37,0.37 0 0 0 0.34,-0.16 v -0.24 l -0.06,-0.15 a 1,1 0 0 1 0.1,-0.36 v -0.73 c 0,0 -0.05,-0.06 -0.07,-0.18 V 12 c -0.05,-0.12 -0.12,-0.18 -0.22,-0.18 h -0.77 l -0.5,0.06 h -0.33 l -0.22,0.06 h -0.26 l -0.58,-0.08 a 1,1 0 0 1 -0.42,0.06 h -0.62 l -0.21,-0.06 h -0.35 l -0.3,0.09 h -0.12 l -0.09,0.06 -0.2,-0.1 h -0.18 c -0.16,0.1 -0.24,0.18 -0.24,0.26 v 1.44 l 0.06,0.21 -0.06,0.26 0.08,0.21 -0.06,0.13 -0.06,0.07 v 5.95 l 0.1,0.33 a 2,2 0 0 0 -0.1,0.69 v 4.6 c 0,0.11 0,0.16 0.08,0.16 l -0.08,0.12 v 1.23 l 0.06,0.09 h -0.06 v 0.91 c 0,0.16 0.12,0.24 0.37,0.24 l 0.08,-0.08 h 0.19 a 1.4,1.4 0 0 0 0.44,0.1 v -0.09 l 0.13,0.06 h 0.29 l 0.35,-0.08 0.09,0.06 h 0.13 l 0.13,0.06 h 0.87 c 0.12,0 0.18,0 0.18,-0.09 a 0.42,0.42 0 0 0 0.24,0.1 l 0.36,-0.06 0.31,0.06 0.09,-0.06 0.1,0.06 h 1.16 c 0.06,0 0.1,0 0.13,-0.13 v -0.1 l 0.07,-0.15 v -0.4 l 0.06,-0.08 V 26.9 a 0.51,0.51 0 0 0 -0.27,-0.13 z M 146.6,12.09 h 0.09 z m -3.7,4.88 h 0.1 v 0.11 h -0.07 z m 0,9 -0.06,0.06 V 25.94 H 143 Z m 0.08,-7.42 h -0.13 v -0.07 h 0.13 z m 1,-6.17 h -0.09 v -0.06 z m 0.11,-0.21 z m 1,3.49 H 145 v -0.11 h 0.09 z m 2.63,12.8 h -0.07 v -0.1 z m 8.93,-3.61 v -0.1 l -0.06,-0.1 -0.07,-0.33 -0.21,-0.7 -0.39,-0.94 a 14.36,14.36 0 0 0 -1,-1.72 0.73,0.73 0 0 1 -0.22,-0.36 13.24,13.24 0 0 1 -1,-1.56 2.05,2.05 0 0 1 -0.48,-0.73 3.63,3.63 0 0 1 -0.48,-0.68 0.94,0.94 0 0 0 -0.27,-0.42 c -0.06,-0.29 -0.12,-0.44 -0.16,-0.44 a 1.52,1.52 0 0 0 -0.19,-0.57 c 0,-0.19 0,-0.29 -0.09,-0.29 v -0.08 l -0.06,-0.12 a 1.45,1.45 0 0 1 0.33,-1.06 c 0,-0.15 0.27,-0.28 0.83,-0.37 h 0.09 a 0.87,0.87 0 0 1 0.73,0.5 q 0.16,0 0.26,1.3 l -0.06,0.15 c 0,0 0.06,0.12 0.06,0.27 0,0.15 0.1,0.36 0.29,0.36 h 0.51 l 0.21,-0.06 h 0.2 l 1,-0.1 h 0.09 a 0.41,0.41 0 0 0 0.13,-0.26 v -0.8 l -0.1,-0.52 v -0.15 q 0,-0.21 -0.06,-0.21 a 2.17,2.17 0 0 0 -0.45,-1.14 0.94,0.94 0 0 0 -0.51,-0.34 0.47,0.47 0 0 0 -0.17,-0.26 l 0.12,-0.13 a 2.38,2.38 0 0 0 -0.88,-0.53 4.4,4.4 0 0 0 -0.77,-0.2 h -0.68 a 3.62,3.62 0 0 0 -1.1,0.18 1.33,1.33 0 0 0 -0.6,0.25 q -1.13,0.86 -1.13,1.18 L 150.15,14 a 3.59,3.59 0 0 1 -0.3,0.73 v 0.08 l -0.08,0.24 v 0.08 a 0.87,0.87 0 0 0 -0.11,0.33 v 1.07 l 0.11,0.31 a 2.52,2.52 0 0 0 0.35,1.09 2.07,2.07 0 0 0 0.28,0.68 c 0.09,0.08 0.13,0.14 0.13,0.18 l 0.39,0.78 c 0.19,0.22 0.28,0.36 0.28,0.44 a 8.21,8.21 0 0 1 1,1.57 l 0.18,0.2 q 0.73,1 1.26,1.87 a 1.1,1.1 0 0 0 0.24,0.41 c 0,0.2 0.07,0.3 0.13,0.3 v 0.1 l 0.27,0.93 c 0,0.46 -0.08,0.69 -0.13,0.69 a 1.77,1.77 0 0 1 -0.15,0.59 1.32,1.32 0 0 1 -1,0.57 1.23,1.23 0 0 1 -0.61,-0.23 1.94,1.94 0 0 1 -0.5,-1 V 25.9 l -0.12,-0.44 v -1.03 c 0,-0.21 -0.14,-0.31 -0.3,-0.31 h -0.58 c -0.09,0 -0.14,0 -0.16,0.08 h -0.49 l -0.3,0.08 c -0.31,0 -0.47,0.16 -0.47,0.33 v 1.58 a 3.62,3.62 0 0 0 0.36,1.48 3.05,3.05 0 0 0 0.8,1 c 0.16,0.06 0.25,0.13 0.27,0.21 0.02,0.08 0.1,0 0.1,0.06 a 4.48,4.48 0 0 0 1.16,0.41 h 0.1 l 0.81,0.08 c 0,0 0.12,-0.07 0.36,-0.1 l 0.16,0.06 a 3.4,3.4 0 0 0 0.73,-0.26 1.34,1.34 0 0 0 0.62,-0.34 c 0.56,-0.33 0.85,-0.62 0.85,-0.86 0.26,-0.24 0.39,-0.42 0.39,-0.54 v -0.08 c 0,-0.05 0,-0.09 0.1,-0.12 l 0.31,-0.86 v -0.1 a 1.22,1.22 0 0 0 0.08,-0.45 v -0.59 z m -0.28,-9.08 -0.06,0.06 v -0.06 z m -0.34,-1.87 h 0.07 V 14 h -0.07 z m -1.17,-1.33 0.06,0.06 h -0.08 v -0.08 z m -3.53,1.15 v -0.06 h 0.06 z m 4.07,10.11 -0.06,-0.06 h 0.06 z"
           transform="translate(-3.25)"
           id="path6739" />
      </g>
    </g>
  </g>
</svg>
