<?xml version="1.0" encoding="UTF-8" standalone="no"?>
<svg
   width="400"
   height="140"
   viewBox="0 0 400 140"
   fill="none"
   version="1.1"
   id="svg13586"
   sodipodi:docname="zoosk.svg"
   inkscape:version="1.2.2 (b0a84865, 2022-12-01)"
   xmlns:inkscape="http://www.inkscape.org/namespaces/inkscape"
   xmlns:sodipodi="http://sodipodi.sourceforge.net/DTD/sodipodi-0.dtd"
   xmlns="http://www.w3.org/2000/svg"
   xmlns:svg="http://www.w3.org/2000/svg">
  <defs
     id="defs13590" />
  <sodipodi:namedview
     id="namedview13588"
     pagecolor="#ffffff"
     bordercolor="#666666"
     borderopacity="1.0"
     inkscape:pageshadow="2"
     inkscape:pageopacity="0.0"
     inkscape:pagecheckerboard="0"
     showgrid="false"
     inkscape:zoom="1"
     inkscape:cx="171"
     inkscape:cy="14"
     inkscape:window-width="1310"
     inkscape:window-height="1024"
     inkscape:window-x="0"
     inkscape:window-y="25"
     inkscape:window-maximized="0"
     inkscape:current-layer="svg13586"
     inkscape:showpageshadow="2"
     inkscape:deskcolor="#d1d1d1" />
  <path
     d="m 145.42002,63.679101 h -19.6911 V 52.512869 h 41.33265 l -22.57038,33.859317 h 21.36286 v 11.166356 h -42.91163 z"
     fill="#3b4869"
     id="path13572"
     style="stroke-width:3.08276" />
  <path
     d="m 193.62784,98.52903 c -3.34387,0 -6.50184,-0.600212 -9.47394,-1.800945 -2.97208,-1.200732 -5.57299,-2.851548 -7.80214,-4.952754 -2.22913,-2.161321 -3.99401,-4.652803 -5.29432,-7.474449 -1.23834,-2.881451 -1.85766,-5.973146 -1.85766,-9.275085 0,-3.301939 0.61932,-6.363731 1.85766,-9.185377 1.30031,-2.881451 3.06519,-5.372995 5.29432,-7.474201 2.22915,-2.101207 4.83006,-3.752146 7.80214,-4.952847 2.9721,-1.260725 6.13007,-1.891086 9.47394,-1.891086 3.34387,0 6.50184,0.630361 9.47392,1.891086 2.9724,1.200701 5.57301,2.85164 7.80214,4.952847 2.22914,2.101206 3.96288,4.59275 5.20155,7.474201 1.30028,2.821646 1.95045,5.883438 1.95045,9.185377 0,3.301939 -0.65017,6.393634 -1.95045,9.275085 -1.23867,2.821646 -2.97241,5.313128 -5.20155,7.474449 -2.22913,2.101206 -4.82974,3.752022 -7.80214,4.952754 -2.97208,1.200733 -6.13005,1.800945 -9.47392,1.800945 z m 0,-11.526422 c 1.67177,0 3.18912,-0.300259 4.55138,-0.900471 1.42391,-0.600521 2.63143,-1.410977 3.62223,-2.43137 1.05276,-1.080814 1.85768,-2.341353 2.41503,-3.782232 0.61901,-1.500994 0.92884,-3.121905 0.92884,-4.862738 0,-1.74114 -0.30983,-3.331841 -0.92884,-4.772722 -0.55735,-1.500992 -1.36227,-2.761532 -2.41503,-3.782232 -0.9908,-1.080506 -2.19832,-1.921173 -3.62223,-2.521385 -1.36226,-0.600521 -2.87961,-0.900474 -4.55138,-0.900474 -1.67177,0 -3.21995,0.299953 -4.64418,0.900474 -1.42423,0.600212 -2.66257,1.440879 -3.71501,2.521385 -0.9908,1.0207 -1.79602,2.28124 -2.41503,3.782232 -0.55738,1.440881 -0.83605,3.031582 -0.83605,4.772722 0,1.740833 0.27867,3.361744 0.83605,4.862738 0.61901,1.440879 1.42423,2.701418 2.41503,3.782232 1.05244,1.020393 2.29078,1.830849 3.71501,2.43137 1.42423,0.600212 2.97241,0.900471 4.64418,0.900471 z"
     fill="#3b4869"
     id="path13574"
     style="stroke-width:3.08276" />
  <path
     d="m 246.73754,98.52903 c -3.34385,0 -6.50184,-0.600212 -9.47392,-1.800945 -2.9724,-1.200732 -5.573,-2.851548 -7.80214,-4.952754 -2.22915,-2.161321 -3.99402,-4.652803 -5.29432,-7.474449 -1.23835,-2.881451 -1.85768,-5.973146 -1.85768,-9.275085 0,-3.301939 0.61933,-6.363731 1.85768,-9.185377 1.3003,-2.881451 3.06517,-5.372995 5.29432,-7.474201 2.22914,-2.101207 4.82974,-3.752146 7.80214,-4.952847 2.97208,-1.260725 6.13007,-1.891086 9.47392,-1.891086 3.34357,0 6.50153,0.630361 9.47393,1.891086 2.97208,1.200701 5.573,2.85164 7.80214,4.952847 2.22913,2.101206 3.96289,4.59275 5.20123,7.474201 1.30031,2.821646 1.95045,5.883438 1.95045,9.185377 0,3.301939 -0.65014,6.393634 -1.95045,9.275085 -1.23834,2.821646 -2.9721,5.313128 -5.20123,7.474449 -2.22914,2.101206 -4.83006,3.752022 -7.80214,4.952754 -2.9724,1.200733 -6.13036,1.800945 -9.47393,1.800945 z m 0,-11.526422 c 1.67177,0 3.18881,-0.300259 4.55108,-0.900471 1.42423,-0.600521 2.63175,-1.410977 3.62255,-2.43137 1.05244,-1.080814 1.85765,-2.341353 2.41471,-3.782232 0.61933,-1.500994 0.92884,-3.121905 0.92884,-4.862738 0,-1.74114 -0.30951,-3.331841 -0.92884,-4.772722 -0.55706,-1.500992 -1.36227,-2.761532 -2.41471,-3.782232 -0.9908,-1.080506 -2.19832,-1.921173 -3.62255,-2.521385 -1.36227,-0.600521 -2.87931,-0.900474 -4.55108,-0.900474 -1.67208,0 -3.21993,0.299953 -4.64416,0.900474 -1.42425,0.600212 -2.66258,1.440879 -3.71534,2.521385 -0.9908,1.0207 -1.79571,2.28124 -2.41503,3.782232 -0.55707,1.440881 -0.83574,3.031582 -0.83574,4.772722 0,1.740833 0.27867,3.361744 0.83574,4.862738 0.61932,1.440879 1.42423,2.701418 2.41503,3.782232 1.05276,1.020393 2.29109,1.830849 3.71534,2.43137 1.42423,0.600212 2.97208,0.900471 4.64416,0.900471 z"
     fill="#3b4869"
     id="path13576"
     style="stroke-width:3.08276" />
  <path
     d="m 294.18114,98.52903 c -3.21994,0 -6.34678,-0.330163 -9.38112,-0.990488 -2.9721,-0.600212 -5.63468,-1.500686 -7.98773,-2.701419 V 82.86031 c 2.6006,1.560799 5.26317,2.791436 7.98773,3.691909 2.7865,0.900472 5.66609,1.350863 8.63819,1.350863 5.20121,0 7.80214,-1.200733 7.80214,-3.6022 0,-1.020391 -0.46458,-1.800945 -1.39342,-2.341043 -0.92882,-0.600521 -2.41471,-1.080816 -4.45827,-1.440881 l -4.73697,-0.810455 c -9.59784,-1.561109 -14.39677,-6.333829 -14.39677,-14.318166 0,-2.0414 0.43343,-3.902459 1.30031,-5.583301 0.92884,-1.740986 2.19832,-3.21183 3.80843,-4.412533 1.67177,-1.200671 3.65307,-2.1312 5.94418,-2.791587 2.35305,-0.72041 4.92285,-1.08063 7.70935,-1.08063 3.34387,0 6.19201,0.300199 8.54508,0.900534 2.41503,0.540315 4.52025,1.230699 6.31595,2.07118 v 11.526452 c -1.7957,-1.140618 -3.99401,-2.131109 -6.59463,-2.971468 -2.60061,-0.840667 -5.17039,-1.260845 -7.70905,-1.260845 -4.76809,0 -7.15198,1.110716 -7.15198,3.331841 0,1.020699 0.43343,1.801253 1.30031,2.341353 0.86686,0.480293 2.29109,0.900472 4.27269,1.260846 l 4.27239,0.720439 c 5.51105,0.840361 9.47392,2.43137 11.88895,4.772723 2.41505,2.281238 3.62256,5.523064 3.62256,9.725475 0,4.382446 -1.67209,7.924532 -5.01564,10.625948 -3.34387,2.641614 -8.20476,3.962266 -14.58268,3.962266 z"
     fill="#3b4869"
     id="path13578"
     style="stroke-width:3.08276" />
  <path
     d="m 333.70699,76.826742 v 20.7118 H 320.98138 V 30 h 12.72561 v 39.082244 l 15.04693,-16.569375 h 15.32439 L 345.68659,72.774461 368.351,97.538542 h -15.6974 z"
     fill="#3b4869"
     id="path13580"
     style="stroke-width:3.08276" />
  <path
     d="m 67.8132,43.64298 c 7.94241,-7.19512 20.219483,-6.961909 27.881054,0.6996 7.661266,7.66151 7.894626,19.938274 0.699477,27.880992 l 0.01785,0.01766 -34.440233,34.440228 -5.200916,-5.20091 c -12.931849,-12.931542 -12.931849,-33.898285 0,-46.829888 L 67.029531,44.391407 c 0.01635,-0.01635 0.03237,-0.03252 0.04872,-0.04874 0.01597,-0.01635 0.03237,-0.03239 0.04872,-0.04855 l 0.66865,-0.66865 z"
     fill="#e95454"
     id="path13582"
     style="stroke-width:3.08276" />
  <path
     d="m 29.856839,74.875668 c -0.682831,-0.528386 -1.33958,-1.107019 -1.96538,-1.735901 -7.855519,-7.892161 -7.855519,-20.687661 0,-28.57979 7.855539,-7.892101 20.591849,-7.892101 28.447419,0 1.619371,1.626799 3.601274,3.37947 5.350121,5.136331 14.723855,18.031683 7.862259,35.265517 0,57.159862 z"
     fill="#ff6868"
     id="path13584"
     style="stroke-width:3.08276" />
</svg>
