<?xml version="1.0" encoding="UTF-8" standalone="no"?>
<svg
   width="200"
   height="100"
   viewBox="0 0 200 100"
   fill="none"
   version="1.1"
   id="svg13586"
   sodipodi:docname="zoosk.svg"
   inkscape:version="1.1 (c4e8f9e, 2021-05-24)"
   xmlns:inkscape="http://www.inkscape.org/namespaces/inkscape"
   xmlns:sodipodi="http://sodipodi.sourceforge.net/DTD/sodipodi-0.dtd"
   xmlns="http://www.w3.org/2000/svg"
   xmlns:svg="http://www.w3.org/2000/svg">
  <defs
     id="defs13590" />
  <sodipodi:namedview
     id="namedview13588"
     pagecolor="#ffffff"
     bordercolor="#666666"
     borderopacity="1.0"
     inkscape:pageshadow="2"
     inkscape:pageopacity="0.0"
     inkscape:pagecheckerboard="0"
     showgrid="false"
     inkscape:zoom="1"
     inkscape:cx="56.5"
     inkscape:cy="13"
     inkscape:window-width="1310"
     inkscape:window-height="1024"
     inkscape:window-x="0"
     inkscape:window-y="25"
     inkscape:window-maximized="0"
     inkscape:current-layer="svg13586" />
  <path
     d="M 75.692275,43.926262 H 65.21136 V 37.982849 H 87.21135 L 75.197888,56.005034 H 86.56863 v 5.943479 H 63.728198 Z"
     fill="#3b4869"
     id="path13572"
     style="stroke-width:1.64085" />
  <path
     d="m 101.35169,62.475717 c -1.77983,0 -3.46071,-0.319473 -5.04266,-0.958583 -1.58194,-0.63911 -2.96632,-1.517784 -4.15282,-2.636186 -1.18649,-1.150399 -2.12588,-2.476532 -2.81799,-3.9784 -0.65913,-1.5337 -0.98877,-3.179306 -0.98877,-4.936818 0,-1.757512 0.32964,-3.387202 0.98877,-4.88907 0.69211,-1.5337 1.6315,-2.859866 2.81799,-3.978268 1.1865,-1.118402 2.57088,-1.997142 4.15282,-2.636235 1.58195,-0.671042 3.26283,-1.006562 5.04266,-1.006562 1.77983,0 3.46071,0.33552 5.04265,1.006562 1.58211,0.639093 2.96633,1.517833 4.15282,2.636235 1.1865,1.118402 2.10931,2.444568 2.76861,3.978268 0.6921,1.501868 1.03816,3.131558 1.03816,4.88907 0,1.757512 -0.34606,3.403118 -1.03816,4.936818 -0.6593,1.501868 -1.58211,2.828001 -2.76861,3.9784 -1.18649,1.118402 -2.57071,1.997076 -4.15282,2.636186 -1.58194,0.63911 -3.26282,0.958583 -5.04265,0.958583 z m 0,-6.13513 c 0.88983,0 1.69746,-0.159818 2.42255,-0.479291 0.7579,-0.319637 1.40062,-0.751016 1.92799,-1.294137 0.56035,-0.575281 0.98878,-1.246224 1.28544,-2.013156 0.32948,-0.798929 0.49439,-1.661686 0.49439,-2.588273 0,-0.926751 -0.16491,-1.773428 -0.49439,-2.540361 -0.29666,-0.798928 -0.72509,-1.469871 -1.28544,-2.013156 -0.52737,-0.575117 -1.17009,-1.022576 -1.92799,-1.342049 -0.72509,-0.319637 -1.53272,-0.479292 -2.42255,-0.479292 -0.88983,0 -1.71387,0.159655 -2.47194,0.479292 -0.75807,0.319473 -1.4172,0.766932 -1.97738,1.342049 -0.52737,0.543285 -0.95596,1.214228 -1.28544,2.013156 -0.29667,0.766933 -0.445,1.61361 -0.445,2.540361 0,0.926587 0.14833,1.789344 0.445,2.588273 0.32948,0.766932 0.75807,1.437875 1.28544,2.013156 0.56018,0.543121 1.21931,0.9745 1.97738,1.294137 0.75807,0.319473 1.58211,0.479291 2.47194,0.479291 z"
     fill="#3b4869"
     id="path13574"
     style="stroke-width:1.64085" />
  <path
     d="m 129.62021,62.475717 c -1.77982,0 -3.46071,-0.319473 -5.04265,-0.958583 -1.58211,-0.63911 -2.96632,-1.517784 -4.15282,-2.636186 -1.1865,-1.150399 -2.12588,-2.476532 -2.81799,-3.9784 -0.65913,-1.5337 -0.98878,-3.179306 -0.98878,-4.936818 0,-1.757512 0.32965,-3.387202 0.98878,-4.88907 0.69211,-1.5337 1.63149,-2.859866 2.81799,-3.978268 1.1865,-1.118402 2.57071,-1.997142 4.15282,-2.636235 1.58194,-0.671042 3.26283,-1.006562 5.04265,-1.006562 1.77967,0 3.46055,0.33552 5.04266,1.006562 1.58194,0.639093 2.96632,1.517833 4.15282,2.636235 1.18649,1.118402 2.10931,2.444568 2.76844,3.978268 0.69211,1.501868 1.03816,3.131558 1.03816,4.88907 0,1.757512 -0.34605,3.403118 -1.03816,4.936818 -0.65913,1.501868 -1.58195,2.828001 -2.76844,3.9784 -1.1865,1.118402 -2.57088,1.997076 -4.15282,2.636186 -1.58211,0.63911 -3.26299,0.958583 -5.04266,0.958583 z m 0,-6.13513 c 0.88983,0 1.6973,-0.159818 2.42239,-0.479291 0.75807,-0.319637 1.40079,-0.751016 1.92816,-1.294137 0.56018,-0.575281 0.98877,-1.246224 1.28527,-2.013156 0.32965,-0.798929 0.49439,-1.661686 0.49439,-2.588273 0,-0.926751 -0.16474,-1.773428 -0.49439,-2.540361 -0.2965,-0.798928 -0.72509,-1.469871 -1.28527,-2.013156 -0.52737,-0.575117 -1.17009,-1.022576 -1.92816,-1.342049 -0.72509,-0.319637 -1.53256,-0.479292 -2.42239,-0.479292 -0.88999,0 -1.71386,0.159655 -2.47193,0.479292 -0.75808,0.319473 -1.4172,0.766932 -1.97755,1.342049 -0.52737,0.543285 -0.9558,1.214228 -1.28544,2.013156 -0.29651,0.766933 -0.44484,1.61361 -0.44484,2.540361 0,0.926587 0.14833,1.789344 0.44484,2.588273 0.32964,0.766932 0.75807,1.437875 1.28544,2.013156 0.56035,0.543121 1.21947,0.9745 1.97755,1.294137 0.75807,0.319473 1.58194,0.479291 2.47193,0.479291 z"
     fill="#3b4869"
     id="path13576"
     style="stroke-width:1.64085" />
  <path
     d="m 154.87286,62.475717 c -1.71387,0 -3.37818,-0.175735 -4.99326,-0.527204 -1.58195,-0.319473 -2.99915,-0.798765 -4.2516,-1.437875 V 54.13578 c 1.38421,0.830761 2.80141,1.485788 4.2516,1.96508 1.48316,0.479291 3.01587,0.719019 4.59782,0.719019 2.76843,0 4.15282,-0.63911 4.15282,-1.917331 0,-0.54312 -0.24728,-0.958583 -0.74167,-1.246059 -0.49438,-0.319637 -1.28527,-0.575282 -2.37299,-0.766933 l -2.52133,-0.431378 c -5.10861,-0.830926 -7.66292,-3.371286 -7.66292,-7.621082 0,-1.086569 0.2307,-2.077149 0.69211,-2.971805 0.49439,-0.926669 1.17009,-1.70955 2.0271,-2.348644 0.88983,-0.639077 1.94441,-1.134367 3.16389,-1.485869 1.25245,-0.38345 2.62027,-0.575183 4.10343,-0.575183 1.77983,0 3.2958,0.159786 4.54826,0.479324 1.28544,0.287592 2.40598,0.65506 3.36177,1.10242 v 6.135146 c -0.95579,-0.607113 -2.12588,-1.134318 -3.5101,-1.581613 -1.38422,-0.447459 -2.75203,-0.671106 -4.10327,-0.671106 -2.5379,0 -3.80676,0.591197 -3.80676,1.773428 0,0.543284 0.2307,0.958747 0.69211,1.246224 0.4614,0.255644 1.21947,0.479291 2.27421,0.671106 l 2.27405,0.383466 c 2.93335,0.447296 5.04265,1.294137 6.32809,2.540361 1.28545,1.214227 1.92817,2.939743 1.92817,5.176546 0,2.33263 -0.89,4.217964 -2.66966,5.655838 -1.77983,1.406043 -4.36712,2.108982 -7.76187,2.108982 z"
     fill="#3b4869"
     id="path13578"
     style="stroke-width:1.64085" />
  <path
     d="m 175.91115,50.924313 v 11.0242 h -6.77342 V 26 h 6.77342 v 20.802175 l 8.00898,-8.819326 h 8.15666 l -9.7893,10.78457 12.06351,13.181094 h -8.3552 z"
     fill="#3b4869"
     id="path13580"
     style="stroke-width:1.64085" />
  <path
     d="m 34.384754,33.261703 c 4.22748,-3.829722 10.762156,-3.705592 14.840155,0.372374 4.077835,4.077966 4.202047,10.612478 0.372308,14.840122 l 0.0095,0.0094 -18.331387,18.331387 -2.768274,-2.768274 c -6.883192,-6.883028 -6.883192,-18.042926 0,-24.925987 l 5.460577,-5.460659 c 0.0087,-0.0087 0.01723,-0.01731 0.02593,-0.02594 0.0085,-0.0087 0.01723,-0.01724 0.02593,-0.02584 l 0.3559,-0.3559 z"
     fill="#e95454"
     id="path13582"
     style="stroke-width:1.64085" />
  <path
     d="m 14.181849,49.885821 c -0.363448,-0.281242 -0.713014,-0.589229 -1.046106,-0.923962 -4.181231,-4.200734 -4.181231,-11.011352 0,-15.212069 4.181241,-4.200702 10.960354,-4.200702 15.141612,0 0.861937,0.865891 1.916838,1.798779 2.847691,2.733898 7.837017,9.597663 4.184818,18.770658 0,30.424287 z"
     fill="#ff6868"
     id="path13584"
     style="stroke-width:1.64085" />
</svg>
